G04 (created by PCBNEW (2013-mar-13)-testing) date Sun 16 Jun 2013 12:52:20 AM NZST*
%MOIN*%
G04 Gerber Fmt 3.4, Leading zero omitted, Abs format*
%FSLAX34Y34*%
G01*
G70*
G90*
G04 APERTURE LIST*
%ADD10C,0.005906*%
%ADD11C,0.011811*%
G04 APERTURE END LIST*
G54D10*
G54D11*
X34322Y-25697D02*
X34800Y-25697D01*
X34856Y-25669D01*
X34884Y-25641D01*
X34912Y-25584D01*
X34912Y-25500D01*
X34884Y-25444D01*
X34687Y-25697D02*
X34715Y-25641D01*
X34715Y-25528D01*
X34687Y-25472D01*
X34659Y-25444D01*
X34603Y-25416D01*
X34434Y-25416D01*
X34378Y-25444D01*
X34350Y-25472D01*
X34322Y-25528D01*
X34322Y-25641D01*
X34350Y-25697D01*
X34715Y-25978D02*
X34125Y-25978D01*
X34547Y-26175D01*
X34125Y-26372D01*
X34715Y-26372D01*
X34687Y-26878D02*
X34715Y-26822D01*
X34715Y-26709D01*
X34687Y-26653D01*
X34631Y-26625D01*
X34406Y-26625D01*
X34350Y-26653D01*
X34322Y-26709D01*
X34322Y-26822D01*
X34350Y-26878D01*
X34406Y-26906D01*
X34462Y-26906D01*
X34519Y-26625D01*
X34322Y-27075D02*
X34322Y-27300D01*
X34125Y-27159D02*
X34631Y-27159D01*
X34687Y-27187D01*
X34715Y-27244D01*
X34715Y-27300D01*
X34687Y-27722D02*
X34715Y-27665D01*
X34715Y-27553D01*
X34687Y-27497D01*
X34631Y-27469D01*
X34406Y-27469D01*
X34350Y-27497D01*
X34322Y-27553D01*
X34322Y-27665D01*
X34350Y-27722D01*
X34406Y-27750D01*
X34462Y-27750D01*
X34519Y-27469D01*
X34715Y-28003D02*
X34322Y-28003D01*
X34434Y-28003D02*
X34378Y-28031D01*
X34350Y-28059D01*
X34322Y-28115D01*
X34322Y-28172D01*
X34491Y-28368D02*
X34491Y-28818D01*
X34715Y-29100D02*
X34125Y-29100D01*
X34547Y-29296D01*
X34125Y-29493D01*
X34715Y-29493D01*
X34715Y-30056D02*
X34715Y-29775D01*
X34125Y-29775D01*
X34406Y-30449D02*
X34406Y-30253D01*
X34715Y-30253D02*
X34125Y-30253D01*
X34125Y-30534D01*
X34322Y-31152D02*
X34715Y-31293D01*
X34322Y-31434D01*
X34715Y-31968D02*
X34715Y-31631D01*
X34715Y-31799D02*
X34125Y-31799D01*
X34209Y-31743D01*
X34266Y-31687D01*
X34294Y-31631D01*
X34659Y-32221D02*
X34687Y-32249D01*
X34715Y-32221D01*
X34687Y-32193D01*
X34659Y-32221D01*
X34715Y-32221D01*
X34125Y-32615D02*
X34125Y-32671D01*
X34153Y-32727D01*
X34181Y-32755D01*
X34237Y-32784D01*
X34350Y-32812D01*
X34491Y-32812D01*
X34603Y-32784D01*
X34659Y-32755D01*
X34687Y-32727D01*
X34715Y-32671D01*
X34715Y-32615D01*
X34687Y-32559D01*
X34659Y-32530D01*
X34603Y-32502D01*
X34491Y-32474D01*
X34350Y-32474D01*
X34237Y-32502D01*
X34181Y-32530D01*
X34153Y-32559D01*
X34125Y-32615D01*
M02*
