G04 (created by PCBNEW (2013-mar-13)-testing) date Wed 12 Jun 2013 06:43:17 PM NZST*
%MOIN*%
G04 Gerber Fmt 3.4, Leading zero omitted, Abs format*
%FSLAX34Y34*%
G01*
G70*
G90*
G04 APERTURE LIST*
%ADD10C,0.005906*%
%ADD11O,0.009843X0.027559*%
%ADD12O,0.027559X0.009843*%
%ADD13R,0.125984X0.125984*%
%ADD14R,0.074800X0.066900*%
%ADD15C,0.066900*%
%ADD16R,0.031500X0.025000*%
%ADD17R,0.025000X0.031500*%
%ADD18R,0.062900X0.070900*%
%ADD19C,0.035400*%
%ADD20R,0.078700X0.098400*%
%ADD21R,0.019700X0.090600*%
%ADD22R,0.118100X0.118100*%
%ADD23C,0.118100*%
%ADD24R,0.025000X0.045000*%
%ADD25R,0.045000X0.025000*%
%ADD26R,0.094488X0.074803*%
%ADD27R,0.036000X0.036000*%
%ADD28R,0.050000X0.100000*%
%ADD29R,0.023600X0.039400*%
%ADD30C,0.035000*%
%ADD31C,0.019685*%
%ADD32C,0.009843*%
%ADD33C,0.010000*%
%ADD34C,0.039370*%
G04 APERTURE END LIST*
G54D10*
G54D11*
X30807Y-39035D03*
G54D12*
X30570Y-39271D03*
X30570Y-39468D03*
X30570Y-39665D03*
X30570Y-39862D03*
X30570Y-40059D03*
X30570Y-40255D03*
X30570Y-40452D03*
X30570Y-40649D03*
G54D11*
X30807Y-40885D03*
X31003Y-40885D03*
X31200Y-40885D03*
X31397Y-40885D03*
X31594Y-40885D03*
X31791Y-40885D03*
X31988Y-40885D03*
X32185Y-40885D03*
G54D12*
X32421Y-40649D03*
X32421Y-40649D03*
X32421Y-40452D03*
X32421Y-40255D03*
X32421Y-40059D03*
X32421Y-39862D03*
X32421Y-39665D03*
X32421Y-39468D03*
X32421Y-39271D03*
G54D11*
X32185Y-39035D03*
X31988Y-39035D03*
X31791Y-39035D03*
X31594Y-39035D03*
X31397Y-39035D03*
X31200Y-39035D03*
X31003Y-39035D03*
X30807Y-39035D03*
G54D13*
X31496Y-39960D03*
G54D14*
X34751Y-40960D03*
G54D15*
X33751Y-40960D03*
X34751Y-39960D03*
X33751Y-39960D03*
X34751Y-38960D03*
X33751Y-38960D03*
G54D16*
X29645Y-39138D03*
X29645Y-38538D03*
G54D17*
X29237Y-41535D03*
X28637Y-41535D03*
X29237Y-37992D03*
X28637Y-37992D03*
G54D18*
X32055Y-25590D03*
X30937Y-25590D03*
X32055Y-27165D03*
X30937Y-27165D03*
X32055Y-28740D03*
X30937Y-28740D03*
X32055Y-30314D03*
X30937Y-30314D03*
X32055Y-31889D03*
X30937Y-31889D03*
X32055Y-33464D03*
X30937Y-33464D03*
X32055Y-35039D03*
X30937Y-35039D03*
X32055Y-36614D03*
X30937Y-36614D03*
G54D19*
X32362Y-47047D03*
X30630Y-47047D03*
G54D20*
X33228Y-48228D03*
X29744Y-48228D03*
X33248Y-46063D03*
X29744Y-46063D03*
G54D21*
X31496Y-46063D03*
X31181Y-46063D03*
X30866Y-46063D03*
X31811Y-46063D03*
X32126Y-46063D03*
G54D22*
X32992Y-21653D03*
G54D23*
X30000Y-21653D03*
G54D24*
X32386Y-43307D03*
X31786Y-43307D03*
X30605Y-43307D03*
X31205Y-43307D03*
X29630Y-44488D03*
X29030Y-44488D03*
X31786Y-42519D03*
X32386Y-42519D03*
X31205Y-42519D03*
X30605Y-42519D03*
X34444Y-41909D03*
X35044Y-41909D03*
G54D25*
X29015Y-35999D03*
X29015Y-36599D03*
X33070Y-25290D03*
X33070Y-25890D03*
X33070Y-26865D03*
X33070Y-27465D03*
X33070Y-28440D03*
X33070Y-29040D03*
X33070Y-30014D03*
X33070Y-30614D03*
X33070Y-31589D03*
X33070Y-32189D03*
X33070Y-33164D03*
X33070Y-33764D03*
X33070Y-34739D03*
X33070Y-35339D03*
X33070Y-36314D03*
X33070Y-36914D03*
G54D26*
X28543Y-40570D03*
X28543Y-38956D03*
G54D27*
X29523Y-34376D03*
X28823Y-34376D03*
X29173Y-33576D03*
G54D28*
X30896Y-44488D03*
X32096Y-44488D03*
G54D29*
X29921Y-42480D03*
X29921Y-43346D03*
X29330Y-42480D03*
X29330Y-43346D03*
X33070Y-42480D03*
X33070Y-43346D03*
X33661Y-42480D03*
X33661Y-43346D03*
G54D30*
X33700Y-44921D03*
X29488Y-40118D03*
X33759Y-41909D03*
X32874Y-40078D03*
X29763Y-41535D03*
X30118Y-44488D03*
X31220Y-41574D03*
X29015Y-37047D03*
X30866Y-38425D03*
X31771Y-41929D03*
X30393Y-38385D03*
X30118Y-41889D03*
X30472Y-37755D03*
X30826Y-41377D03*
X31496Y-34212D03*
X31496Y-37933D03*
X32007Y-37637D03*
X31496Y-32637D03*
X32244Y-37992D03*
X31496Y-31082D03*
X32598Y-37637D03*
X31496Y-29527D03*
X34606Y-42519D03*
X32559Y-41377D03*
X34114Y-37283D03*
X33070Y-37381D03*
X29803Y-39803D03*
X28100Y-41446D03*
X28100Y-38080D03*
X29911Y-37214D03*
X28759Y-39763D03*
X33720Y-38090D03*
X32874Y-44488D03*
X31614Y-41299D03*
G54D31*
X34114Y-41909D02*
X34114Y-44507D01*
X34114Y-44507D02*
X33700Y-44921D01*
G54D32*
X30511Y-40255D02*
X30373Y-40255D01*
X29645Y-40275D02*
X29488Y-40118D01*
X30353Y-40275D02*
X29645Y-40275D01*
X30373Y-40255D02*
X30353Y-40275D01*
X29488Y-40118D02*
X29488Y-39685D01*
G54D33*
X29488Y-39685D02*
X29685Y-39488D01*
X29645Y-39138D02*
X29645Y-39448D01*
X29645Y-39448D02*
X29685Y-39488D01*
X29508Y-40097D02*
X29488Y-40118D01*
G54D34*
X30118Y-44488D02*
X29630Y-44488D01*
G54D31*
X34444Y-41909D02*
X34114Y-41909D01*
X34114Y-41909D02*
X33759Y-41909D01*
G54D33*
X32480Y-40452D02*
X32657Y-40452D01*
X33751Y-41901D02*
X33751Y-40960D01*
X33759Y-41909D02*
X33751Y-41901D01*
X32874Y-40236D02*
X32874Y-40078D01*
X32657Y-40452D02*
X32874Y-40236D01*
X29763Y-41535D02*
X29803Y-41574D01*
X30511Y-39862D02*
X30295Y-39862D01*
X30295Y-39862D02*
X29921Y-39488D01*
X29921Y-39488D02*
X29685Y-39488D01*
G54D31*
X30866Y-46063D02*
X30866Y-44508D01*
G54D33*
X30866Y-44508D02*
X30846Y-44488D01*
G54D34*
X30846Y-44488D02*
X30118Y-44488D01*
G54D33*
X31200Y-40944D02*
X31200Y-41555D01*
X31200Y-41555D02*
X31220Y-41574D01*
X29015Y-37047D02*
X29015Y-36599D01*
X30807Y-38976D02*
X30807Y-38484D01*
X30807Y-38484D02*
X30866Y-38425D01*
X31786Y-41944D02*
X31786Y-42519D01*
X31771Y-41929D02*
X31786Y-41944D01*
X30511Y-39271D02*
X30511Y-38503D01*
X30511Y-38503D02*
X30393Y-38385D01*
X30118Y-41889D02*
X30118Y-41929D01*
X30118Y-41929D02*
X30314Y-42125D01*
X30314Y-42125D02*
X31141Y-42125D01*
X31141Y-42125D02*
X31205Y-42189D01*
X31205Y-42189D02*
X31205Y-42519D01*
X31181Y-42495D02*
X31205Y-42519D01*
X30511Y-39271D02*
X30511Y-39173D01*
X30472Y-37755D02*
X30492Y-37736D01*
X30492Y-37736D02*
X30492Y-37618D01*
X30492Y-37618D02*
X30728Y-37381D01*
X30728Y-37381D02*
X31318Y-37381D01*
X31318Y-37381D02*
X31614Y-37086D01*
X31614Y-37086D02*
X32898Y-37086D01*
X33070Y-36914D02*
X32898Y-37086D01*
X30807Y-40944D02*
X30807Y-41358D01*
X30807Y-41358D02*
X30826Y-41377D01*
X31633Y-35846D02*
X32736Y-35846D01*
X33070Y-35511D02*
X33070Y-35339D01*
X32736Y-35846D02*
X33070Y-35511D01*
X30078Y-38188D02*
X30078Y-37657D01*
X30452Y-39468D02*
X30157Y-39173D01*
X30157Y-39173D02*
X30157Y-38661D01*
X30157Y-38661D02*
X30078Y-38582D01*
X30078Y-38582D02*
X30078Y-38188D01*
X30511Y-39468D02*
X30452Y-39468D01*
X31535Y-35944D02*
X31633Y-35846D01*
X31633Y-35846D02*
X31653Y-35826D01*
X31535Y-36850D02*
X31535Y-35944D01*
X31220Y-37165D02*
X31535Y-36850D01*
X30570Y-37165D02*
X31220Y-37165D01*
X30078Y-37657D02*
X30570Y-37165D01*
X31594Y-38976D02*
X31594Y-38031D01*
X31496Y-34212D02*
X32755Y-34212D01*
X32755Y-34212D02*
X33070Y-33897D01*
X33070Y-33897D02*
X33070Y-33764D01*
X31594Y-38031D02*
X31496Y-37933D01*
X31791Y-37854D02*
X32007Y-37637D01*
X31791Y-38976D02*
X31791Y-37854D01*
X33070Y-32362D02*
X33070Y-32189D01*
X32755Y-32677D02*
X33070Y-32362D01*
X31535Y-32677D02*
X32755Y-32677D01*
X31496Y-32637D02*
X31535Y-32677D01*
X31988Y-38248D02*
X32244Y-37992D01*
X31988Y-38976D02*
X31988Y-38248D01*
X33070Y-30767D02*
X33070Y-30614D01*
X32755Y-31082D02*
X33070Y-30767D01*
X31496Y-31082D02*
X32755Y-31082D01*
X32185Y-38562D02*
X32598Y-38149D01*
X32598Y-38149D02*
X32598Y-37637D01*
X32185Y-38976D02*
X32185Y-38562D01*
X33070Y-29212D02*
X33070Y-29040D01*
X32716Y-29566D02*
X33070Y-29212D01*
X31535Y-29566D02*
X32716Y-29566D01*
X31496Y-29527D02*
X31535Y-29566D01*
X32480Y-39271D02*
X32480Y-38523D01*
X33562Y-27957D02*
X33070Y-27465D01*
X33562Y-37440D02*
X33562Y-27957D01*
X32480Y-38523D02*
X33562Y-37440D01*
X32480Y-39468D02*
X32637Y-39468D01*
X33779Y-26599D02*
X33070Y-25890D01*
X33779Y-37519D02*
X33779Y-26599D01*
X32736Y-38562D02*
X33779Y-37519D01*
X32736Y-39370D02*
X32736Y-38562D01*
X32637Y-39468D02*
X32736Y-39370D01*
G54D32*
X34751Y-40960D02*
X34751Y-42374D01*
X34751Y-42374D02*
X34606Y-42519D01*
G54D33*
X32185Y-40944D02*
X32185Y-41003D01*
X34606Y-42519D02*
X34594Y-42507D01*
X32185Y-41003D02*
X32559Y-41377D01*
X31988Y-40944D02*
X31988Y-41358D01*
X33307Y-40405D02*
X33751Y-39960D01*
X33307Y-41771D02*
X33307Y-40405D01*
X33169Y-41909D02*
X33307Y-41771D01*
X32539Y-41909D02*
X33169Y-41909D01*
X31988Y-41358D02*
X32539Y-41909D01*
X34751Y-37921D02*
X34751Y-38960D01*
X34114Y-37283D02*
X34751Y-37921D01*
X31397Y-38976D02*
X31397Y-38326D01*
X32972Y-37283D02*
X33070Y-37381D01*
X31692Y-37283D02*
X32972Y-37283D01*
X31141Y-37834D02*
X31692Y-37283D01*
X31141Y-38070D02*
X31141Y-37834D01*
X31397Y-38326D02*
X31141Y-38070D01*
X35044Y-41909D02*
X35044Y-41806D01*
X35044Y-41806D02*
X35295Y-41555D01*
X35295Y-41555D02*
X35295Y-39503D01*
X35295Y-39503D02*
X34751Y-38960D01*
X32480Y-40649D02*
X32736Y-40649D01*
X34240Y-39448D02*
X34751Y-39960D01*
X33484Y-39448D02*
X34240Y-39448D01*
X33228Y-39704D02*
X33484Y-39448D01*
X33228Y-40157D02*
X33228Y-39704D01*
X32736Y-40649D02*
X33228Y-40157D01*
G54D31*
X30196Y-40059D02*
X30059Y-40059D01*
X30059Y-40059D02*
X29803Y-39803D01*
G54D32*
X30196Y-40059D02*
X30511Y-40059D01*
X30511Y-40059D02*
X31397Y-40059D01*
X31397Y-40059D02*
X31496Y-39960D01*
G54D33*
X31496Y-39960D02*
X31397Y-40059D01*
G54D32*
X29074Y-45354D02*
X29074Y-45275D01*
G54D33*
X29055Y-45354D02*
X29074Y-45354D01*
G54D32*
X29311Y-43366D02*
X29330Y-43346D01*
G54D31*
X29311Y-45039D02*
X29311Y-44901D01*
G54D32*
X29311Y-44901D02*
X29311Y-44035D01*
G54D31*
X29311Y-44035D02*
X29311Y-43366D01*
X29074Y-45275D02*
X29311Y-45039D01*
G54D33*
X27795Y-39763D02*
X27795Y-39803D01*
G54D31*
X28759Y-39763D02*
X27795Y-39763D01*
X32760Y-39739D02*
X32760Y-39700D01*
X33500Y-38960D02*
X33751Y-38960D01*
X32760Y-39700D02*
X33500Y-38960D01*
X29645Y-38538D02*
X29645Y-37480D01*
X30511Y-36614D02*
X30937Y-36614D01*
X29645Y-37480D02*
X29911Y-37214D01*
X29911Y-37214D02*
X30511Y-36614D01*
G54D33*
X30511Y-39665D02*
X30393Y-39665D01*
X29798Y-38538D02*
X29645Y-38538D01*
X29960Y-38700D02*
X29798Y-38538D01*
X29960Y-39232D02*
X29960Y-38700D01*
X30393Y-39665D02*
X29960Y-39232D01*
X30511Y-39665D02*
X31200Y-39665D01*
X31200Y-39665D02*
X31496Y-39960D01*
X32480Y-39862D02*
X31594Y-39862D01*
X31594Y-39862D02*
X31496Y-39960D01*
G54D31*
X29523Y-34376D02*
X30274Y-34376D01*
X30274Y-34376D02*
X30937Y-35039D01*
G54D33*
X33720Y-38090D02*
X33751Y-38122D01*
G54D31*
X33751Y-38122D02*
X33751Y-38960D01*
G54D33*
X32480Y-39862D02*
X32637Y-39862D01*
X32637Y-39862D02*
X32760Y-39739D01*
X32760Y-39739D02*
X32760Y-39759D01*
X33751Y-39161D02*
X33751Y-38960D01*
X31594Y-40944D02*
X31594Y-41279D01*
X31614Y-41299D02*
X31594Y-41279D01*
G54D31*
X30937Y-30314D02*
X30937Y-28740D01*
X30937Y-28740D02*
X30937Y-27165D01*
X30937Y-27165D02*
X30937Y-25590D01*
X30937Y-36614D02*
X30937Y-35039D01*
X30937Y-35039D02*
X30937Y-33464D01*
X30937Y-33464D02*
X30937Y-31889D01*
X30937Y-31889D02*
X30937Y-30314D01*
X28637Y-41535D02*
X28188Y-41535D01*
X28188Y-37992D02*
X28637Y-37992D01*
X27795Y-38385D02*
X28100Y-38080D01*
X28100Y-38080D02*
X28188Y-37992D01*
X27795Y-41141D02*
X27795Y-39803D01*
X27795Y-39803D02*
X27795Y-38385D01*
X28188Y-41535D02*
X28100Y-41446D01*
X28100Y-41446D02*
X27795Y-41141D01*
X29055Y-45354D02*
X28622Y-44921D01*
G54D33*
X28622Y-41550D02*
X28637Y-41535D01*
G54D31*
X28622Y-44921D02*
X28622Y-41550D01*
X32126Y-46063D02*
X32126Y-46692D01*
X29055Y-46929D02*
X29055Y-45354D01*
X29566Y-47440D02*
X29055Y-46929D01*
X31377Y-47440D02*
X29566Y-47440D01*
X32126Y-46692D02*
X31377Y-47440D01*
X29330Y-43346D02*
X29921Y-43346D01*
X32146Y-44488D02*
X32874Y-44488D01*
X33070Y-44291D02*
X33070Y-43346D01*
X32874Y-44488D02*
X33070Y-44291D01*
X33070Y-43346D02*
X33661Y-43346D01*
X32126Y-46063D02*
X32126Y-44508D01*
G54D33*
X32126Y-44508D02*
X32146Y-44488D01*
X31496Y-46063D02*
X31496Y-45275D01*
X31633Y-43459D02*
X31786Y-43307D01*
X31633Y-45137D02*
X31633Y-43459D01*
X31496Y-45275D02*
X31633Y-45137D01*
X33070Y-25290D02*
X32355Y-25290D01*
X32355Y-25290D02*
X32055Y-25590D01*
X33070Y-28440D02*
X32355Y-28440D01*
X32355Y-28440D02*
X32055Y-28740D01*
X33070Y-31589D02*
X32355Y-31589D01*
X32355Y-31589D02*
X32055Y-31889D01*
X29015Y-35999D02*
X29015Y-34568D01*
X29015Y-34568D02*
X28823Y-34376D01*
G54D31*
X29173Y-33576D02*
X29173Y-22480D01*
X29173Y-22480D02*
X30000Y-21653D01*
G54D33*
X32386Y-42519D02*
X33031Y-42519D01*
X33031Y-42519D02*
X33070Y-42480D01*
X33070Y-42480D02*
X33661Y-42480D01*
X32386Y-43307D02*
X32386Y-42519D01*
X32386Y-42519D02*
X32425Y-42480D01*
X31181Y-46063D02*
X31181Y-45196D01*
X31358Y-43459D02*
X31205Y-43307D01*
X31358Y-45019D02*
X31358Y-43459D01*
X31181Y-45196D02*
X31358Y-45019D01*
X29330Y-42480D02*
X29921Y-42480D01*
X29921Y-42480D02*
X29960Y-42519D01*
X29960Y-42519D02*
X30605Y-42519D01*
X30605Y-42519D02*
X30605Y-43307D01*
X29030Y-44488D02*
X29030Y-42583D01*
X29133Y-42480D02*
X29330Y-42480D01*
X29030Y-42583D02*
X29133Y-42480D01*
X30511Y-40452D02*
X29311Y-40452D01*
X29074Y-38956D02*
X28543Y-38956D01*
X29173Y-39055D02*
X29074Y-38956D01*
X29173Y-40314D02*
X29173Y-39055D01*
X29311Y-40452D02*
X29173Y-40314D01*
X29237Y-37992D02*
X29237Y-38262D01*
X29237Y-38262D02*
X28543Y-38956D01*
X33070Y-34739D02*
X32355Y-34739D01*
X32355Y-34739D02*
X32055Y-35039D01*
X33070Y-36314D02*
X32355Y-36314D01*
X32355Y-36314D02*
X32055Y-36614D01*
X33070Y-26865D02*
X32355Y-26865D01*
X32355Y-26865D02*
X32055Y-27165D01*
X33070Y-30014D02*
X32355Y-30014D01*
X32355Y-30014D02*
X32055Y-30314D01*
X33070Y-33164D02*
X32355Y-33164D01*
X32355Y-33164D02*
X32055Y-33464D01*
X30511Y-40649D02*
X28622Y-40649D01*
X28622Y-40649D02*
X28543Y-40570D01*
X29237Y-41535D02*
X29237Y-41264D01*
X29237Y-41264D02*
X28543Y-40570D01*
M02*
