G04 (created by PCBNEW (2013-mar-13)-testing) date Tue 11 Jun 2013 07:31:46 PM NZST*
%MOIN*%
G04 Gerber Fmt 3.4, Leading zero omitted, Abs format*
%FSLAX34Y34*%
G01*
G70*
G90*
G04 APERTURE LIST*
%ADD10C,0.005906*%
%ADD11C,0.008000*%
%ADD12C,0.005000*%
%ADD13C,0.002600*%
%ADD14C,0.004000*%
%ADD15C,0.007874*%
%ADD16C,0.015000*%
%ADD17C,0.003900*%
%ADD18C,0.004300*%
%ADD19C,0.003500*%
%ADD20C,0.003937*%
%ADD21C,0.012000*%
%ADD22C,0.004500*%
%ADD23C,0.007500*%
G04 APERTURE END LIST*
G54D10*
G54D11*
X35251Y-38460D02*
X35251Y-41460D01*
X33251Y-41460D02*
X33251Y-38460D01*
X33251Y-38460D02*
X35251Y-38460D01*
X35251Y-41460D02*
X33251Y-41460D01*
G54D12*
X29881Y-39350D02*
X29881Y-38346D01*
X29409Y-38326D02*
X29409Y-39350D01*
X29409Y-39350D02*
X29881Y-39350D01*
X29413Y-38337D02*
X29873Y-38337D01*
X32566Y-43848D02*
X32566Y-44088D01*
X32686Y-43968D02*
X32436Y-43968D01*
X30496Y-44038D02*
X30496Y-44938D01*
X30496Y-44938D02*
X31146Y-44938D01*
X31846Y-44038D02*
X32496Y-44038D01*
X32496Y-44038D02*
X32496Y-44938D01*
X32496Y-44938D02*
X31846Y-44938D01*
X31146Y-44038D02*
X30496Y-44038D01*
X29449Y-41299D02*
X28445Y-41299D01*
X28425Y-41771D02*
X29449Y-41771D01*
X29449Y-41771D02*
X29449Y-41299D01*
X28436Y-41767D02*
X28436Y-41307D01*
X29449Y-37756D02*
X28445Y-37756D01*
X28425Y-38228D02*
X29449Y-38228D01*
X29449Y-38228D02*
X29449Y-37756D01*
X28436Y-38224D02*
X28436Y-37764D01*
G54D13*
X31535Y-25551D02*
X31457Y-25551D01*
X31457Y-25551D02*
X31457Y-25629D01*
X31535Y-25629D02*
X31457Y-25629D01*
X31535Y-25551D02*
X31535Y-25629D01*
X31319Y-25315D02*
X31182Y-25315D01*
X31182Y-25315D02*
X31182Y-25413D01*
X31319Y-25413D02*
X31182Y-25413D01*
X31319Y-25315D02*
X31319Y-25413D01*
X31182Y-25315D02*
X31142Y-25315D01*
X31142Y-25315D02*
X31142Y-25786D01*
X31182Y-25786D02*
X31142Y-25786D01*
X31182Y-25315D02*
X31182Y-25786D01*
X31182Y-25806D02*
X31142Y-25806D01*
X31142Y-25806D02*
X31142Y-25865D01*
X31182Y-25865D02*
X31142Y-25865D01*
X31182Y-25806D02*
X31182Y-25865D01*
X31850Y-25315D02*
X31810Y-25315D01*
X31810Y-25315D02*
X31810Y-25786D01*
X31850Y-25786D02*
X31810Y-25786D01*
X31850Y-25315D02*
X31850Y-25786D01*
X31850Y-25806D02*
X31810Y-25806D01*
X31810Y-25806D02*
X31810Y-25865D01*
X31850Y-25865D02*
X31810Y-25865D01*
X31850Y-25806D02*
X31850Y-25865D01*
X31319Y-25315D02*
X31260Y-25315D01*
X31260Y-25315D02*
X31260Y-25413D01*
X31319Y-25413D02*
X31260Y-25413D01*
X31319Y-25315D02*
X31319Y-25413D01*
G54D14*
X30886Y-25295D02*
X32106Y-25295D01*
X32106Y-25295D02*
X32106Y-25885D01*
X32106Y-25885D02*
X30886Y-25885D01*
X30886Y-25885D02*
X30886Y-25295D01*
X31711Y-25393D02*
G75*
G03X31280Y-25394I-215J-196D01*
G74*
G01*
X31711Y-25786D02*
G75*
G03X31712Y-25394I-215J196D01*
G74*
G01*
X31280Y-25787D02*
G75*
G03X31712Y-25786I215J196D01*
G74*
G01*
X31280Y-25394D02*
G75*
G03X31280Y-25786I215J-196D01*
G74*
G01*
G54D13*
X31535Y-27126D02*
X31457Y-27126D01*
X31457Y-27126D02*
X31457Y-27204D01*
X31535Y-27204D02*
X31457Y-27204D01*
X31535Y-27126D02*
X31535Y-27204D01*
X31319Y-26890D02*
X31182Y-26890D01*
X31182Y-26890D02*
X31182Y-26988D01*
X31319Y-26988D02*
X31182Y-26988D01*
X31319Y-26890D02*
X31319Y-26988D01*
X31182Y-26890D02*
X31142Y-26890D01*
X31142Y-26890D02*
X31142Y-27361D01*
X31182Y-27361D02*
X31142Y-27361D01*
X31182Y-26890D02*
X31182Y-27361D01*
X31182Y-27381D02*
X31142Y-27381D01*
X31142Y-27381D02*
X31142Y-27440D01*
X31182Y-27440D02*
X31142Y-27440D01*
X31182Y-27381D02*
X31182Y-27440D01*
X31850Y-26890D02*
X31810Y-26890D01*
X31810Y-26890D02*
X31810Y-27361D01*
X31850Y-27361D02*
X31810Y-27361D01*
X31850Y-26890D02*
X31850Y-27361D01*
X31850Y-27381D02*
X31810Y-27381D01*
X31810Y-27381D02*
X31810Y-27440D01*
X31850Y-27440D02*
X31810Y-27440D01*
X31850Y-27381D02*
X31850Y-27440D01*
X31319Y-26890D02*
X31260Y-26890D01*
X31260Y-26890D02*
X31260Y-26988D01*
X31319Y-26988D02*
X31260Y-26988D01*
X31319Y-26890D02*
X31319Y-26988D01*
G54D14*
X30886Y-26870D02*
X32106Y-26870D01*
X32106Y-26870D02*
X32106Y-27460D01*
X32106Y-27460D02*
X30886Y-27460D01*
X30886Y-27460D02*
X30886Y-26870D01*
X31711Y-26968D02*
G75*
G03X31280Y-26969I-215J-196D01*
G74*
G01*
X31711Y-27361D02*
G75*
G03X31712Y-26969I-215J196D01*
G74*
G01*
X31280Y-27361D02*
G75*
G03X31712Y-27361I215J196D01*
G74*
G01*
X31280Y-26969D02*
G75*
G03X31280Y-27361I215J-196D01*
G74*
G01*
G54D13*
X31535Y-28701D02*
X31457Y-28701D01*
X31457Y-28701D02*
X31457Y-28779D01*
X31535Y-28779D02*
X31457Y-28779D01*
X31535Y-28701D02*
X31535Y-28779D01*
X31319Y-28465D02*
X31182Y-28465D01*
X31182Y-28465D02*
X31182Y-28563D01*
X31319Y-28563D02*
X31182Y-28563D01*
X31319Y-28465D02*
X31319Y-28563D01*
X31182Y-28465D02*
X31142Y-28465D01*
X31142Y-28465D02*
X31142Y-28936D01*
X31182Y-28936D02*
X31142Y-28936D01*
X31182Y-28465D02*
X31182Y-28936D01*
X31182Y-28956D02*
X31142Y-28956D01*
X31142Y-28956D02*
X31142Y-29015D01*
X31182Y-29015D02*
X31142Y-29015D01*
X31182Y-28956D02*
X31182Y-29015D01*
X31850Y-28465D02*
X31810Y-28465D01*
X31810Y-28465D02*
X31810Y-28936D01*
X31850Y-28936D02*
X31810Y-28936D01*
X31850Y-28465D02*
X31850Y-28936D01*
X31850Y-28956D02*
X31810Y-28956D01*
X31810Y-28956D02*
X31810Y-29015D01*
X31850Y-29015D02*
X31810Y-29015D01*
X31850Y-28956D02*
X31850Y-29015D01*
X31319Y-28465D02*
X31260Y-28465D01*
X31260Y-28465D02*
X31260Y-28563D01*
X31319Y-28563D02*
X31260Y-28563D01*
X31319Y-28465D02*
X31319Y-28563D01*
G54D14*
X30886Y-28445D02*
X32106Y-28445D01*
X32106Y-28445D02*
X32106Y-29035D01*
X32106Y-29035D02*
X30886Y-29035D01*
X30886Y-29035D02*
X30886Y-28445D01*
X31711Y-28543D02*
G75*
G03X31280Y-28544I-215J-196D01*
G74*
G01*
X31711Y-28936D02*
G75*
G03X31712Y-28544I-215J196D01*
G74*
G01*
X31280Y-28936D02*
G75*
G03X31712Y-28936I215J196D01*
G74*
G01*
X31280Y-28543D02*
G75*
G03X31280Y-28936I215J-196D01*
G74*
G01*
G54D13*
X31535Y-30275D02*
X31457Y-30275D01*
X31457Y-30275D02*
X31457Y-30353D01*
X31535Y-30353D02*
X31457Y-30353D01*
X31535Y-30275D02*
X31535Y-30353D01*
X31319Y-30039D02*
X31182Y-30039D01*
X31182Y-30039D02*
X31182Y-30137D01*
X31319Y-30137D02*
X31182Y-30137D01*
X31319Y-30039D02*
X31319Y-30137D01*
X31182Y-30039D02*
X31142Y-30039D01*
X31142Y-30039D02*
X31142Y-30510D01*
X31182Y-30510D02*
X31142Y-30510D01*
X31182Y-30039D02*
X31182Y-30510D01*
X31182Y-30530D02*
X31142Y-30530D01*
X31142Y-30530D02*
X31142Y-30589D01*
X31182Y-30589D02*
X31142Y-30589D01*
X31182Y-30530D02*
X31182Y-30589D01*
X31850Y-30039D02*
X31810Y-30039D01*
X31810Y-30039D02*
X31810Y-30510D01*
X31850Y-30510D02*
X31810Y-30510D01*
X31850Y-30039D02*
X31850Y-30510D01*
X31850Y-30530D02*
X31810Y-30530D01*
X31810Y-30530D02*
X31810Y-30589D01*
X31850Y-30589D02*
X31810Y-30589D01*
X31850Y-30530D02*
X31850Y-30589D01*
X31319Y-30039D02*
X31260Y-30039D01*
X31260Y-30039D02*
X31260Y-30137D01*
X31319Y-30137D02*
X31260Y-30137D01*
X31319Y-30039D02*
X31319Y-30137D01*
G54D14*
X30886Y-30019D02*
X32106Y-30019D01*
X32106Y-30019D02*
X32106Y-30609D01*
X32106Y-30609D02*
X30886Y-30609D01*
X30886Y-30609D02*
X30886Y-30019D01*
X31711Y-30118D02*
G75*
G03X31280Y-30118I-215J-196D01*
G74*
G01*
X31711Y-30511D02*
G75*
G03X31712Y-30118I-215J196D01*
G74*
G01*
X31280Y-30511D02*
G75*
G03X31712Y-30510I215J196D01*
G74*
G01*
X31280Y-30118D02*
G75*
G03X31280Y-30510I215J-196D01*
G74*
G01*
G54D13*
X31535Y-31850D02*
X31457Y-31850D01*
X31457Y-31850D02*
X31457Y-31928D01*
X31535Y-31928D02*
X31457Y-31928D01*
X31535Y-31850D02*
X31535Y-31928D01*
X31319Y-31614D02*
X31182Y-31614D01*
X31182Y-31614D02*
X31182Y-31712D01*
X31319Y-31712D02*
X31182Y-31712D01*
X31319Y-31614D02*
X31319Y-31712D01*
X31182Y-31614D02*
X31142Y-31614D01*
X31142Y-31614D02*
X31142Y-32085D01*
X31182Y-32085D02*
X31142Y-32085D01*
X31182Y-31614D02*
X31182Y-32085D01*
X31182Y-32105D02*
X31142Y-32105D01*
X31142Y-32105D02*
X31142Y-32164D01*
X31182Y-32164D02*
X31142Y-32164D01*
X31182Y-32105D02*
X31182Y-32164D01*
X31850Y-31614D02*
X31810Y-31614D01*
X31810Y-31614D02*
X31810Y-32085D01*
X31850Y-32085D02*
X31810Y-32085D01*
X31850Y-31614D02*
X31850Y-32085D01*
X31850Y-32105D02*
X31810Y-32105D01*
X31810Y-32105D02*
X31810Y-32164D01*
X31850Y-32164D02*
X31810Y-32164D01*
X31850Y-32105D02*
X31850Y-32164D01*
X31319Y-31614D02*
X31260Y-31614D01*
X31260Y-31614D02*
X31260Y-31712D01*
X31319Y-31712D02*
X31260Y-31712D01*
X31319Y-31614D02*
X31319Y-31712D01*
G54D14*
X30886Y-31594D02*
X32106Y-31594D01*
X32106Y-31594D02*
X32106Y-32184D01*
X32106Y-32184D02*
X30886Y-32184D01*
X30886Y-32184D02*
X30886Y-31594D01*
X31711Y-31693D02*
G75*
G03X31280Y-31693I-215J-196D01*
G74*
G01*
X31711Y-32085D02*
G75*
G03X31712Y-31693I-215J196D01*
G74*
G01*
X31280Y-32086D02*
G75*
G03X31712Y-32085I215J196D01*
G74*
G01*
X31280Y-31693D02*
G75*
G03X31280Y-32085I215J-196D01*
G74*
G01*
G54D13*
X31535Y-33425D02*
X31457Y-33425D01*
X31457Y-33425D02*
X31457Y-33503D01*
X31535Y-33503D02*
X31457Y-33503D01*
X31535Y-33425D02*
X31535Y-33503D01*
X31319Y-33189D02*
X31182Y-33189D01*
X31182Y-33189D02*
X31182Y-33287D01*
X31319Y-33287D02*
X31182Y-33287D01*
X31319Y-33189D02*
X31319Y-33287D01*
X31182Y-33189D02*
X31142Y-33189D01*
X31142Y-33189D02*
X31142Y-33660D01*
X31182Y-33660D02*
X31142Y-33660D01*
X31182Y-33189D02*
X31182Y-33660D01*
X31182Y-33680D02*
X31142Y-33680D01*
X31142Y-33680D02*
X31142Y-33739D01*
X31182Y-33739D02*
X31142Y-33739D01*
X31182Y-33680D02*
X31182Y-33739D01*
X31850Y-33189D02*
X31810Y-33189D01*
X31810Y-33189D02*
X31810Y-33660D01*
X31850Y-33660D02*
X31810Y-33660D01*
X31850Y-33189D02*
X31850Y-33660D01*
X31850Y-33680D02*
X31810Y-33680D01*
X31810Y-33680D02*
X31810Y-33739D01*
X31850Y-33739D02*
X31810Y-33739D01*
X31850Y-33680D02*
X31850Y-33739D01*
X31319Y-33189D02*
X31260Y-33189D01*
X31260Y-33189D02*
X31260Y-33287D01*
X31319Y-33287D02*
X31260Y-33287D01*
X31319Y-33189D02*
X31319Y-33287D01*
G54D14*
X30886Y-33169D02*
X32106Y-33169D01*
X32106Y-33169D02*
X32106Y-33759D01*
X32106Y-33759D02*
X30886Y-33759D01*
X30886Y-33759D02*
X30886Y-33169D01*
X31711Y-33267D02*
G75*
G03X31280Y-33268I-215J-196D01*
G74*
G01*
X31711Y-33660D02*
G75*
G03X31712Y-33268I-215J196D01*
G74*
G01*
X31280Y-33661D02*
G75*
G03X31712Y-33660I215J196D01*
G74*
G01*
X31280Y-33268D02*
G75*
G03X31280Y-33660I215J-196D01*
G74*
G01*
G54D13*
X31535Y-35000D02*
X31457Y-35000D01*
X31457Y-35000D02*
X31457Y-35078D01*
X31535Y-35078D02*
X31457Y-35078D01*
X31535Y-35000D02*
X31535Y-35078D01*
X31319Y-34764D02*
X31182Y-34764D01*
X31182Y-34764D02*
X31182Y-34862D01*
X31319Y-34862D02*
X31182Y-34862D01*
X31319Y-34764D02*
X31319Y-34862D01*
X31182Y-34764D02*
X31142Y-34764D01*
X31142Y-34764D02*
X31142Y-35235D01*
X31182Y-35235D02*
X31142Y-35235D01*
X31182Y-34764D02*
X31182Y-35235D01*
X31182Y-35255D02*
X31142Y-35255D01*
X31142Y-35255D02*
X31142Y-35314D01*
X31182Y-35314D02*
X31142Y-35314D01*
X31182Y-35255D02*
X31182Y-35314D01*
X31850Y-34764D02*
X31810Y-34764D01*
X31810Y-34764D02*
X31810Y-35235D01*
X31850Y-35235D02*
X31810Y-35235D01*
X31850Y-34764D02*
X31850Y-35235D01*
X31850Y-35255D02*
X31810Y-35255D01*
X31810Y-35255D02*
X31810Y-35314D01*
X31850Y-35314D02*
X31810Y-35314D01*
X31850Y-35255D02*
X31850Y-35314D01*
X31319Y-34764D02*
X31260Y-34764D01*
X31260Y-34764D02*
X31260Y-34862D01*
X31319Y-34862D02*
X31260Y-34862D01*
X31319Y-34764D02*
X31319Y-34862D01*
G54D14*
X30886Y-34744D02*
X32106Y-34744D01*
X32106Y-34744D02*
X32106Y-35334D01*
X32106Y-35334D02*
X30886Y-35334D01*
X30886Y-35334D02*
X30886Y-34744D01*
X31711Y-34842D02*
G75*
G03X31280Y-34843I-215J-196D01*
G74*
G01*
X31711Y-35235D02*
G75*
G03X31712Y-34843I-215J196D01*
G74*
G01*
X31280Y-35235D02*
G75*
G03X31712Y-35235I215J196D01*
G74*
G01*
X31280Y-34843D02*
G75*
G03X31280Y-35235I215J-196D01*
G74*
G01*
G54D13*
X31535Y-36575D02*
X31457Y-36575D01*
X31457Y-36575D02*
X31457Y-36653D01*
X31535Y-36653D02*
X31457Y-36653D01*
X31535Y-36575D02*
X31535Y-36653D01*
X31319Y-36339D02*
X31182Y-36339D01*
X31182Y-36339D02*
X31182Y-36437D01*
X31319Y-36437D02*
X31182Y-36437D01*
X31319Y-36339D02*
X31319Y-36437D01*
X31182Y-36339D02*
X31142Y-36339D01*
X31142Y-36339D02*
X31142Y-36810D01*
X31182Y-36810D02*
X31142Y-36810D01*
X31182Y-36339D02*
X31182Y-36810D01*
X31182Y-36830D02*
X31142Y-36830D01*
X31142Y-36830D02*
X31142Y-36889D01*
X31182Y-36889D02*
X31142Y-36889D01*
X31182Y-36830D02*
X31182Y-36889D01*
X31850Y-36339D02*
X31810Y-36339D01*
X31810Y-36339D02*
X31810Y-36810D01*
X31850Y-36810D02*
X31810Y-36810D01*
X31850Y-36339D02*
X31850Y-36810D01*
X31850Y-36830D02*
X31810Y-36830D01*
X31810Y-36830D02*
X31810Y-36889D01*
X31850Y-36889D02*
X31810Y-36889D01*
X31850Y-36830D02*
X31850Y-36889D01*
X31319Y-36339D02*
X31260Y-36339D01*
X31260Y-36339D02*
X31260Y-36437D01*
X31319Y-36437D02*
X31260Y-36437D01*
X31319Y-36339D02*
X31319Y-36437D01*
G54D14*
X30886Y-36319D02*
X32106Y-36319D01*
X32106Y-36319D02*
X32106Y-36909D01*
X32106Y-36909D02*
X30886Y-36909D01*
X30886Y-36909D02*
X30886Y-36319D01*
X31711Y-36417D02*
G75*
G03X31280Y-36418I-215J-196D01*
G74*
G01*
X31711Y-36810D02*
G75*
G03X31712Y-36418I-215J196D01*
G74*
G01*
X31280Y-36810D02*
G75*
G03X31712Y-36810I215J196D01*
G74*
G01*
X31280Y-36417D02*
G75*
G03X31280Y-36810I215J-196D01*
G74*
G01*
G54D15*
X30610Y-38976D02*
G75*
G03X30610Y-38976I-98J0D01*
G74*
G01*
X30708Y-38976D02*
X32283Y-38976D01*
X32283Y-38976D02*
X32480Y-39173D01*
X32480Y-39173D02*
X32480Y-40748D01*
X32480Y-40748D02*
X32283Y-40944D01*
X32283Y-40944D02*
X30708Y-40944D01*
X30708Y-40944D02*
X30511Y-40748D01*
X30511Y-40748D02*
X30511Y-39173D01*
X30511Y-39173D02*
X30708Y-38976D01*
G54D16*
X32894Y-45492D02*
X30098Y-45492D01*
X30098Y-45492D02*
X30098Y-49114D01*
X30098Y-49114D02*
X32894Y-49114D01*
X32894Y-49114D02*
X32894Y-45492D01*
X33858Y-21653D02*
G75*
G03X33858Y-21653I-2362J0D01*
G74*
G01*
G54D12*
X32536Y-43557D02*
X31636Y-43557D01*
X31636Y-43557D02*
X31636Y-43057D01*
X31636Y-43057D02*
X32536Y-43057D01*
X32536Y-43057D02*
X32536Y-43557D01*
X30455Y-43057D02*
X31355Y-43057D01*
X31355Y-43057D02*
X31355Y-43557D01*
X31355Y-43557D02*
X30455Y-43557D01*
X30455Y-43557D02*
X30455Y-43057D01*
X29780Y-44738D02*
X28880Y-44738D01*
X28880Y-44738D02*
X28880Y-44238D01*
X28880Y-44238D02*
X29780Y-44238D01*
X29780Y-44238D02*
X29780Y-44738D01*
X31636Y-42269D02*
X32536Y-42269D01*
X32536Y-42269D02*
X32536Y-42769D01*
X32536Y-42769D02*
X31636Y-42769D01*
X31636Y-42769D02*
X31636Y-42269D01*
X31355Y-42769D02*
X30455Y-42769D01*
X30455Y-42769D02*
X30455Y-42269D01*
X30455Y-42269D02*
X31355Y-42269D01*
X31355Y-42269D02*
X31355Y-42769D01*
X34294Y-41659D02*
X35194Y-41659D01*
X35194Y-41659D02*
X35194Y-42159D01*
X35194Y-42159D02*
X34294Y-42159D01*
X34294Y-42159D02*
X34294Y-41659D01*
X29265Y-35849D02*
X29265Y-36749D01*
X29265Y-36749D02*
X28765Y-36749D01*
X28765Y-36749D02*
X28765Y-35849D01*
X28765Y-35849D02*
X29265Y-35849D01*
X33320Y-25140D02*
X33320Y-26040D01*
X33320Y-26040D02*
X32820Y-26040D01*
X32820Y-26040D02*
X32820Y-25140D01*
X32820Y-25140D02*
X33320Y-25140D01*
X33320Y-26715D02*
X33320Y-27615D01*
X33320Y-27615D02*
X32820Y-27615D01*
X32820Y-27615D02*
X32820Y-26715D01*
X32820Y-26715D02*
X33320Y-26715D01*
X33320Y-28290D02*
X33320Y-29190D01*
X33320Y-29190D02*
X32820Y-29190D01*
X32820Y-29190D02*
X32820Y-28290D01*
X32820Y-28290D02*
X33320Y-28290D01*
X33320Y-29864D02*
X33320Y-30764D01*
X33320Y-30764D02*
X32820Y-30764D01*
X32820Y-30764D02*
X32820Y-29864D01*
X32820Y-29864D02*
X33320Y-29864D01*
X33320Y-31439D02*
X33320Y-32339D01*
X33320Y-32339D02*
X32820Y-32339D01*
X32820Y-32339D02*
X32820Y-31439D01*
X32820Y-31439D02*
X33320Y-31439D01*
X33320Y-33014D02*
X33320Y-33914D01*
X33320Y-33914D02*
X32820Y-33914D01*
X32820Y-33914D02*
X32820Y-33014D01*
X32820Y-33014D02*
X33320Y-33014D01*
X33320Y-34589D02*
X33320Y-35489D01*
X33320Y-35489D02*
X32820Y-35489D01*
X32820Y-35489D02*
X32820Y-34589D01*
X32820Y-34589D02*
X33320Y-34589D01*
X33320Y-36164D02*
X33320Y-37064D01*
X33320Y-37064D02*
X32820Y-37064D01*
X32820Y-37064D02*
X32820Y-36164D01*
X32820Y-36164D02*
X33320Y-36164D01*
X32870Y-42753D02*
X33270Y-42753D01*
X32870Y-43613D02*
X32870Y-42233D01*
X32870Y-42233D02*
X33270Y-42233D01*
X33270Y-42233D02*
X33270Y-43613D01*
X33270Y-43613D02*
X32870Y-43613D01*
X29721Y-42753D02*
X30121Y-42753D01*
X29721Y-43613D02*
X29721Y-42233D01*
X29721Y-42233D02*
X30121Y-42233D01*
X30121Y-42233D02*
X30121Y-43613D01*
X30121Y-43613D02*
X29721Y-43613D01*
X29130Y-42753D02*
X29530Y-42753D01*
X29130Y-43613D02*
X29130Y-42233D01*
X29130Y-42233D02*
X29530Y-42233D01*
X29530Y-42233D02*
X29530Y-43613D01*
X29530Y-43613D02*
X29130Y-43613D01*
X33461Y-42753D02*
X33861Y-42753D01*
X33461Y-43613D02*
X33461Y-42233D01*
X33461Y-42233D02*
X33861Y-42233D01*
X33861Y-42233D02*
X33861Y-43613D01*
X33861Y-43613D02*
X33461Y-43613D01*
G54D10*
X27834Y-40826D02*
X27952Y-40826D01*
X27834Y-38740D02*
X27952Y-38740D01*
X29212Y-38740D02*
X29133Y-38740D01*
X29212Y-40826D02*
X29133Y-40826D01*
X29212Y-38740D02*
X29330Y-38858D01*
X29330Y-38858D02*
X29330Y-40708D01*
X29330Y-40708D02*
X29212Y-40826D01*
X27834Y-40826D02*
X27716Y-40708D01*
X27716Y-40708D02*
X27716Y-38858D01*
X27716Y-38858D02*
X27834Y-38740D01*
G54D12*
X29773Y-34126D02*
X28573Y-34126D01*
X28573Y-34126D02*
X28573Y-33826D01*
X28573Y-33826D02*
X29773Y-33826D01*
X29773Y-33826D02*
X29773Y-34126D01*
G54D11*
X34472Y-38247D02*
X34072Y-38247D01*
X34072Y-38095D01*
X34091Y-38057D01*
X34110Y-38038D01*
X34148Y-38019D01*
X34205Y-38019D01*
X34243Y-38038D01*
X34262Y-38057D01*
X34281Y-38095D01*
X34281Y-38247D01*
X34072Y-37657D02*
X34072Y-37847D01*
X34262Y-37867D01*
X34243Y-37847D01*
X34224Y-37809D01*
X34224Y-37714D01*
X34243Y-37676D01*
X34262Y-37657D01*
X34300Y-37638D01*
X34396Y-37638D01*
X34434Y-37657D01*
X34453Y-37676D01*
X34472Y-37714D01*
X34472Y-37809D01*
X34453Y-37847D01*
X34434Y-37867D01*
G54D17*
X29731Y-38884D02*
X29743Y-38892D01*
X29754Y-38914D01*
X29754Y-38929D01*
X29743Y-38952D01*
X29720Y-38966D01*
X29697Y-38974D01*
X29651Y-38981D01*
X29616Y-38981D01*
X29571Y-38974D01*
X29548Y-38966D01*
X29525Y-38952D01*
X29513Y-38929D01*
X29513Y-38914D01*
X29525Y-38892D01*
X29536Y-38884D01*
X29754Y-38735D02*
X29754Y-38824D01*
X29754Y-38780D02*
X29513Y-38780D01*
X29548Y-38795D01*
X29571Y-38809D01*
X29582Y-38824D01*
G54D18*
X31573Y-44524D02*
X31583Y-44534D01*
X31594Y-44565D01*
X31594Y-44586D01*
X31583Y-44617D01*
X31563Y-44638D01*
X31542Y-44648D01*
X31501Y-44658D01*
X31470Y-44658D01*
X31428Y-44648D01*
X31408Y-44638D01*
X31387Y-44617D01*
X31377Y-44586D01*
X31377Y-44565D01*
X31387Y-44534D01*
X31397Y-44524D01*
X31397Y-44441D02*
X31387Y-44431D01*
X31377Y-44410D01*
X31377Y-44359D01*
X31387Y-44338D01*
X31397Y-44328D01*
X31418Y-44317D01*
X31439Y-44317D01*
X31470Y-44328D01*
X31594Y-44452D01*
X31594Y-44317D01*
G54D17*
X28930Y-41621D02*
X28923Y-41632D01*
X28900Y-41644D01*
X28885Y-41644D01*
X28863Y-41632D01*
X28848Y-41610D01*
X28841Y-41587D01*
X28833Y-41541D01*
X28833Y-41506D01*
X28841Y-41460D01*
X28848Y-41437D01*
X28863Y-41414D01*
X28885Y-41403D01*
X28900Y-41403D01*
X28923Y-41414D01*
X28930Y-41426D01*
X28983Y-41403D02*
X29080Y-41403D01*
X29028Y-41495D01*
X29050Y-41495D01*
X29065Y-41506D01*
X29072Y-41518D01*
X29080Y-41541D01*
X29080Y-41598D01*
X29072Y-41621D01*
X29065Y-41632D01*
X29050Y-41644D01*
X29005Y-41644D01*
X28990Y-41632D01*
X28983Y-41621D01*
X28930Y-38078D02*
X28923Y-38089D01*
X28900Y-38101D01*
X28885Y-38101D01*
X28863Y-38089D01*
X28848Y-38066D01*
X28841Y-38043D01*
X28833Y-37997D01*
X28833Y-37963D01*
X28841Y-37917D01*
X28848Y-37894D01*
X28863Y-37871D01*
X28885Y-37860D01*
X28900Y-37860D01*
X28923Y-37871D01*
X28930Y-37883D01*
X29065Y-37940D02*
X29065Y-38101D01*
X29028Y-37848D02*
X28990Y-38020D01*
X29087Y-38020D01*
G54D19*
X29699Y-25726D02*
X29699Y-25426D01*
X29771Y-25426D01*
X29814Y-25440D01*
X29842Y-25469D01*
X29856Y-25497D01*
X29871Y-25554D01*
X29871Y-25597D01*
X29856Y-25654D01*
X29842Y-25683D01*
X29814Y-25711D01*
X29771Y-25726D01*
X29699Y-25726D01*
X30142Y-25426D02*
X29999Y-25426D01*
X29985Y-25569D01*
X29999Y-25554D01*
X30028Y-25540D01*
X30099Y-25540D01*
X30128Y-25554D01*
X30142Y-25569D01*
X30156Y-25597D01*
X30156Y-25669D01*
X30142Y-25697D01*
X30128Y-25711D01*
X30099Y-25726D01*
X30028Y-25726D01*
X29999Y-25711D01*
X29985Y-25697D01*
X31303Y-25126D02*
X31203Y-24983D01*
X31131Y-25126D02*
X31131Y-24826D01*
X31246Y-24826D01*
X31274Y-24840D01*
X31288Y-24854D01*
X31303Y-24883D01*
X31303Y-24926D01*
X31288Y-24954D01*
X31274Y-24969D01*
X31246Y-24983D01*
X31131Y-24983D01*
X31431Y-24969D02*
X31531Y-24969D01*
X31574Y-25126D02*
X31431Y-25126D01*
X31431Y-24826D01*
X31574Y-24826D01*
X31703Y-25126D02*
X31703Y-24826D01*
X31774Y-24826D01*
X31817Y-24840D01*
X31846Y-24869D01*
X31860Y-24897D01*
X31874Y-24954D01*
X31874Y-24997D01*
X31860Y-25054D01*
X31846Y-25083D01*
X31817Y-25111D01*
X31774Y-25126D01*
X31703Y-25126D01*
X29699Y-27301D02*
X29699Y-27001D01*
X29771Y-27001D01*
X29814Y-27015D01*
X29842Y-27043D01*
X29856Y-27072D01*
X29871Y-27129D01*
X29871Y-27172D01*
X29856Y-27229D01*
X29842Y-27258D01*
X29814Y-27286D01*
X29771Y-27301D01*
X29699Y-27301D01*
X30128Y-27001D02*
X30071Y-27001D01*
X30042Y-27015D01*
X30028Y-27029D01*
X29999Y-27072D01*
X29985Y-27129D01*
X29985Y-27243D01*
X29999Y-27272D01*
X30014Y-27286D01*
X30042Y-27301D01*
X30099Y-27301D01*
X30128Y-27286D01*
X30142Y-27272D01*
X30156Y-27243D01*
X30156Y-27172D01*
X30142Y-27143D01*
X30128Y-27129D01*
X30099Y-27115D01*
X30042Y-27115D01*
X30014Y-27129D01*
X29999Y-27143D01*
X29985Y-27172D01*
X30746Y-26401D02*
X30803Y-26401D01*
X30831Y-26415D01*
X30860Y-26443D01*
X30874Y-26501D01*
X30874Y-26601D01*
X30860Y-26658D01*
X30831Y-26686D01*
X30803Y-26701D01*
X30746Y-26701D01*
X30717Y-26686D01*
X30688Y-26658D01*
X30674Y-26601D01*
X30674Y-26501D01*
X30688Y-26443D01*
X30717Y-26415D01*
X30746Y-26401D01*
X31174Y-26701D02*
X31074Y-26558D01*
X31003Y-26701D02*
X31003Y-26401D01*
X31117Y-26401D01*
X31146Y-26415D01*
X31160Y-26429D01*
X31174Y-26458D01*
X31174Y-26501D01*
X31160Y-26529D01*
X31146Y-26543D01*
X31117Y-26558D01*
X31003Y-26558D01*
X31288Y-26615D02*
X31431Y-26615D01*
X31260Y-26701D02*
X31360Y-26401D01*
X31460Y-26701D01*
X31560Y-26701D02*
X31560Y-26401D01*
X31731Y-26701D01*
X31731Y-26401D01*
X32031Y-26415D02*
X32003Y-26401D01*
X31960Y-26401D01*
X31917Y-26415D01*
X31888Y-26443D01*
X31874Y-26472D01*
X31860Y-26529D01*
X31860Y-26572D01*
X31874Y-26629D01*
X31888Y-26658D01*
X31917Y-26686D01*
X31960Y-26701D01*
X31988Y-26701D01*
X32031Y-26686D01*
X32046Y-26672D01*
X32046Y-26572D01*
X31988Y-26572D01*
X32174Y-26543D02*
X32274Y-26543D01*
X32317Y-26701D02*
X32174Y-26701D01*
X32174Y-26401D01*
X32317Y-26401D01*
X29699Y-28875D02*
X29699Y-28575D01*
X29771Y-28575D01*
X29814Y-28590D01*
X29842Y-28618D01*
X29856Y-28647D01*
X29871Y-28704D01*
X29871Y-28747D01*
X29856Y-28804D01*
X29842Y-28833D01*
X29814Y-28861D01*
X29771Y-28875D01*
X29699Y-28875D01*
X29971Y-28575D02*
X30171Y-28575D01*
X30042Y-28875D01*
X30746Y-27975D02*
X30803Y-27975D01*
X30831Y-27990D01*
X30860Y-28018D01*
X30874Y-28075D01*
X30874Y-28175D01*
X30860Y-28233D01*
X30831Y-28261D01*
X30803Y-28275D01*
X30746Y-28275D01*
X30717Y-28261D01*
X30688Y-28233D01*
X30674Y-28175D01*
X30674Y-28075D01*
X30688Y-28018D01*
X30717Y-27990D01*
X30746Y-27975D01*
X31174Y-28275D02*
X31074Y-28133D01*
X31003Y-28275D02*
X31003Y-27975D01*
X31117Y-27975D01*
X31146Y-27990D01*
X31160Y-28004D01*
X31174Y-28033D01*
X31174Y-28075D01*
X31160Y-28104D01*
X31146Y-28118D01*
X31117Y-28133D01*
X31003Y-28133D01*
X31288Y-28190D02*
X31431Y-28190D01*
X31260Y-28275D02*
X31360Y-27975D01*
X31460Y-28275D01*
X31560Y-28275D02*
X31560Y-27975D01*
X31731Y-28275D01*
X31731Y-27975D01*
X32031Y-27990D02*
X32003Y-27975D01*
X31960Y-27975D01*
X31917Y-27990D01*
X31888Y-28018D01*
X31874Y-28047D01*
X31860Y-28104D01*
X31860Y-28147D01*
X31874Y-28204D01*
X31888Y-28233D01*
X31917Y-28261D01*
X31960Y-28275D01*
X31988Y-28275D01*
X32031Y-28261D01*
X32046Y-28247D01*
X32046Y-28147D01*
X31988Y-28147D01*
X32174Y-28118D02*
X32274Y-28118D01*
X32317Y-28275D02*
X32174Y-28275D01*
X32174Y-27975D01*
X32317Y-27975D01*
X29699Y-30450D02*
X29699Y-30150D01*
X29771Y-30150D01*
X29814Y-30164D01*
X29842Y-30193D01*
X29856Y-30222D01*
X29871Y-30279D01*
X29871Y-30322D01*
X29856Y-30379D01*
X29842Y-30407D01*
X29814Y-30436D01*
X29771Y-30450D01*
X29699Y-30450D01*
X30042Y-30279D02*
X30014Y-30264D01*
X29999Y-30250D01*
X29985Y-30222D01*
X29985Y-30207D01*
X29999Y-30179D01*
X30014Y-30164D01*
X30042Y-30150D01*
X30099Y-30150D01*
X30128Y-30164D01*
X30142Y-30179D01*
X30156Y-30207D01*
X30156Y-30222D01*
X30142Y-30250D01*
X30128Y-30264D01*
X30099Y-30279D01*
X30042Y-30279D01*
X30014Y-30293D01*
X29999Y-30307D01*
X29985Y-30336D01*
X29985Y-30393D01*
X29999Y-30422D01*
X30014Y-30436D01*
X30042Y-30450D01*
X30099Y-30450D01*
X30128Y-30436D01*
X30142Y-30422D01*
X30156Y-30393D01*
X30156Y-30336D01*
X30142Y-30307D01*
X30128Y-30293D01*
X30099Y-30279D01*
X30674Y-29550D02*
X30731Y-29550D01*
X30760Y-29564D01*
X30788Y-29593D01*
X30803Y-29650D01*
X30803Y-29750D01*
X30788Y-29807D01*
X30760Y-29836D01*
X30731Y-29850D01*
X30674Y-29850D01*
X30646Y-29836D01*
X30617Y-29807D01*
X30603Y-29750D01*
X30603Y-29650D01*
X30617Y-29593D01*
X30646Y-29564D01*
X30674Y-29550D01*
X31103Y-29850D02*
X31003Y-29707D01*
X30931Y-29850D02*
X30931Y-29550D01*
X31046Y-29550D01*
X31074Y-29564D01*
X31088Y-29579D01*
X31103Y-29607D01*
X31103Y-29650D01*
X31088Y-29679D01*
X31074Y-29693D01*
X31046Y-29707D01*
X30931Y-29707D01*
X31217Y-29764D02*
X31360Y-29764D01*
X31188Y-29850D02*
X31288Y-29550D01*
X31388Y-29850D01*
X31488Y-29850D02*
X31488Y-29550D01*
X31660Y-29850D01*
X31660Y-29550D01*
X31960Y-29564D02*
X31931Y-29550D01*
X31888Y-29550D01*
X31846Y-29564D01*
X31817Y-29593D01*
X31803Y-29622D01*
X31788Y-29679D01*
X31788Y-29722D01*
X31803Y-29779D01*
X31817Y-29807D01*
X31846Y-29836D01*
X31888Y-29850D01*
X31917Y-29850D01*
X31960Y-29836D01*
X31974Y-29822D01*
X31974Y-29722D01*
X31917Y-29722D01*
X32103Y-29693D02*
X32203Y-29693D01*
X32246Y-29850D02*
X32103Y-29850D01*
X32103Y-29550D01*
X32246Y-29550D01*
X32388Y-29550D02*
X32360Y-29607D01*
X29699Y-32025D02*
X29699Y-31725D01*
X29771Y-31725D01*
X29814Y-31739D01*
X29842Y-31768D01*
X29856Y-31796D01*
X29871Y-31854D01*
X29871Y-31896D01*
X29856Y-31954D01*
X29842Y-31982D01*
X29814Y-32011D01*
X29771Y-32025D01*
X29699Y-32025D01*
X30014Y-32025D02*
X30071Y-32025D01*
X30099Y-32011D01*
X30114Y-31996D01*
X30142Y-31954D01*
X30156Y-31896D01*
X30156Y-31782D01*
X30142Y-31754D01*
X30128Y-31739D01*
X30099Y-31725D01*
X30042Y-31725D01*
X30014Y-31739D01*
X29999Y-31754D01*
X29985Y-31782D01*
X29985Y-31854D01*
X29999Y-31882D01*
X30014Y-31896D01*
X30042Y-31911D01*
X30099Y-31911D01*
X30128Y-31896D01*
X30142Y-31882D01*
X30156Y-31854D01*
X30788Y-31282D02*
X30788Y-31425D01*
X30688Y-31125D02*
X30788Y-31282D01*
X30888Y-31125D01*
X30988Y-31268D02*
X31088Y-31268D01*
X31131Y-31425D02*
X30988Y-31425D01*
X30988Y-31125D01*
X31131Y-31125D01*
X31403Y-31425D02*
X31260Y-31425D01*
X31260Y-31125D01*
X31646Y-31425D02*
X31503Y-31425D01*
X31503Y-31125D01*
X31803Y-31125D02*
X31860Y-31125D01*
X31888Y-31139D01*
X31917Y-31168D01*
X31931Y-31225D01*
X31931Y-31325D01*
X31917Y-31382D01*
X31888Y-31411D01*
X31860Y-31425D01*
X31803Y-31425D01*
X31774Y-31411D01*
X31746Y-31382D01*
X31731Y-31325D01*
X31731Y-31225D01*
X31746Y-31168D01*
X31774Y-31139D01*
X31803Y-31125D01*
X32031Y-31125D02*
X32103Y-31425D01*
X32160Y-31211D01*
X32217Y-31425D01*
X32288Y-31125D01*
X29556Y-33600D02*
X29556Y-33300D01*
X29628Y-33300D01*
X29671Y-33314D01*
X29699Y-33343D01*
X29714Y-33371D01*
X29728Y-33428D01*
X29728Y-33471D01*
X29714Y-33528D01*
X29699Y-33557D01*
X29671Y-33585D01*
X29628Y-33600D01*
X29556Y-33600D01*
X30014Y-33600D02*
X29842Y-33600D01*
X29928Y-33600D02*
X29928Y-33300D01*
X29899Y-33343D01*
X29871Y-33371D01*
X29842Y-33385D01*
X30199Y-33300D02*
X30228Y-33300D01*
X30256Y-33314D01*
X30271Y-33328D01*
X30285Y-33357D01*
X30299Y-33414D01*
X30299Y-33485D01*
X30285Y-33543D01*
X30271Y-33571D01*
X30256Y-33585D01*
X30228Y-33600D01*
X30199Y-33600D01*
X30171Y-33585D01*
X30156Y-33571D01*
X30142Y-33543D01*
X30128Y-33485D01*
X30128Y-33414D01*
X30142Y-33357D01*
X30156Y-33328D01*
X30171Y-33314D01*
X30199Y-33300D01*
X30788Y-32857D02*
X30788Y-33000D01*
X30688Y-32700D02*
X30788Y-32857D01*
X30888Y-32700D01*
X30988Y-32843D02*
X31088Y-32843D01*
X31131Y-33000D02*
X30988Y-33000D01*
X30988Y-32700D01*
X31131Y-32700D01*
X31403Y-33000D02*
X31260Y-33000D01*
X31260Y-32700D01*
X31646Y-33000D02*
X31503Y-33000D01*
X31503Y-32700D01*
X31803Y-32700D02*
X31860Y-32700D01*
X31888Y-32714D01*
X31917Y-32743D01*
X31931Y-32800D01*
X31931Y-32900D01*
X31917Y-32957D01*
X31888Y-32985D01*
X31860Y-33000D01*
X31803Y-33000D01*
X31774Y-32985D01*
X31746Y-32957D01*
X31731Y-32900D01*
X31731Y-32800D01*
X31746Y-32743D01*
X31774Y-32714D01*
X31803Y-32700D01*
X32031Y-32700D02*
X32103Y-33000D01*
X32160Y-32785D01*
X32217Y-33000D01*
X32288Y-32700D01*
X29556Y-35175D02*
X29556Y-34875D01*
X29628Y-34875D01*
X29671Y-34889D01*
X29699Y-34917D01*
X29714Y-34946D01*
X29728Y-35003D01*
X29728Y-35046D01*
X29714Y-35103D01*
X29699Y-35132D01*
X29671Y-35160D01*
X29628Y-35175D01*
X29556Y-35175D01*
X30014Y-35175D02*
X29842Y-35175D01*
X29928Y-35175D02*
X29928Y-34875D01*
X29899Y-34917D01*
X29871Y-34946D01*
X29842Y-34960D01*
X30299Y-35175D02*
X30128Y-35175D01*
X30214Y-35175D02*
X30214Y-34875D01*
X30185Y-34917D01*
X30156Y-34946D01*
X30128Y-34960D01*
X30788Y-34432D02*
X30788Y-34575D01*
X30688Y-34275D02*
X30788Y-34432D01*
X30888Y-34275D01*
X30988Y-34417D02*
X31088Y-34417D01*
X31131Y-34575D02*
X30988Y-34575D01*
X30988Y-34275D01*
X31131Y-34275D01*
X31403Y-34575D02*
X31260Y-34575D01*
X31260Y-34275D01*
X31646Y-34575D02*
X31503Y-34575D01*
X31503Y-34275D01*
X31803Y-34275D02*
X31860Y-34275D01*
X31888Y-34289D01*
X31917Y-34317D01*
X31931Y-34375D01*
X31931Y-34475D01*
X31917Y-34532D01*
X31888Y-34560D01*
X31860Y-34575D01*
X31803Y-34575D01*
X31774Y-34560D01*
X31746Y-34532D01*
X31731Y-34475D01*
X31731Y-34375D01*
X31746Y-34317D01*
X31774Y-34289D01*
X31803Y-34275D01*
X32031Y-34275D02*
X32103Y-34575D01*
X32160Y-34360D01*
X32217Y-34575D01*
X32288Y-34275D01*
X29556Y-36749D02*
X29556Y-36449D01*
X29628Y-36449D01*
X29671Y-36464D01*
X29699Y-36492D01*
X29714Y-36521D01*
X29728Y-36578D01*
X29728Y-36621D01*
X29714Y-36678D01*
X29699Y-36707D01*
X29671Y-36735D01*
X29628Y-36749D01*
X29556Y-36749D01*
X30014Y-36749D02*
X29842Y-36749D01*
X29928Y-36749D02*
X29928Y-36449D01*
X29899Y-36492D01*
X29871Y-36521D01*
X29842Y-36535D01*
X30128Y-36478D02*
X30142Y-36464D01*
X30171Y-36449D01*
X30242Y-36449D01*
X30271Y-36464D01*
X30285Y-36478D01*
X30299Y-36507D01*
X30299Y-36535D01*
X30285Y-36578D01*
X30114Y-36749D01*
X30299Y-36749D01*
X30996Y-35864D02*
X30967Y-35849D01*
X30924Y-35849D01*
X30881Y-35864D01*
X30853Y-35892D01*
X30838Y-35921D01*
X30824Y-35978D01*
X30824Y-36021D01*
X30838Y-36078D01*
X30853Y-36107D01*
X30881Y-36135D01*
X30924Y-36149D01*
X30953Y-36149D01*
X30996Y-36135D01*
X31010Y-36121D01*
X31010Y-36021D01*
X30953Y-36021D01*
X31310Y-36149D02*
X31210Y-36007D01*
X31138Y-36149D02*
X31138Y-35849D01*
X31253Y-35849D01*
X31281Y-35864D01*
X31296Y-35878D01*
X31310Y-35907D01*
X31310Y-35949D01*
X31296Y-35978D01*
X31281Y-35992D01*
X31253Y-36007D01*
X31138Y-36007D01*
X31438Y-35992D02*
X31538Y-35992D01*
X31581Y-36149D02*
X31438Y-36149D01*
X31438Y-35849D01*
X31581Y-35849D01*
X31710Y-35992D02*
X31810Y-35992D01*
X31853Y-36149D02*
X31710Y-36149D01*
X31710Y-35849D01*
X31853Y-35849D01*
X31981Y-36149D02*
X31981Y-35849D01*
X32153Y-36149D01*
X32153Y-35849D01*
G54D20*
X31188Y-38644D02*
X31188Y-38290D01*
X31518Y-38610D02*
X31503Y-38627D01*
X31458Y-38644D01*
X31428Y-38644D01*
X31383Y-38627D01*
X31353Y-38593D01*
X31338Y-38560D01*
X31323Y-38492D01*
X31323Y-38442D01*
X31338Y-38374D01*
X31353Y-38340D01*
X31383Y-38307D01*
X31428Y-38290D01*
X31458Y-38290D01*
X31503Y-38307D01*
X31518Y-38323D01*
X31818Y-38644D02*
X31638Y-38644D01*
X31728Y-38644D02*
X31728Y-38290D01*
X31698Y-38340D01*
X31668Y-38374D01*
X31638Y-38391D01*
X34402Y-36695D02*
X34402Y-36545D01*
X34492Y-36725D02*
X34177Y-36620D01*
X34492Y-36515D01*
X34177Y-36455D02*
X34177Y-36275D01*
X34492Y-36365D02*
X34177Y-36365D01*
X34492Y-36170D02*
X34282Y-36170D01*
X34312Y-36170D02*
X34297Y-36155D01*
X34282Y-36125D01*
X34282Y-36080D01*
X34297Y-36050D01*
X34327Y-36035D01*
X34492Y-36035D01*
X34327Y-36035D02*
X34297Y-36020D01*
X34282Y-35990D01*
X34282Y-35945D01*
X34297Y-35915D01*
X34327Y-35900D01*
X34492Y-35900D01*
X34477Y-35630D02*
X34492Y-35660D01*
X34492Y-35720D01*
X34477Y-35750D01*
X34447Y-35765D01*
X34327Y-35765D01*
X34297Y-35750D01*
X34282Y-35720D01*
X34282Y-35660D01*
X34297Y-35630D01*
X34327Y-35615D01*
X34357Y-35615D01*
X34387Y-35765D01*
X34282Y-35345D02*
X34537Y-35345D01*
X34567Y-35360D01*
X34582Y-35375D01*
X34597Y-35405D01*
X34597Y-35450D01*
X34582Y-35480D01*
X34477Y-35345D02*
X34492Y-35375D01*
X34492Y-35435D01*
X34477Y-35465D01*
X34462Y-35480D01*
X34432Y-35495D01*
X34342Y-35495D01*
X34312Y-35480D01*
X34297Y-35465D01*
X34282Y-35435D01*
X34282Y-35375D01*
X34297Y-35345D01*
X34492Y-35060D02*
X34327Y-35060D01*
X34297Y-35075D01*
X34282Y-35105D01*
X34282Y-35165D01*
X34297Y-35195D01*
X34477Y-35060D02*
X34492Y-35090D01*
X34492Y-35165D01*
X34477Y-35195D01*
X34447Y-35210D01*
X34417Y-35210D01*
X34387Y-35195D01*
X34372Y-35165D01*
X34372Y-35090D01*
X34357Y-35060D01*
X34312Y-34865D02*
X34297Y-34895D01*
X34282Y-34910D01*
X34252Y-34925D01*
X34237Y-34925D01*
X34207Y-34910D01*
X34192Y-34895D01*
X34177Y-34865D01*
X34177Y-34805D01*
X34192Y-34775D01*
X34207Y-34760D01*
X34237Y-34745D01*
X34252Y-34745D01*
X34282Y-34760D01*
X34297Y-34775D01*
X34312Y-34805D01*
X34312Y-34865D01*
X34327Y-34895D01*
X34342Y-34910D01*
X34372Y-34925D01*
X34432Y-34925D01*
X34462Y-34910D01*
X34477Y-34895D01*
X34492Y-34865D01*
X34492Y-34805D01*
X34477Y-34775D01*
X34462Y-34760D01*
X34432Y-34745D01*
X34372Y-34745D01*
X34342Y-34760D01*
X34327Y-34775D01*
X34312Y-34805D01*
X34312Y-34565D02*
X34297Y-34595D01*
X34282Y-34610D01*
X34252Y-34625D01*
X34237Y-34625D01*
X34207Y-34610D01*
X34192Y-34595D01*
X34177Y-34565D01*
X34177Y-34505D01*
X34192Y-34476D01*
X34207Y-34461D01*
X34237Y-34446D01*
X34252Y-34446D01*
X34282Y-34461D01*
X34297Y-34476D01*
X34312Y-34505D01*
X34312Y-34565D01*
X34327Y-34595D01*
X34342Y-34610D01*
X34372Y-34625D01*
X34432Y-34625D01*
X34462Y-34610D01*
X34477Y-34595D01*
X34492Y-34565D01*
X34492Y-34505D01*
X34477Y-34476D01*
X34462Y-34461D01*
X34432Y-34446D01*
X34372Y-34446D01*
X34342Y-34461D01*
X34327Y-34476D01*
X34312Y-34505D01*
X34492Y-34311D02*
X34177Y-34311D01*
X34177Y-34191D01*
X34192Y-34161D01*
X34207Y-34146D01*
X34237Y-34131D01*
X34282Y-34131D01*
X34312Y-34146D01*
X34327Y-34161D01*
X34342Y-34191D01*
X34342Y-34311D01*
G54D21*
X31053Y-48578D02*
X31053Y-47978D01*
X31281Y-47978D01*
X31338Y-48007D01*
X31367Y-48035D01*
X31396Y-48092D01*
X31396Y-48178D01*
X31367Y-48235D01*
X31338Y-48264D01*
X31281Y-48292D01*
X31053Y-48292D01*
X31910Y-48178D02*
X31910Y-48578D01*
X31767Y-47950D02*
X31624Y-48378D01*
X31996Y-48378D01*
X30688Y-20585D02*
X30688Y-19985D01*
X30917Y-19985D01*
X30974Y-20014D01*
X31002Y-20043D01*
X31031Y-20100D01*
X31031Y-20185D01*
X31002Y-20243D01*
X30974Y-20271D01*
X30917Y-20300D01*
X30688Y-20300D01*
X31231Y-19985D02*
X31631Y-19985D01*
X31231Y-20585D01*
X31631Y-20585D01*
X32174Y-20585D02*
X31831Y-20585D01*
X32002Y-20585D02*
X32002Y-19985D01*
X31945Y-20071D01*
X31888Y-20128D01*
X31831Y-20157D01*
X28354Y-21696D02*
X28811Y-21696D01*
X34180Y-21696D02*
X34637Y-21696D01*
X34409Y-21924D02*
X34409Y-21467D01*
G54D22*
X32056Y-43397D02*
X31996Y-43302D01*
X31953Y-43397D02*
X31953Y-43197D01*
X32022Y-43197D01*
X32039Y-43207D01*
X32048Y-43216D01*
X32056Y-43235D01*
X32056Y-43264D01*
X32048Y-43283D01*
X32039Y-43292D01*
X32022Y-43302D01*
X31953Y-43302D01*
X32228Y-43397D02*
X32125Y-43397D01*
X32176Y-43397D02*
X32176Y-43197D01*
X32159Y-43226D01*
X32142Y-43245D01*
X32125Y-43254D01*
X30875Y-43397D02*
X30815Y-43302D01*
X30772Y-43397D02*
X30772Y-43197D01*
X30841Y-43197D01*
X30858Y-43207D01*
X30866Y-43216D01*
X30875Y-43235D01*
X30875Y-43264D01*
X30866Y-43283D01*
X30858Y-43292D01*
X30841Y-43302D01*
X30772Y-43302D01*
X30944Y-43216D02*
X30952Y-43207D01*
X30969Y-43197D01*
X31012Y-43197D01*
X31029Y-43207D01*
X31038Y-43216D01*
X31046Y-43235D01*
X31046Y-43254D01*
X31038Y-43283D01*
X30935Y-43397D01*
X31046Y-43397D01*
X29300Y-44578D02*
X29240Y-44483D01*
X29197Y-44578D02*
X29197Y-44378D01*
X29266Y-44378D01*
X29283Y-44388D01*
X29292Y-44397D01*
X29300Y-44416D01*
X29300Y-44445D01*
X29292Y-44464D01*
X29283Y-44473D01*
X29266Y-44483D01*
X29197Y-44483D01*
X29360Y-44378D02*
X29472Y-44378D01*
X29412Y-44454D01*
X29437Y-44454D01*
X29454Y-44464D01*
X29463Y-44473D01*
X29472Y-44492D01*
X29472Y-44540D01*
X29463Y-44559D01*
X29454Y-44569D01*
X29437Y-44578D01*
X29386Y-44578D01*
X29369Y-44569D01*
X29360Y-44559D01*
X32056Y-42610D02*
X31996Y-42514D01*
X31953Y-42610D02*
X31953Y-42410D01*
X32022Y-42410D01*
X32039Y-42419D01*
X32048Y-42429D01*
X32056Y-42448D01*
X32056Y-42476D01*
X32048Y-42495D01*
X32039Y-42505D01*
X32022Y-42514D01*
X31953Y-42514D01*
X32219Y-42410D02*
X32133Y-42410D01*
X32125Y-42505D01*
X32133Y-42495D01*
X32150Y-42486D01*
X32193Y-42486D01*
X32210Y-42495D01*
X32219Y-42505D01*
X32228Y-42524D01*
X32228Y-42572D01*
X32219Y-42591D01*
X32210Y-42600D01*
X32193Y-42610D01*
X32150Y-42610D01*
X32133Y-42600D01*
X32125Y-42591D01*
X30875Y-42610D02*
X30815Y-42514D01*
X30772Y-42610D02*
X30772Y-42410D01*
X30841Y-42410D01*
X30858Y-42419D01*
X30866Y-42429D01*
X30875Y-42448D01*
X30875Y-42476D01*
X30866Y-42495D01*
X30858Y-42505D01*
X30841Y-42514D01*
X30772Y-42514D01*
X31029Y-42410D02*
X30995Y-42410D01*
X30978Y-42419D01*
X30969Y-42429D01*
X30952Y-42457D01*
X30944Y-42495D01*
X30944Y-42572D01*
X30952Y-42591D01*
X30961Y-42600D01*
X30978Y-42610D01*
X31012Y-42610D01*
X31029Y-42600D01*
X31038Y-42591D01*
X31046Y-42572D01*
X31046Y-42524D01*
X31038Y-42505D01*
X31029Y-42495D01*
X31012Y-42486D01*
X30978Y-42486D01*
X30961Y-42495D01*
X30952Y-42505D01*
X30944Y-42524D01*
X34714Y-41999D02*
X34654Y-41904D01*
X34611Y-41999D02*
X34611Y-41799D01*
X34679Y-41799D01*
X34696Y-41809D01*
X34705Y-41818D01*
X34714Y-41838D01*
X34714Y-41866D01*
X34705Y-41885D01*
X34696Y-41895D01*
X34679Y-41904D01*
X34611Y-41904D01*
X34774Y-41799D02*
X34894Y-41799D01*
X34816Y-41999D01*
X29106Y-36329D02*
X29010Y-36389D01*
X29106Y-36432D02*
X28906Y-36432D01*
X28906Y-36363D01*
X28915Y-36346D01*
X28925Y-36337D01*
X28944Y-36329D01*
X28972Y-36329D01*
X28991Y-36337D01*
X29001Y-36346D01*
X29010Y-36363D01*
X29010Y-36432D01*
X28991Y-36226D02*
X28982Y-36243D01*
X28972Y-36252D01*
X28953Y-36260D01*
X28944Y-36260D01*
X28925Y-36252D01*
X28915Y-36243D01*
X28906Y-36226D01*
X28906Y-36192D01*
X28915Y-36174D01*
X28925Y-36166D01*
X28944Y-36157D01*
X28953Y-36157D01*
X28972Y-36166D01*
X28982Y-36174D01*
X28991Y-36192D01*
X28991Y-36226D01*
X29001Y-36243D01*
X29010Y-36252D01*
X29030Y-36260D01*
X29068Y-36260D01*
X29087Y-36252D01*
X29096Y-36243D01*
X29106Y-36226D01*
X29106Y-36192D01*
X29096Y-36174D01*
X29087Y-36166D01*
X29068Y-36157D01*
X29030Y-36157D01*
X29010Y-36166D01*
X29001Y-36174D01*
X28991Y-36192D01*
X33161Y-25620D02*
X33066Y-25680D01*
X33161Y-25723D02*
X32961Y-25723D01*
X32961Y-25654D01*
X32970Y-25637D01*
X32980Y-25629D01*
X32999Y-25620D01*
X33028Y-25620D01*
X33047Y-25629D01*
X33056Y-25637D01*
X33066Y-25654D01*
X33066Y-25723D01*
X33161Y-25534D02*
X33161Y-25500D01*
X33151Y-25483D01*
X33142Y-25474D01*
X33113Y-25457D01*
X33075Y-25449D01*
X32999Y-25449D01*
X32980Y-25457D01*
X32970Y-25466D01*
X32961Y-25483D01*
X32961Y-25517D01*
X32970Y-25534D01*
X32980Y-25543D01*
X32999Y-25551D01*
X33047Y-25551D01*
X33066Y-25543D01*
X33075Y-25534D01*
X33085Y-25517D01*
X33085Y-25483D01*
X33075Y-25466D01*
X33066Y-25457D01*
X33047Y-25449D01*
X33161Y-27281D02*
X33066Y-27341D01*
X33161Y-27383D02*
X32961Y-27383D01*
X32961Y-27315D01*
X32970Y-27298D01*
X32980Y-27289D01*
X32999Y-27281D01*
X33028Y-27281D01*
X33047Y-27289D01*
X33056Y-27298D01*
X33066Y-27315D01*
X33066Y-27383D01*
X33161Y-27109D02*
X33161Y-27212D01*
X33161Y-27161D02*
X32961Y-27161D01*
X32989Y-27178D01*
X33008Y-27195D01*
X33018Y-27212D01*
X32961Y-26998D02*
X32961Y-26981D01*
X32970Y-26963D01*
X32980Y-26955D01*
X32999Y-26946D01*
X33037Y-26938D01*
X33085Y-26938D01*
X33123Y-26946D01*
X33142Y-26955D01*
X33151Y-26963D01*
X33161Y-26981D01*
X33161Y-26998D01*
X33151Y-27015D01*
X33142Y-27023D01*
X33123Y-27032D01*
X33085Y-27041D01*
X33037Y-27041D01*
X32999Y-27032D01*
X32980Y-27023D01*
X32970Y-27015D01*
X32961Y-26998D01*
X33161Y-28855D02*
X33066Y-28915D01*
X33161Y-28958D02*
X32961Y-28958D01*
X32961Y-28890D01*
X32970Y-28873D01*
X32980Y-28864D01*
X32999Y-28855D01*
X33028Y-28855D01*
X33047Y-28864D01*
X33056Y-28873D01*
X33066Y-28890D01*
X33066Y-28958D01*
X33161Y-28684D02*
X33161Y-28787D01*
X33161Y-28735D02*
X32961Y-28735D01*
X32989Y-28753D01*
X33008Y-28770D01*
X33018Y-28787D01*
X33161Y-28513D02*
X33161Y-28615D01*
X33161Y-28564D02*
X32961Y-28564D01*
X32989Y-28581D01*
X33008Y-28598D01*
X33018Y-28615D01*
X33161Y-30430D02*
X33066Y-30490D01*
X33161Y-30533D02*
X32961Y-30533D01*
X32961Y-30464D01*
X32970Y-30447D01*
X32980Y-30439D01*
X32999Y-30430D01*
X33028Y-30430D01*
X33047Y-30439D01*
X33056Y-30447D01*
X33066Y-30464D01*
X33066Y-30533D01*
X33161Y-30259D02*
X33161Y-30362D01*
X33161Y-30310D02*
X32961Y-30310D01*
X32989Y-30327D01*
X33008Y-30344D01*
X33018Y-30362D01*
X32980Y-30190D02*
X32970Y-30182D01*
X32961Y-30164D01*
X32961Y-30122D01*
X32970Y-30104D01*
X32980Y-30096D01*
X32999Y-30087D01*
X33018Y-30087D01*
X33047Y-30096D01*
X33161Y-30199D01*
X33161Y-30087D01*
X33161Y-32005D02*
X33066Y-32065D01*
X33161Y-32108D02*
X32961Y-32108D01*
X32961Y-32039D01*
X32970Y-32022D01*
X32980Y-32014D01*
X32999Y-32005D01*
X33028Y-32005D01*
X33047Y-32014D01*
X33056Y-32022D01*
X33066Y-32039D01*
X33066Y-32108D01*
X33161Y-31834D02*
X33161Y-31936D01*
X33161Y-31885D02*
X32961Y-31885D01*
X32989Y-31902D01*
X33008Y-31919D01*
X33018Y-31936D01*
X32961Y-31774D02*
X32961Y-31662D01*
X33037Y-31722D01*
X33037Y-31696D01*
X33047Y-31679D01*
X33056Y-31671D01*
X33075Y-31662D01*
X33123Y-31662D01*
X33142Y-31671D01*
X33151Y-31679D01*
X33161Y-31696D01*
X33161Y-31748D01*
X33151Y-31765D01*
X33142Y-31774D01*
X33161Y-33580D02*
X33066Y-33640D01*
X33161Y-33683D02*
X32961Y-33683D01*
X32961Y-33614D01*
X32970Y-33597D01*
X32980Y-33588D01*
X32999Y-33580D01*
X33028Y-33580D01*
X33047Y-33588D01*
X33056Y-33597D01*
X33066Y-33614D01*
X33066Y-33683D01*
X33161Y-33408D02*
X33161Y-33511D01*
X33161Y-33460D02*
X32961Y-33460D01*
X32989Y-33477D01*
X33008Y-33494D01*
X33018Y-33511D01*
X33028Y-33254D02*
X33161Y-33254D01*
X32951Y-33297D02*
X33094Y-33340D01*
X33094Y-33228D01*
X33161Y-35155D02*
X33066Y-35215D01*
X33161Y-35257D02*
X32961Y-35257D01*
X32961Y-35189D01*
X32970Y-35172D01*
X32980Y-35163D01*
X32999Y-35155D01*
X33028Y-35155D01*
X33047Y-35163D01*
X33056Y-35172D01*
X33066Y-35189D01*
X33066Y-35257D01*
X33161Y-34983D02*
X33161Y-35086D01*
X33161Y-35035D02*
X32961Y-35035D01*
X32989Y-35052D01*
X33008Y-35069D01*
X33018Y-35086D01*
X32961Y-34820D02*
X32961Y-34906D01*
X33056Y-34915D01*
X33047Y-34906D01*
X33037Y-34889D01*
X33037Y-34846D01*
X33047Y-34829D01*
X33056Y-34820D01*
X33075Y-34812D01*
X33123Y-34812D01*
X33142Y-34820D01*
X33151Y-34829D01*
X33161Y-34846D01*
X33161Y-34889D01*
X33151Y-34906D01*
X33142Y-34915D01*
X33161Y-36729D02*
X33066Y-36789D01*
X33161Y-36832D02*
X32961Y-36832D01*
X32961Y-36764D01*
X32970Y-36747D01*
X32980Y-36738D01*
X32999Y-36729D01*
X33028Y-36729D01*
X33047Y-36738D01*
X33056Y-36747D01*
X33066Y-36764D01*
X33066Y-36832D01*
X33161Y-36558D02*
X33161Y-36661D01*
X33161Y-36609D02*
X32961Y-36609D01*
X32989Y-36627D01*
X33008Y-36644D01*
X33018Y-36661D01*
X32961Y-36404D02*
X32961Y-36438D01*
X32970Y-36455D01*
X32980Y-36464D01*
X33008Y-36481D01*
X33047Y-36489D01*
X33123Y-36489D01*
X33142Y-36481D01*
X33151Y-36472D01*
X33161Y-36455D01*
X33161Y-36421D01*
X33151Y-36404D01*
X33142Y-36395D01*
X33123Y-36387D01*
X33075Y-36387D01*
X33056Y-36395D01*
X33047Y-36404D01*
X33037Y-36421D01*
X33037Y-36455D01*
X33047Y-36472D01*
X33056Y-36481D01*
X33075Y-36489D01*
G54D17*
X33141Y-44013D02*
X32984Y-44013D01*
X32984Y-43976D01*
X32992Y-43953D01*
X33007Y-43938D01*
X33022Y-43931D01*
X33052Y-43923D01*
X33074Y-43923D01*
X33104Y-43931D01*
X33119Y-43938D01*
X33134Y-43953D01*
X33141Y-43976D01*
X33141Y-44013D01*
X33141Y-43774D02*
X33141Y-43863D01*
X33141Y-43819D02*
X32984Y-43819D01*
X33007Y-43834D01*
X33022Y-43849D01*
X33029Y-43863D01*
X29992Y-44013D02*
X29835Y-44013D01*
X29835Y-43976D01*
X29842Y-43953D01*
X29857Y-43938D01*
X29872Y-43931D01*
X29902Y-43923D01*
X29924Y-43923D01*
X29954Y-43931D01*
X29969Y-43938D01*
X29984Y-43953D01*
X29992Y-43976D01*
X29992Y-44013D01*
X29850Y-43863D02*
X29842Y-43856D01*
X29835Y-43841D01*
X29835Y-43804D01*
X29842Y-43789D01*
X29850Y-43781D01*
X29865Y-43774D01*
X29880Y-43774D01*
X29902Y-43781D01*
X29992Y-43871D01*
X29992Y-43774D01*
X29401Y-44013D02*
X29244Y-44013D01*
X29244Y-43976D01*
X29252Y-43953D01*
X29267Y-43938D01*
X29282Y-43931D01*
X29312Y-43923D01*
X29334Y-43923D01*
X29364Y-43931D01*
X29379Y-43938D01*
X29394Y-43953D01*
X29401Y-43976D01*
X29401Y-44013D01*
X29244Y-43871D02*
X29244Y-43774D01*
X29304Y-43826D01*
X29304Y-43804D01*
X29312Y-43789D01*
X29319Y-43781D01*
X29334Y-43774D01*
X29371Y-43774D01*
X29386Y-43781D01*
X29394Y-43789D01*
X29401Y-43804D01*
X29401Y-43849D01*
X29394Y-43863D01*
X29386Y-43871D01*
X33732Y-44013D02*
X33575Y-44013D01*
X33575Y-43976D01*
X33582Y-43953D01*
X33597Y-43938D01*
X33612Y-43931D01*
X33642Y-43923D01*
X33665Y-43923D01*
X33695Y-43931D01*
X33710Y-43938D01*
X33724Y-43953D01*
X33732Y-43976D01*
X33732Y-44013D01*
X33627Y-43789D02*
X33732Y-43789D01*
X33567Y-43826D02*
X33680Y-43863D01*
X33680Y-43766D01*
G54D10*
X27934Y-42838D02*
X28327Y-42575D01*
X27934Y-42575D02*
X28327Y-42838D01*
X28327Y-42219D02*
X28327Y-42444D01*
X28327Y-42332D02*
X27934Y-42332D01*
X27990Y-42369D01*
X28027Y-42407D01*
X28046Y-42444D01*
X28524Y-37279D02*
X28524Y-37504D01*
X28524Y-37392D02*
X28130Y-37392D01*
X28187Y-37429D01*
X28224Y-37467D01*
X28243Y-37504D01*
X28168Y-37129D02*
X28149Y-37110D01*
X28130Y-37073D01*
X28130Y-36979D01*
X28149Y-36942D01*
X28168Y-36923D01*
X28205Y-36904D01*
X28243Y-36904D01*
X28299Y-36923D01*
X28524Y-37148D01*
X28524Y-36904D01*
X28524Y-36736D02*
X28130Y-36736D01*
X28412Y-36604D01*
X28130Y-36473D01*
X28524Y-36473D01*
X28524Y-36286D02*
X28130Y-36286D01*
X28318Y-36286D02*
X28318Y-36061D01*
X28524Y-36061D02*
X28130Y-36061D01*
X28262Y-35911D02*
X28262Y-35704D01*
X28524Y-35911D01*
X28524Y-35704D01*
G54D23*
X29144Y-35090D02*
X29116Y-35076D01*
X29087Y-35047D01*
X29044Y-35004D01*
X29016Y-34990D01*
X28987Y-34990D01*
X29001Y-35062D02*
X28973Y-35047D01*
X28944Y-35019D01*
X28930Y-34962D01*
X28930Y-34862D01*
X28944Y-34804D01*
X28973Y-34776D01*
X29001Y-34762D01*
X29058Y-34762D01*
X29087Y-34776D01*
X29116Y-34804D01*
X29130Y-34862D01*
X29130Y-34962D01*
X29116Y-35019D01*
X29087Y-35047D01*
X29058Y-35062D01*
X29001Y-35062D01*
X29416Y-35062D02*
X29244Y-35062D01*
X29330Y-35062D02*
X29330Y-34762D01*
X29301Y-34804D01*
X29273Y-34833D01*
X29244Y-34847D01*
M02*
