G04 (created by PCBNEW (2013-mar-13)-testing) date Wed 12 Jun 2013 06:43:17 PM NZST*
%MOIN*%
G04 Gerber Fmt 3.4, Leading zero omitted, Abs format*
%FSLAX34Y34*%
G01*
G70*
G90*
G04 APERTURE LIST*
%ADD10C,0.005906*%
%ADD11C,0.007874*%
%ADD12C,0.008000*%
%ADD13C,0.005000*%
%ADD14C,0.002600*%
%ADD15C,0.004000*%
%ADD16C,0.015000*%
%ADD17C,0.003937*%
%ADD18C,0.003900*%
%ADD19C,0.003500*%
%ADD20C,0.012000*%
%ADD21C,0.004500*%
%ADD22C,0.004724*%
%ADD23C,0.004921*%
%ADD24C,0.004300*%
G04 APERTURE END LIST*
G54D10*
G54D11*
X30610Y-38976D02*
G75*
G03X30610Y-38976I-98J0D01*
G74*
G01*
X30708Y-38976D02*
X32283Y-38976D01*
X32283Y-38976D02*
X32480Y-39173D01*
X32480Y-39173D02*
X32480Y-40748D01*
X32480Y-40748D02*
X32283Y-40944D01*
X32283Y-40944D02*
X30708Y-40944D01*
X30708Y-40944D02*
X30511Y-40748D01*
X30511Y-40748D02*
X30511Y-39173D01*
X30511Y-39173D02*
X30708Y-38976D01*
G54D12*
X35251Y-38460D02*
X35251Y-41460D01*
X33251Y-41460D02*
X33251Y-38460D01*
X33251Y-38460D02*
X35251Y-38460D01*
X35251Y-41460D02*
X33251Y-41460D01*
G54D13*
X29881Y-39350D02*
X29881Y-38346D01*
X29409Y-38326D02*
X29409Y-39350D01*
X29409Y-39350D02*
X29881Y-39350D01*
X29413Y-38337D02*
X29873Y-38337D01*
X29449Y-41299D02*
X28445Y-41299D01*
X28425Y-41771D02*
X29449Y-41771D01*
X29449Y-41771D02*
X29449Y-41299D01*
X28436Y-41767D02*
X28436Y-41307D01*
X29449Y-37756D02*
X28445Y-37756D01*
X28425Y-38228D02*
X29449Y-38228D01*
X29449Y-38228D02*
X29449Y-37756D01*
X28436Y-38224D02*
X28436Y-37764D01*
G54D14*
X31535Y-25551D02*
X31457Y-25551D01*
X31457Y-25551D02*
X31457Y-25629D01*
X31535Y-25629D02*
X31457Y-25629D01*
X31535Y-25551D02*
X31535Y-25629D01*
X31319Y-25315D02*
X31182Y-25315D01*
X31182Y-25315D02*
X31182Y-25413D01*
X31319Y-25413D02*
X31182Y-25413D01*
X31319Y-25315D02*
X31319Y-25413D01*
X31182Y-25315D02*
X31142Y-25315D01*
X31142Y-25315D02*
X31142Y-25786D01*
X31182Y-25786D02*
X31142Y-25786D01*
X31182Y-25315D02*
X31182Y-25786D01*
X31182Y-25806D02*
X31142Y-25806D01*
X31142Y-25806D02*
X31142Y-25865D01*
X31182Y-25865D02*
X31142Y-25865D01*
X31182Y-25806D02*
X31182Y-25865D01*
X31850Y-25315D02*
X31810Y-25315D01*
X31810Y-25315D02*
X31810Y-25786D01*
X31850Y-25786D02*
X31810Y-25786D01*
X31850Y-25315D02*
X31850Y-25786D01*
X31850Y-25806D02*
X31810Y-25806D01*
X31810Y-25806D02*
X31810Y-25865D01*
X31850Y-25865D02*
X31810Y-25865D01*
X31850Y-25806D02*
X31850Y-25865D01*
X31319Y-25315D02*
X31260Y-25315D01*
X31260Y-25315D02*
X31260Y-25413D01*
X31319Y-25413D02*
X31260Y-25413D01*
X31319Y-25315D02*
X31319Y-25413D01*
G54D15*
X30886Y-25295D02*
X32106Y-25295D01*
X32106Y-25295D02*
X32106Y-25885D01*
X32106Y-25885D02*
X30886Y-25885D01*
X30886Y-25885D02*
X30886Y-25295D01*
X31711Y-25393D02*
G75*
G03X31280Y-25394I-215J-196D01*
G74*
G01*
X31711Y-25786D02*
G75*
G03X31712Y-25394I-215J196D01*
G74*
G01*
X31280Y-25787D02*
G75*
G03X31712Y-25786I215J196D01*
G74*
G01*
X31280Y-25394D02*
G75*
G03X31280Y-25786I215J-196D01*
G74*
G01*
G54D14*
X31535Y-27126D02*
X31457Y-27126D01*
X31457Y-27126D02*
X31457Y-27204D01*
X31535Y-27204D02*
X31457Y-27204D01*
X31535Y-27126D02*
X31535Y-27204D01*
X31319Y-26890D02*
X31182Y-26890D01*
X31182Y-26890D02*
X31182Y-26988D01*
X31319Y-26988D02*
X31182Y-26988D01*
X31319Y-26890D02*
X31319Y-26988D01*
X31182Y-26890D02*
X31142Y-26890D01*
X31142Y-26890D02*
X31142Y-27361D01*
X31182Y-27361D02*
X31142Y-27361D01*
X31182Y-26890D02*
X31182Y-27361D01*
X31182Y-27381D02*
X31142Y-27381D01*
X31142Y-27381D02*
X31142Y-27440D01*
X31182Y-27440D02*
X31142Y-27440D01*
X31182Y-27381D02*
X31182Y-27440D01*
X31850Y-26890D02*
X31810Y-26890D01*
X31810Y-26890D02*
X31810Y-27361D01*
X31850Y-27361D02*
X31810Y-27361D01*
X31850Y-26890D02*
X31850Y-27361D01*
X31850Y-27381D02*
X31810Y-27381D01*
X31810Y-27381D02*
X31810Y-27440D01*
X31850Y-27440D02*
X31810Y-27440D01*
X31850Y-27381D02*
X31850Y-27440D01*
X31319Y-26890D02*
X31260Y-26890D01*
X31260Y-26890D02*
X31260Y-26988D01*
X31319Y-26988D02*
X31260Y-26988D01*
X31319Y-26890D02*
X31319Y-26988D01*
G54D15*
X30886Y-26870D02*
X32106Y-26870D01*
X32106Y-26870D02*
X32106Y-27460D01*
X32106Y-27460D02*
X30886Y-27460D01*
X30886Y-27460D02*
X30886Y-26870D01*
X31711Y-26968D02*
G75*
G03X31280Y-26969I-215J-196D01*
G74*
G01*
X31711Y-27361D02*
G75*
G03X31712Y-26969I-215J196D01*
G74*
G01*
X31280Y-27361D02*
G75*
G03X31712Y-27361I215J196D01*
G74*
G01*
X31280Y-26969D02*
G75*
G03X31280Y-27361I215J-196D01*
G74*
G01*
G54D14*
X31535Y-28701D02*
X31457Y-28701D01*
X31457Y-28701D02*
X31457Y-28779D01*
X31535Y-28779D02*
X31457Y-28779D01*
X31535Y-28701D02*
X31535Y-28779D01*
X31319Y-28465D02*
X31182Y-28465D01*
X31182Y-28465D02*
X31182Y-28563D01*
X31319Y-28563D02*
X31182Y-28563D01*
X31319Y-28465D02*
X31319Y-28563D01*
X31182Y-28465D02*
X31142Y-28465D01*
X31142Y-28465D02*
X31142Y-28936D01*
X31182Y-28936D02*
X31142Y-28936D01*
X31182Y-28465D02*
X31182Y-28936D01*
X31182Y-28956D02*
X31142Y-28956D01*
X31142Y-28956D02*
X31142Y-29015D01*
X31182Y-29015D02*
X31142Y-29015D01*
X31182Y-28956D02*
X31182Y-29015D01*
X31850Y-28465D02*
X31810Y-28465D01*
X31810Y-28465D02*
X31810Y-28936D01*
X31850Y-28936D02*
X31810Y-28936D01*
X31850Y-28465D02*
X31850Y-28936D01*
X31850Y-28956D02*
X31810Y-28956D01*
X31810Y-28956D02*
X31810Y-29015D01*
X31850Y-29015D02*
X31810Y-29015D01*
X31850Y-28956D02*
X31850Y-29015D01*
X31319Y-28465D02*
X31260Y-28465D01*
X31260Y-28465D02*
X31260Y-28563D01*
X31319Y-28563D02*
X31260Y-28563D01*
X31319Y-28465D02*
X31319Y-28563D01*
G54D15*
X30886Y-28445D02*
X32106Y-28445D01*
X32106Y-28445D02*
X32106Y-29035D01*
X32106Y-29035D02*
X30886Y-29035D01*
X30886Y-29035D02*
X30886Y-28445D01*
X31711Y-28543D02*
G75*
G03X31280Y-28544I-215J-196D01*
G74*
G01*
X31711Y-28936D02*
G75*
G03X31712Y-28544I-215J196D01*
G74*
G01*
X31280Y-28936D02*
G75*
G03X31712Y-28936I215J196D01*
G74*
G01*
X31280Y-28543D02*
G75*
G03X31280Y-28936I215J-196D01*
G74*
G01*
G54D14*
X31535Y-30275D02*
X31457Y-30275D01*
X31457Y-30275D02*
X31457Y-30353D01*
X31535Y-30353D02*
X31457Y-30353D01*
X31535Y-30275D02*
X31535Y-30353D01*
X31319Y-30039D02*
X31182Y-30039D01*
X31182Y-30039D02*
X31182Y-30137D01*
X31319Y-30137D02*
X31182Y-30137D01*
X31319Y-30039D02*
X31319Y-30137D01*
X31182Y-30039D02*
X31142Y-30039D01*
X31142Y-30039D02*
X31142Y-30510D01*
X31182Y-30510D02*
X31142Y-30510D01*
X31182Y-30039D02*
X31182Y-30510D01*
X31182Y-30530D02*
X31142Y-30530D01*
X31142Y-30530D02*
X31142Y-30589D01*
X31182Y-30589D02*
X31142Y-30589D01*
X31182Y-30530D02*
X31182Y-30589D01*
X31850Y-30039D02*
X31810Y-30039D01*
X31810Y-30039D02*
X31810Y-30510D01*
X31850Y-30510D02*
X31810Y-30510D01*
X31850Y-30039D02*
X31850Y-30510D01*
X31850Y-30530D02*
X31810Y-30530D01*
X31810Y-30530D02*
X31810Y-30589D01*
X31850Y-30589D02*
X31810Y-30589D01*
X31850Y-30530D02*
X31850Y-30589D01*
X31319Y-30039D02*
X31260Y-30039D01*
X31260Y-30039D02*
X31260Y-30137D01*
X31319Y-30137D02*
X31260Y-30137D01*
X31319Y-30039D02*
X31319Y-30137D01*
G54D15*
X30886Y-30019D02*
X32106Y-30019D01*
X32106Y-30019D02*
X32106Y-30609D01*
X32106Y-30609D02*
X30886Y-30609D01*
X30886Y-30609D02*
X30886Y-30019D01*
X31711Y-30118D02*
G75*
G03X31280Y-30118I-215J-196D01*
G74*
G01*
X31711Y-30511D02*
G75*
G03X31712Y-30118I-215J196D01*
G74*
G01*
X31280Y-30511D02*
G75*
G03X31712Y-30510I215J196D01*
G74*
G01*
X31280Y-30118D02*
G75*
G03X31280Y-30510I215J-196D01*
G74*
G01*
G54D14*
X31535Y-31850D02*
X31457Y-31850D01*
X31457Y-31850D02*
X31457Y-31928D01*
X31535Y-31928D02*
X31457Y-31928D01*
X31535Y-31850D02*
X31535Y-31928D01*
X31319Y-31614D02*
X31182Y-31614D01*
X31182Y-31614D02*
X31182Y-31712D01*
X31319Y-31712D02*
X31182Y-31712D01*
X31319Y-31614D02*
X31319Y-31712D01*
X31182Y-31614D02*
X31142Y-31614D01*
X31142Y-31614D02*
X31142Y-32085D01*
X31182Y-32085D02*
X31142Y-32085D01*
X31182Y-31614D02*
X31182Y-32085D01*
X31182Y-32105D02*
X31142Y-32105D01*
X31142Y-32105D02*
X31142Y-32164D01*
X31182Y-32164D02*
X31142Y-32164D01*
X31182Y-32105D02*
X31182Y-32164D01*
X31850Y-31614D02*
X31810Y-31614D01*
X31810Y-31614D02*
X31810Y-32085D01*
X31850Y-32085D02*
X31810Y-32085D01*
X31850Y-31614D02*
X31850Y-32085D01*
X31850Y-32105D02*
X31810Y-32105D01*
X31810Y-32105D02*
X31810Y-32164D01*
X31850Y-32164D02*
X31810Y-32164D01*
X31850Y-32105D02*
X31850Y-32164D01*
X31319Y-31614D02*
X31260Y-31614D01*
X31260Y-31614D02*
X31260Y-31712D01*
X31319Y-31712D02*
X31260Y-31712D01*
X31319Y-31614D02*
X31319Y-31712D01*
G54D15*
X30886Y-31594D02*
X32106Y-31594D01*
X32106Y-31594D02*
X32106Y-32184D01*
X32106Y-32184D02*
X30886Y-32184D01*
X30886Y-32184D02*
X30886Y-31594D01*
X31711Y-31693D02*
G75*
G03X31280Y-31693I-215J-196D01*
G74*
G01*
X31711Y-32085D02*
G75*
G03X31712Y-31693I-215J196D01*
G74*
G01*
X31280Y-32086D02*
G75*
G03X31712Y-32085I215J196D01*
G74*
G01*
X31280Y-31693D02*
G75*
G03X31280Y-32085I215J-196D01*
G74*
G01*
G54D14*
X31535Y-33425D02*
X31457Y-33425D01*
X31457Y-33425D02*
X31457Y-33503D01*
X31535Y-33503D02*
X31457Y-33503D01*
X31535Y-33425D02*
X31535Y-33503D01*
X31319Y-33189D02*
X31182Y-33189D01*
X31182Y-33189D02*
X31182Y-33287D01*
X31319Y-33287D02*
X31182Y-33287D01*
X31319Y-33189D02*
X31319Y-33287D01*
X31182Y-33189D02*
X31142Y-33189D01*
X31142Y-33189D02*
X31142Y-33660D01*
X31182Y-33660D02*
X31142Y-33660D01*
X31182Y-33189D02*
X31182Y-33660D01*
X31182Y-33680D02*
X31142Y-33680D01*
X31142Y-33680D02*
X31142Y-33739D01*
X31182Y-33739D02*
X31142Y-33739D01*
X31182Y-33680D02*
X31182Y-33739D01*
X31850Y-33189D02*
X31810Y-33189D01*
X31810Y-33189D02*
X31810Y-33660D01*
X31850Y-33660D02*
X31810Y-33660D01*
X31850Y-33189D02*
X31850Y-33660D01*
X31850Y-33680D02*
X31810Y-33680D01*
X31810Y-33680D02*
X31810Y-33739D01*
X31850Y-33739D02*
X31810Y-33739D01*
X31850Y-33680D02*
X31850Y-33739D01*
X31319Y-33189D02*
X31260Y-33189D01*
X31260Y-33189D02*
X31260Y-33287D01*
X31319Y-33287D02*
X31260Y-33287D01*
X31319Y-33189D02*
X31319Y-33287D01*
G54D15*
X30886Y-33169D02*
X32106Y-33169D01*
X32106Y-33169D02*
X32106Y-33759D01*
X32106Y-33759D02*
X30886Y-33759D01*
X30886Y-33759D02*
X30886Y-33169D01*
X31711Y-33267D02*
G75*
G03X31280Y-33268I-215J-196D01*
G74*
G01*
X31711Y-33660D02*
G75*
G03X31712Y-33268I-215J196D01*
G74*
G01*
X31280Y-33661D02*
G75*
G03X31712Y-33660I215J196D01*
G74*
G01*
X31280Y-33268D02*
G75*
G03X31280Y-33660I215J-196D01*
G74*
G01*
G54D14*
X31535Y-35000D02*
X31457Y-35000D01*
X31457Y-35000D02*
X31457Y-35078D01*
X31535Y-35078D02*
X31457Y-35078D01*
X31535Y-35000D02*
X31535Y-35078D01*
X31319Y-34764D02*
X31182Y-34764D01*
X31182Y-34764D02*
X31182Y-34862D01*
X31319Y-34862D02*
X31182Y-34862D01*
X31319Y-34764D02*
X31319Y-34862D01*
X31182Y-34764D02*
X31142Y-34764D01*
X31142Y-34764D02*
X31142Y-35235D01*
X31182Y-35235D02*
X31142Y-35235D01*
X31182Y-34764D02*
X31182Y-35235D01*
X31182Y-35255D02*
X31142Y-35255D01*
X31142Y-35255D02*
X31142Y-35314D01*
X31182Y-35314D02*
X31142Y-35314D01*
X31182Y-35255D02*
X31182Y-35314D01*
X31850Y-34764D02*
X31810Y-34764D01*
X31810Y-34764D02*
X31810Y-35235D01*
X31850Y-35235D02*
X31810Y-35235D01*
X31850Y-34764D02*
X31850Y-35235D01*
X31850Y-35255D02*
X31810Y-35255D01*
X31810Y-35255D02*
X31810Y-35314D01*
X31850Y-35314D02*
X31810Y-35314D01*
X31850Y-35255D02*
X31850Y-35314D01*
X31319Y-34764D02*
X31260Y-34764D01*
X31260Y-34764D02*
X31260Y-34862D01*
X31319Y-34862D02*
X31260Y-34862D01*
X31319Y-34764D02*
X31319Y-34862D01*
G54D15*
X30886Y-34744D02*
X32106Y-34744D01*
X32106Y-34744D02*
X32106Y-35334D01*
X32106Y-35334D02*
X30886Y-35334D01*
X30886Y-35334D02*
X30886Y-34744D01*
X31711Y-34842D02*
G75*
G03X31280Y-34843I-215J-196D01*
G74*
G01*
X31711Y-35235D02*
G75*
G03X31712Y-34843I-215J196D01*
G74*
G01*
X31280Y-35235D02*
G75*
G03X31712Y-35235I215J196D01*
G74*
G01*
X31280Y-34843D02*
G75*
G03X31280Y-35235I215J-196D01*
G74*
G01*
G54D14*
X31535Y-36575D02*
X31457Y-36575D01*
X31457Y-36575D02*
X31457Y-36653D01*
X31535Y-36653D02*
X31457Y-36653D01*
X31535Y-36575D02*
X31535Y-36653D01*
X31319Y-36339D02*
X31182Y-36339D01*
X31182Y-36339D02*
X31182Y-36437D01*
X31319Y-36437D02*
X31182Y-36437D01*
X31319Y-36339D02*
X31319Y-36437D01*
X31182Y-36339D02*
X31142Y-36339D01*
X31142Y-36339D02*
X31142Y-36810D01*
X31182Y-36810D02*
X31142Y-36810D01*
X31182Y-36339D02*
X31182Y-36810D01*
X31182Y-36830D02*
X31142Y-36830D01*
X31142Y-36830D02*
X31142Y-36889D01*
X31182Y-36889D02*
X31142Y-36889D01*
X31182Y-36830D02*
X31182Y-36889D01*
X31850Y-36339D02*
X31810Y-36339D01*
X31810Y-36339D02*
X31810Y-36810D01*
X31850Y-36810D02*
X31810Y-36810D01*
X31850Y-36339D02*
X31850Y-36810D01*
X31850Y-36830D02*
X31810Y-36830D01*
X31810Y-36830D02*
X31810Y-36889D01*
X31850Y-36889D02*
X31810Y-36889D01*
X31850Y-36830D02*
X31850Y-36889D01*
X31319Y-36339D02*
X31260Y-36339D01*
X31260Y-36339D02*
X31260Y-36437D01*
X31319Y-36437D02*
X31260Y-36437D01*
X31319Y-36339D02*
X31319Y-36437D01*
G54D15*
X30886Y-36319D02*
X32106Y-36319D01*
X32106Y-36319D02*
X32106Y-36909D01*
X32106Y-36909D02*
X30886Y-36909D01*
X30886Y-36909D02*
X30886Y-36319D01*
X31711Y-36417D02*
G75*
G03X31280Y-36418I-215J-196D01*
G74*
G01*
X31711Y-36810D02*
G75*
G03X31712Y-36418I-215J196D01*
G74*
G01*
X31280Y-36810D02*
G75*
G03X31712Y-36810I215J196D01*
G74*
G01*
X31280Y-36417D02*
G75*
G03X31280Y-36810I215J-196D01*
G74*
G01*
G54D16*
X32894Y-45492D02*
X30098Y-45492D01*
X30098Y-45492D02*
X30098Y-49114D01*
X30098Y-49114D02*
X32894Y-49114D01*
X32894Y-49114D02*
X32894Y-45492D01*
X33858Y-21653D02*
G75*
G03X33858Y-21653I-2362J0D01*
G74*
G01*
G54D13*
X32536Y-43557D02*
X31636Y-43557D01*
X31636Y-43557D02*
X31636Y-43057D01*
X31636Y-43057D02*
X32536Y-43057D01*
X32536Y-43057D02*
X32536Y-43557D01*
X30455Y-43057D02*
X31355Y-43057D01*
X31355Y-43057D02*
X31355Y-43557D01*
X31355Y-43557D02*
X30455Y-43557D01*
X30455Y-43557D02*
X30455Y-43057D01*
X29780Y-44738D02*
X28880Y-44738D01*
X28880Y-44738D02*
X28880Y-44238D01*
X28880Y-44238D02*
X29780Y-44238D01*
X29780Y-44238D02*
X29780Y-44738D01*
X31636Y-42269D02*
X32536Y-42269D01*
X32536Y-42269D02*
X32536Y-42769D01*
X32536Y-42769D02*
X31636Y-42769D01*
X31636Y-42769D02*
X31636Y-42269D01*
X31355Y-42769D02*
X30455Y-42769D01*
X30455Y-42769D02*
X30455Y-42269D01*
X30455Y-42269D02*
X31355Y-42269D01*
X31355Y-42269D02*
X31355Y-42769D01*
X34294Y-41659D02*
X35194Y-41659D01*
X35194Y-41659D02*
X35194Y-42159D01*
X35194Y-42159D02*
X34294Y-42159D01*
X34294Y-42159D02*
X34294Y-41659D01*
X29265Y-35849D02*
X29265Y-36749D01*
X29265Y-36749D02*
X28765Y-36749D01*
X28765Y-36749D02*
X28765Y-35849D01*
X28765Y-35849D02*
X29265Y-35849D01*
X33320Y-25140D02*
X33320Y-26040D01*
X33320Y-26040D02*
X32820Y-26040D01*
X32820Y-26040D02*
X32820Y-25140D01*
X32820Y-25140D02*
X33320Y-25140D01*
X33320Y-26715D02*
X33320Y-27615D01*
X33320Y-27615D02*
X32820Y-27615D01*
X32820Y-27615D02*
X32820Y-26715D01*
X32820Y-26715D02*
X33320Y-26715D01*
X33320Y-28290D02*
X33320Y-29190D01*
X33320Y-29190D02*
X32820Y-29190D01*
X32820Y-29190D02*
X32820Y-28290D01*
X32820Y-28290D02*
X33320Y-28290D01*
X33320Y-29864D02*
X33320Y-30764D01*
X33320Y-30764D02*
X32820Y-30764D01*
X32820Y-30764D02*
X32820Y-29864D01*
X32820Y-29864D02*
X33320Y-29864D01*
X33320Y-31439D02*
X33320Y-32339D01*
X33320Y-32339D02*
X32820Y-32339D01*
X32820Y-32339D02*
X32820Y-31439D01*
X32820Y-31439D02*
X33320Y-31439D01*
X33320Y-33014D02*
X33320Y-33914D01*
X33320Y-33914D02*
X32820Y-33914D01*
X32820Y-33914D02*
X32820Y-33014D01*
X32820Y-33014D02*
X33320Y-33014D01*
X33320Y-34589D02*
X33320Y-35489D01*
X33320Y-35489D02*
X32820Y-35489D01*
X32820Y-35489D02*
X32820Y-34589D01*
X32820Y-34589D02*
X33320Y-34589D01*
X33320Y-36164D02*
X33320Y-37064D01*
X33320Y-37064D02*
X32820Y-37064D01*
X32820Y-37064D02*
X32820Y-36164D01*
X32820Y-36164D02*
X33320Y-36164D01*
G54D10*
X27834Y-40826D02*
X27952Y-40826D01*
X27834Y-38740D02*
X27952Y-38740D01*
X29212Y-38740D02*
X29133Y-38740D01*
X29212Y-40826D02*
X29133Y-40826D01*
X29212Y-38740D02*
X29330Y-38858D01*
X29330Y-38858D02*
X29330Y-40708D01*
X29330Y-40708D02*
X29212Y-40826D01*
X27834Y-40826D02*
X27716Y-40708D01*
X27716Y-40708D02*
X27716Y-38858D01*
X27716Y-38858D02*
X27834Y-38740D01*
G54D13*
X29773Y-34126D02*
X28573Y-34126D01*
X28573Y-34126D02*
X28573Y-33826D01*
X28573Y-33826D02*
X29773Y-33826D01*
X29773Y-33826D02*
X29773Y-34126D01*
X32466Y-43718D02*
X32466Y-43988D01*
X32316Y-43848D02*
X32596Y-43848D01*
X32466Y-43748D02*
X32466Y-43718D01*
X31196Y-43938D02*
X30596Y-43938D01*
X30596Y-43938D02*
X30596Y-45038D01*
X30596Y-45038D02*
X31196Y-45038D01*
X31796Y-45038D02*
X32396Y-45038D01*
X32396Y-45038D02*
X32396Y-43938D01*
X32396Y-43938D02*
X31796Y-43938D01*
X29721Y-42753D02*
X30121Y-42753D01*
X29721Y-43613D02*
X29721Y-42233D01*
X29721Y-42233D02*
X30121Y-42233D01*
X30121Y-42233D02*
X30121Y-43613D01*
X30121Y-43613D02*
X29721Y-43613D01*
X29130Y-42753D02*
X29530Y-42753D01*
X29130Y-43613D02*
X29130Y-42233D01*
X29130Y-42233D02*
X29530Y-42233D01*
X29530Y-42233D02*
X29530Y-43613D01*
X29530Y-43613D02*
X29130Y-43613D01*
X32870Y-42753D02*
X33270Y-42753D01*
X32870Y-43613D02*
X32870Y-42233D01*
X32870Y-42233D02*
X33270Y-42233D01*
X33270Y-42233D02*
X33270Y-43613D01*
X33270Y-43613D02*
X32870Y-43613D01*
X33461Y-42753D02*
X33861Y-42753D01*
X33461Y-43613D02*
X33461Y-42233D01*
X33461Y-42233D02*
X33861Y-42233D01*
X33861Y-42233D02*
X33861Y-43613D01*
X33861Y-43613D02*
X33461Y-43613D01*
G54D11*
X31347Y-38725D02*
X31347Y-38410D01*
X31718Y-38695D02*
X31701Y-38710D01*
X31650Y-38725D01*
X31616Y-38725D01*
X31566Y-38710D01*
X31532Y-38680D01*
X31515Y-38650D01*
X31498Y-38590D01*
X31498Y-38545D01*
X31515Y-38485D01*
X31532Y-38455D01*
X31566Y-38425D01*
X31616Y-38410D01*
X31650Y-38410D01*
X31701Y-38425D01*
X31718Y-38440D01*
X32055Y-38725D02*
X31853Y-38725D01*
X31954Y-38725D02*
X31954Y-38410D01*
X31920Y-38455D01*
X31886Y-38485D01*
X31853Y-38500D01*
G54D17*
X34402Y-36695D02*
X34402Y-36545D01*
X34492Y-36725D02*
X34177Y-36620D01*
X34492Y-36515D01*
X34177Y-36455D02*
X34177Y-36275D01*
X34492Y-36365D02*
X34177Y-36365D01*
X34492Y-36170D02*
X34282Y-36170D01*
X34312Y-36170D02*
X34297Y-36155D01*
X34282Y-36125D01*
X34282Y-36080D01*
X34297Y-36050D01*
X34327Y-36035D01*
X34492Y-36035D01*
X34327Y-36035D02*
X34297Y-36020D01*
X34282Y-35990D01*
X34282Y-35945D01*
X34297Y-35915D01*
X34327Y-35900D01*
X34492Y-35900D01*
X34477Y-35630D02*
X34492Y-35660D01*
X34492Y-35720D01*
X34477Y-35750D01*
X34447Y-35765D01*
X34327Y-35765D01*
X34297Y-35750D01*
X34282Y-35720D01*
X34282Y-35660D01*
X34297Y-35630D01*
X34327Y-35615D01*
X34357Y-35615D01*
X34387Y-35765D01*
X34282Y-35345D02*
X34537Y-35345D01*
X34567Y-35360D01*
X34582Y-35375D01*
X34597Y-35405D01*
X34597Y-35450D01*
X34582Y-35480D01*
X34477Y-35345D02*
X34492Y-35375D01*
X34492Y-35435D01*
X34477Y-35465D01*
X34462Y-35480D01*
X34432Y-35495D01*
X34342Y-35495D01*
X34312Y-35480D01*
X34297Y-35465D01*
X34282Y-35435D01*
X34282Y-35375D01*
X34297Y-35345D01*
X34492Y-35060D02*
X34327Y-35060D01*
X34297Y-35075D01*
X34282Y-35105D01*
X34282Y-35165D01*
X34297Y-35195D01*
X34477Y-35060D02*
X34492Y-35090D01*
X34492Y-35165D01*
X34477Y-35195D01*
X34447Y-35210D01*
X34417Y-35210D01*
X34387Y-35195D01*
X34372Y-35165D01*
X34372Y-35090D01*
X34357Y-35060D01*
X34312Y-34865D02*
X34297Y-34895D01*
X34282Y-34910D01*
X34252Y-34925D01*
X34237Y-34925D01*
X34207Y-34910D01*
X34192Y-34895D01*
X34177Y-34865D01*
X34177Y-34805D01*
X34192Y-34775D01*
X34207Y-34760D01*
X34237Y-34745D01*
X34252Y-34745D01*
X34282Y-34760D01*
X34297Y-34775D01*
X34312Y-34805D01*
X34312Y-34865D01*
X34327Y-34895D01*
X34342Y-34910D01*
X34372Y-34925D01*
X34432Y-34925D01*
X34462Y-34910D01*
X34477Y-34895D01*
X34492Y-34865D01*
X34492Y-34805D01*
X34477Y-34775D01*
X34462Y-34760D01*
X34432Y-34745D01*
X34372Y-34745D01*
X34342Y-34760D01*
X34327Y-34775D01*
X34312Y-34805D01*
X34312Y-34565D02*
X34297Y-34595D01*
X34282Y-34610D01*
X34252Y-34625D01*
X34237Y-34625D01*
X34207Y-34610D01*
X34192Y-34595D01*
X34177Y-34565D01*
X34177Y-34505D01*
X34192Y-34476D01*
X34207Y-34461D01*
X34237Y-34446D01*
X34252Y-34446D01*
X34282Y-34461D01*
X34297Y-34476D01*
X34312Y-34505D01*
X34312Y-34565D01*
X34327Y-34595D01*
X34342Y-34610D01*
X34372Y-34625D01*
X34432Y-34625D01*
X34462Y-34610D01*
X34477Y-34595D01*
X34492Y-34565D01*
X34492Y-34505D01*
X34477Y-34476D01*
X34462Y-34461D01*
X34432Y-34446D01*
X34372Y-34446D01*
X34342Y-34461D01*
X34327Y-34476D01*
X34312Y-34505D01*
X34492Y-34311D02*
X34177Y-34311D01*
X34177Y-34191D01*
X34192Y-34161D01*
X34207Y-34146D01*
X34237Y-34131D01*
X34282Y-34131D01*
X34312Y-34146D01*
X34327Y-34161D01*
X34342Y-34191D01*
X34342Y-34311D01*
G54D12*
X35121Y-38284D02*
X34721Y-38284D01*
X35102Y-38112D02*
X35121Y-38055D01*
X35121Y-37960D01*
X35102Y-37922D01*
X35083Y-37903D01*
X35045Y-37884D01*
X35007Y-37884D01*
X34969Y-37903D01*
X34950Y-37922D01*
X34931Y-37960D01*
X34912Y-38036D01*
X34893Y-38074D01*
X34874Y-38093D01*
X34836Y-38112D01*
X34798Y-38112D01*
X34759Y-38093D01*
X34740Y-38074D01*
X34721Y-38036D01*
X34721Y-37941D01*
X34740Y-37884D01*
X35121Y-37712D02*
X34721Y-37712D01*
X34721Y-37560D01*
X34740Y-37522D01*
X34759Y-37503D01*
X34798Y-37484D01*
X34855Y-37484D01*
X34893Y-37503D01*
X34912Y-37522D01*
X34931Y-37560D01*
X34931Y-37712D01*
G54D18*
X30204Y-39002D02*
X30215Y-39010D01*
X30227Y-39032D01*
X30227Y-39047D01*
X30215Y-39069D01*
X30192Y-39084D01*
X30169Y-39092D01*
X30123Y-39099D01*
X30089Y-39099D01*
X30043Y-39092D01*
X30020Y-39084D01*
X29997Y-39069D01*
X29986Y-39047D01*
X29986Y-39032D01*
X29997Y-39010D01*
X30009Y-39002D01*
X30227Y-38853D02*
X30227Y-38942D01*
X30227Y-38897D02*
X29986Y-38897D01*
X30020Y-38912D01*
X30043Y-38927D01*
X30054Y-38942D01*
X28910Y-42113D02*
X28903Y-42125D01*
X28880Y-42136D01*
X28865Y-42136D01*
X28843Y-42125D01*
X28828Y-42102D01*
X28821Y-42079D01*
X28813Y-42033D01*
X28813Y-41998D01*
X28821Y-41952D01*
X28828Y-41930D01*
X28843Y-41907D01*
X28865Y-41895D01*
X28880Y-41895D01*
X28903Y-41907D01*
X28910Y-41918D01*
X28963Y-41895D02*
X29060Y-41895D01*
X29008Y-41987D01*
X29030Y-41987D01*
X29045Y-41998D01*
X29052Y-42010D01*
X29060Y-42033D01*
X29060Y-42090D01*
X29052Y-42113D01*
X29045Y-42125D01*
X29030Y-42136D01*
X28985Y-42136D01*
X28970Y-42125D01*
X28963Y-42113D01*
X28812Y-37586D02*
X28804Y-37597D01*
X28782Y-37609D01*
X28767Y-37609D01*
X28745Y-37597D01*
X28730Y-37574D01*
X28722Y-37551D01*
X28715Y-37505D01*
X28715Y-37471D01*
X28722Y-37425D01*
X28730Y-37402D01*
X28745Y-37379D01*
X28767Y-37368D01*
X28782Y-37368D01*
X28804Y-37379D01*
X28812Y-37390D01*
X28946Y-37448D02*
X28946Y-37609D01*
X28909Y-37356D02*
X28872Y-37528D01*
X28969Y-37528D01*
G54D19*
X30042Y-25679D02*
X30042Y-25482D01*
X30098Y-25482D01*
X30132Y-25492D01*
X30154Y-25510D01*
X30165Y-25529D01*
X30177Y-25567D01*
X30177Y-25595D01*
X30165Y-25632D01*
X30154Y-25651D01*
X30132Y-25670D01*
X30098Y-25679D01*
X30042Y-25679D01*
X30390Y-25482D02*
X30278Y-25482D01*
X30267Y-25576D01*
X30278Y-25567D01*
X30300Y-25557D01*
X30357Y-25557D01*
X30379Y-25567D01*
X30390Y-25576D01*
X30402Y-25595D01*
X30402Y-25642D01*
X30390Y-25660D01*
X30379Y-25670D01*
X30357Y-25679D01*
X30300Y-25679D01*
X30278Y-25670D01*
X30267Y-25660D01*
X30042Y-27254D02*
X30042Y-27057D01*
X30098Y-27057D01*
X30132Y-27066D01*
X30154Y-27085D01*
X30165Y-27104D01*
X30177Y-27141D01*
X30177Y-27170D01*
X30165Y-27207D01*
X30154Y-27226D01*
X30132Y-27245D01*
X30098Y-27254D01*
X30042Y-27254D01*
X30379Y-27057D02*
X30334Y-27057D01*
X30312Y-27066D01*
X30300Y-27076D01*
X30278Y-27104D01*
X30267Y-27141D01*
X30267Y-27216D01*
X30278Y-27235D01*
X30289Y-27245D01*
X30312Y-27254D01*
X30357Y-27254D01*
X30379Y-27245D01*
X30390Y-27235D01*
X30402Y-27216D01*
X30402Y-27170D01*
X30390Y-27151D01*
X30379Y-27141D01*
X30357Y-27132D01*
X30312Y-27132D01*
X30289Y-27141D01*
X30278Y-27151D01*
X30267Y-27170D01*
X30042Y-28829D02*
X30042Y-28632D01*
X30098Y-28632D01*
X30132Y-28641D01*
X30154Y-28660D01*
X30165Y-28679D01*
X30177Y-28716D01*
X30177Y-28744D01*
X30165Y-28782D01*
X30154Y-28801D01*
X30132Y-28819D01*
X30098Y-28829D01*
X30042Y-28829D01*
X30255Y-28632D02*
X30413Y-28632D01*
X30312Y-28829D01*
X30042Y-30404D02*
X30042Y-30207D01*
X30098Y-30207D01*
X30132Y-30216D01*
X30154Y-30235D01*
X30165Y-30254D01*
X30177Y-30291D01*
X30177Y-30319D01*
X30165Y-30357D01*
X30154Y-30375D01*
X30132Y-30394D01*
X30098Y-30404D01*
X30042Y-30404D01*
X30312Y-30291D02*
X30289Y-30282D01*
X30278Y-30272D01*
X30267Y-30254D01*
X30267Y-30244D01*
X30278Y-30225D01*
X30289Y-30216D01*
X30312Y-30207D01*
X30357Y-30207D01*
X30379Y-30216D01*
X30390Y-30225D01*
X30402Y-30244D01*
X30402Y-30254D01*
X30390Y-30272D01*
X30379Y-30282D01*
X30357Y-30291D01*
X30312Y-30291D01*
X30289Y-30300D01*
X30278Y-30310D01*
X30267Y-30329D01*
X30267Y-30366D01*
X30278Y-30385D01*
X30289Y-30394D01*
X30312Y-30404D01*
X30357Y-30404D01*
X30379Y-30394D01*
X30390Y-30385D01*
X30402Y-30366D01*
X30402Y-30329D01*
X30390Y-30310D01*
X30379Y-30300D01*
X30357Y-30291D01*
X30042Y-31978D02*
X30042Y-31781D01*
X30098Y-31781D01*
X30132Y-31791D01*
X30154Y-31810D01*
X30165Y-31828D01*
X30177Y-31866D01*
X30177Y-31894D01*
X30165Y-31931D01*
X30154Y-31950D01*
X30132Y-31969D01*
X30098Y-31978D01*
X30042Y-31978D01*
X30289Y-31978D02*
X30334Y-31978D01*
X30357Y-31969D01*
X30368Y-31960D01*
X30390Y-31931D01*
X30402Y-31894D01*
X30402Y-31819D01*
X30390Y-31800D01*
X30379Y-31791D01*
X30357Y-31781D01*
X30312Y-31781D01*
X30289Y-31791D01*
X30278Y-31800D01*
X30267Y-31819D01*
X30267Y-31866D01*
X30278Y-31885D01*
X30289Y-31894D01*
X30312Y-31903D01*
X30357Y-31903D01*
X30379Y-31894D01*
X30390Y-31885D01*
X30402Y-31866D01*
X29831Y-33553D02*
X29831Y-33356D01*
X29887Y-33356D01*
X29921Y-33366D01*
X29943Y-33384D01*
X29955Y-33403D01*
X29966Y-33441D01*
X29966Y-33469D01*
X29955Y-33506D01*
X29943Y-33525D01*
X29921Y-33544D01*
X29887Y-33553D01*
X29831Y-33553D01*
X30191Y-33553D02*
X30056Y-33553D01*
X30123Y-33553D02*
X30123Y-33356D01*
X30101Y-33384D01*
X30078Y-33403D01*
X30056Y-33413D01*
X30337Y-33356D02*
X30359Y-33356D01*
X30382Y-33366D01*
X30393Y-33375D01*
X30404Y-33394D01*
X30416Y-33431D01*
X30416Y-33478D01*
X30404Y-33516D01*
X30393Y-33534D01*
X30382Y-33544D01*
X30359Y-33553D01*
X30337Y-33553D01*
X30314Y-33544D01*
X30303Y-33534D01*
X30292Y-33516D01*
X30281Y-33478D01*
X30281Y-33431D01*
X30292Y-33394D01*
X30303Y-33375D01*
X30314Y-33366D01*
X30337Y-33356D01*
X29831Y-35128D02*
X29831Y-34931D01*
X29887Y-34931D01*
X29921Y-34940D01*
X29943Y-34959D01*
X29955Y-34978D01*
X29966Y-35015D01*
X29966Y-35044D01*
X29955Y-35081D01*
X29943Y-35100D01*
X29921Y-35119D01*
X29887Y-35128D01*
X29831Y-35128D01*
X30191Y-35128D02*
X30056Y-35128D01*
X30123Y-35128D02*
X30123Y-34931D01*
X30101Y-34959D01*
X30078Y-34978D01*
X30056Y-34987D01*
X30416Y-35128D02*
X30281Y-35128D01*
X30348Y-35128D02*
X30348Y-34931D01*
X30326Y-34959D01*
X30303Y-34978D01*
X30281Y-34987D01*
X29831Y-36703D02*
X29831Y-36506D01*
X29887Y-36506D01*
X29921Y-36515D01*
X29943Y-36534D01*
X29955Y-36553D01*
X29966Y-36590D01*
X29966Y-36618D01*
X29955Y-36656D01*
X29943Y-36675D01*
X29921Y-36693D01*
X29887Y-36703D01*
X29831Y-36703D01*
X30191Y-36703D02*
X30056Y-36703D01*
X30123Y-36703D02*
X30123Y-36506D01*
X30101Y-36534D01*
X30078Y-36553D01*
X30056Y-36562D01*
X30281Y-36525D02*
X30292Y-36515D01*
X30314Y-36506D01*
X30371Y-36506D01*
X30393Y-36515D01*
X30404Y-36525D01*
X30416Y-36543D01*
X30416Y-36562D01*
X30404Y-36590D01*
X30269Y-36703D01*
X30416Y-36703D01*
G54D11*
X34158Y-47305D02*
X34158Y-46951D01*
X34308Y-46951D01*
X34345Y-46968D01*
X34364Y-46985D01*
X34383Y-47019D01*
X34383Y-47069D01*
X34364Y-47103D01*
X34345Y-47120D01*
X34308Y-47137D01*
X34158Y-47137D01*
X34720Y-47069D02*
X34720Y-47305D01*
X34626Y-46934D02*
X34533Y-47187D01*
X34776Y-47187D01*
G54D20*
X30865Y-24877D02*
X30865Y-24277D01*
X31094Y-24277D01*
X31151Y-24306D01*
X31180Y-24334D01*
X31208Y-24392D01*
X31208Y-24477D01*
X31180Y-24534D01*
X31151Y-24563D01*
X31094Y-24592D01*
X30865Y-24592D01*
X31408Y-24277D02*
X31808Y-24277D01*
X31408Y-24877D01*
X31808Y-24877D01*
X32351Y-24877D02*
X32008Y-24877D01*
X32180Y-24877D02*
X32180Y-24277D01*
X32123Y-24363D01*
X32065Y-24420D01*
X32008Y-24449D01*
X28354Y-21696D02*
X28811Y-21696D01*
X34180Y-21696D02*
X34637Y-21696D01*
X34409Y-21924D02*
X34409Y-21467D01*
G54D21*
X32647Y-43889D02*
X32587Y-43794D01*
X32544Y-43889D02*
X32544Y-43689D01*
X32612Y-43689D01*
X32630Y-43699D01*
X32638Y-43708D01*
X32647Y-43727D01*
X32647Y-43756D01*
X32638Y-43775D01*
X32630Y-43784D01*
X32612Y-43794D01*
X32544Y-43794D01*
X32818Y-43889D02*
X32715Y-43889D01*
X32767Y-43889D02*
X32767Y-43689D01*
X32750Y-43718D01*
X32732Y-43737D01*
X32715Y-43746D01*
X30383Y-43889D02*
X30323Y-43794D01*
X30280Y-43889D02*
X30280Y-43689D01*
X30349Y-43689D01*
X30366Y-43699D01*
X30374Y-43708D01*
X30383Y-43727D01*
X30383Y-43756D01*
X30374Y-43775D01*
X30366Y-43784D01*
X30349Y-43794D01*
X30280Y-43794D01*
X30451Y-43708D02*
X30460Y-43699D01*
X30477Y-43689D01*
X30520Y-43689D01*
X30537Y-43699D01*
X30546Y-43708D01*
X30554Y-43727D01*
X30554Y-43746D01*
X30546Y-43775D01*
X30443Y-43889D01*
X30554Y-43889D01*
X29300Y-45070D02*
X29240Y-44975D01*
X29197Y-45070D02*
X29197Y-44870D01*
X29266Y-44870D01*
X29283Y-44880D01*
X29292Y-44889D01*
X29300Y-44908D01*
X29300Y-44937D01*
X29292Y-44956D01*
X29283Y-44966D01*
X29266Y-44975D01*
X29197Y-44975D01*
X29360Y-44870D02*
X29472Y-44870D01*
X29412Y-44946D01*
X29437Y-44946D01*
X29454Y-44956D01*
X29463Y-44966D01*
X29472Y-44985D01*
X29472Y-45032D01*
X29463Y-45051D01*
X29454Y-45061D01*
X29437Y-45070D01*
X29386Y-45070D01*
X29369Y-45061D01*
X29360Y-45051D01*
X32253Y-42118D02*
X32193Y-42022D01*
X32150Y-42118D02*
X32150Y-41918D01*
X32219Y-41918D01*
X32236Y-41927D01*
X32244Y-41937D01*
X32253Y-41956D01*
X32253Y-41984D01*
X32244Y-42003D01*
X32236Y-42013D01*
X32219Y-42022D01*
X32150Y-42022D01*
X32416Y-41918D02*
X32330Y-41918D01*
X32322Y-42013D01*
X32330Y-42003D01*
X32347Y-41994D01*
X32390Y-41994D01*
X32407Y-42003D01*
X32416Y-42013D01*
X32424Y-42032D01*
X32424Y-42079D01*
X32416Y-42098D01*
X32407Y-42108D01*
X32390Y-42118D01*
X32347Y-42118D01*
X32330Y-42108D01*
X32322Y-42098D01*
X30777Y-42118D02*
X30717Y-42022D01*
X30674Y-42118D02*
X30674Y-41918D01*
X30742Y-41918D01*
X30759Y-41927D01*
X30768Y-41937D01*
X30777Y-41956D01*
X30777Y-41984D01*
X30768Y-42003D01*
X30759Y-42013D01*
X30742Y-42022D01*
X30674Y-42022D01*
X30931Y-41918D02*
X30897Y-41918D01*
X30879Y-41927D01*
X30871Y-41937D01*
X30854Y-41965D01*
X30845Y-42003D01*
X30845Y-42079D01*
X30854Y-42098D01*
X30862Y-42108D01*
X30879Y-42118D01*
X30914Y-42118D01*
X30931Y-42108D01*
X30939Y-42098D01*
X30948Y-42079D01*
X30948Y-42032D01*
X30939Y-42013D01*
X30931Y-42003D01*
X30914Y-41994D01*
X30879Y-41994D01*
X30862Y-42003D01*
X30854Y-42013D01*
X30845Y-42032D01*
X35009Y-42511D02*
X34949Y-42416D01*
X34906Y-42511D02*
X34906Y-42311D01*
X34975Y-42311D01*
X34992Y-42321D01*
X35000Y-42330D01*
X35009Y-42349D01*
X35009Y-42378D01*
X35000Y-42397D01*
X34992Y-42406D01*
X34975Y-42416D01*
X34906Y-42416D01*
X35069Y-42311D02*
X35189Y-42311D01*
X35112Y-42511D01*
X28535Y-36348D02*
X28440Y-36408D01*
X28535Y-36451D02*
X28335Y-36451D01*
X28335Y-36383D01*
X28344Y-36366D01*
X28354Y-36357D01*
X28373Y-36348D01*
X28402Y-36348D01*
X28421Y-36357D01*
X28430Y-36366D01*
X28440Y-36383D01*
X28440Y-36451D01*
X28421Y-36246D02*
X28411Y-36263D01*
X28402Y-36271D01*
X28382Y-36280D01*
X28373Y-36280D01*
X28354Y-36271D01*
X28344Y-36263D01*
X28335Y-36246D01*
X28335Y-36211D01*
X28344Y-36194D01*
X28354Y-36186D01*
X28373Y-36177D01*
X28382Y-36177D01*
X28402Y-36186D01*
X28411Y-36194D01*
X28421Y-36211D01*
X28421Y-36246D01*
X28430Y-36263D01*
X28440Y-36271D01*
X28459Y-36280D01*
X28497Y-36280D01*
X28516Y-36271D01*
X28525Y-36263D01*
X28535Y-36246D01*
X28535Y-36211D01*
X28525Y-36194D01*
X28516Y-36186D01*
X28497Y-36177D01*
X28459Y-36177D01*
X28440Y-36186D01*
X28430Y-36194D01*
X28421Y-36211D01*
X33653Y-25620D02*
X33558Y-25680D01*
X33653Y-25723D02*
X33453Y-25723D01*
X33453Y-25654D01*
X33462Y-25637D01*
X33472Y-25629D01*
X33491Y-25620D01*
X33520Y-25620D01*
X33539Y-25629D01*
X33548Y-25637D01*
X33558Y-25654D01*
X33558Y-25723D01*
X33653Y-25534D02*
X33653Y-25500D01*
X33643Y-25483D01*
X33634Y-25474D01*
X33605Y-25457D01*
X33567Y-25449D01*
X33491Y-25449D01*
X33472Y-25457D01*
X33462Y-25466D01*
X33453Y-25483D01*
X33453Y-25517D01*
X33462Y-25534D01*
X33472Y-25543D01*
X33491Y-25551D01*
X33539Y-25551D01*
X33558Y-25543D01*
X33567Y-25534D01*
X33577Y-25517D01*
X33577Y-25483D01*
X33567Y-25466D01*
X33558Y-25457D01*
X33539Y-25449D01*
X33653Y-27281D02*
X33558Y-27341D01*
X33653Y-27383D02*
X33453Y-27383D01*
X33453Y-27315D01*
X33462Y-27298D01*
X33472Y-27289D01*
X33491Y-27281D01*
X33520Y-27281D01*
X33539Y-27289D01*
X33548Y-27298D01*
X33558Y-27315D01*
X33558Y-27383D01*
X33653Y-27109D02*
X33653Y-27212D01*
X33653Y-27161D02*
X33453Y-27161D01*
X33482Y-27178D01*
X33501Y-27195D01*
X33510Y-27212D01*
X33453Y-26998D02*
X33453Y-26981D01*
X33462Y-26963D01*
X33472Y-26955D01*
X33491Y-26946D01*
X33529Y-26938D01*
X33577Y-26938D01*
X33615Y-26946D01*
X33634Y-26955D01*
X33643Y-26963D01*
X33653Y-26981D01*
X33653Y-26998D01*
X33643Y-27015D01*
X33634Y-27023D01*
X33615Y-27032D01*
X33577Y-27041D01*
X33529Y-27041D01*
X33491Y-27032D01*
X33472Y-27023D01*
X33462Y-27015D01*
X33453Y-26998D01*
X33653Y-28855D02*
X33558Y-28915D01*
X33653Y-28958D02*
X33453Y-28958D01*
X33453Y-28890D01*
X33462Y-28873D01*
X33472Y-28864D01*
X33491Y-28855D01*
X33520Y-28855D01*
X33539Y-28864D01*
X33548Y-28873D01*
X33558Y-28890D01*
X33558Y-28958D01*
X33653Y-28684D02*
X33653Y-28787D01*
X33653Y-28735D02*
X33453Y-28735D01*
X33482Y-28753D01*
X33501Y-28770D01*
X33510Y-28787D01*
X33653Y-28513D02*
X33653Y-28615D01*
X33653Y-28564D02*
X33453Y-28564D01*
X33482Y-28581D01*
X33501Y-28598D01*
X33510Y-28615D01*
X33161Y-30430D02*
X33066Y-30490D01*
X33161Y-30533D02*
X32961Y-30533D01*
X32961Y-30464D01*
X32970Y-30447D01*
X32980Y-30439D01*
X32999Y-30430D01*
X33028Y-30430D01*
X33047Y-30439D01*
X33056Y-30447D01*
X33066Y-30464D01*
X33066Y-30533D01*
X33161Y-30259D02*
X33161Y-30362D01*
X33161Y-30310D02*
X32961Y-30310D01*
X32989Y-30327D01*
X33008Y-30344D01*
X33018Y-30362D01*
X32980Y-30190D02*
X32970Y-30182D01*
X32961Y-30164D01*
X32961Y-30122D01*
X32970Y-30104D01*
X32980Y-30096D01*
X32999Y-30087D01*
X33018Y-30087D01*
X33047Y-30096D01*
X33161Y-30199D01*
X33161Y-30087D01*
X33653Y-32005D02*
X33558Y-32065D01*
X33653Y-32108D02*
X33453Y-32108D01*
X33453Y-32039D01*
X33462Y-32022D01*
X33472Y-32014D01*
X33491Y-32005D01*
X33520Y-32005D01*
X33539Y-32014D01*
X33548Y-32022D01*
X33558Y-32039D01*
X33558Y-32108D01*
X33653Y-31834D02*
X33653Y-31936D01*
X33653Y-31885D02*
X33453Y-31885D01*
X33482Y-31902D01*
X33501Y-31919D01*
X33510Y-31936D01*
X33453Y-31774D02*
X33453Y-31662D01*
X33529Y-31722D01*
X33529Y-31696D01*
X33539Y-31679D01*
X33548Y-31671D01*
X33567Y-31662D01*
X33615Y-31662D01*
X33634Y-31671D01*
X33643Y-31679D01*
X33653Y-31696D01*
X33653Y-31748D01*
X33643Y-31765D01*
X33634Y-31774D01*
X33653Y-33580D02*
X33558Y-33640D01*
X33653Y-33683D02*
X33453Y-33683D01*
X33453Y-33614D01*
X33462Y-33597D01*
X33472Y-33588D01*
X33491Y-33580D01*
X33520Y-33580D01*
X33539Y-33588D01*
X33548Y-33597D01*
X33558Y-33614D01*
X33558Y-33683D01*
X33653Y-33408D02*
X33653Y-33511D01*
X33653Y-33460D02*
X33453Y-33460D01*
X33482Y-33477D01*
X33501Y-33494D01*
X33510Y-33511D01*
X33520Y-33254D02*
X33653Y-33254D01*
X33443Y-33297D02*
X33586Y-33340D01*
X33586Y-33228D01*
X33653Y-35155D02*
X33558Y-35215D01*
X33653Y-35257D02*
X33453Y-35257D01*
X33453Y-35189D01*
X33462Y-35172D01*
X33472Y-35163D01*
X33491Y-35155D01*
X33520Y-35155D01*
X33539Y-35163D01*
X33548Y-35172D01*
X33558Y-35189D01*
X33558Y-35257D01*
X33653Y-34983D02*
X33653Y-35086D01*
X33653Y-35035D02*
X33453Y-35035D01*
X33482Y-35052D01*
X33501Y-35069D01*
X33510Y-35086D01*
X33453Y-34820D02*
X33453Y-34906D01*
X33548Y-34915D01*
X33539Y-34906D01*
X33529Y-34889D01*
X33529Y-34846D01*
X33539Y-34829D01*
X33548Y-34820D01*
X33567Y-34812D01*
X33615Y-34812D01*
X33634Y-34820D01*
X33643Y-34829D01*
X33653Y-34846D01*
X33653Y-34889D01*
X33643Y-34906D01*
X33634Y-34915D01*
X33653Y-36729D02*
X33558Y-36789D01*
X33653Y-36832D02*
X33453Y-36832D01*
X33453Y-36764D01*
X33462Y-36747D01*
X33472Y-36738D01*
X33491Y-36729D01*
X33520Y-36729D01*
X33539Y-36738D01*
X33548Y-36747D01*
X33558Y-36764D01*
X33558Y-36832D01*
X33653Y-36558D02*
X33653Y-36661D01*
X33653Y-36609D02*
X33453Y-36609D01*
X33482Y-36627D01*
X33501Y-36644D01*
X33510Y-36661D01*
X33453Y-36404D02*
X33453Y-36438D01*
X33462Y-36455D01*
X33472Y-36464D01*
X33501Y-36481D01*
X33539Y-36489D01*
X33615Y-36489D01*
X33634Y-36481D01*
X33643Y-36472D01*
X33653Y-36455D01*
X33653Y-36421D01*
X33643Y-36404D01*
X33634Y-36395D01*
X33615Y-36387D01*
X33567Y-36387D01*
X33548Y-36395D01*
X33539Y-36404D01*
X33529Y-36421D01*
X33529Y-36455D01*
X33539Y-36472D01*
X33548Y-36481D01*
X33567Y-36489D01*
G54D10*
X29508Y-40968D02*
X29902Y-40705D01*
X29508Y-40705D02*
X29902Y-40968D01*
X29902Y-40349D02*
X29902Y-40574D01*
X29902Y-40462D02*
X29508Y-40462D01*
X29565Y-40499D01*
X29602Y-40537D01*
X29621Y-40574D01*
G54D22*
X30207Y-41048D02*
X30207Y-41183D01*
X30207Y-41116D02*
X30010Y-41116D01*
X30038Y-41138D01*
X30057Y-41161D01*
X30066Y-41183D01*
X30029Y-40958D02*
X30019Y-40947D01*
X30010Y-40925D01*
X30010Y-40868D01*
X30019Y-40846D01*
X30029Y-40835D01*
X30047Y-40823D01*
X30066Y-40823D01*
X30094Y-40835D01*
X30207Y-40970D01*
X30207Y-40823D01*
X30207Y-40722D02*
X30010Y-40722D01*
X30150Y-40643D01*
X30010Y-40565D01*
X30207Y-40565D01*
X30207Y-40452D02*
X30010Y-40452D01*
X30104Y-40452D02*
X30104Y-40317D01*
X30207Y-40317D02*
X30010Y-40317D01*
X30075Y-40227D02*
X30075Y-40104D01*
X30207Y-40227D01*
X30207Y-40104D01*
G54D23*
X28414Y-33517D02*
X28384Y-33503D01*
X28354Y-33477D01*
X28309Y-33438D01*
X28279Y-33425D01*
X28249Y-33425D01*
X28264Y-33490D02*
X28234Y-33477D01*
X28204Y-33451D01*
X28189Y-33398D01*
X28189Y-33307D01*
X28204Y-33254D01*
X28234Y-33228D01*
X28264Y-33215D01*
X28324Y-33215D01*
X28354Y-33228D01*
X28384Y-33254D01*
X28399Y-33307D01*
X28399Y-33398D01*
X28384Y-33451D01*
X28354Y-33477D01*
X28324Y-33490D01*
X28264Y-33490D01*
X28699Y-33490D02*
X28519Y-33490D01*
X28609Y-33490D02*
X28609Y-33215D01*
X28579Y-33254D01*
X28549Y-33280D01*
X28519Y-33293D01*
G54D24*
X30490Y-45016D02*
X30501Y-45026D01*
X30511Y-45057D01*
X30511Y-45078D01*
X30501Y-45109D01*
X30480Y-45130D01*
X30459Y-45140D01*
X30418Y-45150D01*
X30387Y-45150D01*
X30346Y-45140D01*
X30325Y-45130D01*
X30304Y-45109D01*
X30294Y-45078D01*
X30294Y-45057D01*
X30304Y-45026D01*
X30315Y-45016D01*
X30315Y-44933D02*
X30304Y-44923D01*
X30294Y-44902D01*
X30294Y-44851D01*
X30304Y-44830D01*
X30315Y-44820D01*
X30335Y-44809D01*
X30356Y-44809D01*
X30387Y-44820D01*
X30511Y-44944D01*
X30511Y-44809D01*
G54D18*
X29893Y-43915D02*
X29736Y-43915D01*
X29736Y-43877D01*
X29744Y-43855D01*
X29759Y-43840D01*
X29774Y-43832D01*
X29804Y-43825D01*
X29826Y-43825D01*
X29856Y-43832D01*
X29871Y-43840D01*
X29886Y-43855D01*
X29893Y-43877D01*
X29893Y-43915D01*
X29751Y-43765D02*
X29744Y-43758D01*
X29736Y-43743D01*
X29736Y-43705D01*
X29744Y-43690D01*
X29751Y-43683D01*
X29766Y-43675D01*
X29781Y-43675D01*
X29804Y-43683D01*
X29893Y-43773D01*
X29893Y-43675D01*
X29303Y-43915D02*
X29146Y-43915D01*
X29146Y-43877D01*
X29153Y-43855D01*
X29168Y-43840D01*
X29183Y-43832D01*
X29213Y-43825D01*
X29236Y-43825D01*
X29265Y-43832D01*
X29280Y-43840D01*
X29295Y-43855D01*
X29303Y-43877D01*
X29303Y-43915D01*
X29146Y-43773D02*
X29146Y-43675D01*
X29206Y-43728D01*
X29206Y-43705D01*
X29213Y-43690D01*
X29221Y-43683D01*
X29236Y-43675D01*
X29273Y-43675D01*
X29288Y-43683D01*
X29295Y-43690D01*
X29303Y-43705D01*
X29303Y-43750D01*
X29295Y-43765D01*
X29288Y-43773D01*
X33240Y-43915D02*
X33083Y-43915D01*
X33083Y-43877D01*
X33090Y-43855D01*
X33105Y-43840D01*
X33120Y-43832D01*
X33150Y-43825D01*
X33173Y-43825D01*
X33202Y-43832D01*
X33217Y-43840D01*
X33232Y-43855D01*
X33240Y-43877D01*
X33240Y-43915D01*
X33240Y-43675D02*
X33240Y-43765D01*
X33240Y-43720D02*
X33083Y-43720D01*
X33105Y-43735D01*
X33120Y-43750D01*
X33128Y-43765D01*
X33830Y-43915D02*
X33673Y-43915D01*
X33673Y-43877D01*
X33681Y-43855D01*
X33696Y-43840D01*
X33711Y-43832D01*
X33741Y-43825D01*
X33763Y-43825D01*
X33793Y-43832D01*
X33808Y-43840D01*
X33823Y-43855D01*
X33830Y-43877D01*
X33830Y-43915D01*
X33726Y-43690D02*
X33830Y-43690D01*
X33666Y-43728D02*
X33778Y-43765D01*
X33778Y-43668D01*
M02*
