M48
;DRILL file {Pcbnew (2013-mar-13)-testing} date Tue 11 Jun 2013 07:19:59 PM NZST
;FORMAT={-:-/ absolute / metric / decimal}
FMAT,2
METRIC,TZ
T1C0.635
T2C0.899
T3C2.000
T4C2.101
%
G90
G05
M71
T1
X71.375Y-96.725
X71.375Y-105.275
X73.05Y-101.
X73.7Y-94.1
X74.9Y-101.9
X75.6Y-105.5
X75.7Y-101.1
X75.975Y-94.525
X76.5Y-106.4
X76.5Y-113.
X77.2Y-97.5
X77.4Y-95.9
X78.3Y-105.1
X78.4Y-97.6
X79.3Y-105.6
X80.Y-75.
X80.Y-78.95
X80.Y-82.9
X80.Y-86.9
X80.Y-96.35
X80.3Y-104.9
X80.7Y-106.5
X81.3Y-95.6
X81.9Y-96.5
X82.7Y-105.1
X82.8Y-95.6
X83.5Y-101.8
X83.5Y-113.
X84.Y-94.95
X85.6Y-114.1
X85.65Y-96.75
X85.75Y-106.45
X86.65Y-94.7
X87.9Y-108.
T2
X77.8Y-119.5
X82.2Y-119.5
T3
X80.Y-101.5
T4
X76.2Y-55.
X83.8Y-55.
T0
M30
