G04 (created by PCBNEW (2013-mar-13)-testing) date Wed 26 Jun 2013 08:45:53 PM NZST*
%MOIN*%
G04 Gerber Fmt 3.4, Leading zero omitted, Abs format*
%FSLAX34Y34*%
G01*
G70*
G90*
G04 APERTURE LIST*
%ADD10C,0.005906*%
%ADD11C,0.035400*%
%ADD12R,0.118100X0.118100*%
%ADD13C,0.118100*%
%ADD14C,0.056000*%
%ADD15R,0.060000X0.060000*%
%ADD16C,0.060000*%
%ADD17C,0.047200*%
%ADD18C,0.035000*%
%ADD19C,0.019700*%
%ADD20C,0.008000*%
%ADD21C,0.010000*%
G04 APERTURE END LIST*
G54D10*
G54D11*
X21574Y-45472D03*
X19842Y-45472D03*
G54D12*
X20158Y-10787D03*
G54D13*
X23150Y-10787D03*
G54D14*
X18921Y-39541D03*
X18921Y-37541D03*
G54D15*
X26933Y-43031D03*
G54D16*
X25933Y-43031D03*
X24933Y-43031D03*
X23933Y-43031D03*
G54D17*
X21304Y-36868D03*
X20536Y-41553D03*
X17111Y-36534D03*
X16855Y-23128D03*
G54D18*
X19158Y-22262D03*
X19178Y-32380D03*
X24158Y-31219D03*
X22859Y-39132D03*
X22780Y-38600D03*
X23882Y-30589D03*
X17445Y-24486D03*
X18233Y-34545D03*
X20457Y-25451D03*
X21107Y-33935D03*
X19374Y-35825D03*
X17760Y-35825D03*
X18744Y-28640D03*
X22563Y-38049D03*
X22524Y-33758D03*
X22465Y-32675D03*
X17445Y-26317D03*
X17681Y-35096D03*
X23115Y-37537D03*
X22937Y-32104D03*
X22637Y-43228D03*
X26870Y-41417D03*
X16141Y-43582D03*
X26880Y-31811D03*
X18031Y-46732D03*
X24881Y-46771D03*
X27125Y-46771D03*
X22077Y-8455D03*
X16378Y-8504D03*
X16270Y-15551D03*
X16270Y-21703D03*
X26919Y-8504D03*
X26919Y-15453D03*
X16122Y-46752D03*
X16073Y-38002D03*
X16220Y-28405D03*
X26919Y-21752D03*
X22170Y-37656D03*
X22170Y-38502D03*
X20024Y-42045D03*
X19670Y-38581D03*
X23602Y-28317D03*
X26860Y-28356D03*
X21205Y-33069D03*
G54D17*
X18582Y-43503D03*
G54D18*
X23937Y-41535D03*
X21126Y-32439D03*
G54D19*
X21304Y-36868D02*
X20536Y-37636D01*
X20536Y-37636D02*
X20536Y-41553D01*
X17111Y-36534D02*
X16855Y-36278D01*
X16855Y-36278D02*
X16855Y-23128D01*
X18843Y-10785D02*
X20158Y-10787D01*
X16855Y-12773D02*
X18843Y-10785D01*
X16855Y-23128D02*
X16855Y-12773D01*
G54D20*
X19158Y-32360D02*
X19158Y-22262D01*
X19178Y-32380D02*
X19158Y-32360D01*
X24158Y-31219D02*
X24000Y-31219D01*
X24158Y-37833D02*
X22859Y-39132D01*
X24158Y-31219D02*
X24158Y-37833D01*
X23882Y-30589D02*
X23882Y-30805D01*
X23744Y-37636D02*
X22780Y-38600D01*
X23744Y-30943D02*
X23744Y-37636D01*
X23882Y-30805D02*
X23744Y-30943D01*
X17878Y-24919D02*
X17445Y-24486D01*
X17878Y-34190D02*
X17878Y-24919D01*
X18233Y-34545D02*
X17878Y-34190D01*
X21068Y-25451D02*
X20457Y-25451D01*
X21579Y-25962D02*
X21068Y-25451D01*
X21579Y-33463D02*
X21579Y-25962D01*
X21107Y-33935D02*
X21579Y-33463D01*
X18784Y-34801D02*
X17760Y-35825D01*
X18784Y-28680D02*
X18784Y-34801D01*
X18744Y-28640D02*
X18784Y-28680D01*
X22524Y-38010D02*
X22563Y-38049D01*
X22524Y-33758D02*
X22524Y-38010D01*
X22465Y-32675D02*
X22465Y-32692D01*
X24933Y-40838D02*
X24933Y-43031D01*
X24251Y-40157D02*
X24933Y-40838D01*
X22637Y-40157D02*
X24251Y-40157D01*
X21771Y-39291D02*
X22637Y-40157D01*
X21771Y-33385D02*
X21771Y-39291D01*
X22465Y-32692D02*
X21771Y-33385D01*
X17445Y-34860D02*
X17445Y-26317D01*
X17681Y-35096D02*
X17445Y-34860D01*
X23115Y-32282D02*
X23115Y-37537D01*
X22937Y-32104D02*
X23115Y-32282D01*
X16141Y-43582D02*
X16122Y-43582D01*
X26870Y-41417D02*
X26870Y-41555D01*
X26870Y-41555D02*
X25933Y-42492D01*
X25933Y-42492D02*
X25933Y-43031D01*
X26870Y-31821D02*
X26870Y-41417D01*
X26880Y-31811D02*
X26870Y-31821D01*
X24232Y-46752D02*
X24862Y-46752D01*
X18031Y-46732D02*
X24232Y-46752D01*
X24862Y-46752D02*
X24881Y-46771D01*
X26919Y-8504D02*
X26870Y-8455D01*
X26870Y-8455D02*
X22077Y-8455D01*
X16378Y-8504D02*
X16270Y-8612D01*
X16270Y-8612D02*
X16270Y-15551D01*
X26919Y-21752D02*
X26919Y-15453D01*
X16122Y-43582D02*
X16122Y-46752D01*
X16122Y-38051D02*
X16122Y-43582D01*
X16073Y-38002D02*
X16122Y-38051D01*
X16220Y-21753D02*
X16220Y-28405D01*
X16270Y-21703D02*
X16220Y-21753D01*
X20024Y-42045D02*
X20024Y-38935D01*
X22170Y-37656D02*
X22170Y-38502D01*
X20024Y-38935D02*
X19670Y-38581D01*
X23602Y-28317D02*
X23641Y-28356D01*
X23641Y-28356D02*
X26860Y-28356D01*
X18921Y-35590D02*
X18921Y-37541D01*
X21205Y-33069D02*
X18921Y-35353D01*
X18921Y-35353D02*
X18921Y-35590D01*
G54D19*
X26027Y-43937D02*
X26933Y-43031D01*
X19015Y-43937D02*
X26027Y-43937D01*
X18582Y-43503D02*
X19015Y-43937D01*
G54D20*
X23933Y-41539D02*
X23933Y-43031D01*
X23937Y-41535D02*
X23933Y-41539D01*
X21126Y-32459D02*
X20654Y-32931D01*
X20654Y-32931D02*
X20654Y-33364D01*
X20654Y-33364D02*
X18311Y-35707D01*
X18311Y-35707D02*
X18311Y-38931D01*
X18921Y-39541D02*
X18311Y-38931D01*
X21126Y-32439D02*
X21126Y-32459D01*
G54D10*
G36*
X27234Y-46919D02*
X22001Y-46919D01*
X22001Y-45387D01*
X21936Y-45230D01*
X21816Y-45110D01*
X21659Y-45045D01*
X21490Y-45045D01*
X21333Y-45110D01*
X21212Y-45230D01*
X21147Y-45387D01*
X21147Y-45557D01*
X21212Y-45714D01*
X21332Y-45834D01*
X21489Y-45899D01*
X21659Y-45899D01*
X21816Y-45834D01*
X21936Y-45714D01*
X22001Y-45557D01*
X22001Y-45387D01*
X22001Y-46919D01*
X20269Y-46919D01*
X20269Y-45387D01*
X20204Y-45230D01*
X20084Y-45110D01*
X19927Y-45045D01*
X19758Y-45045D01*
X19601Y-45110D01*
X19480Y-45230D01*
X19415Y-45387D01*
X19415Y-45557D01*
X19480Y-45714D01*
X19600Y-45834D01*
X19757Y-45899D01*
X19927Y-45899D01*
X20084Y-45834D01*
X20204Y-45714D01*
X20269Y-45557D01*
X20269Y-45387D01*
X20269Y-46919D01*
X16073Y-46919D01*
X16073Y-8199D01*
X27234Y-8199D01*
X27234Y-42481D01*
X27183Y-42481D01*
X26583Y-42481D01*
X26491Y-42519D01*
X26421Y-42589D01*
X26383Y-42681D01*
X26383Y-42734D01*
X26318Y-42716D01*
X26248Y-42787D01*
X26248Y-42645D01*
X26220Y-42550D01*
X26014Y-42476D01*
X25796Y-42487D01*
X25645Y-42550D01*
X25617Y-42645D01*
X25933Y-42960D01*
X26248Y-42645D01*
X26248Y-42787D01*
X26003Y-43031D01*
X26009Y-43037D01*
X25938Y-43107D01*
X25933Y-43102D01*
X25862Y-43172D01*
X25862Y-43031D01*
X25547Y-42716D01*
X25451Y-42743D01*
X25432Y-42798D01*
X25399Y-42720D01*
X25245Y-42565D01*
X25223Y-42556D01*
X25223Y-40838D01*
X25200Y-40727D01*
X25138Y-40633D01*
X24457Y-39952D01*
X24362Y-39889D01*
X24251Y-39867D01*
X22757Y-39867D01*
X22061Y-39171D01*
X22061Y-33505D01*
X22467Y-33100D01*
X22549Y-33100D01*
X22705Y-33035D01*
X22825Y-32916D01*
X22825Y-33457D01*
X22765Y-33397D01*
X22608Y-33333D01*
X22439Y-33332D01*
X22283Y-33397D01*
X22163Y-33516D01*
X22099Y-33673D01*
X22098Y-33842D01*
X22163Y-33998D01*
X22234Y-34069D01*
X22234Y-37776D01*
X22202Y-37807D01*
X22138Y-37964D01*
X22137Y-38133D01*
X22202Y-38289D01*
X22321Y-38409D01*
X22387Y-38436D01*
X22355Y-38515D01*
X22354Y-38684D01*
X22419Y-38840D01*
X22490Y-38911D01*
X22434Y-39047D01*
X22433Y-39216D01*
X22498Y-39372D01*
X22617Y-39492D01*
X22774Y-39556D01*
X22943Y-39557D01*
X23099Y-39492D01*
X23219Y-39373D01*
X23283Y-39216D01*
X23284Y-39117D01*
X24363Y-38038D01*
X24425Y-37943D01*
X24448Y-37833D01*
X24448Y-31530D01*
X24518Y-31460D01*
X24582Y-31303D01*
X24583Y-31134D01*
X24518Y-30978D01*
X24399Y-30858D01*
X24254Y-30799D01*
X24306Y-30673D01*
X24307Y-30504D01*
X24242Y-30348D01*
X24123Y-30228D01*
X23990Y-30173D01*
X23990Y-10620D01*
X23862Y-10311D01*
X23626Y-10074D01*
X23317Y-9946D01*
X22983Y-9946D01*
X22674Y-10074D01*
X22437Y-10310D01*
X22309Y-10619D01*
X22309Y-10953D01*
X22437Y-11262D01*
X22673Y-11499D01*
X22982Y-11627D01*
X23316Y-11627D01*
X23625Y-11499D01*
X23862Y-11263D01*
X23990Y-10954D01*
X23990Y-10620D01*
X23990Y-30173D01*
X23966Y-30164D01*
X23797Y-30163D01*
X23641Y-30228D01*
X23521Y-30347D01*
X23457Y-30504D01*
X23456Y-30673D01*
X23504Y-30789D01*
X23476Y-30832D01*
X23454Y-30943D01*
X23454Y-37275D01*
X23405Y-37225D01*
X23405Y-32282D01*
X23382Y-32171D01*
X23361Y-32139D01*
X23362Y-32019D01*
X23297Y-31863D01*
X23178Y-31743D01*
X23021Y-31679D01*
X22852Y-31678D01*
X22696Y-31743D01*
X22576Y-31862D01*
X22512Y-32019D01*
X22511Y-32188D01*
X22537Y-32250D01*
X22380Y-32249D01*
X22224Y-32314D01*
X22104Y-32433D01*
X22040Y-32590D01*
X22039Y-32707D01*
X21869Y-32878D01*
X21869Y-25962D01*
X21846Y-25851D01*
X21784Y-25756D01*
X21273Y-25245D01*
X21178Y-25183D01*
X21068Y-25161D01*
X20768Y-25161D01*
X20698Y-25090D01*
X20541Y-25026D01*
X20372Y-25025D01*
X20216Y-25090D01*
X20096Y-25209D01*
X20032Y-25366D01*
X20031Y-25535D01*
X20096Y-25691D01*
X20215Y-25811D01*
X20372Y-25875D01*
X20541Y-25876D01*
X20697Y-25811D01*
X20768Y-25741D01*
X20947Y-25741D01*
X21289Y-26082D01*
X21289Y-32046D01*
X21210Y-32014D01*
X21041Y-32013D01*
X20885Y-32078D01*
X20765Y-32197D01*
X20701Y-32354D01*
X20700Y-32473D01*
X20448Y-32725D01*
X20386Y-32820D01*
X20364Y-32931D01*
X20364Y-33243D01*
X19074Y-34533D01*
X19074Y-32796D01*
X19093Y-32804D01*
X19262Y-32805D01*
X19418Y-32740D01*
X19538Y-32621D01*
X19602Y-32464D01*
X19603Y-32295D01*
X19538Y-32139D01*
X19448Y-32048D01*
X19448Y-22573D01*
X19518Y-22503D01*
X19582Y-22346D01*
X19583Y-22177D01*
X19518Y-22021D01*
X19399Y-21901D01*
X19242Y-21837D01*
X19073Y-21836D01*
X18917Y-21901D01*
X18797Y-22020D01*
X18733Y-22177D01*
X18732Y-22346D01*
X18797Y-22502D01*
X18868Y-22573D01*
X18868Y-28231D01*
X18828Y-28215D01*
X18659Y-28214D01*
X18503Y-28279D01*
X18383Y-28398D01*
X18319Y-28555D01*
X18318Y-28724D01*
X18383Y-28880D01*
X18494Y-28991D01*
X18494Y-34204D01*
X18474Y-34184D01*
X18317Y-34120D01*
X18218Y-34119D01*
X18168Y-34069D01*
X18168Y-24919D01*
X18145Y-24808D01*
X18083Y-24713D01*
X17869Y-24500D01*
X17870Y-24401D01*
X17805Y-24245D01*
X17686Y-24125D01*
X17529Y-24061D01*
X17360Y-24060D01*
X17204Y-24125D01*
X17203Y-24126D01*
X17203Y-23466D01*
X17266Y-23403D01*
X17340Y-23225D01*
X17341Y-23031D01*
X17267Y-22853D01*
X17203Y-22789D01*
X17203Y-12917D01*
X18987Y-11133D01*
X19317Y-11134D01*
X19317Y-11427D01*
X19355Y-11519D01*
X19425Y-11589D01*
X19517Y-11627D01*
X19617Y-11627D01*
X20798Y-11627D01*
X20890Y-11589D01*
X20960Y-11519D01*
X20998Y-11427D01*
X20998Y-11327D01*
X20998Y-10146D01*
X20960Y-10054D01*
X20890Y-9984D01*
X20798Y-9946D01*
X20698Y-9946D01*
X19517Y-9946D01*
X19425Y-9984D01*
X19355Y-10054D01*
X19317Y-10146D01*
X19317Y-10246D01*
X19317Y-10437D01*
X18843Y-10436D01*
X18843Y-10436D01*
X18843Y-10436D01*
X18776Y-10449D01*
X18710Y-10462D01*
X18709Y-10462D01*
X18709Y-10463D01*
X18653Y-10500D01*
X18596Y-10538D01*
X18596Y-10538D01*
X18596Y-10538D01*
X16608Y-12526D01*
X16533Y-12639D01*
X16506Y-12773D01*
X16506Y-22789D01*
X16443Y-22852D01*
X16369Y-23030D01*
X16368Y-23224D01*
X16442Y-23402D01*
X16506Y-23466D01*
X16506Y-36278D01*
X16533Y-36411D01*
X16608Y-36524D01*
X16624Y-36540D01*
X16624Y-36630D01*
X16698Y-36808D01*
X16835Y-36945D01*
X17013Y-37019D01*
X17207Y-37020D01*
X17385Y-36946D01*
X17522Y-36809D01*
X17596Y-36631D01*
X17597Y-36437D01*
X17523Y-36259D01*
X17386Y-36122D01*
X17208Y-36048D01*
X17203Y-36048D01*
X17203Y-35010D01*
X17239Y-35065D01*
X17256Y-35081D01*
X17255Y-35180D01*
X17320Y-35336D01*
X17439Y-35456D01*
X17502Y-35481D01*
X17399Y-35583D01*
X17335Y-35740D01*
X17334Y-35909D01*
X17399Y-36065D01*
X17518Y-36185D01*
X17675Y-36249D01*
X17844Y-36250D01*
X18000Y-36185D01*
X18021Y-36164D01*
X18021Y-38931D01*
X18043Y-39041D01*
X18105Y-39136D01*
X18395Y-39425D01*
X18391Y-39435D01*
X18390Y-39645D01*
X18471Y-39840D01*
X18620Y-39990D01*
X18815Y-40070D01*
X19025Y-40071D01*
X19220Y-39990D01*
X19370Y-39841D01*
X19450Y-39646D01*
X19451Y-39436D01*
X19370Y-39241D01*
X19221Y-39091D01*
X19026Y-39011D01*
X18816Y-39010D01*
X18805Y-39015D01*
X18601Y-38810D01*
X18601Y-37970D01*
X18620Y-37990D01*
X18815Y-38070D01*
X19025Y-38071D01*
X19220Y-37990D01*
X19370Y-37841D01*
X19450Y-37646D01*
X19451Y-37436D01*
X19370Y-37241D01*
X19221Y-37091D01*
X19211Y-37087D01*
X19211Y-36217D01*
X19289Y-36249D01*
X19458Y-36250D01*
X19614Y-36185D01*
X19734Y-36066D01*
X19798Y-35909D01*
X19799Y-35740D01*
X19734Y-35584D01*
X19615Y-35464D01*
X19458Y-35400D01*
X19289Y-35399D01*
X19280Y-35403D01*
X20681Y-34002D01*
X20681Y-34019D01*
X20746Y-34175D01*
X20865Y-34295D01*
X21022Y-34359D01*
X21191Y-34360D01*
X21347Y-34295D01*
X21467Y-34176D01*
X21481Y-34140D01*
X21481Y-36415D01*
X21401Y-36382D01*
X21207Y-36381D01*
X21029Y-36455D01*
X20892Y-36592D01*
X20818Y-36770D01*
X20818Y-36861D01*
X20289Y-37389D01*
X20214Y-37502D01*
X20187Y-37636D01*
X20187Y-41214D01*
X20124Y-41277D01*
X20050Y-41455D01*
X20049Y-41649D01*
X20123Y-41827D01*
X20260Y-41964D01*
X20438Y-42038D01*
X20632Y-42039D01*
X20810Y-41965D01*
X20947Y-41828D01*
X21021Y-41650D01*
X21022Y-41456D01*
X20948Y-41278D01*
X20884Y-41214D01*
X20884Y-37780D01*
X21310Y-37354D01*
X21400Y-37354D01*
X21481Y-37320D01*
X21481Y-39291D01*
X21503Y-39402D01*
X21566Y-39496D01*
X22432Y-40362D01*
X22526Y-40425D01*
X22526Y-40425D01*
X22637Y-40447D01*
X24131Y-40447D01*
X24643Y-40958D01*
X24643Y-42556D01*
X24621Y-42564D01*
X24467Y-42719D01*
X24433Y-42801D01*
X24399Y-42720D01*
X24245Y-42565D01*
X24223Y-42556D01*
X24223Y-41850D01*
X24297Y-41776D01*
X24361Y-41620D01*
X24362Y-41451D01*
X24297Y-41295D01*
X24178Y-41175D01*
X24021Y-41110D01*
X23852Y-41110D01*
X23696Y-41174D01*
X23576Y-41294D01*
X23512Y-41450D01*
X23511Y-41619D01*
X23576Y-41775D01*
X23643Y-41842D01*
X23643Y-42556D01*
X23621Y-42564D01*
X23467Y-42719D01*
X23383Y-42921D01*
X23382Y-43140D01*
X23466Y-43342D01*
X23621Y-43497D01*
X23823Y-43581D01*
X24041Y-43581D01*
X24244Y-43498D01*
X24399Y-43343D01*
X24433Y-43261D01*
X24466Y-43342D01*
X24621Y-43497D01*
X24823Y-43581D01*
X25041Y-43581D01*
X25244Y-43498D01*
X25399Y-43343D01*
X25430Y-43267D01*
X25451Y-43319D01*
X25547Y-43346D01*
X25862Y-43031D01*
X25862Y-43172D01*
X25617Y-43417D01*
X25645Y-43512D01*
X25851Y-43586D01*
X25887Y-43584D01*
X25883Y-43588D01*
X19160Y-43588D01*
X19068Y-43497D01*
X19068Y-43407D01*
X18994Y-43228D01*
X18858Y-43092D01*
X18679Y-43018D01*
X18486Y-43017D01*
X18307Y-43091D01*
X18170Y-43228D01*
X18096Y-43406D01*
X18096Y-43600D01*
X18170Y-43778D01*
X18307Y-43915D01*
X18485Y-43989D01*
X18575Y-43989D01*
X18769Y-44183D01*
X18882Y-44258D01*
X18882Y-44258D01*
X19015Y-44285D01*
X26027Y-44285D01*
X26160Y-44258D01*
X26160Y-44258D01*
X26273Y-44183D01*
X26875Y-43581D01*
X27234Y-43581D01*
X27234Y-46919D01*
X27234Y-46919D01*
G37*
G54D21*
X27234Y-46919D02*
X22001Y-46919D01*
X22001Y-45387D01*
X21936Y-45230D01*
X21816Y-45110D01*
X21659Y-45045D01*
X21490Y-45045D01*
X21333Y-45110D01*
X21212Y-45230D01*
X21147Y-45387D01*
X21147Y-45557D01*
X21212Y-45714D01*
X21332Y-45834D01*
X21489Y-45899D01*
X21659Y-45899D01*
X21816Y-45834D01*
X21936Y-45714D01*
X22001Y-45557D01*
X22001Y-45387D01*
X22001Y-46919D01*
X20269Y-46919D01*
X20269Y-45387D01*
X20204Y-45230D01*
X20084Y-45110D01*
X19927Y-45045D01*
X19758Y-45045D01*
X19601Y-45110D01*
X19480Y-45230D01*
X19415Y-45387D01*
X19415Y-45557D01*
X19480Y-45714D01*
X19600Y-45834D01*
X19757Y-45899D01*
X19927Y-45899D01*
X20084Y-45834D01*
X20204Y-45714D01*
X20269Y-45557D01*
X20269Y-45387D01*
X20269Y-46919D01*
X16073Y-46919D01*
X16073Y-8199D01*
X27234Y-8199D01*
X27234Y-42481D01*
X27183Y-42481D01*
X26583Y-42481D01*
X26491Y-42519D01*
X26421Y-42589D01*
X26383Y-42681D01*
X26383Y-42734D01*
X26318Y-42716D01*
X26248Y-42787D01*
X26248Y-42645D01*
X26220Y-42550D01*
X26014Y-42476D01*
X25796Y-42487D01*
X25645Y-42550D01*
X25617Y-42645D01*
X25933Y-42960D01*
X26248Y-42645D01*
X26248Y-42787D01*
X26003Y-43031D01*
X26009Y-43037D01*
X25938Y-43107D01*
X25933Y-43102D01*
X25862Y-43172D01*
X25862Y-43031D01*
X25547Y-42716D01*
X25451Y-42743D01*
X25432Y-42798D01*
X25399Y-42720D01*
X25245Y-42565D01*
X25223Y-42556D01*
X25223Y-40838D01*
X25200Y-40727D01*
X25138Y-40633D01*
X24457Y-39952D01*
X24362Y-39889D01*
X24251Y-39867D01*
X22757Y-39867D01*
X22061Y-39171D01*
X22061Y-33505D01*
X22467Y-33100D01*
X22549Y-33100D01*
X22705Y-33035D01*
X22825Y-32916D01*
X22825Y-33457D01*
X22765Y-33397D01*
X22608Y-33333D01*
X22439Y-33332D01*
X22283Y-33397D01*
X22163Y-33516D01*
X22099Y-33673D01*
X22098Y-33842D01*
X22163Y-33998D01*
X22234Y-34069D01*
X22234Y-37776D01*
X22202Y-37807D01*
X22138Y-37964D01*
X22137Y-38133D01*
X22202Y-38289D01*
X22321Y-38409D01*
X22387Y-38436D01*
X22355Y-38515D01*
X22354Y-38684D01*
X22419Y-38840D01*
X22490Y-38911D01*
X22434Y-39047D01*
X22433Y-39216D01*
X22498Y-39372D01*
X22617Y-39492D01*
X22774Y-39556D01*
X22943Y-39557D01*
X23099Y-39492D01*
X23219Y-39373D01*
X23283Y-39216D01*
X23284Y-39117D01*
X24363Y-38038D01*
X24425Y-37943D01*
X24448Y-37833D01*
X24448Y-31530D01*
X24518Y-31460D01*
X24582Y-31303D01*
X24583Y-31134D01*
X24518Y-30978D01*
X24399Y-30858D01*
X24254Y-30799D01*
X24306Y-30673D01*
X24307Y-30504D01*
X24242Y-30348D01*
X24123Y-30228D01*
X23990Y-30173D01*
X23990Y-10620D01*
X23862Y-10311D01*
X23626Y-10074D01*
X23317Y-9946D01*
X22983Y-9946D01*
X22674Y-10074D01*
X22437Y-10310D01*
X22309Y-10619D01*
X22309Y-10953D01*
X22437Y-11262D01*
X22673Y-11499D01*
X22982Y-11627D01*
X23316Y-11627D01*
X23625Y-11499D01*
X23862Y-11263D01*
X23990Y-10954D01*
X23990Y-10620D01*
X23990Y-30173D01*
X23966Y-30164D01*
X23797Y-30163D01*
X23641Y-30228D01*
X23521Y-30347D01*
X23457Y-30504D01*
X23456Y-30673D01*
X23504Y-30789D01*
X23476Y-30832D01*
X23454Y-30943D01*
X23454Y-37275D01*
X23405Y-37225D01*
X23405Y-32282D01*
X23382Y-32171D01*
X23361Y-32139D01*
X23362Y-32019D01*
X23297Y-31863D01*
X23178Y-31743D01*
X23021Y-31679D01*
X22852Y-31678D01*
X22696Y-31743D01*
X22576Y-31862D01*
X22512Y-32019D01*
X22511Y-32188D01*
X22537Y-32250D01*
X22380Y-32249D01*
X22224Y-32314D01*
X22104Y-32433D01*
X22040Y-32590D01*
X22039Y-32707D01*
X21869Y-32878D01*
X21869Y-25962D01*
X21846Y-25851D01*
X21784Y-25756D01*
X21273Y-25245D01*
X21178Y-25183D01*
X21068Y-25161D01*
X20768Y-25161D01*
X20698Y-25090D01*
X20541Y-25026D01*
X20372Y-25025D01*
X20216Y-25090D01*
X20096Y-25209D01*
X20032Y-25366D01*
X20031Y-25535D01*
X20096Y-25691D01*
X20215Y-25811D01*
X20372Y-25875D01*
X20541Y-25876D01*
X20697Y-25811D01*
X20768Y-25741D01*
X20947Y-25741D01*
X21289Y-26082D01*
X21289Y-32046D01*
X21210Y-32014D01*
X21041Y-32013D01*
X20885Y-32078D01*
X20765Y-32197D01*
X20701Y-32354D01*
X20700Y-32473D01*
X20448Y-32725D01*
X20386Y-32820D01*
X20364Y-32931D01*
X20364Y-33243D01*
X19074Y-34533D01*
X19074Y-32796D01*
X19093Y-32804D01*
X19262Y-32805D01*
X19418Y-32740D01*
X19538Y-32621D01*
X19602Y-32464D01*
X19603Y-32295D01*
X19538Y-32139D01*
X19448Y-32048D01*
X19448Y-22573D01*
X19518Y-22503D01*
X19582Y-22346D01*
X19583Y-22177D01*
X19518Y-22021D01*
X19399Y-21901D01*
X19242Y-21837D01*
X19073Y-21836D01*
X18917Y-21901D01*
X18797Y-22020D01*
X18733Y-22177D01*
X18732Y-22346D01*
X18797Y-22502D01*
X18868Y-22573D01*
X18868Y-28231D01*
X18828Y-28215D01*
X18659Y-28214D01*
X18503Y-28279D01*
X18383Y-28398D01*
X18319Y-28555D01*
X18318Y-28724D01*
X18383Y-28880D01*
X18494Y-28991D01*
X18494Y-34204D01*
X18474Y-34184D01*
X18317Y-34120D01*
X18218Y-34119D01*
X18168Y-34069D01*
X18168Y-24919D01*
X18145Y-24808D01*
X18083Y-24713D01*
X17869Y-24500D01*
X17870Y-24401D01*
X17805Y-24245D01*
X17686Y-24125D01*
X17529Y-24061D01*
X17360Y-24060D01*
X17204Y-24125D01*
X17203Y-24126D01*
X17203Y-23466D01*
X17266Y-23403D01*
X17340Y-23225D01*
X17341Y-23031D01*
X17267Y-22853D01*
X17203Y-22789D01*
X17203Y-12917D01*
X18987Y-11133D01*
X19317Y-11134D01*
X19317Y-11427D01*
X19355Y-11519D01*
X19425Y-11589D01*
X19517Y-11627D01*
X19617Y-11627D01*
X20798Y-11627D01*
X20890Y-11589D01*
X20960Y-11519D01*
X20998Y-11427D01*
X20998Y-11327D01*
X20998Y-10146D01*
X20960Y-10054D01*
X20890Y-9984D01*
X20798Y-9946D01*
X20698Y-9946D01*
X19517Y-9946D01*
X19425Y-9984D01*
X19355Y-10054D01*
X19317Y-10146D01*
X19317Y-10246D01*
X19317Y-10437D01*
X18843Y-10436D01*
X18843Y-10436D01*
X18843Y-10436D01*
X18776Y-10449D01*
X18710Y-10462D01*
X18709Y-10462D01*
X18709Y-10463D01*
X18653Y-10500D01*
X18596Y-10538D01*
X18596Y-10538D01*
X18596Y-10538D01*
X16608Y-12526D01*
X16533Y-12639D01*
X16506Y-12773D01*
X16506Y-22789D01*
X16443Y-22852D01*
X16369Y-23030D01*
X16368Y-23224D01*
X16442Y-23402D01*
X16506Y-23466D01*
X16506Y-36278D01*
X16533Y-36411D01*
X16608Y-36524D01*
X16624Y-36540D01*
X16624Y-36630D01*
X16698Y-36808D01*
X16835Y-36945D01*
X17013Y-37019D01*
X17207Y-37020D01*
X17385Y-36946D01*
X17522Y-36809D01*
X17596Y-36631D01*
X17597Y-36437D01*
X17523Y-36259D01*
X17386Y-36122D01*
X17208Y-36048D01*
X17203Y-36048D01*
X17203Y-35010D01*
X17239Y-35065D01*
X17256Y-35081D01*
X17255Y-35180D01*
X17320Y-35336D01*
X17439Y-35456D01*
X17502Y-35481D01*
X17399Y-35583D01*
X17335Y-35740D01*
X17334Y-35909D01*
X17399Y-36065D01*
X17518Y-36185D01*
X17675Y-36249D01*
X17844Y-36250D01*
X18000Y-36185D01*
X18021Y-36164D01*
X18021Y-38931D01*
X18043Y-39041D01*
X18105Y-39136D01*
X18395Y-39425D01*
X18391Y-39435D01*
X18390Y-39645D01*
X18471Y-39840D01*
X18620Y-39990D01*
X18815Y-40070D01*
X19025Y-40071D01*
X19220Y-39990D01*
X19370Y-39841D01*
X19450Y-39646D01*
X19451Y-39436D01*
X19370Y-39241D01*
X19221Y-39091D01*
X19026Y-39011D01*
X18816Y-39010D01*
X18805Y-39015D01*
X18601Y-38810D01*
X18601Y-37970D01*
X18620Y-37990D01*
X18815Y-38070D01*
X19025Y-38071D01*
X19220Y-37990D01*
X19370Y-37841D01*
X19450Y-37646D01*
X19451Y-37436D01*
X19370Y-37241D01*
X19221Y-37091D01*
X19211Y-37087D01*
X19211Y-36217D01*
X19289Y-36249D01*
X19458Y-36250D01*
X19614Y-36185D01*
X19734Y-36066D01*
X19798Y-35909D01*
X19799Y-35740D01*
X19734Y-35584D01*
X19615Y-35464D01*
X19458Y-35400D01*
X19289Y-35399D01*
X19280Y-35403D01*
X20681Y-34002D01*
X20681Y-34019D01*
X20746Y-34175D01*
X20865Y-34295D01*
X21022Y-34359D01*
X21191Y-34360D01*
X21347Y-34295D01*
X21467Y-34176D01*
X21481Y-34140D01*
X21481Y-36415D01*
X21401Y-36382D01*
X21207Y-36381D01*
X21029Y-36455D01*
X20892Y-36592D01*
X20818Y-36770D01*
X20818Y-36861D01*
X20289Y-37389D01*
X20214Y-37502D01*
X20187Y-37636D01*
X20187Y-41214D01*
X20124Y-41277D01*
X20050Y-41455D01*
X20049Y-41649D01*
X20123Y-41827D01*
X20260Y-41964D01*
X20438Y-42038D01*
X20632Y-42039D01*
X20810Y-41965D01*
X20947Y-41828D01*
X21021Y-41650D01*
X21022Y-41456D01*
X20948Y-41278D01*
X20884Y-41214D01*
X20884Y-37780D01*
X21310Y-37354D01*
X21400Y-37354D01*
X21481Y-37320D01*
X21481Y-39291D01*
X21503Y-39402D01*
X21566Y-39496D01*
X22432Y-40362D01*
X22526Y-40425D01*
X22526Y-40425D01*
X22637Y-40447D01*
X24131Y-40447D01*
X24643Y-40958D01*
X24643Y-42556D01*
X24621Y-42564D01*
X24467Y-42719D01*
X24433Y-42801D01*
X24399Y-42720D01*
X24245Y-42565D01*
X24223Y-42556D01*
X24223Y-41850D01*
X24297Y-41776D01*
X24361Y-41620D01*
X24362Y-41451D01*
X24297Y-41295D01*
X24178Y-41175D01*
X24021Y-41110D01*
X23852Y-41110D01*
X23696Y-41174D01*
X23576Y-41294D01*
X23512Y-41450D01*
X23511Y-41619D01*
X23576Y-41775D01*
X23643Y-41842D01*
X23643Y-42556D01*
X23621Y-42564D01*
X23467Y-42719D01*
X23383Y-42921D01*
X23382Y-43140D01*
X23466Y-43342D01*
X23621Y-43497D01*
X23823Y-43581D01*
X24041Y-43581D01*
X24244Y-43498D01*
X24399Y-43343D01*
X24433Y-43261D01*
X24466Y-43342D01*
X24621Y-43497D01*
X24823Y-43581D01*
X25041Y-43581D01*
X25244Y-43498D01*
X25399Y-43343D01*
X25430Y-43267D01*
X25451Y-43319D01*
X25547Y-43346D01*
X25862Y-43031D01*
X25862Y-43172D01*
X25617Y-43417D01*
X25645Y-43512D01*
X25851Y-43586D01*
X25887Y-43584D01*
X25883Y-43588D01*
X19160Y-43588D01*
X19068Y-43497D01*
X19068Y-43407D01*
X18994Y-43228D01*
X18858Y-43092D01*
X18679Y-43018D01*
X18486Y-43017D01*
X18307Y-43091D01*
X18170Y-43228D01*
X18096Y-43406D01*
X18096Y-43600D01*
X18170Y-43778D01*
X18307Y-43915D01*
X18485Y-43989D01*
X18575Y-43989D01*
X18769Y-44183D01*
X18882Y-44258D01*
X18882Y-44258D01*
X19015Y-44285D01*
X26027Y-44285D01*
X26160Y-44258D01*
X26160Y-44258D01*
X26273Y-44183D01*
X26875Y-43581D01*
X27234Y-43581D01*
X27234Y-46919D01*
M02*
