G04 (created by PCBNEW (2013-mar-13)-testing) date Wed 26 Jun 2013 08:45:53 PM NZST*
%MOIN*%
G04 Gerber Fmt 3.4, Leading zero omitted, Abs format*
%FSLAX34Y34*%
G01*
G70*
G90*
G04 APERTURE LIST*
%ADD10C,0.005906*%
%ADD11R,0.086900X0.086900*%
%ADD12C,0.086900*%
%ADD13C,0.080000*%
%ADD14R,0.056000X0.056000*%
%ADD15R,0.080000X0.100000*%
%ADD16C,0.055400*%
%ADD17R,0.098700X0.118400*%
%ADD18R,0.039700X0.110600*%
%ADD19R,0.037700X0.098700*%
%ADD20R,0.098700X0.037700*%
%ADD21R,0.065000X0.045000*%
%ADD22R,0.045000X0.065000*%
%ADD23R,0.138100X0.138100*%
%ADD24C,0.138100*%
%ADD25C,0.076000*%
%ADD26R,0.080000X0.080000*%
%ADD27R,0.070000X0.120000*%
%ADD28R,0.067200X0.047600*%
%ADD29R,0.098700X0.047600*%
%ADD30R,0.130300X0.106600*%
%ADD31R,0.082900X0.090900*%
G04 APERTURE END LIST*
G54D10*
G54D11*
X18461Y-24451D03*
G54D12*
X19461Y-24451D03*
X18461Y-25451D03*
X19461Y-25451D03*
X18461Y-26451D03*
X19461Y-26451D03*
G54D13*
X17406Y-29644D03*
G54D14*
X19862Y-18489D03*
X19162Y-18489D03*
X19512Y-17689D03*
G54D13*
X17406Y-33955D03*
X17406Y-32577D03*
X17406Y-31081D03*
G54D15*
X24570Y-38148D03*
X25870Y-38148D03*
X24570Y-36770D03*
X25870Y-36770D03*
G54D16*
X21574Y-45472D03*
X19842Y-45472D03*
G54D17*
X22440Y-46653D03*
X18956Y-46653D03*
X22460Y-44488D03*
X18956Y-44488D03*
G54D18*
X20708Y-44488D03*
X20393Y-44488D03*
X20078Y-44488D03*
X21023Y-44488D03*
X21338Y-44488D03*
G54D19*
X20978Y-31134D03*
X21293Y-31134D03*
X21608Y-31134D03*
X21923Y-31134D03*
X22238Y-31134D03*
X22553Y-31134D03*
X22868Y-31134D03*
X23183Y-31134D03*
X23181Y-34900D03*
X20971Y-34900D03*
X21291Y-34900D03*
X21611Y-34900D03*
X21921Y-34900D03*
X22241Y-34900D03*
X22551Y-34900D03*
X22871Y-34900D03*
G54D20*
X23971Y-31918D03*
X23971Y-32232D03*
X23971Y-32548D03*
X23971Y-32862D03*
X23971Y-33178D03*
X23971Y-33492D03*
X23971Y-33808D03*
X23971Y-34122D03*
X20191Y-31920D03*
X20191Y-32230D03*
X20191Y-32550D03*
X20191Y-32860D03*
X20191Y-33170D03*
X20191Y-33490D03*
X20191Y-33810D03*
X20191Y-34130D03*
G54D21*
X22267Y-41785D03*
X22267Y-42385D03*
X21283Y-41785D03*
X21283Y-42385D03*
G54D22*
X16811Y-41061D03*
X17411Y-41061D03*
G54D21*
X23922Y-40711D03*
X23922Y-40111D03*
X22858Y-39816D03*
X22858Y-40416D03*
X21677Y-39816D03*
X21677Y-40416D03*
G54D22*
X21289Y-36100D03*
X20689Y-36100D03*
G54D21*
X19158Y-20722D03*
X19158Y-21322D03*
G54D22*
X23622Y-14526D03*
X24222Y-14526D03*
X23620Y-16494D03*
X24220Y-16494D03*
X23620Y-18462D03*
X24220Y-18462D03*
X23620Y-20431D03*
X24220Y-20431D03*
X23620Y-22399D03*
X24220Y-22399D03*
X23620Y-24368D03*
X24220Y-24368D03*
X23620Y-26336D03*
X24220Y-26336D03*
G54D21*
X20181Y-28694D03*
X20181Y-29294D03*
G54D22*
X22027Y-29722D03*
X22627Y-29722D03*
G54D21*
X20496Y-39629D03*
X20496Y-39029D03*
X20496Y-37454D03*
X20496Y-38054D03*
G54D22*
X25914Y-40510D03*
X25314Y-40510D03*
X25914Y-39526D03*
X25314Y-39526D03*
G54D23*
X20158Y-10787D03*
G54D24*
X23150Y-10787D03*
G54D25*
X18921Y-39541D03*
X18921Y-37541D03*
G54D22*
X17819Y-43582D03*
X17219Y-43582D03*
G54D26*
X26933Y-43031D03*
G54D13*
X25933Y-43031D03*
X24933Y-43031D03*
X23933Y-43031D03*
G54D27*
X17927Y-42085D03*
X19127Y-42085D03*
G54D28*
X17873Y-45787D03*
G54D29*
X17716Y-45196D03*
G54D28*
X17873Y-44605D03*
G54D30*
X16771Y-45196D03*
G54D31*
X21095Y-28307D03*
X22213Y-28307D03*
X22213Y-26339D03*
X21095Y-26339D03*
X22213Y-24370D03*
X21095Y-24370D03*
X22213Y-22402D03*
X21095Y-22402D03*
X22213Y-20433D03*
X21095Y-20433D03*
X22213Y-18465D03*
X21095Y-18465D03*
X22213Y-16496D03*
X21095Y-16496D03*
X22213Y-14528D03*
X21095Y-14528D03*
M02*
