G04 (created by PCBNEW (2013-mar-13)-testing) date Wed 12 Jun 2013 06:18:58 PM NZST*
%MOIN*%
G04 Gerber Fmt 3.4, Leading zero omitted, Abs format*
%FSLAX34Y34*%
G01*
G70*
G90*
G04 APERTURE LIST*
%ADD10C,0.005906*%
%ADD11R,0.066900X0.066900*%
%ADD12C,0.066900*%
%ADD13C,0.060000*%
%ADD14R,0.036000X0.036000*%
%ADD15R,0.060000X0.080000*%
%ADD16C,0.035400*%
%ADD17R,0.078700X0.098400*%
%ADD18R,0.019700X0.090600*%
%ADD19R,0.017700X0.078700*%
%ADD20R,0.078700X0.017700*%
%ADD21R,0.045000X0.025000*%
%ADD22R,0.025000X0.045000*%
%ADD23R,0.118100X0.118100*%
%ADD24C,0.118100*%
%ADD25R,0.062900X0.070900*%
%ADD26C,0.056000*%
%ADD27R,0.060000X0.060000*%
%ADD28R,0.050000X0.100000*%
%ADD29R,0.047200X0.027600*%
%ADD30R,0.078700X0.027600*%
%ADD31R,0.110300X0.086600*%
%ADD32C,0.047200*%
%ADD33C,0.035000*%
%ADD34C,0.019700*%
%ADD35C,0.008000*%
%ADD36C,0.010000*%
G04 APERTURE END LIST*
G54D10*
G54D11*
X18461Y-24451D03*
G54D12*
X19461Y-24451D03*
X18461Y-25451D03*
X19461Y-25451D03*
X18461Y-26451D03*
X19461Y-26451D03*
G54D13*
X17406Y-29644D03*
G54D14*
X19862Y-18489D03*
X19162Y-18489D03*
X19512Y-17689D03*
G54D13*
X17406Y-33955D03*
X17406Y-32577D03*
X17406Y-31081D03*
G54D15*
X24570Y-38148D03*
X25870Y-38148D03*
X24570Y-36770D03*
X25870Y-36770D03*
G54D16*
X21574Y-45472D03*
X19842Y-45472D03*
G54D17*
X22440Y-46653D03*
X18956Y-46653D03*
X22460Y-44488D03*
X18956Y-44488D03*
G54D18*
X20708Y-44488D03*
X20393Y-44488D03*
X20078Y-44488D03*
X21023Y-44488D03*
X21338Y-44488D03*
G54D19*
X20978Y-31134D03*
X21293Y-31134D03*
X21608Y-31134D03*
X21923Y-31134D03*
X22238Y-31134D03*
X22553Y-31134D03*
X22868Y-31134D03*
X23183Y-31134D03*
X23181Y-34900D03*
X20971Y-34900D03*
X21291Y-34900D03*
X21611Y-34900D03*
X21921Y-34900D03*
X22241Y-34900D03*
X22551Y-34900D03*
X22871Y-34900D03*
G54D20*
X23971Y-31918D03*
X23971Y-32232D03*
X23971Y-32548D03*
X23971Y-32862D03*
X23971Y-33178D03*
X23971Y-33492D03*
X23971Y-33808D03*
X23971Y-34122D03*
X20191Y-31920D03*
X20191Y-32230D03*
X20191Y-32550D03*
X20191Y-32860D03*
X20191Y-33170D03*
X20191Y-33490D03*
X20191Y-33810D03*
X20191Y-34130D03*
G54D21*
X22267Y-41785D03*
X22267Y-42385D03*
X21283Y-41785D03*
X21283Y-42385D03*
G54D22*
X16811Y-41061D03*
X17411Y-41061D03*
G54D21*
X23922Y-40711D03*
X23922Y-40111D03*
X22858Y-39816D03*
X22858Y-40416D03*
X21677Y-39816D03*
X21677Y-40416D03*
G54D22*
X21289Y-36100D03*
X20689Y-36100D03*
G54D21*
X19158Y-20722D03*
X19158Y-21322D03*
G54D22*
X23622Y-14526D03*
X24222Y-14526D03*
X23620Y-16494D03*
X24220Y-16494D03*
X23620Y-18462D03*
X24220Y-18462D03*
X23620Y-20431D03*
X24220Y-20431D03*
X23620Y-22399D03*
X24220Y-22399D03*
X23620Y-24368D03*
X24220Y-24368D03*
X23620Y-26336D03*
X24220Y-26336D03*
G54D21*
X20181Y-28694D03*
X20181Y-29294D03*
G54D22*
X22027Y-29722D03*
X22627Y-29722D03*
G54D21*
X20496Y-39629D03*
X20496Y-39029D03*
X20496Y-37454D03*
X20496Y-38054D03*
G54D22*
X25914Y-40510D03*
X25314Y-40510D03*
X25914Y-39526D03*
X25314Y-39526D03*
G54D23*
X20158Y-10787D03*
G54D24*
X23150Y-10787D03*
G54D25*
X22213Y-14528D03*
X21095Y-14528D03*
X22213Y-16496D03*
X21095Y-16496D03*
X22213Y-18465D03*
X21095Y-18465D03*
X22213Y-20433D03*
X21095Y-20433D03*
X22213Y-22402D03*
X21095Y-22402D03*
X22213Y-24370D03*
X21095Y-24370D03*
X22213Y-26339D03*
X21095Y-26339D03*
X21095Y-28307D03*
X22213Y-28307D03*
G54D26*
X18921Y-39541D03*
X18921Y-37541D03*
G54D22*
X17819Y-43582D03*
X17219Y-43582D03*
G54D27*
X26933Y-43031D03*
G54D13*
X25933Y-43031D03*
X24933Y-43031D03*
X23933Y-43031D03*
G54D28*
X17927Y-42085D03*
X19127Y-42085D03*
G54D29*
X17873Y-45787D03*
G54D30*
X17716Y-45196D03*
G54D29*
X17873Y-44605D03*
G54D31*
X16771Y-45196D03*
G54D32*
X21304Y-36868D03*
X20536Y-41553D03*
X17111Y-36534D03*
X16855Y-23128D03*
G54D33*
X19158Y-22262D03*
X19178Y-32380D03*
X24158Y-31219D03*
X22859Y-39132D03*
X22780Y-38600D03*
X23882Y-30589D03*
X17445Y-24486D03*
X18233Y-34545D03*
X20457Y-25451D03*
X21107Y-33935D03*
X19374Y-35825D03*
X17760Y-35825D03*
X18744Y-28640D03*
X22563Y-38049D03*
X22524Y-33758D03*
X22465Y-32675D03*
X17445Y-26317D03*
X17681Y-35096D03*
X23115Y-37537D03*
X22937Y-32104D03*
X22637Y-43228D03*
X26870Y-41417D03*
X16141Y-43582D03*
X26880Y-31811D03*
X18031Y-46732D03*
X24881Y-46771D03*
X27125Y-46771D03*
X22077Y-8455D03*
X16378Y-8504D03*
X16270Y-15551D03*
X16270Y-21703D03*
X26919Y-8504D03*
X26919Y-15453D03*
X16122Y-46752D03*
X16073Y-38002D03*
X16220Y-28405D03*
X26919Y-21752D03*
X22170Y-37656D03*
X22170Y-38502D03*
X20024Y-42045D03*
X19670Y-38581D03*
X23602Y-28317D03*
X26860Y-28356D03*
X21205Y-33069D03*
G54D32*
X18582Y-43503D03*
G54D33*
X23937Y-41535D03*
X21126Y-32439D03*
G54D34*
X20078Y-44488D02*
X20078Y-43189D01*
X20078Y-43189D02*
X20275Y-42992D01*
X19448Y-42992D02*
X20275Y-42992D01*
X19448Y-42992D02*
X19448Y-42990D01*
X17877Y-42811D02*
X17877Y-42085D01*
X18056Y-42990D02*
X17877Y-42811D01*
G54D35*
X19448Y-42990D02*
X19473Y-42990D01*
G54D34*
X19473Y-42990D02*
X18154Y-42990D01*
G54D35*
X18154Y-42990D02*
X18056Y-42990D01*
X21289Y-36853D02*
X21304Y-36868D01*
G54D34*
X21289Y-36853D02*
X21289Y-36100D01*
X20536Y-42731D02*
X20536Y-41553D01*
X20275Y-42992D02*
X20536Y-42731D01*
X17716Y-45196D02*
X19488Y-45196D01*
X20078Y-44606D02*
X20078Y-44488D01*
X19488Y-45196D02*
X20078Y-44606D01*
X17716Y-45196D02*
X16771Y-45196D01*
X16811Y-41588D02*
X17308Y-42085D01*
X17308Y-42085D02*
X17877Y-42085D01*
X16811Y-41061D02*
X16811Y-41588D01*
G54D35*
X22032Y-32006D02*
X22238Y-31800D01*
X21835Y-32006D02*
X22032Y-32006D01*
X22238Y-31800D02*
X22238Y-31134D01*
X21608Y-31779D02*
X21835Y-32006D01*
X21608Y-31134D02*
X21608Y-31779D01*
X21291Y-34203D02*
X21835Y-33659D01*
X21835Y-33659D02*
X21835Y-32006D01*
X21291Y-34900D02*
X21291Y-34203D01*
X22238Y-30420D02*
X22027Y-30209D01*
X22027Y-30209D02*
X22027Y-29722D01*
X22238Y-31134D02*
X22238Y-30420D01*
G54D34*
X16811Y-41061D02*
X16811Y-36834D01*
X16811Y-36834D02*
X17111Y-36534D01*
G54D35*
X19461Y-23668D02*
X18921Y-23128D01*
X18921Y-23128D02*
X16855Y-23128D01*
X19461Y-24451D02*
X19461Y-23668D01*
X21289Y-34902D02*
X21291Y-34900D01*
G54D34*
X21289Y-36100D02*
X21289Y-34902D01*
G54D35*
X20191Y-32550D02*
X19348Y-32550D01*
X19158Y-22262D02*
X19158Y-21322D01*
X19348Y-32550D02*
X19178Y-32380D01*
X23971Y-31406D02*
X24158Y-31219D01*
X23971Y-31918D02*
X23971Y-31406D01*
X22859Y-39132D02*
X22858Y-39133D01*
X22858Y-39133D02*
X22858Y-39816D01*
X22780Y-38600D02*
X21677Y-39703D01*
X21677Y-39816D02*
X21677Y-39703D01*
X23337Y-31134D02*
X23183Y-31134D01*
X23337Y-31134D02*
X23882Y-30589D01*
X20191Y-31920D02*
X20191Y-29304D01*
X20191Y-29304D02*
X20181Y-29294D01*
X22868Y-30481D02*
X24220Y-29129D01*
X24220Y-29129D02*
X24220Y-26336D01*
X22868Y-31134D02*
X22868Y-30481D01*
X24483Y-33178D02*
X24630Y-33031D01*
X24630Y-33031D02*
X24630Y-24778D01*
X24630Y-24778D02*
X24220Y-24368D01*
X23971Y-33178D02*
X24483Y-33178D01*
X23971Y-33492D02*
X24443Y-33492D01*
X24827Y-23006D02*
X24220Y-22399D01*
X24827Y-33108D02*
X24827Y-23006D01*
X24443Y-33492D02*
X24827Y-33108D01*
X24403Y-33808D02*
X25024Y-33187D01*
X25024Y-33187D02*
X25024Y-21235D01*
X25024Y-21235D02*
X24220Y-20431D01*
X23971Y-33808D02*
X24403Y-33808D01*
X23971Y-34122D02*
X24345Y-34122D01*
X25221Y-19463D02*
X24220Y-18462D01*
X25221Y-33246D02*
X25221Y-19463D01*
X24345Y-34122D02*
X25221Y-33246D01*
X23181Y-34900D02*
X24295Y-34900D01*
X25418Y-17692D02*
X24220Y-16494D01*
X25418Y-33777D02*
X25418Y-17692D01*
X24295Y-34900D02*
X25418Y-33777D01*
X22871Y-35601D02*
X23075Y-35805D01*
X23075Y-35805D02*
X23666Y-35805D01*
X23666Y-35805D02*
X25615Y-33856D01*
X25615Y-33856D02*
X25615Y-15919D01*
X25615Y-15919D02*
X24222Y-14526D01*
X22871Y-34900D02*
X22871Y-35601D01*
X20191Y-34130D02*
X20191Y-34477D01*
X17480Y-24451D02*
X18461Y-24451D01*
X17445Y-24486D02*
X17480Y-24451D01*
X20123Y-34545D02*
X18233Y-34545D01*
X20191Y-34477D02*
X20123Y-34545D01*
X20191Y-33810D02*
X20982Y-33810D01*
X20457Y-25451D02*
X19461Y-25451D01*
X20982Y-33810D02*
X21107Y-33935D01*
X19598Y-32230D02*
X19315Y-31947D01*
X19315Y-31947D02*
X19315Y-30076D01*
X19315Y-30076D02*
X18883Y-29644D01*
X20191Y-32230D02*
X19598Y-32230D01*
X18883Y-29644D02*
X17406Y-29644D01*
X17760Y-35825D02*
X19374Y-35825D01*
X23971Y-32862D02*
X23085Y-32862D01*
X18461Y-28357D02*
X18744Y-28640D01*
X19649Y-36100D02*
X19374Y-35825D01*
X20689Y-36100D02*
X19649Y-36100D01*
X22563Y-38049D02*
X21933Y-38049D01*
X21933Y-38049D02*
X20674Y-36790D01*
X20674Y-36790D02*
X20674Y-36115D01*
X20674Y-36115D02*
X20689Y-36100D01*
X22544Y-33403D02*
X23085Y-32862D01*
X22544Y-33738D02*
X22544Y-33403D01*
X22524Y-33758D02*
X22544Y-33738D01*
X18461Y-26451D02*
X18461Y-28357D01*
X22592Y-32548D02*
X22465Y-32675D01*
X23971Y-32548D02*
X22592Y-32548D01*
X20971Y-34900D02*
X17877Y-34900D01*
X17800Y-25451D02*
X18461Y-25451D01*
X17426Y-25825D02*
X17800Y-25451D01*
X17426Y-26298D02*
X17426Y-25825D01*
X17445Y-26317D02*
X17426Y-26298D01*
X17877Y-34900D02*
X17681Y-35096D01*
X23971Y-32232D02*
X23065Y-32232D01*
X23922Y-39073D02*
X23922Y-40111D01*
X23115Y-38266D02*
X23922Y-39073D01*
X23115Y-37537D02*
X23115Y-38266D01*
X23065Y-32232D02*
X22937Y-32104D01*
X24881Y-46771D02*
X24881Y-45472D01*
X24881Y-45472D02*
X22637Y-43228D01*
X17873Y-45787D02*
X17873Y-46574D01*
X17873Y-46574D02*
X18031Y-46732D01*
X25914Y-40510D02*
X25963Y-40510D01*
X25963Y-40510D02*
X26870Y-41417D01*
X17219Y-43582D02*
X16141Y-43582D01*
X17873Y-45787D02*
X19016Y-45787D01*
X21338Y-45078D02*
X21338Y-44488D01*
X20511Y-45905D02*
X21338Y-45078D01*
X19133Y-45905D02*
X20511Y-45905D01*
X19016Y-45787D02*
X19133Y-45905D01*
X26860Y-28356D02*
X26880Y-28376D01*
X26880Y-28376D02*
X26880Y-31811D01*
X24881Y-46771D02*
X27125Y-46771D01*
X22077Y-8455D02*
X22028Y-8504D01*
X22028Y-8504D02*
X16378Y-8504D01*
X26860Y-28356D02*
X26860Y-21811D01*
X16270Y-15551D02*
X16270Y-21703D01*
X26919Y-15453D02*
X26919Y-8504D01*
X16122Y-46752D02*
X18031Y-46732D01*
X16073Y-28552D02*
X16073Y-38002D01*
X16220Y-28405D02*
X16073Y-28552D01*
X26860Y-21811D02*
X26919Y-21752D01*
X22241Y-37585D02*
X22170Y-37656D01*
X21484Y-18489D02*
X21095Y-18465D01*
X21854Y-29211D02*
X22627Y-29211D01*
X25870Y-38148D02*
X25870Y-36770D01*
X20496Y-38522D02*
X20496Y-38502D01*
X20496Y-39029D02*
X20496Y-38522D01*
X19984Y-42085D02*
X20024Y-42045D01*
X19749Y-38502D02*
X20496Y-38502D01*
X22553Y-31839D02*
X22553Y-31134D01*
X22032Y-32360D02*
X22553Y-31839D01*
X21396Y-26451D02*
X21095Y-26339D01*
X22241Y-34900D02*
X22241Y-34144D01*
X22170Y-38502D02*
X22150Y-38522D01*
X22150Y-38522D02*
X20496Y-38522D01*
X25914Y-39526D02*
X25870Y-39482D01*
X21095Y-24370D02*
X21095Y-22402D01*
X22627Y-29722D02*
X22627Y-29211D01*
X22241Y-34900D02*
X22241Y-37585D01*
X22032Y-33935D02*
X22032Y-32360D01*
X19177Y-42085D02*
X19984Y-42085D01*
X19670Y-38581D02*
X19749Y-38502D01*
X20496Y-38502D02*
X20496Y-38054D01*
X22241Y-34144D02*
X22032Y-33935D01*
X21095Y-16496D02*
X21095Y-14528D01*
X21095Y-26339D02*
X21095Y-24370D01*
X25914Y-40510D02*
X25914Y-39526D01*
X21095Y-18465D02*
X21095Y-16496D01*
X21095Y-20433D02*
X21095Y-18465D01*
X21095Y-22402D02*
X21095Y-20433D01*
X22627Y-30249D02*
X22627Y-29722D01*
X22553Y-30323D02*
X22627Y-30249D01*
X22553Y-31134D02*
X22553Y-30323D01*
X21923Y-30539D02*
X21658Y-30274D01*
X21658Y-30274D02*
X21658Y-29407D01*
X21658Y-29407D02*
X21854Y-29211D01*
X22213Y-28307D02*
X23590Y-28305D01*
X25870Y-39482D02*
X25870Y-38148D01*
X21923Y-31134D02*
X21923Y-30539D01*
X20044Y-42065D02*
X20024Y-42045D01*
X22627Y-29722D02*
X22627Y-28307D01*
X23590Y-28305D02*
X23602Y-28317D01*
X20983Y-26451D02*
X21095Y-26339D01*
X19461Y-26451D02*
X20983Y-26451D01*
X22213Y-24370D02*
X23620Y-24368D01*
X22213Y-26339D02*
X23620Y-26336D01*
X20181Y-28694D02*
X20181Y-28480D01*
X20354Y-28307D02*
X21095Y-28307D01*
X20181Y-28480D02*
X20354Y-28307D01*
X22213Y-14528D02*
X23621Y-14525D01*
X23621Y-14525D02*
X23622Y-14526D01*
X22213Y-16496D02*
X23620Y-16494D01*
X22213Y-18465D02*
X23620Y-18462D01*
X19512Y-17689D02*
X19512Y-13935D01*
X21291Y-12156D02*
X21303Y-12144D01*
X19512Y-13935D02*
X21291Y-12156D01*
X22766Y-12156D02*
X23150Y-11772D01*
X23150Y-11772D02*
X23150Y-10787D01*
X21291Y-12156D02*
X22766Y-12156D01*
X20191Y-33170D02*
X17999Y-33170D01*
X17999Y-33170D02*
X17406Y-32577D01*
X19008Y-37454D02*
X18921Y-37541D01*
X20496Y-37454D02*
X19008Y-37454D01*
X21293Y-32094D02*
X21520Y-32321D01*
X21520Y-32321D02*
X21520Y-32754D01*
X21520Y-32754D02*
X21205Y-33069D01*
X21293Y-31134D02*
X21293Y-32094D01*
X25181Y-37381D02*
X24570Y-36770D01*
X25314Y-39526D02*
X25314Y-39028D01*
X21835Y-42085D02*
X21836Y-42085D01*
X21283Y-40810D02*
X21677Y-40416D01*
X21283Y-41061D02*
X21283Y-40810D01*
X21283Y-41785D02*
X21283Y-41061D01*
X25314Y-39028D02*
X25181Y-38895D01*
X25181Y-38895D02*
X25181Y-37381D01*
X17411Y-41061D02*
X21283Y-41061D01*
X21283Y-41785D02*
X21536Y-41785D01*
X21836Y-42085D02*
X25339Y-42085D01*
X21536Y-41785D02*
X21836Y-42085D01*
X21283Y-41061D02*
X21284Y-41061D01*
X21284Y-41061D02*
X21283Y-41061D01*
X25615Y-39827D02*
X25314Y-39526D01*
X25615Y-41809D02*
X25615Y-39827D01*
X25339Y-42085D02*
X25615Y-41809D01*
X20393Y-44488D02*
X20393Y-43661D01*
X21283Y-42772D02*
X21283Y-42385D01*
X20393Y-43661D02*
X21283Y-42772D01*
G54D34*
X17873Y-44605D02*
X17873Y-43636D01*
G54D35*
X17873Y-43636D02*
X17819Y-43582D01*
G54D34*
X17819Y-43582D02*
X18503Y-43582D01*
G54D35*
X18503Y-43582D02*
X18582Y-43503D01*
X23922Y-40711D02*
X23922Y-41520D01*
X23922Y-41520D02*
X23937Y-41535D01*
X18055Y-31730D02*
X17406Y-31081D01*
X18615Y-32860D02*
X18055Y-32300D01*
X18055Y-32300D02*
X18055Y-31730D01*
X20191Y-32860D02*
X18615Y-32860D01*
X19118Y-33955D02*
X17406Y-33955D01*
X20191Y-33490D02*
X19583Y-33490D01*
X19583Y-33490D02*
X19118Y-33955D01*
X19009Y-39629D02*
X18921Y-39541D01*
X20496Y-39629D02*
X19009Y-39629D01*
X20978Y-32291D02*
X20978Y-31134D01*
X20978Y-32291D02*
X21126Y-32439D01*
X24570Y-40410D02*
X24570Y-38148D01*
X25314Y-40510D02*
X24670Y-40510D01*
X24576Y-40416D02*
X24670Y-40510D01*
X22267Y-41007D02*
X22858Y-40416D01*
X22267Y-41785D02*
X22267Y-41007D01*
X24670Y-40510D02*
X24570Y-40410D01*
X22858Y-40416D02*
X24576Y-40416D01*
X20708Y-44488D02*
X20708Y-43661D01*
X21935Y-42716D02*
X22267Y-42385D01*
X21653Y-42716D02*
X21935Y-42716D01*
X20708Y-43661D02*
X21653Y-42716D01*
X22267Y-42385D02*
X22267Y-42401D01*
X19158Y-20722D02*
X19158Y-18493D01*
X19158Y-18493D02*
X19162Y-18489D01*
X22213Y-20433D02*
X23620Y-20431D01*
X22213Y-22402D02*
X23620Y-22399D01*
G54D10*
G36*
X20187Y-42587D02*
X20131Y-42643D01*
X19671Y-42643D01*
X19688Y-42626D01*
X19727Y-42534D01*
X19727Y-42435D01*
X19727Y-42197D01*
X19727Y-41972D01*
X19727Y-41734D01*
X19727Y-41635D01*
X19688Y-41543D01*
X19618Y-41473D01*
X19526Y-41435D01*
X19289Y-41435D01*
X19227Y-41497D01*
X19227Y-42035D01*
X19664Y-42035D01*
X19727Y-41972D01*
X19727Y-42197D01*
X19664Y-42135D01*
X19227Y-42135D01*
X19227Y-42142D01*
X19127Y-42142D01*
X19127Y-42135D01*
X19127Y-42035D01*
X19127Y-41497D01*
X19064Y-41435D01*
X18827Y-41435D01*
X18735Y-41473D01*
X18665Y-41543D01*
X18627Y-41635D01*
X18627Y-41734D01*
X18627Y-41972D01*
X18689Y-42035D01*
X19127Y-42035D01*
X19127Y-42135D01*
X18689Y-42135D01*
X18627Y-42197D01*
X18627Y-42435D01*
X18627Y-42534D01*
X18665Y-42626D01*
X18679Y-42641D01*
X18374Y-42641D01*
X18388Y-42626D01*
X18427Y-42534D01*
X18427Y-42435D01*
X18427Y-41635D01*
X18388Y-41543D01*
X18318Y-41473D01*
X18226Y-41435D01*
X18127Y-41435D01*
X17740Y-41435D01*
X17747Y-41427D01*
X17779Y-41351D01*
X20093Y-41351D01*
X20050Y-41455D01*
X20049Y-41649D01*
X20123Y-41827D01*
X20187Y-41891D01*
X20187Y-42587D01*
X20187Y-42587D01*
G37*
G54D36*
X20187Y-42587D02*
X20131Y-42643D01*
X19671Y-42643D01*
X19688Y-42626D01*
X19727Y-42534D01*
X19727Y-42435D01*
X19727Y-42197D01*
X19727Y-41972D01*
X19727Y-41734D01*
X19727Y-41635D01*
X19688Y-41543D01*
X19618Y-41473D01*
X19526Y-41435D01*
X19289Y-41435D01*
X19227Y-41497D01*
X19227Y-42035D01*
X19664Y-42035D01*
X19727Y-41972D01*
X19727Y-42197D01*
X19664Y-42135D01*
X19227Y-42135D01*
X19227Y-42142D01*
X19127Y-42142D01*
X19127Y-42135D01*
X19127Y-42035D01*
X19127Y-41497D01*
X19064Y-41435D01*
X18827Y-41435D01*
X18735Y-41473D01*
X18665Y-41543D01*
X18627Y-41635D01*
X18627Y-41734D01*
X18627Y-41972D01*
X18689Y-42035D01*
X19127Y-42035D01*
X19127Y-42135D01*
X18689Y-42135D01*
X18627Y-42197D01*
X18627Y-42435D01*
X18627Y-42534D01*
X18665Y-42626D01*
X18679Y-42641D01*
X18374Y-42641D01*
X18388Y-42626D01*
X18427Y-42534D01*
X18427Y-42435D01*
X18427Y-41635D01*
X18388Y-41543D01*
X18318Y-41473D01*
X18226Y-41435D01*
X18127Y-41435D01*
X17740Y-41435D01*
X17747Y-41427D01*
X17779Y-41351D01*
X20093Y-41351D01*
X20050Y-41455D01*
X20049Y-41649D01*
X20123Y-41827D01*
X20187Y-41891D01*
X20187Y-42587D01*
G54D10*
G36*
X22662Y-31777D02*
X22576Y-31862D01*
X22512Y-32019D01*
X22511Y-32188D01*
X22537Y-32250D01*
X22380Y-32249D01*
X22224Y-32314D01*
X22125Y-32413D01*
X22125Y-32277D01*
X22142Y-32273D01*
X22237Y-32211D01*
X22443Y-32005D01*
X22505Y-31910D01*
X22528Y-31800D01*
X22528Y-31679D01*
X22538Y-31669D01*
X22553Y-31633D01*
X22567Y-31669D01*
X22597Y-31698D01*
X22597Y-31715D01*
X22659Y-31777D01*
X22662Y-31777D01*
X22662Y-31777D01*
G37*
G54D36*
X22662Y-31777D02*
X22576Y-31862D01*
X22512Y-32019D01*
X22511Y-32188D01*
X22537Y-32250D01*
X22380Y-32249D01*
X22224Y-32314D01*
X22125Y-32413D01*
X22125Y-32277D01*
X22142Y-32273D01*
X22237Y-32211D01*
X22443Y-32005D01*
X22505Y-31910D01*
X22528Y-31800D01*
X22528Y-31679D01*
X22538Y-31669D01*
X22553Y-31633D01*
X22567Y-31669D01*
X22597Y-31698D01*
X22597Y-31715D01*
X22659Y-31777D01*
X22662Y-31777D01*
G54D10*
G36*
X23335Y-33649D02*
X23327Y-33669D01*
X23327Y-33769D01*
X23327Y-33946D01*
X23335Y-33964D01*
X23327Y-33983D01*
X23327Y-34083D01*
X23327Y-34259D01*
X23319Y-34256D01*
X23219Y-34256D01*
X23042Y-34256D01*
X23026Y-34263D01*
X23009Y-34256D01*
X22909Y-34256D01*
X22732Y-34256D01*
X22711Y-34265D01*
X22689Y-34256D01*
X22589Y-34256D01*
X22412Y-34256D01*
X22396Y-34263D01*
X22379Y-34256D01*
X22347Y-34256D01*
X22285Y-34319D01*
X22285Y-34330D01*
X22250Y-34364D01*
X22235Y-34400D01*
X22221Y-34364D01*
X22196Y-34340D01*
X22196Y-34319D01*
X22134Y-34256D01*
X22102Y-34256D01*
X22081Y-34265D01*
X22059Y-34256D01*
X21959Y-34256D01*
X21782Y-34256D01*
X21766Y-34263D01*
X21749Y-34256D01*
X21649Y-34256D01*
X21647Y-34256D01*
X22040Y-33864D01*
X22098Y-33775D01*
X22098Y-33842D01*
X22163Y-33998D01*
X22282Y-34118D01*
X22439Y-34182D01*
X22608Y-34183D01*
X22764Y-34118D01*
X22884Y-33999D01*
X22948Y-33842D01*
X22949Y-33673D01*
X22884Y-33517D01*
X22862Y-33495D01*
X23205Y-33152D01*
X23327Y-33152D01*
X23327Y-33316D01*
X23335Y-33334D01*
X23327Y-33353D01*
X23327Y-33453D01*
X23327Y-33630D01*
X23335Y-33649D01*
X23335Y-33649D01*
G37*
G54D36*
X23335Y-33649D02*
X23327Y-33669D01*
X23327Y-33769D01*
X23327Y-33946D01*
X23335Y-33964D01*
X23327Y-33983D01*
X23327Y-34083D01*
X23327Y-34259D01*
X23319Y-34256D01*
X23219Y-34256D01*
X23042Y-34256D01*
X23026Y-34263D01*
X23009Y-34256D01*
X22909Y-34256D01*
X22732Y-34256D01*
X22711Y-34265D01*
X22689Y-34256D01*
X22589Y-34256D01*
X22412Y-34256D01*
X22396Y-34263D01*
X22379Y-34256D01*
X22347Y-34256D01*
X22285Y-34319D01*
X22285Y-34330D01*
X22250Y-34364D01*
X22235Y-34400D01*
X22221Y-34364D01*
X22196Y-34340D01*
X22196Y-34319D01*
X22134Y-34256D01*
X22102Y-34256D01*
X22081Y-34265D01*
X22059Y-34256D01*
X21959Y-34256D01*
X21782Y-34256D01*
X21766Y-34263D01*
X21749Y-34256D01*
X21649Y-34256D01*
X21647Y-34256D01*
X22040Y-33864D01*
X22098Y-33775D01*
X22098Y-33842D01*
X22163Y-33998D01*
X22282Y-34118D01*
X22439Y-34182D01*
X22608Y-34183D01*
X22764Y-34118D01*
X22884Y-33999D01*
X22948Y-33842D01*
X22949Y-33673D01*
X22884Y-33517D01*
X22862Y-33495D01*
X23205Y-33152D01*
X23327Y-33152D01*
X23327Y-33316D01*
X23335Y-33334D01*
X23327Y-33353D01*
X23327Y-33453D01*
X23327Y-33630D01*
X23335Y-33649D01*
G54D10*
G36*
X27234Y-46919D02*
X26248Y-46919D01*
X26248Y-43417D01*
X25933Y-43102D01*
X25862Y-43172D01*
X25862Y-43031D01*
X25547Y-42716D01*
X25451Y-42743D01*
X25432Y-42798D01*
X25399Y-42720D01*
X25245Y-42565D01*
X25042Y-42481D01*
X24824Y-42481D01*
X24621Y-42564D01*
X24467Y-42719D01*
X24433Y-42801D01*
X24399Y-42720D01*
X24245Y-42565D01*
X24042Y-42481D01*
X23824Y-42481D01*
X23621Y-42564D01*
X23467Y-42719D01*
X23383Y-42921D01*
X23382Y-43140D01*
X23466Y-43342D01*
X23621Y-43497D01*
X23823Y-43581D01*
X24041Y-43581D01*
X24244Y-43498D01*
X24399Y-43343D01*
X24433Y-43261D01*
X24466Y-43342D01*
X24621Y-43497D01*
X24823Y-43581D01*
X25041Y-43581D01*
X25244Y-43498D01*
X25399Y-43343D01*
X25430Y-43267D01*
X25451Y-43319D01*
X25547Y-43346D01*
X25862Y-43031D01*
X25862Y-43172D01*
X25617Y-43417D01*
X25645Y-43512D01*
X25851Y-43586D01*
X26069Y-43575D01*
X26220Y-43512D01*
X26248Y-43417D01*
X26248Y-46919D01*
X23104Y-46919D01*
X23104Y-45030D01*
X23104Y-44930D01*
X23104Y-43946D01*
X23066Y-43854D01*
X22995Y-43784D01*
X22903Y-43746D01*
X22804Y-43746D01*
X22017Y-43746D01*
X21925Y-43784D01*
X21855Y-43854D01*
X21817Y-43946D01*
X21817Y-44046D01*
X21817Y-45030D01*
X21855Y-45122D01*
X21925Y-45192D01*
X22017Y-45230D01*
X22116Y-45230D01*
X22903Y-45230D01*
X22995Y-45192D01*
X23066Y-45122D01*
X23104Y-45030D01*
X23104Y-46919D01*
X23084Y-46919D01*
X23084Y-46111D01*
X23046Y-46019D01*
X22975Y-45949D01*
X22883Y-45911D01*
X22784Y-45911D01*
X22001Y-45911D01*
X21997Y-45911D01*
X21905Y-45949D01*
X21835Y-46019D01*
X21797Y-46111D01*
X21797Y-46211D01*
X21797Y-46919D01*
X19600Y-46919D01*
X19600Y-46111D01*
X19562Y-46019D01*
X19491Y-45949D01*
X19399Y-45911D01*
X19300Y-45911D01*
X18513Y-45911D01*
X18421Y-45949D01*
X18359Y-46011D01*
X18359Y-45975D01*
X18359Y-45900D01*
X18297Y-45837D01*
X17923Y-45837D01*
X17923Y-46113D01*
X17986Y-46175D01*
X18060Y-46175D01*
X18159Y-46175D01*
X18251Y-46137D01*
X18321Y-46067D01*
X18359Y-45975D01*
X18359Y-46011D01*
X18351Y-46019D01*
X18313Y-46111D01*
X18313Y-46211D01*
X18313Y-46919D01*
X16073Y-46919D01*
X16073Y-45835D01*
X16078Y-45841D01*
X16170Y-45879D01*
X16270Y-45879D01*
X17373Y-45879D01*
X17433Y-45854D01*
X17387Y-45900D01*
X17387Y-45975D01*
X17426Y-46067D01*
X17496Y-46137D01*
X17588Y-46175D01*
X17687Y-46175D01*
X17761Y-46175D01*
X17823Y-46113D01*
X17823Y-45837D01*
X17816Y-45837D01*
X17816Y-45737D01*
X17823Y-45737D01*
X17823Y-45729D01*
X17923Y-45729D01*
X17923Y-45737D01*
X18297Y-45737D01*
X18359Y-45675D01*
X18359Y-45600D01*
X18337Y-45545D01*
X19415Y-45545D01*
X19415Y-45557D01*
X19480Y-45714D01*
X19600Y-45834D01*
X19757Y-45899D01*
X19927Y-45899D01*
X20084Y-45834D01*
X20204Y-45714D01*
X20269Y-45557D01*
X20269Y-45387D01*
X20204Y-45230D01*
X20165Y-45191D01*
X20226Y-45191D01*
X20236Y-45187D01*
X20245Y-45191D01*
X20344Y-45191D01*
X20541Y-45191D01*
X20551Y-45187D01*
X20560Y-45191D01*
X20659Y-45191D01*
X20856Y-45191D01*
X20866Y-45187D01*
X20875Y-45191D01*
X20974Y-45191D01*
X21171Y-45191D01*
X21181Y-45187D01*
X21190Y-45191D01*
X21226Y-45191D01*
X21288Y-45129D01*
X21288Y-45154D01*
X21212Y-45230D01*
X21147Y-45387D01*
X21147Y-45557D01*
X21212Y-45714D01*
X21332Y-45834D01*
X21489Y-45899D01*
X21659Y-45899D01*
X21816Y-45834D01*
X21936Y-45714D01*
X22001Y-45557D01*
X22001Y-45387D01*
X21936Y-45230D01*
X21816Y-45110D01*
X21663Y-45047D01*
X21687Y-44991D01*
X21687Y-44891D01*
X21687Y-44600D01*
X21687Y-44375D01*
X21687Y-44085D01*
X21687Y-43985D01*
X21649Y-43893D01*
X21578Y-43823D01*
X21486Y-43785D01*
X21450Y-43785D01*
X21387Y-43847D01*
X21387Y-44438D01*
X21624Y-44438D01*
X21687Y-44375D01*
X21687Y-44600D01*
X21624Y-44538D01*
X21387Y-44538D01*
X21387Y-44546D01*
X21372Y-44546D01*
X21372Y-43985D01*
X21334Y-43893D01*
X21289Y-43849D01*
X21289Y-43847D01*
X21226Y-43785D01*
X21190Y-43785D01*
X21181Y-43789D01*
X21171Y-43785D01*
X21072Y-43785D01*
X20998Y-43785D01*
X20998Y-43781D01*
X21773Y-43006D01*
X21935Y-43006D01*
X22046Y-42984D01*
X22140Y-42921D01*
X22302Y-42760D01*
X22541Y-42760D01*
X22633Y-42721D01*
X22703Y-42651D01*
X22742Y-42559D01*
X22742Y-42460D01*
X22742Y-42375D01*
X25339Y-42375D01*
X25449Y-42352D01*
X25544Y-42290D01*
X25820Y-42014D01*
X25882Y-41919D01*
X25905Y-41809D01*
X25905Y-39827D01*
X25882Y-39716D01*
X25882Y-39716D01*
X25864Y-39687D01*
X25864Y-39687D01*
X25864Y-39576D01*
X25856Y-39576D01*
X25856Y-39476D01*
X25864Y-39476D01*
X25864Y-39113D01*
X25801Y-39051D01*
X25739Y-39051D01*
X25647Y-39089D01*
X25614Y-39122D01*
X25604Y-39112D01*
X25604Y-39028D01*
X25581Y-38917D01*
X25581Y-38917D01*
X25519Y-38822D01*
X25475Y-38779D01*
X25520Y-38798D01*
X25757Y-38798D01*
X25820Y-38735D01*
X25820Y-38198D01*
X25812Y-38198D01*
X25812Y-38098D01*
X25820Y-38098D01*
X25820Y-37560D01*
X25757Y-37498D01*
X25520Y-37498D01*
X25471Y-37518D01*
X25471Y-37399D01*
X25520Y-37420D01*
X25757Y-37420D01*
X25820Y-37357D01*
X25820Y-36820D01*
X25820Y-36720D01*
X25820Y-36182D01*
X25757Y-36120D01*
X25520Y-36120D01*
X25428Y-36158D01*
X25358Y-36228D01*
X25320Y-36320D01*
X25320Y-36419D01*
X25320Y-36657D01*
X25382Y-36720D01*
X25820Y-36720D01*
X25820Y-36820D01*
X25382Y-36820D01*
X25320Y-36882D01*
X25320Y-37109D01*
X25120Y-36909D01*
X25120Y-36320D01*
X25081Y-36228D01*
X25011Y-36158D01*
X24919Y-36120D01*
X24820Y-36120D01*
X24220Y-36120D01*
X24128Y-36158D01*
X24058Y-36228D01*
X24020Y-36320D01*
X24020Y-36419D01*
X24020Y-37219D01*
X24058Y-37311D01*
X24128Y-37381D01*
X24220Y-37420D01*
X24319Y-37420D01*
X24809Y-37420D01*
X24887Y-37498D01*
X24820Y-37498D01*
X24220Y-37498D01*
X24128Y-37536D01*
X24058Y-37606D01*
X24020Y-37698D01*
X24020Y-37797D01*
X24020Y-38597D01*
X24058Y-38689D01*
X24128Y-38759D01*
X24220Y-38798D01*
X24280Y-38798D01*
X24280Y-39770D01*
X24212Y-39742D01*
X24212Y-39073D01*
X24189Y-38962D01*
X24189Y-38962D01*
X24127Y-38867D01*
X23405Y-38145D01*
X23405Y-37848D01*
X23475Y-37778D01*
X23539Y-37621D01*
X23540Y-37452D01*
X23475Y-37296D01*
X23356Y-37176D01*
X23199Y-37112D01*
X23030Y-37111D01*
X22874Y-37176D01*
X22754Y-37295D01*
X22690Y-37452D01*
X22689Y-37621D01*
X22700Y-37645D01*
X22647Y-37624D01*
X22478Y-37623D01*
X22322Y-37688D01*
X22251Y-37759D01*
X22053Y-37759D01*
X21575Y-37281D01*
X21578Y-37280D01*
X21715Y-37143D01*
X21789Y-36965D01*
X21790Y-36771D01*
X21716Y-36593D01*
X21637Y-36514D01*
X21637Y-36438D01*
X21664Y-36374D01*
X21664Y-36275D01*
X21664Y-35825D01*
X21637Y-35761D01*
X21637Y-35543D01*
X21749Y-35543D01*
X21765Y-35536D01*
X21782Y-35543D01*
X21882Y-35543D01*
X22059Y-35543D01*
X22080Y-35534D01*
X22102Y-35543D01*
X22134Y-35543D01*
X22196Y-35481D01*
X22196Y-35459D01*
X22221Y-35435D01*
X22236Y-35399D01*
X22250Y-35435D01*
X22285Y-35469D01*
X22285Y-35481D01*
X22347Y-35543D01*
X22379Y-35543D01*
X22396Y-35536D01*
X22412Y-35543D01*
X22512Y-35543D01*
X22581Y-35543D01*
X22581Y-35601D01*
X22603Y-35711D01*
X22665Y-35806D01*
X22869Y-36010D01*
X22964Y-36072D01*
X23075Y-36095D01*
X23666Y-36095D01*
X23776Y-36072D01*
X23871Y-36010D01*
X25820Y-34061D01*
X25882Y-33966D01*
X25882Y-33966D01*
X25905Y-33856D01*
X25905Y-15919D01*
X25882Y-15808D01*
X25882Y-15808D01*
X25820Y-15713D01*
X24597Y-14490D01*
X24597Y-14251D01*
X24558Y-14159D01*
X24488Y-14089D01*
X24396Y-14051D01*
X24297Y-14051D01*
X24047Y-14051D01*
X23990Y-14074D01*
X23990Y-10620D01*
X23862Y-10311D01*
X23626Y-10074D01*
X23317Y-9946D01*
X22983Y-9946D01*
X22674Y-10074D01*
X22437Y-10310D01*
X22309Y-10619D01*
X22309Y-10953D01*
X22437Y-11262D01*
X22673Y-11499D01*
X22860Y-11576D01*
X22860Y-11651D01*
X22645Y-11866D01*
X21363Y-11866D01*
X21303Y-11854D01*
X21192Y-11876D01*
X21097Y-11938D01*
X21085Y-11950D01*
X20998Y-12038D01*
X20998Y-11427D01*
X20998Y-11327D01*
X20998Y-10146D01*
X20960Y-10054D01*
X20890Y-9984D01*
X20798Y-9946D01*
X20698Y-9946D01*
X19517Y-9946D01*
X19425Y-9984D01*
X19355Y-10054D01*
X19317Y-10146D01*
X19317Y-10246D01*
X19317Y-11427D01*
X19355Y-11519D01*
X19425Y-11589D01*
X19517Y-11627D01*
X19617Y-11627D01*
X20798Y-11627D01*
X20890Y-11589D01*
X20960Y-11519D01*
X20998Y-11427D01*
X20998Y-12038D01*
X19306Y-13729D01*
X19244Y-13824D01*
X19222Y-13935D01*
X19222Y-17283D01*
X19190Y-17297D01*
X19120Y-17367D01*
X19082Y-17459D01*
X19082Y-17558D01*
X19082Y-17918D01*
X19120Y-18010D01*
X19168Y-18059D01*
X18932Y-18059D01*
X18840Y-18097D01*
X18770Y-18167D01*
X18732Y-18259D01*
X18732Y-18358D01*
X18732Y-18718D01*
X18770Y-18810D01*
X18840Y-18880D01*
X18868Y-18892D01*
X18868Y-20353D01*
X18791Y-20385D01*
X18721Y-20455D01*
X18683Y-20547D01*
X18683Y-20646D01*
X18683Y-20896D01*
X18721Y-20988D01*
X18754Y-21021D01*
X18721Y-21055D01*
X18683Y-21147D01*
X18683Y-21246D01*
X18683Y-21496D01*
X18721Y-21588D01*
X18791Y-21658D01*
X18868Y-21690D01*
X18868Y-21950D01*
X18797Y-22020D01*
X18733Y-22177D01*
X18732Y-22346D01*
X18797Y-22502D01*
X18916Y-22622D01*
X19073Y-22686D01*
X19242Y-22687D01*
X19398Y-22622D01*
X19518Y-22503D01*
X19582Y-22346D01*
X19583Y-22177D01*
X19518Y-22021D01*
X19448Y-21950D01*
X19448Y-21690D01*
X19524Y-21658D01*
X19594Y-21588D01*
X19633Y-21496D01*
X19633Y-21397D01*
X19633Y-21147D01*
X19594Y-21055D01*
X19561Y-21022D01*
X19594Y-20988D01*
X19633Y-20896D01*
X19633Y-20797D01*
X19633Y-20547D01*
X19594Y-20455D01*
X19524Y-20385D01*
X19448Y-20353D01*
X19448Y-18895D01*
X19483Y-18880D01*
X19512Y-18852D01*
X19540Y-18880D01*
X19632Y-18919D01*
X19749Y-18919D01*
X19812Y-18856D01*
X19812Y-18539D01*
X19804Y-18539D01*
X19804Y-18439D01*
X19812Y-18439D01*
X19812Y-18121D01*
X19789Y-18099D01*
X19833Y-18080D01*
X19903Y-18010D01*
X19942Y-17918D01*
X19942Y-17819D01*
X19942Y-17459D01*
X19903Y-17367D01*
X19833Y-17297D01*
X19802Y-17283D01*
X19802Y-14055D01*
X21411Y-12446D01*
X22766Y-12446D01*
X22876Y-12423D01*
X22971Y-12361D01*
X23355Y-11977D01*
X23417Y-11882D01*
X23440Y-11772D01*
X23440Y-11576D01*
X23625Y-11499D01*
X23862Y-11263D01*
X23990Y-10954D01*
X23990Y-10620D01*
X23990Y-14074D01*
X23955Y-14089D01*
X23922Y-14122D01*
X23888Y-14089D01*
X23796Y-14051D01*
X23697Y-14051D01*
X23447Y-14051D01*
X23355Y-14089D01*
X23285Y-14159D01*
X23253Y-14235D01*
X22777Y-14236D01*
X22777Y-14123D01*
X22739Y-14031D01*
X22669Y-13961D01*
X22577Y-13923D01*
X22477Y-13923D01*
X21848Y-13923D01*
X21756Y-13961D01*
X21686Y-14031D01*
X21654Y-14110D01*
X21621Y-14031D01*
X21551Y-13961D01*
X21459Y-13923D01*
X21207Y-13923D01*
X21145Y-13986D01*
X21145Y-14478D01*
X21152Y-14478D01*
X21152Y-14578D01*
X21145Y-14578D01*
X21145Y-15070D01*
X21207Y-15132D01*
X21459Y-15132D01*
X21551Y-15094D01*
X21621Y-15024D01*
X21654Y-14945D01*
X21686Y-15024D01*
X21756Y-15094D01*
X21848Y-15132D01*
X21948Y-15132D01*
X22577Y-15132D01*
X22669Y-15094D01*
X22739Y-15024D01*
X22777Y-14932D01*
X22777Y-14832D01*
X22777Y-14816D01*
X23253Y-14815D01*
X23285Y-14892D01*
X23355Y-14962D01*
X23447Y-15001D01*
X23546Y-15001D01*
X23796Y-15001D01*
X23888Y-14962D01*
X23921Y-14929D01*
X23955Y-14962D01*
X24047Y-15001D01*
X24146Y-15001D01*
X24286Y-15001D01*
X25325Y-16039D01*
X25325Y-17188D01*
X24595Y-16458D01*
X24595Y-16219D01*
X24556Y-16127D01*
X24486Y-16057D01*
X24394Y-16019D01*
X24295Y-16019D01*
X24045Y-16019D01*
X23953Y-16057D01*
X23920Y-16090D01*
X23886Y-16057D01*
X23794Y-16019D01*
X23695Y-16019D01*
X23445Y-16019D01*
X23353Y-16057D01*
X23283Y-16127D01*
X23251Y-16204D01*
X22777Y-16205D01*
X22777Y-16091D01*
X22739Y-15999D01*
X22669Y-15929D01*
X22577Y-15891D01*
X22477Y-15891D01*
X21848Y-15891D01*
X21756Y-15929D01*
X21686Y-15999D01*
X21654Y-16078D01*
X21621Y-15999D01*
X21551Y-15929D01*
X21459Y-15891D01*
X21207Y-15891D01*
X21145Y-15954D01*
X21145Y-16446D01*
X21152Y-16446D01*
X21152Y-16546D01*
X21145Y-16546D01*
X21145Y-17038D01*
X21207Y-17100D01*
X21459Y-17100D01*
X21551Y-17062D01*
X21621Y-16992D01*
X21654Y-16913D01*
X21686Y-16992D01*
X21756Y-17062D01*
X21848Y-17100D01*
X21948Y-17100D01*
X22577Y-17100D01*
X22669Y-17062D01*
X22739Y-16992D01*
X22777Y-16900D01*
X22777Y-16800D01*
X22777Y-16785D01*
X23251Y-16784D01*
X23283Y-16860D01*
X23353Y-16930D01*
X23445Y-16969D01*
X23544Y-16969D01*
X23794Y-16969D01*
X23886Y-16930D01*
X23919Y-16897D01*
X23953Y-16930D01*
X24045Y-16969D01*
X24144Y-16969D01*
X24284Y-16969D01*
X25128Y-17812D01*
X25128Y-18959D01*
X24595Y-18426D01*
X24595Y-18187D01*
X24556Y-18095D01*
X24486Y-18025D01*
X24394Y-17987D01*
X24295Y-17987D01*
X24045Y-17987D01*
X23953Y-18025D01*
X23920Y-18058D01*
X23886Y-18025D01*
X23794Y-17987D01*
X23695Y-17987D01*
X23445Y-17987D01*
X23353Y-18025D01*
X23283Y-18095D01*
X23251Y-18172D01*
X22777Y-18173D01*
X22777Y-18060D01*
X22739Y-17968D01*
X22669Y-17898D01*
X22577Y-17860D01*
X22477Y-17860D01*
X21848Y-17860D01*
X21756Y-17898D01*
X21686Y-17968D01*
X21654Y-18047D01*
X21621Y-17968D01*
X21551Y-17898D01*
X21459Y-17860D01*
X21207Y-17860D01*
X21145Y-17923D01*
X21145Y-18415D01*
X21152Y-18415D01*
X21152Y-18515D01*
X21145Y-18515D01*
X21145Y-19007D01*
X21207Y-19069D01*
X21459Y-19069D01*
X21551Y-19031D01*
X21621Y-18961D01*
X21654Y-18882D01*
X21686Y-18961D01*
X21756Y-19031D01*
X21848Y-19069D01*
X21948Y-19069D01*
X22577Y-19069D01*
X22669Y-19031D01*
X22739Y-18961D01*
X22777Y-18869D01*
X22777Y-18769D01*
X22777Y-18753D01*
X23251Y-18752D01*
X23283Y-18828D01*
X23353Y-18898D01*
X23445Y-18937D01*
X23544Y-18937D01*
X23794Y-18937D01*
X23886Y-18898D01*
X23919Y-18865D01*
X23953Y-18898D01*
X24045Y-18937D01*
X24144Y-18937D01*
X24284Y-18937D01*
X24931Y-19583D01*
X24931Y-20731D01*
X24595Y-20395D01*
X24595Y-20156D01*
X24556Y-20064D01*
X24486Y-19994D01*
X24394Y-19956D01*
X24295Y-19956D01*
X24045Y-19956D01*
X23953Y-19994D01*
X23920Y-20027D01*
X23886Y-19994D01*
X23794Y-19956D01*
X23695Y-19956D01*
X23445Y-19956D01*
X23353Y-19994D01*
X23283Y-20064D01*
X23251Y-20141D01*
X22777Y-20142D01*
X22777Y-20028D01*
X22739Y-19936D01*
X22669Y-19866D01*
X22577Y-19828D01*
X22477Y-19828D01*
X21848Y-19828D01*
X21756Y-19866D01*
X21686Y-19936D01*
X21654Y-20015D01*
X21621Y-19936D01*
X21551Y-19866D01*
X21459Y-19828D01*
X21207Y-19828D01*
X21145Y-19891D01*
X21145Y-20383D01*
X21152Y-20383D01*
X21152Y-20483D01*
X21145Y-20483D01*
X21145Y-20975D01*
X21207Y-21037D01*
X21459Y-21037D01*
X21551Y-20999D01*
X21621Y-20929D01*
X21654Y-20850D01*
X21686Y-20929D01*
X21756Y-20999D01*
X21848Y-21037D01*
X21948Y-21037D01*
X22577Y-21037D01*
X22669Y-20999D01*
X22739Y-20929D01*
X22777Y-20837D01*
X22777Y-20737D01*
X22777Y-20722D01*
X23251Y-20721D01*
X23283Y-20797D01*
X23353Y-20867D01*
X23445Y-20906D01*
X23544Y-20906D01*
X23794Y-20906D01*
X23886Y-20867D01*
X23919Y-20834D01*
X23953Y-20867D01*
X24045Y-20906D01*
X24144Y-20906D01*
X24284Y-20906D01*
X24734Y-21355D01*
X24734Y-22502D01*
X24595Y-22363D01*
X24595Y-22124D01*
X24556Y-22032D01*
X24486Y-21962D01*
X24394Y-21924D01*
X24295Y-21924D01*
X24045Y-21924D01*
X23953Y-21962D01*
X23920Y-21995D01*
X23886Y-21962D01*
X23794Y-21924D01*
X23695Y-21924D01*
X23445Y-21924D01*
X23353Y-21962D01*
X23283Y-22032D01*
X23251Y-22109D01*
X22777Y-22110D01*
X22777Y-21997D01*
X22739Y-21905D01*
X22669Y-21835D01*
X22577Y-21797D01*
X22477Y-21797D01*
X21848Y-21797D01*
X21756Y-21835D01*
X21686Y-21905D01*
X21654Y-21984D01*
X21621Y-21905D01*
X21551Y-21835D01*
X21459Y-21797D01*
X21207Y-21797D01*
X21145Y-21860D01*
X21145Y-22352D01*
X21152Y-22352D01*
X21152Y-22452D01*
X21145Y-22452D01*
X21145Y-22944D01*
X21207Y-23006D01*
X21459Y-23006D01*
X21551Y-22968D01*
X21621Y-22898D01*
X21654Y-22819D01*
X21686Y-22898D01*
X21756Y-22968D01*
X21848Y-23006D01*
X21948Y-23006D01*
X22577Y-23006D01*
X22669Y-22968D01*
X22739Y-22898D01*
X22777Y-22806D01*
X22777Y-22706D01*
X22777Y-22690D01*
X23251Y-22689D01*
X23283Y-22765D01*
X23353Y-22835D01*
X23445Y-22874D01*
X23544Y-22874D01*
X23794Y-22874D01*
X23886Y-22835D01*
X23919Y-22802D01*
X23953Y-22835D01*
X24045Y-22874D01*
X24144Y-22874D01*
X24284Y-22874D01*
X24537Y-23126D01*
X24537Y-23981D01*
X24486Y-23931D01*
X24394Y-23893D01*
X24295Y-23893D01*
X24045Y-23893D01*
X23953Y-23931D01*
X23920Y-23964D01*
X23886Y-23931D01*
X23794Y-23893D01*
X23695Y-23893D01*
X23445Y-23893D01*
X23353Y-23931D01*
X23283Y-24001D01*
X23251Y-24078D01*
X22777Y-24079D01*
X22777Y-23965D01*
X22739Y-23873D01*
X22669Y-23803D01*
X22577Y-23765D01*
X22477Y-23765D01*
X21848Y-23765D01*
X21756Y-23803D01*
X21686Y-23873D01*
X21654Y-23952D01*
X21621Y-23873D01*
X21551Y-23803D01*
X21459Y-23765D01*
X21207Y-23765D01*
X21145Y-23828D01*
X21145Y-24320D01*
X21152Y-24320D01*
X21152Y-24420D01*
X21145Y-24420D01*
X21145Y-24912D01*
X21207Y-24974D01*
X21459Y-24974D01*
X21551Y-24936D01*
X21621Y-24866D01*
X21654Y-24787D01*
X21686Y-24866D01*
X21756Y-24936D01*
X21848Y-24974D01*
X21948Y-24974D01*
X22577Y-24974D01*
X22669Y-24936D01*
X22739Y-24866D01*
X22777Y-24774D01*
X22777Y-24674D01*
X22777Y-24659D01*
X23251Y-24658D01*
X23283Y-24734D01*
X23353Y-24804D01*
X23445Y-24843D01*
X23544Y-24843D01*
X23794Y-24843D01*
X23886Y-24804D01*
X23919Y-24771D01*
X23953Y-24804D01*
X24045Y-24843D01*
X24144Y-24843D01*
X24284Y-24843D01*
X24340Y-24898D01*
X24340Y-25861D01*
X24295Y-25861D01*
X24045Y-25861D01*
X23953Y-25899D01*
X23920Y-25932D01*
X23886Y-25899D01*
X23794Y-25861D01*
X23695Y-25861D01*
X23445Y-25861D01*
X23353Y-25899D01*
X23283Y-25969D01*
X23251Y-26046D01*
X22777Y-26047D01*
X22777Y-25934D01*
X22739Y-25842D01*
X22669Y-25772D01*
X22577Y-25734D01*
X22477Y-25734D01*
X21848Y-25734D01*
X21756Y-25772D01*
X21686Y-25842D01*
X21654Y-25921D01*
X21621Y-25842D01*
X21551Y-25772D01*
X21459Y-25734D01*
X21207Y-25734D01*
X21145Y-25797D01*
X21145Y-26289D01*
X21152Y-26289D01*
X21152Y-26389D01*
X21145Y-26389D01*
X21145Y-26881D01*
X21207Y-26943D01*
X21459Y-26943D01*
X21551Y-26905D01*
X21621Y-26835D01*
X21654Y-26756D01*
X21686Y-26835D01*
X21756Y-26905D01*
X21848Y-26943D01*
X21948Y-26943D01*
X22577Y-26943D01*
X22669Y-26905D01*
X22739Y-26835D01*
X22777Y-26743D01*
X22777Y-26643D01*
X22777Y-26627D01*
X23251Y-26626D01*
X23283Y-26702D01*
X23353Y-26772D01*
X23445Y-26811D01*
X23544Y-26811D01*
X23794Y-26811D01*
X23886Y-26772D01*
X23919Y-26739D01*
X23930Y-26749D01*
X23930Y-29008D01*
X23002Y-29936D01*
X23002Y-29897D01*
X23002Y-29834D01*
X23002Y-29609D01*
X23002Y-29546D01*
X23002Y-29447D01*
X22963Y-29355D01*
X22893Y-29285D01*
X22801Y-29247D01*
X22777Y-29247D01*
X22777Y-28711D01*
X22777Y-28611D01*
X22777Y-28419D01*
X22777Y-28194D01*
X22777Y-28002D01*
X22777Y-27902D01*
X22739Y-27810D01*
X22669Y-27740D01*
X22577Y-27702D01*
X22325Y-27702D01*
X22263Y-27765D01*
X22263Y-28257D01*
X22715Y-28257D01*
X22777Y-28194D01*
X22777Y-28419D01*
X22715Y-28357D01*
X22263Y-28357D01*
X22263Y-28849D01*
X22325Y-28911D01*
X22577Y-28911D01*
X22669Y-28873D01*
X22739Y-28803D01*
X22777Y-28711D01*
X22777Y-29247D01*
X22739Y-29247D01*
X22677Y-29309D01*
X22677Y-29672D01*
X22939Y-29672D01*
X23002Y-29609D01*
X23002Y-29834D01*
X22939Y-29772D01*
X22677Y-29772D01*
X22677Y-30134D01*
X22739Y-30197D01*
X22741Y-30197D01*
X22662Y-30275D01*
X22600Y-30370D01*
X22578Y-30481D01*
X22578Y-30588D01*
X22567Y-30598D01*
X22552Y-30634D01*
X22538Y-30598D01*
X22528Y-30588D01*
X22528Y-30420D01*
X22505Y-30309D01*
X22505Y-30309D01*
X22443Y-30214D01*
X22405Y-30177D01*
X22452Y-30197D01*
X22514Y-30197D01*
X22577Y-30134D01*
X22577Y-29772D01*
X22569Y-29772D01*
X22569Y-29672D01*
X22577Y-29672D01*
X22577Y-29309D01*
X22514Y-29247D01*
X22452Y-29247D01*
X22360Y-29285D01*
X22327Y-29318D01*
X22293Y-29285D01*
X22201Y-29247D01*
X22102Y-29247D01*
X21852Y-29247D01*
X21760Y-29285D01*
X21690Y-29355D01*
X21652Y-29447D01*
X21652Y-29546D01*
X21652Y-29996D01*
X21690Y-30088D01*
X21737Y-30135D01*
X21737Y-30209D01*
X21759Y-30319D01*
X21821Y-30414D01*
X21898Y-30490D01*
X21872Y-30490D01*
X21872Y-30547D01*
X21816Y-30490D01*
X21784Y-30490D01*
X21765Y-30498D01*
X21746Y-30490D01*
X21646Y-30490D01*
X21469Y-30490D01*
X21450Y-30498D01*
X21431Y-30490D01*
X21331Y-30490D01*
X21154Y-30490D01*
X21135Y-30498D01*
X21116Y-30490D01*
X21016Y-30490D01*
X20839Y-30490D01*
X20747Y-30528D01*
X20677Y-30598D01*
X20639Y-30690D01*
X20639Y-30790D01*
X20639Y-31577D01*
X20642Y-31585D01*
X20634Y-31581D01*
X20534Y-31581D01*
X20481Y-31581D01*
X20481Y-29658D01*
X20547Y-29630D01*
X20617Y-29560D01*
X20656Y-29468D01*
X20656Y-29369D01*
X20656Y-29119D01*
X20617Y-29027D01*
X20584Y-28994D01*
X20617Y-28960D01*
X20651Y-28878D01*
X20730Y-28911D01*
X20830Y-28911D01*
X21459Y-28911D01*
X21551Y-28873D01*
X21621Y-28803D01*
X21654Y-28724D01*
X21686Y-28803D01*
X21756Y-28873D01*
X21848Y-28911D01*
X22100Y-28911D01*
X22163Y-28849D01*
X22163Y-28357D01*
X22155Y-28357D01*
X22155Y-28257D01*
X22163Y-28257D01*
X22163Y-27765D01*
X22100Y-27702D01*
X21848Y-27702D01*
X21756Y-27740D01*
X21686Y-27810D01*
X21653Y-27889D01*
X21621Y-27810D01*
X21551Y-27740D01*
X21459Y-27702D01*
X21359Y-27702D01*
X21045Y-27702D01*
X21045Y-26881D01*
X21045Y-26389D01*
X21045Y-26289D01*
X21045Y-25797D01*
X21045Y-24912D01*
X21045Y-24420D01*
X21045Y-24320D01*
X21045Y-23828D01*
X21045Y-22944D01*
X21045Y-22452D01*
X21045Y-22352D01*
X21045Y-21860D01*
X21045Y-20975D01*
X21045Y-20483D01*
X21045Y-20383D01*
X21045Y-19891D01*
X21045Y-19007D01*
X21045Y-18515D01*
X21045Y-18415D01*
X21045Y-17923D01*
X21045Y-17038D01*
X21045Y-16546D01*
X21045Y-16446D01*
X21045Y-15954D01*
X21045Y-15070D01*
X21045Y-14578D01*
X21045Y-14478D01*
X21045Y-13986D01*
X20982Y-13923D01*
X20730Y-13923D01*
X20638Y-13961D01*
X20568Y-14031D01*
X20530Y-14123D01*
X20530Y-14223D01*
X20530Y-14415D01*
X20593Y-14478D01*
X21045Y-14478D01*
X21045Y-14578D01*
X20593Y-14578D01*
X20530Y-14640D01*
X20530Y-14832D01*
X20530Y-14932D01*
X20568Y-15024D01*
X20638Y-15094D01*
X20730Y-15132D01*
X20982Y-15132D01*
X21045Y-15070D01*
X21045Y-15954D01*
X20982Y-15891D01*
X20730Y-15891D01*
X20638Y-15929D01*
X20568Y-15999D01*
X20530Y-16091D01*
X20530Y-16191D01*
X20530Y-16383D01*
X20593Y-16446D01*
X21045Y-16446D01*
X21045Y-16546D01*
X20593Y-16546D01*
X20530Y-16608D01*
X20530Y-16800D01*
X20530Y-16900D01*
X20568Y-16992D01*
X20638Y-17062D01*
X20730Y-17100D01*
X20982Y-17100D01*
X21045Y-17038D01*
X21045Y-17923D01*
X20982Y-17860D01*
X20730Y-17860D01*
X20638Y-17898D01*
X20568Y-17968D01*
X20530Y-18060D01*
X20530Y-18160D01*
X20530Y-18352D01*
X20593Y-18415D01*
X21045Y-18415D01*
X21045Y-18515D01*
X20593Y-18515D01*
X20530Y-18577D01*
X20530Y-18769D01*
X20530Y-18869D01*
X20568Y-18961D01*
X20638Y-19031D01*
X20730Y-19069D01*
X20982Y-19069D01*
X21045Y-19007D01*
X21045Y-19891D01*
X20982Y-19828D01*
X20730Y-19828D01*
X20638Y-19866D01*
X20568Y-19936D01*
X20530Y-20028D01*
X20530Y-20128D01*
X20530Y-20320D01*
X20593Y-20383D01*
X21045Y-20383D01*
X21045Y-20483D01*
X20593Y-20483D01*
X20530Y-20545D01*
X20530Y-20737D01*
X20530Y-20837D01*
X20568Y-20929D01*
X20638Y-20999D01*
X20730Y-21037D01*
X20982Y-21037D01*
X21045Y-20975D01*
X21045Y-21860D01*
X20982Y-21797D01*
X20730Y-21797D01*
X20638Y-21835D01*
X20568Y-21905D01*
X20530Y-21997D01*
X20530Y-22097D01*
X20530Y-22289D01*
X20593Y-22352D01*
X21045Y-22352D01*
X21045Y-22452D01*
X20593Y-22452D01*
X20530Y-22514D01*
X20530Y-22706D01*
X20530Y-22806D01*
X20568Y-22898D01*
X20638Y-22968D01*
X20730Y-23006D01*
X20982Y-23006D01*
X21045Y-22944D01*
X21045Y-23828D01*
X20982Y-23765D01*
X20730Y-23765D01*
X20638Y-23803D01*
X20568Y-23873D01*
X20530Y-23965D01*
X20530Y-24065D01*
X20530Y-24257D01*
X20593Y-24320D01*
X21045Y-24320D01*
X21045Y-24420D01*
X20593Y-24420D01*
X20530Y-24482D01*
X20530Y-24674D01*
X20530Y-24774D01*
X20568Y-24866D01*
X20638Y-24936D01*
X20730Y-24974D01*
X20982Y-24974D01*
X21045Y-24912D01*
X21045Y-25797D01*
X20982Y-25734D01*
X20774Y-25734D01*
X20817Y-25692D01*
X20881Y-25535D01*
X20882Y-25366D01*
X20817Y-25210D01*
X20698Y-25090D01*
X20541Y-25026D01*
X20372Y-25025D01*
X20292Y-25059D01*
X20292Y-18718D01*
X20292Y-18619D01*
X20292Y-18601D01*
X20292Y-18376D01*
X20292Y-18358D01*
X20292Y-18259D01*
X20253Y-18167D01*
X20183Y-18097D01*
X20091Y-18059D01*
X19974Y-18059D01*
X19912Y-18121D01*
X19912Y-18439D01*
X20229Y-18439D01*
X20292Y-18376D01*
X20292Y-18601D01*
X20229Y-18539D01*
X19912Y-18539D01*
X19912Y-18856D01*
X19974Y-18919D01*
X20091Y-18919D01*
X20183Y-18880D01*
X20253Y-18810D01*
X20292Y-18718D01*
X20292Y-25059D01*
X20216Y-25090D01*
X20145Y-25161D01*
X19973Y-25161D01*
X19956Y-25120D01*
X19792Y-24955D01*
X19781Y-24951D01*
X19791Y-24946D01*
X19956Y-24782D01*
X20045Y-24567D01*
X20045Y-24335D01*
X19956Y-24120D01*
X19792Y-23955D01*
X19751Y-23938D01*
X19751Y-23668D01*
X19728Y-23557D01*
X19666Y-23462D01*
X19126Y-22922D01*
X19031Y-22860D01*
X18921Y-22838D01*
X17252Y-22838D01*
X17130Y-22716D01*
X16952Y-22642D01*
X16758Y-22641D01*
X16580Y-22715D01*
X16443Y-22852D01*
X16369Y-23030D01*
X16368Y-23224D01*
X16442Y-23402D01*
X16579Y-23539D01*
X16757Y-23613D01*
X16951Y-23614D01*
X17129Y-23540D01*
X17252Y-23418D01*
X18800Y-23418D01*
X19171Y-23788D01*
X19171Y-23938D01*
X19130Y-23955D01*
X19037Y-24047D01*
X19007Y-23974D01*
X18937Y-23904D01*
X18845Y-23866D01*
X18745Y-23866D01*
X18076Y-23866D01*
X17984Y-23904D01*
X17914Y-23974D01*
X17876Y-24066D01*
X17876Y-24161D01*
X17721Y-24161D01*
X17686Y-24125D01*
X17529Y-24061D01*
X17360Y-24060D01*
X17204Y-24125D01*
X17084Y-24244D01*
X17020Y-24401D01*
X17019Y-24570D01*
X17084Y-24726D01*
X17203Y-24846D01*
X17360Y-24910D01*
X17529Y-24911D01*
X17685Y-24846D01*
X17791Y-24741D01*
X17876Y-24741D01*
X17876Y-24835D01*
X17914Y-24927D01*
X17984Y-24997D01*
X18057Y-25027D01*
X17965Y-25119D01*
X17948Y-25161D01*
X17800Y-25161D01*
X17689Y-25183D01*
X17594Y-25245D01*
X17220Y-25619D01*
X17158Y-25714D01*
X17136Y-25825D01*
X17136Y-26024D01*
X17084Y-26075D01*
X17020Y-26232D01*
X17019Y-26401D01*
X17084Y-26557D01*
X17203Y-26677D01*
X17360Y-26741D01*
X17529Y-26742D01*
X17685Y-26677D01*
X17805Y-26558D01*
X17869Y-26401D01*
X17870Y-26232D01*
X17805Y-26076D01*
X17716Y-25986D01*
X17716Y-25945D01*
X17920Y-25741D01*
X17948Y-25741D01*
X17965Y-25781D01*
X18129Y-25946D01*
X18140Y-25950D01*
X18130Y-25955D01*
X17965Y-26119D01*
X17876Y-26334D01*
X17876Y-26566D01*
X17965Y-26781D01*
X18129Y-26946D01*
X18171Y-26963D01*
X18171Y-28357D01*
X18193Y-28467D01*
X18255Y-28562D01*
X18319Y-28625D01*
X18318Y-28724D01*
X18383Y-28880D01*
X18502Y-29000D01*
X18659Y-29064D01*
X18828Y-29065D01*
X18984Y-29000D01*
X19104Y-28881D01*
X19168Y-28724D01*
X19169Y-28555D01*
X19104Y-28399D01*
X18985Y-28279D01*
X18828Y-28215D01*
X18751Y-28215D01*
X18751Y-26963D01*
X18791Y-26946D01*
X18956Y-26782D01*
X18964Y-26763D01*
X19050Y-26791D01*
X19390Y-26451D01*
X19050Y-26110D01*
X18964Y-26138D01*
X18956Y-26120D01*
X18792Y-25955D01*
X18781Y-25951D01*
X18791Y-25946D01*
X18956Y-25782D01*
X18960Y-25771D01*
X18965Y-25781D01*
X19129Y-25946D01*
X19148Y-25954D01*
X19120Y-26040D01*
X19461Y-26380D01*
X19801Y-26040D01*
X19773Y-25954D01*
X19791Y-25946D01*
X19956Y-25782D01*
X19973Y-25741D01*
X20145Y-25741D01*
X20215Y-25811D01*
X20372Y-25875D01*
X20541Y-25876D01*
X20557Y-25869D01*
X20530Y-25934D01*
X20530Y-26034D01*
X20530Y-26226D01*
X20593Y-26289D01*
X21045Y-26289D01*
X21045Y-26389D01*
X20593Y-26389D01*
X20530Y-26451D01*
X20530Y-26643D01*
X20530Y-26743D01*
X20568Y-26835D01*
X20638Y-26905D01*
X20730Y-26943D01*
X20982Y-26943D01*
X21045Y-26881D01*
X21045Y-27702D01*
X20730Y-27702D01*
X20638Y-27740D01*
X20568Y-27810D01*
X20530Y-27902D01*
X20530Y-28002D01*
X20530Y-28017D01*
X20354Y-28017D01*
X20243Y-28039D01*
X20148Y-28101D01*
X20050Y-28200D01*
X20050Y-26541D01*
X20039Y-26308D01*
X19970Y-26142D01*
X19871Y-26110D01*
X19531Y-26451D01*
X19871Y-26791D01*
X19970Y-26759D01*
X20050Y-26541D01*
X20050Y-28200D01*
X19975Y-28274D01*
X19946Y-28319D01*
X19906Y-28319D01*
X19814Y-28357D01*
X19801Y-28370D01*
X19801Y-26861D01*
X19461Y-26521D01*
X19120Y-26861D01*
X19152Y-26960D01*
X19370Y-27040D01*
X19603Y-27029D01*
X19769Y-26960D01*
X19801Y-26861D01*
X19801Y-28370D01*
X19744Y-28427D01*
X19706Y-28519D01*
X19706Y-28618D01*
X19706Y-28868D01*
X19744Y-28960D01*
X19777Y-28993D01*
X19744Y-29027D01*
X19706Y-29119D01*
X19706Y-29218D01*
X19706Y-29468D01*
X19744Y-29560D01*
X19814Y-29630D01*
X19901Y-29666D01*
X19901Y-31581D01*
X19747Y-31581D01*
X19655Y-31619D01*
X19605Y-31670D01*
X19605Y-30076D01*
X19582Y-29965D01*
X19520Y-29870D01*
X19088Y-29438D01*
X18993Y-29376D01*
X18883Y-29354D01*
X17881Y-29354D01*
X17872Y-29332D01*
X17717Y-29178D01*
X17515Y-29094D01*
X17297Y-29093D01*
X17094Y-29177D01*
X16940Y-29332D01*
X16856Y-29534D01*
X16855Y-29752D01*
X16939Y-29955D01*
X17094Y-30109D01*
X17296Y-30193D01*
X17514Y-30194D01*
X17717Y-30110D01*
X17871Y-29955D01*
X17881Y-29934D01*
X18762Y-29934D01*
X19025Y-30196D01*
X19025Y-31947D01*
X19031Y-31980D01*
X18937Y-32019D01*
X18817Y-32138D01*
X18753Y-32295D01*
X18752Y-32464D01*
X18796Y-32570D01*
X18735Y-32570D01*
X18345Y-32179D01*
X18345Y-31730D01*
X18322Y-31619D01*
X18260Y-31524D01*
X17947Y-31212D01*
X17955Y-31190D01*
X17956Y-30972D01*
X17872Y-30769D01*
X17717Y-30615D01*
X17515Y-30531D01*
X17297Y-30530D01*
X17094Y-30614D01*
X16940Y-30769D01*
X16856Y-30971D01*
X16855Y-31189D01*
X16939Y-31392D01*
X17094Y-31546D01*
X17296Y-31630D01*
X17514Y-31631D01*
X17536Y-31622D01*
X17765Y-31850D01*
X17765Y-32158D01*
X17717Y-32111D01*
X17515Y-32027D01*
X17297Y-32026D01*
X17094Y-32110D01*
X16940Y-32265D01*
X16856Y-32467D01*
X16855Y-32685D01*
X16939Y-32888D01*
X17094Y-33042D01*
X17296Y-33126D01*
X17514Y-33127D01*
X17536Y-33118D01*
X17793Y-33375D01*
X17888Y-33437D01*
X17888Y-33437D01*
X17999Y-33460D01*
X19202Y-33460D01*
X18997Y-33665D01*
X17881Y-33665D01*
X17872Y-33643D01*
X17717Y-33489D01*
X17515Y-33405D01*
X17297Y-33404D01*
X17094Y-33488D01*
X16940Y-33643D01*
X16856Y-33845D01*
X16855Y-34063D01*
X16939Y-34266D01*
X17094Y-34420D01*
X17296Y-34504D01*
X17514Y-34505D01*
X17717Y-34421D01*
X17871Y-34266D01*
X17881Y-34245D01*
X17931Y-34245D01*
X17872Y-34303D01*
X17808Y-34460D01*
X17807Y-34623D01*
X17766Y-34632D01*
X17707Y-34671D01*
X17596Y-34670D01*
X17440Y-34735D01*
X17320Y-34854D01*
X17256Y-35011D01*
X17255Y-35180D01*
X17320Y-35336D01*
X17439Y-35456D01*
X17502Y-35481D01*
X17399Y-35583D01*
X17335Y-35740D01*
X17334Y-35909D01*
X17399Y-36065D01*
X17518Y-36185D01*
X17675Y-36249D01*
X17844Y-36250D01*
X18000Y-36185D01*
X18071Y-36115D01*
X19062Y-36115D01*
X19132Y-36185D01*
X19289Y-36249D01*
X19388Y-36250D01*
X19443Y-36305D01*
X19538Y-36367D01*
X19649Y-36390D01*
X20320Y-36390D01*
X20352Y-36466D01*
X20384Y-36498D01*
X20384Y-36790D01*
X20406Y-36900D01*
X20468Y-36995D01*
X20552Y-37079D01*
X20221Y-37079D01*
X20129Y-37117D01*
X20082Y-37164D01*
X19293Y-37164D01*
X19221Y-37091D01*
X19026Y-37011D01*
X18816Y-37010D01*
X18621Y-37091D01*
X18471Y-37240D01*
X18391Y-37435D01*
X18390Y-37645D01*
X18471Y-37840D01*
X18620Y-37990D01*
X18815Y-38070D01*
X19025Y-38071D01*
X19220Y-37990D01*
X19370Y-37841D01*
X19410Y-37744D01*
X20082Y-37744D01*
X20092Y-37754D01*
X20059Y-37787D01*
X20021Y-37879D01*
X20021Y-37941D01*
X20083Y-38004D01*
X20446Y-38004D01*
X20446Y-37996D01*
X20546Y-37996D01*
X20546Y-38004D01*
X20908Y-38004D01*
X20971Y-37941D01*
X20971Y-37879D01*
X20932Y-37787D01*
X20899Y-37754D01*
X20932Y-37720D01*
X20971Y-37628D01*
X20971Y-37529D01*
X20971Y-37497D01*
X21727Y-38254D01*
X21822Y-38316D01*
X21933Y-38339D01*
X22251Y-38339D01*
X22321Y-38409D01*
X22387Y-38436D01*
X22355Y-38515D01*
X22354Y-38614D01*
X21528Y-39441D01*
X21402Y-39441D01*
X21310Y-39479D01*
X21240Y-39549D01*
X21202Y-39641D01*
X21202Y-39740D01*
X21202Y-39990D01*
X21240Y-40082D01*
X21273Y-40115D01*
X21240Y-40149D01*
X21202Y-40241D01*
X21202Y-40340D01*
X21202Y-40480D01*
X21077Y-40604D01*
X21015Y-40699D01*
X21000Y-40771D01*
X20971Y-40771D01*
X20971Y-39803D01*
X20971Y-39704D01*
X20971Y-39454D01*
X20932Y-39362D01*
X20899Y-39329D01*
X20932Y-39295D01*
X20971Y-39203D01*
X20971Y-39141D01*
X20971Y-38916D01*
X20971Y-38854D01*
X20971Y-38228D01*
X20971Y-38166D01*
X20908Y-38104D01*
X20546Y-38104D01*
X20546Y-38366D01*
X20608Y-38429D01*
X20671Y-38429D01*
X20770Y-38429D01*
X20862Y-38390D01*
X20932Y-38320D01*
X20971Y-38228D01*
X20971Y-38854D01*
X20932Y-38762D01*
X20862Y-38692D01*
X20770Y-38654D01*
X20671Y-38654D01*
X20608Y-38654D01*
X20546Y-38716D01*
X20546Y-38979D01*
X20908Y-38979D01*
X20971Y-38916D01*
X20971Y-39141D01*
X20908Y-39079D01*
X20546Y-39079D01*
X20546Y-39086D01*
X20446Y-39086D01*
X20446Y-39079D01*
X20446Y-38979D01*
X20446Y-38716D01*
X20446Y-38366D01*
X20446Y-38104D01*
X20083Y-38104D01*
X20021Y-38166D01*
X20021Y-38228D01*
X20059Y-38320D01*
X20129Y-38390D01*
X20221Y-38429D01*
X20320Y-38429D01*
X20383Y-38429D01*
X20446Y-38366D01*
X20446Y-38716D01*
X20383Y-38654D01*
X20320Y-38654D01*
X20221Y-38654D01*
X20129Y-38692D01*
X20059Y-38762D01*
X20021Y-38854D01*
X20021Y-38916D01*
X20083Y-38979D01*
X20446Y-38979D01*
X20446Y-39079D01*
X20083Y-39079D01*
X20021Y-39141D01*
X20021Y-39203D01*
X20059Y-39295D01*
X20092Y-39328D01*
X20082Y-39339D01*
X19410Y-39339D01*
X19370Y-39241D01*
X19221Y-39091D01*
X19026Y-39011D01*
X18816Y-39010D01*
X18621Y-39091D01*
X18471Y-39240D01*
X18391Y-39435D01*
X18390Y-39645D01*
X18471Y-39840D01*
X18620Y-39990D01*
X18815Y-40070D01*
X19025Y-40071D01*
X19220Y-39990D01*
X19292Y-39919D01*
X20082Y-39919D01*
X20129Y-39965D01*
X20221Y-40004D01*
X20320Y-40004D01*
X20770Y-40004D01*
X20862Y-39965D01*
X20932Y-39895D01*
X20971Y-39803D01*
X20971Y-40771D01*
X17779Y-40771D01*
X17747Y-40694D01*
X17677Y-40624D01*
X17585Y-40586D01*
X17486Y-40586D01*
X17236Y-40586D01*
X17159Y-40617D01*
X17159Y-37020D01*
X17207Y-37020D01*
X17385Y-36946D01*
X17522Y-36809D01*
X17596Y-36631D01*
X17597Y-36437D01*
X17523Y-36259D01*
X17386Y-36122D01*
X17208Y-36048D01*
X17014Y-36047D01*
X16836Y-36121D01*
X16699Y-36258D01*
X16625Y-36436D01*
X16625Y-36527D01*
X16564Y-36587D01*
X16489Y-36700D01*
X16462Y-36834D01*
X16462Y-40722D01*
X16436Y-40786D01*
X16436Y-40885D01*
X16436Y-41335D01*
X16462Y-41399D01*
X16462Y-41588D01*
X16489Y-41721D01*
X16564Y-41834D01*
X17061Y-42331D01*
X17174Y-42406D01*
X17174Y-42406D01*
X17308Y-42433D01*
X17327Y-42433D01*
X17327Y-42534D01*
X17365Y-42626D01*
X17435Y-42696D01*
X17527Y-42735D01*
X17528Y-42735D01*
X17528Y-42811D01*
X17555Y-42944D01*
X17630Y-43057D01*
X17680Y-43107D01*
X17644Y-43107D01*
X17553Y-43145D01*
X17519Y-43179D01*
X17486Y-43145D01*
X17394Y-43107D01*
X17332Y-43107D01*
X17269Y-43170D01*
X17269Y-43532D01*
X17277Y-43532D01*
X17277Y-43632D01*
X17269Y-43632D01*
X17269Y-43995D01*
X17332Y-44057D01*
X17394Y-44057D01*
X17486Y-44019D01*
X17519Y-43986D01*
X17525Y-43992D01*
X17525Y-44243D01*
X17496Y-44255D01*
X17426Y-44326D01*
X17387Y-44418D01*
X17387Y-44517D01*
X17387Y-44519D01*
X17373Y-44513D01*
X17273Y-44513D01*
X17169Y-44513D01*
X17169Y-43995D01*
X17169Y-43632D01*
X17169Y-43532D01*
X17169Y-43170D01*
X17107Y-43107D01*
X17044Y-43107D01*
X16953Y-43145D01*
X16882Y-43216D01*
X16844Y-43307D01*
X16844Y-43407D01*
X16844Y-43470D01*
X16907Y-43532D01*
X17169Y-43532D01*
X17169Y-43632D01*
X16907Y-43632D01*
X16844Y-43695D01*
X16844Y-43757D01*
X16844Y-43857D01*
X16882Y-43949D01*
X16953Y-44019D01*
X17044Y-44057D01*
X17107Y-44057D01*
X17169Y-43995D01*
X17169Y-44513D01*
X16170Y-44513D01*
X16078Y-44551D01*
X16073Y-44557D01*
X16073Y-8199D01*
X27234Y-8199D01*
X27234Y-42481D01*
X27183Y-42481D01*
X26583Y-42481D01*
X26491Y-42519D01*
X26421Y-42589D01*
X26420Y-42592D01*
X26420Y-38597D01*
X26420Y-38498D01*
X26420Y-38260D01*
X26420Y-38035D01*
X26420Y-37797D01*
X26420Y-37698D01*
X26420Y-37219D01*
X26420Y-37120D01*
X26420Y-36882D01*
X26420Y-36657D01*
X26420Y-36419D01*
X26420Y-36320D01*
X26381Y-36228D01*
X26311Y-36158D01*
X26219Y-36120D01*
X25982Y-36120D01*
X25920Y-36182D01*
X25920Y-36720D01*
X26357Y-36720D01*
X26420Y-36657D01*
X26420Y-36882D01*
X26357Y-36820D01*
X25920Y-36820D01*
X25920Y-37357D01*
X25982Y-37420D01*
X26219Y-37420D01*
X26311Y-37381D01*
X26381Y-37311D01*
X26420Y-37219D01*
X26420Y-37698D01*
X26381Y-37606D01*
X26311Y-37536D01*
X26219Y-37498D01*
X25982Y-37498D01*
X25920Y-37560D01*
X25920Y-38098D01*
X26357Y-38098D01*
X26420Y-38035D01*
X26420Y-38260D01*
X26357Y-38198D01*
X25920Y-38198D01*
X25920Y-38735D01*
X25982Y-38798D01*
X26219Y-38798D01*
X26311Y-38759D01*
X26381Y-38689D01*
X26420Y-38597D01*
X26420Y-42592D01*
X26383Y-42681D01*
X26383Y-42734D01*
X26318Y-42716D01*
X26289Y-42746D01*
X26289Y-40784D01*
X26289Y-40685D01*
X26289Y-40622D01*
X26289Y-40397D01*
X26289Y-40334D01*
X26289Y-40235D01*
X26289Y-39800D01*
X26289Y-39701D01*
X26289Y-39638D01*
X26289Y-39413D01*
X26289Y-39350D01*
X26289Y-39251D01*
X26250Y-39159D01*
X26180Y-39089D01*
X26088Y-39051D01*
X26026Y-39051D01*
X25964Y-39113D01*
X25964Y-39476D01*
X26226Y-39476D01*
X26289Y-39413D01*
X26289Y-39638D01*
X26226Y-39576D01*
X25964Y-39576D01*
X25964Y-39938D01*
X26026Y-40001D01*
X26088Y-40001D01*
X26180Y-39962D01*
X26250Y-39892D01*
X26289Y-39800D01*
X26289Y-40235D01*
X26250Y-40143D01*
X26180Y-40073D01*
X26088Y-40035D01*
X26026Y-40035D01*
X25964Y-40097D01*
X25964Y-40460D01*
X26226Y-40460D01*
X26289Y-40397D01*
X26289Y-40622D01*
X26226Y-40560D01*
X25964Y-40560D01*
X25964Y-40922D01*
X26026Y-40985D01*
X26088Y-40985D01*
X26180Y-40946D01*
X26250Y-40876D01*
X26289Y-40784D01*
X26289Y-42746D01*
X26248Y-42787D01*
X26248Y-42645D01*
X26220Y-42550D01*
X26014Y-42476D01*
X25796Y-42487D01*
X25645Y-42550D01*
X25617Y-42645D01*
X25933Y-42960D01*
X26248Y-42645D01*
X26248Y-42787D01*
X26003Y-43031D01*
X26318Y-43346D01*
X26383Y-43328D01*
X26383Y-43381D01*
X26421Y-43473D01*
X26491Y-43543D01*
X26583Y-43581D01*
X26682Y-43581D01*
X27234Y-43581D01*
X27234Y-46919D01*
X27234Y-46919D01*
G37*
G54D36*
X27234Y-46919D02*
X26248Y-46919D01*
X26248Y-43417D01*
X25933Y-43102D01*
X25862Y-43172D01*
X25862Y-43031D01*
X25547Y-42716D01*
X25451Y-42743D01*
X25432Y-42798D01*
X25399Y-42720D01*
X25245Y-42565D01*
X25042Y-42481D01*
X24824Y-42481D01*
X24621Y-42564D01*
X24467Y-42719D01*
X24433Y-42801D01*
X24399Y-42720D01*
X24245Y-42565D01*
X24042Y-42481D01*
X23824Y-42481D01*
X23621Y-42564D01*
X23467Y-42719D01*
X23383Y-42921D01*
X23382Y-43140D01*
X23466Y-43342D01*
X23621Y-43497D01*
X23823Y-43581D01*
X24041Y-43581D01*
X24244Y-43498D01*
X24399Y-43343D01*
X24433Y-43261D01*
X24466Y-43342D01*
X24621Y-43497D01*
X24823Y-43581D01*
X25041Y-43581D01*
X25244Y-43498D01*
X25399Y-43343D01*
X25430Y-43267D01*
X25451Y-43319D01*
X25547Y-43346D01*
X25862Y-43031D01*
X25862Y-43172D01*
X25617Y-43417D01*
X25645Y-43512D01*
X25851Y-43586D01*
X26069Y-43575D01*
X26220Y-43512D01*
X26248Y-43417D01*
X26248Y-46919D01*
X23104Y-46919D01*
X23104Y-45030D01*
X23104Y-44930D01*
X23104Y-43946D01*
X23066Y-43854D01*
X22995Y-43784D01*
X22903Y-43746D01*
X22804Y-43746D01*
X22017Y-43746D01*
X21925Y-43784D01*
X21855Y-43854D01*
X21817Y-43946D01*
X21817Y-44046D01*
X21817Y-45030D01*
X21855Y-45122D01*
X21925Y-45192D01*
X22017Y-45230D01*
X22116Y-45230D01*
X22903Y-45230D01*
X22995Y-45192D01*
X23066Y-45122D01*
X23104Y-45030D01*
X23104Y-46919D01*
X23084Y-46919D01*
X23084Y-46111D01*
X23046Y-46019D01*
X22975Y-45949D01*
X22883Y-45911D01*
X22784Y-45911D01*
X22001Y-45911D01*
X21997Y-45911D01*
X21905Y-45949D01*
X21835Y-46019D01*
X21797Y-46111D01*
X21797Y-46211D01*
X21797Y-46919D01*
X19600Y-46919D01*
X19600Y-46111D01*
X19562Y-46019D01*
X19491Y-45949D01*
X19399Y-45911D01*
X19300Y-45911D01*
X18513Y-45911D01*
X18421Y-45949D01*
X18359Y-46011D01*
X18359Y-45975D01*
X18359Y-45900D01*
X18297Y-45837D01*
X17923Y-45837D01*
X17923Y-46113D01*
X17986Y-46175D01*
X18060Y-46175D01*
X18159Y-46175D01*
X18251Y-46137D01*
X18321Y-46067D01*
X18359Y-45975D01*
X18359Y-46011D01*
X18351Y-46019D01*
X18313Y-46111D01*
X18313Y-46211D01*
X18313Y-46919D01*
X16073Y-46919D01*
X16073Y-45835D01*
X16078Y-45841D01*
X16170Y-45879D01*
X16270Y-45879D01*
X17373Y-45879D01*
X17433Y-45854D01*
X17387Y-45900D01*
X17387Y-45975D01*
X17426Y-46067D01*
X17496Y-46137D01*
X17588Y-46175D01*
X17687Y-46175D01*
X17761Y-46175D01*
X17823Y-46113D01*
X17823Y-45837D01*
X17816Y-45837D01*
X17816Y-45737D01*
X17823Y-45737D01*
X17823Y-45729D01*
X17923Y-45729D01*
X17923Y-45737D01*
X18297Y-45737D01*
X18359Y-45675D01*
X18359Y-45600D01*
X18337Y-45545D01*
X19415Y-45545D01*
X19415Y-45557D01*
X19480Y-45714D01*
X19600Y-45834D01*
X19757Y-45899D01*
X19927Y-45899D01*
X20084Y-45834D01*
X20204Y-45714D01*
X20269Y-45557D01*
X20269Y-45387D01*
X20204Y-45230D01*
X20165Y-45191D01*
X20226Y-45191D01*
X20236Y-45187D01*
X20245Y-45191D01*
X20344Y-45191D01*
X20541Y-45191D01*
X20551Y-45187D01*
X20560Y-45191D01*
X20659Y-45191D01*
X20856Y-45191D01*
X20866Y-45187D01*
X20875Y-45191D01*
X20974Y-45191D01*
X21171Y-45191D01*
X21181Y-45187D01*
X21190Y-45191D01*
X21226Y-45191D01*
X21288Y-45129D01*
X21288Y-45154D01*
X21212Y-45230D01*
X21147Y-45387D01*
X21147Y-45557D01*
X21212Y-45714D01*
X21332Y-45834D01*
X21489Y-45899D01*
X21659Y-45899D01*
X21816Y-45834D01*
X21936Y-45714D01*
X22001Y-45557D01*
X22001Y-45387D01*
X21936Y-45230D01*
X21816Y-45110D01*
X21663Y-45047D01*
X21687Y-44991D01*
X21687Y-44891D01*
X21687Y-44600D01*
X21687Y-44375D01*
X21687Y-44085D01*
X21687Y-43985D01*
X21649Y-43893D01*
X21578Y-43823D01*
X21486Y-43785D01*
X21450Y-43785D01*
X21387Y-43847D01*
X21387Y-44438D01*
X21624Y-44438D01*
X21687Y-44375D01*
X21687Y-44600D01*
X21624Y-44538D01*
X21387Y-44538D01*
X21387Y-44546D01*
X21372Y-44546D01*
X21372Y-43985D01*
X21334Y-43893D01*
X21289Y-43849D01*
X21289Y-43847D01*
X21226Y-43785D01*
X21190Y-43785D01*
X21181Y-43789D01*
X21171Y-43785D01*
X21072Y-43785D01*
X20998Y-43785D01*
X20998Y-43781D01*
X21773Y-43006D01*
X21935Y-43006D01*
X22046Y-42984D01*
X22140Y-42921D01*
X22302Y-42760D01*
X22541Y-42760D01*
X22633Y-42721D01*
X22703Y-42651D01*
X22742Y-42559D01*
X22742Y-42460D01*
X22742Y-42375D01*
X25339Y-42375D01*
X25449Y-42352D01*
X25544Y-42290D01*
X25820Y-42014D01*
X25882Y-41919D01*
X25905Y-41809D01*
X25905Y-39827D01*
X25882Y-39716D01*
X25882Y-39716D01*
X25864Y-39687D01*
X25864Y-39687D01*
X25864Y-39576D01*
X25856Y-39576D01*
X25856Y-39476D01*
X25864Y-39476D01*
X25864Y-39113D01*
X25801Y-39051D01*
X25739Y-39051D01*
X25647Y-39089D01*
X25614Y-39122D01*
X25604Y-39112D01*
X25604Y-39028D01*
X25581Y-38917D01*
X25581Y-38917D01*
X25519Y-38822D01*
X25475Y-38779D01*
X25520Y-38798D01*
X25757Y-38798D01*
X25820Y-38735D01*
X25820Y-38198D01*
X25812Y-38198D01*
X25812Y-38098D01*
X25820Y-38098D01*
X25820Y-37560D01*
X25757Y-37498D01*
X25520Y-37498D01*
X25471Y-37518D01*
X25471Y-37399D01*
X25520Y-37420D01*
X25757Y-37420D01*
X25820Y-37357D01*
X25820Y-36820D01*
X25820Y-36720D01*
X25820Y-36182D01*
X25757Y-36120D01*
X25520Y-36120D01*
X25428Y-36158D01*
X25358Y-36228D01*
X25320Y-36320D01*
X25320Y-36419D01*
X25320Y-36657D01*
X25382Y-36720D01*
X25820Y-36720D01*
X25820Y-36820D01*
X25382Y-36820D01*
X25320Y-36882D01*
X25320Y-37109D01*
X25120Y-36909D01*
X25120Y-36320D01*
X25081Y-36228D01*
X25011Y-36158D01*
X24919Y-36120D01*
X24820Y-36120D01*
X24220Y-36120D01*
X24128Y-36158D01*
X24058Y-36228D01*
X24020Y-36320D01*
X24020Y-36419D01*
X24020Y-37219D01*
X24058Y-37311D01*
X24128Y-37381D01*
X24220Y-37420D01*
X24319Y-37420D01*
X24809Y-37420D01*
X24887Y-37498D01*
X24820Y-37498D01*
X24220Y-37498D01*
X24128Y-37536D01*
X24058Y-37606D01*
X24020Y-37698D01*
X24020Y-37797D01*
X24020Y-38597D01*
X24058Y-38689D01*
X24128Y-38759D01*
X24220Y-38798D01*
X24280Y-38798D01*
X24280Y-39770D01*
X24212Y-39742D01*
X24212Y-39073D01*
X24189Y-38962D01*
X24189Y-38962D01*
X24127Y-38867D01*
X23405Y-38145D01*
X23405Y-37848D01*
X23475Y-37778D01*
X23539Y-37621D01*
X23540Y-37452D01*
X23475Y-37296D01*
X23356Y-37176D01*
X23199Y-37112D01*
X23030Y-37111D01*
X22874Y-37176D01*
X22754Y-37295D01*
X22690Y-37452D01*
X22689Y-37621D01*
X22700Y-37645D01*
X22647Y-37624D01*
X22478Y-37623D01*
X22322Y-37688D01*
X22251Y-37759D01*
X22053Y-37759D01*
X21575Y-37281D01*
X21578Y-37280D01*
X21715Y-37143D01*
X21789Y-36965D01*
X21790Y-36771D01*
X21716Y-36593D01*
X21637Y-36514D01*
X21637Y-36438D01*
X21664Y-36374D01*
X21664Y-36275D01*
X21664Y-35825D01*
X21637Y-35761D01*
X21637Y-35543D01*
X21749Y-35543D01*
X21765Y-35536D01*
X21782Y-35543D01*
X21882Y-35543D01*
X22059Y-35543D01*
X22080Y-35534D01*
X22102Y-35543D01*
X22134Y-35543D01*
X22196Y-35481D01*
X22196Y-35459D01*
X22221Y-35435D01*
X22236Y-35399D01*
X22250Y-35435D01*
X22285Y-35469D01*
X22285Y-35481D01*
X22347Y-35543D01*
X22379Y-35543D01*
X22396Y-35536D01*
X22412Y-35543D01*
X22512Y-35543D01*
X22581Y-35543D01*
X22581Y-35601D01*
X22603Y-35711D01*
X22665Y-35806D01*
X22869Y-36010D01*
X22964Y-36072D01*
X23075Y-36095D01*
X23666Y-36095D01*
X23776Y-36072D01*
X23871Y-36010D01*
X25820Y-34061D01*
X25882Y-33966D01*
X25882Y-33966D01*
X25905Y-33856D01*
X25905Y-15919D01*
X25882Y-15808D01*
X25882Y-15808D01*
X25820Y-15713D01*
X24597Y-14490D01*
X24597Y-14251D01*
X24558Y-14159D01*
X24488Y-14089D01*
X24396Y-14051D01*
X24297Y-14051D01*
X24047Y-14051D01*
X23990Y-14074D01*
X23990Y-10620D01*
X23862Y-10311D01*
X23626Y-10074D01*
X23317Y-9946D01*
X22983Y-9946D01*
X22674Y-10074D01*
X22437Y-10310D01*
X22309Y-10619D01*
X22309Y-10953D01*
X22437Y-11262D01*
X22673Y-11499D01*
X22860Y-11576D01*
X22860Y-11651D01*
X22645Y-11866D01*
X21363Y-11866D01*
X21303Y-11854D01*
X21192Y-11876D01*
X21097Y-11938D01*
X21085Y-11950D01*
X20998Y-12038D01*
X20998Y-11427D01*
X20998Y-11327D01*
X20998Y-10146D01*
X20960Y-10054D01*
X20890Y-9984D01*
X20798Y-9946D01*
X20698Y-9946D01*
X19517Y-9946D01*
X19425Y-9984D01*
X19355Y-10054D01*
X19317Y-10146D01*
X19317Y-10246D01*
X19317Y-11427D01*
X19355Y-11519D01*
X19425Y-11589D01*
X19517Y-11627D01*
X19617Y-11627D01*
X20798Y-11627D01*
X20890Y-11589D01*
X20960Y-11519D01*
X20998Y-11427D01*
X20998Y-12038D01*
X19306Y-13729D01*
X19244Y-13824D01*
X19222Y-13935D01*
X19222Y-17283D01*
X19190Y-17297D01*
X19120Y-17367D01*
X19082Y-17459D01*
X19082Y-17558D01*
X19082Y-17918D01*
X19120Y-18010D01*
X19168Y-18059D01*
X18932Y-18059D01*
X18840Y-18097D01*
X18770Y-18167D01*
X18732Y-18259D01*
X18732Y-18358D01*
X18732Y-18718D01*
X18770Y-18810D01*
X18840Y-18880D01*
X18868Y-18892D01*
X18868Y-20353D01*
X18791Y-20385D01*
X18721Y-20455D01*
X18683Y-20547D01*
X18683Y-20646D01*
X18683Y-20896D01*
X18721Y-20988D01*
X18754Y-21021D01*
X18721Y-21055D01*
X18683Y-21147D01*
X18683Y-21246D01*
X18683Y-21496D01*
X18721Y-21588D01*
X18791Y-21658D01*
X18868Y-21690D01*
X18868Y-21950D01*
X18797Y-22020D01*
X18733Y-22177D01*
X18732Y-22346D01*
X18797Y-22502D01*
X18916Y-22622D01*
X19073Y-22686D01*
X19242Y-22687D01*
X19398Y-22622D01*
X19518Y-22503D01*
X19582Y-22346D01*
X19583Y-22177D01*
X19518Y-22021D01*
X19448Y-21950D01*
X19448Y-21690D01*
X19524Y-21658D01*
X19594Y-21588D01*
X19633Y-21496D01*
X19633Y-21397D01*
X19633Y-21147D01*
X19594Y-21055D01*
X19561Y-21022D01*
X19594Y-20988D01*
X19633Y-20896D01*
X19633Y-20797D01*
X19633Y-20547D01*
X19594Y-20455D01*
X19524Y-20385D01*
X19448Y-20353D01*
X19448Y-18895D01*
X19483Y-18880D01*
X19512Y-18852D01*
X19540Y-18880D01*
X19632Y-18919D01*
X19749Y-18919D01*
X19812Y-18856D01*
X19812Y-18539D01*
X19804Y-18539D01*
X19804Y-18439D01*
X19812Y-18439D01*
X19812Y-18121D01*
X19789Y-18099D01*
X19833Y-18080D01*
X19903Y-18010D01*
X19942Y-17918D01*
X19942Y-17819D01*
X19942Y-17459D01*
X19903Y-17367D01*
X19833Y-17297D01*
X19802Y-17283D01*
X19802Y-14055D01*
X21411Y-12446D01*
X22766Y-12446D01*
X22876Y-12423D01*
X22971Y-12361D01*
X23355Y-11977D01*
X23417Y-11882D01*
X23440Y-11772D01*
X23440Y-11576D01*
X23625Y-11499D01*
X23862Y-11263D01*
X23990Y-10954D01*
X23990Y-10620D01*
X23990Y-14074D01*
X23955Y-14089D01*
X23922Y-14122D01*
X23888Y-14089D01*
X23796Y-14051D01*
X23697Y-14051D01*
X23447Y-14051D01*
X23355Y-14089D01*
X23285Y-14159D01*
X23253Y-14235D01*
X22777Y-14236D01*
X22777Y-14123D01*
X22739Y-14031D01*
X22669Y-13961D01*
X22577Y-13923D01*
X22477Y-13923D01*
X21848Y-13923D01*
X21756Y-13961D01*
X21686Y-14031D01*
X21654Y-14110D01*
X21621Y-14031D01*
X21551Y-13961D01*
X21459Y-13923D01*
X21207Y-13923D01*
X21145Y-13986D01*
X21145Y-14478D01*
X21152Y-14478D01*
X21152Y-14578D01*
X21145Y-14578D01*
X21145Y-15070D01*
X21207Y-15132D01*
X21459Y-15132D01*
X21551Y-15094D01*
X21621Y-15024D01*
X21654Y-14945D01*
X21686Y-15024D01*
X21756Y-15094D01*
X21848Y-15132D01*
X21948Y-15132D01*
X22577Y-15132D01*
X22669Y-15094D01*
X22739Y-15024D01*
X22777Y-14932D01*
X22777Y-14832D01*
X22777Y-14816D01*
X23253Y-14815D01*
X23285Y-14892D01*
X23355Y-14962D01*
X23447Y-15001D01*
X23546Y-15001D01*
X23796Y-15001D01*
X23888Y-14962D01*
X23921Y-14929D01*
X23955Y-14962D01*
X24047Y-15001D01*
X24146Y-15001D01*
X24286Y-15001D01*
X25325Y-16039D01*
X25325Y-17188D01*
X24595Y-16458D01*
X24595Y-16219D01*
X24556Y-16127D01*
X24486Y-16057D01*
X24394Y-16019D01*
X24295Y-16019D01*
X24045Y-16019D01*
X23953Y-16057D01*
X23920Y-16090D01*
X23886Y-16057D01*
X23794Y-16019D01*
X23695Y-16019D01*
X23445Y-16019D01*
X23353Y-16057D01*
X23283Y-16127D01*
X23251Y-16204D01*
X22777Y-16205D01*
X22777Y-16091D01*
X22739Y-15999D01*
X22669Y-15929D01*
X22577Y-15891D01*
X22477Y-15891D01*
X21848Y-15891D01*
X21756Y-15929D01*
X21686Y-15999D01*
X21654Y-16078D01*
X21621Y-15999D01*
X21551Y-15929D01*
X21459Y-15891D01*
X21207Y-15891D01*
X21145Y-15954D01*
X21145Y-16446D01*
X21152Y-16446D01*
X21152Y-16546D01*
X21145Y-16546D01*
X21145Y-17038D01*
X21207Y-17100D01*
X21459Y-17100D01*
X21551Y-17062D01*
X21621Y-16992D01*
X21654Y-16913D01*
X21686Y-16992D01*
X21756Y-17062D01*
X21848Y-17100D01*
X21948Y-17100D01*
X22577Y-17100D01*
X22669Y-17062D01*
X22739Y-16992D01*
X22777Y-16900D01*
X22777Y-16800D01*
X22777Y-16785D01*
X23251Y-16784D01*
X23283Y-16860D01*
X23353Y-16930D01*
X23445Y-16969D01*
X23544Y-16969D01*
X23794Y-16969D01*
X23886Y-16930D01*
X23919Y-16897D01*
X23953Y-16930D01*
X24045Y-16969D01*
X24144Y-16969D01*
X24284Y-16969D01*
X25128Y-17812D01*
X25128Y-18959D01*
X24595Y-18426D01*
X24595Y-18187D01*
X24556Y-18095D01*
X24486Y-18025D01*
X24394Y-17987D01*
X24295Y-17987D01*
X24045Y-17987D01*
X23953Y-18025D01*
X23920Y-18058D01*
X23886Y-18025D01*
X23794Y-17987D01*
X23695Y-17987D01*
X23445Y-17987D01*
X23353Y-18025D01*
X23283Y-18095D01*
X23251Y-18172D01*
X22777Y-18173D01*
X22777Y-18060D01*
X22739Y-17968D01*
X22669Y-17898D01*
X22577Y-17860D01*
X22477Y-17860D01*
X21848Y-17860D01*
X21756Y-17898D01*
X21686Y-17968D01*
X21654Y-18047D01*
X21621Y-17968D01*
X21551Y-17898D01*
X21459Y-17860D01*
X21207Y-17860D01*
X21145Y-17923D01*
X21145Y-18415D01*
X21152Y-18415D01*
X21152Y-18515D01*
X21145Y-18515D01*
X21145Y-19007D01*
X21207Y-19069D01*
X21459Y-19069D01*
X21551Y-19031D01*
X21621Y-18961D01*
X21654Y-18882D01*
X21686Y-18961D01*
X21756Y-19031D01*
X21848Y-19069D01*
X21948Y-19069D01*
X22577Y-19069D01*
X22669Y-19031D01*
X22739Y-18961D01*
X22777Y-18869D01*
X22777Y-18769D01*
X22777Y-18753D01*
X23251Y-18752D01*
X23283Y-18828D01*
X23353Y-18898D01*
X23445Y-18937D01*
X23544Y-18937D01*
X23794Y-18937D01*
X23886Y-18898D01*
X23919Y-18865D01*
X23953Y-18898D01*
X24045Y-18937D01*
X24144Y-18937D01*
X24284Y-18937D01*
X24931Y-19583D01*
X24931Y-20731D01*
X24595Y-20395D01*
X24595Y-20156D01*
X24556Y-20064D01*
X24486Y-19994D01*
X24394Y-19956D01*
X24295Y-19956D01*
X24045Y-19956D01*
X23953Y-19994D01*
X23920Y-20027D01*
X23886Y-19994D01*
X23794Y-19956D01*
X23695Y-19956D01*
X23445Y-19956D01*
X23353Y-19994D01*
X23283Y-20064D01*
X23251Y-20141D01*
X22777Y-20142D01*
X22777Y-20028D01*
X22739Y-19936D01*
X22669Y-19866D01*
X22577Y-19828D01*
X22477Y-19828D01*
X21848Y-19828D01*
X21756Y-19866D01*
X21686Y-19936D01*
X21654Y-20015D01*
X21621Y-19936D01*
X21551Y-19866D01*
X21459Y-19828D01*
X21207Y-19828D01*
X21145Y-19891D01*
X21145Y-20383D01*
X21152Y-20383D01*
X21152Y-20483D01*
X21145Y-20483D01*
X21145Y-20975D01*
X21207Y-21037D01*
X21459Y-21037D01*
X21551Y-20999D01*
X21621Y-20929D01*
X21654Y-20850D01*
X21686Y-20929D01*
X21756Y-20999D01*
X21848Y-21037D01*
X21948Y-21037D01*
X22577Y-21037D01*
X22669Y-20999D01*
X22739Y-20929D01*
X22777Y-20837D01*
X22777Y-20737D01*
X22777Y-20722D01*
X23251Y-20721D01*
X23283Y-20797D01*
X23353Y-20867D01*
X23445Y-20906D01*
X23544Y-20906D01*
X23794Y-20906D01*
X23886Y-20867D01*
X23919Y-20834D01*
X23953Y-20867D01*
X24045Y-20906D01*
X24144Y-20906D01*
X24284Y-20906D01*
X24734Y-21355D01*
X24734Y-22502D01*
X24595Y-22363D01*
X24595Y-22124D01*
X24556Y-22032D01*
X24486Y-21962D01*
X24394Y-21924D01*
X24295Y-21924D01*
X24045Y-21924D01*
X23953Y-21962D01*
X23920Y-21995D01*
X23886Y-21962D01*
X23794Y-21924D01*
X23695Y-21924D01*
X23445Y-21924D01*
X23353Y-21962D01*
X23283Y-22032D01*
X23251Y-22109D01*
X22777Y-22110D01*
X22777Y-21997D01*
X22739Y-21905D01*
X22669Y-21835D01*
X22577Y-21797D01*
X22477Y-21797D01*
X21848Y-21797D01*
X21756Y-21835D01*
X21686Y-21905D01*
X21654Y-21984D01*
X21621Y-21905D01*
X21551Y-21835D01*
X21459Y-21797D01*
X21207Y-21797D01*
X21145Y-21860D01*
X21145Y-22352D01*
X21152Y-22352D01*
X21152Y-22452D01*
X21145Y-22452D01*
X21145Y-22944D01*
X21207Y-23006D01*
X21459Y-23006D01*
X21551Y-22968D01*
X21621Y-22898D01*
X21654Y-22819D01*
X21686Y-22898D01*
X21756Y-22968D01*
X21848Y-23006D01*
X21948Y-23006D01*
X22577Y-23006D01*
X22669Y-22968D01*
X22739Y-22898D01*
X22777Y-22806D01*
X22777Y-22706D01*
X22777Y-22690D01*
X23251Y-22689D01*
X23283Y-22765D01*
X23353Y-22835D01*
X23445Y-22874D01*
X23544Y-22874D01*
X23794Y-22874D01*
X23886Y-22835D01*
X23919Y-22802D01*
X23953Y-22835D01*
X24045Y-22874D01*
X24144Y-22874D01*
X24284Y-22874D01*
X24537Y-23126D01*
X24537Y-23981D01*
X24486Y-23931D01*
X24394Y-23893D01*
X24295Y-23893D01*
X24045Y-23893D01*
X23953Y-23931D01*
X23920Y-23964D01*
X23886Y-23931D01*
X23794Y-23893D01*
X23695Y-23893D01*
X23445Y-23893D01*
X23353Y-23931D01*
X23283Y-24001D01*
X23251Y-24078D01*
X22777Y-24079D01*
X22777Y-23965D01*
X22739Y-23873D01*
X22669Y-23803D01*
X22577Y-23765D01*
X22477Y-23765D01*
X21848Y-23765D01*
X21756Y-23803D01*
X21686Y-23873D01*
X21654Y-23952D01*
X21621Y-23873D01*
X21551Y-23803D01*
X21459Y-23765D01*
X21207Y-23765D01*
X21145Y-23828D01*
X21145Y-24320D01*
X21152Y-24320D01*
X21152Y-24420D01*
X21145Y-24420D01*
X21145Y-24912D01*
X21207Y-24974D01*
X21459Y-24974D01*
X21551Y-24936D01*
X21621Y-24866D01*
X21654Y-24787D01*
X21686Y-24866D01*
X21756Y-24936D01*
X21848Y-24974D01*
X21948Y-24974D01*
X22577Y-24974D01*
X22669Y-24936D01*
X22739Y-24866D01*
X22777Y-24774D01*
X22777Y-24674D01*
X22777Y-24659D01*
X23251Y-24658D01*
X23283Y-24734D01*
X23353Y-24804D01*
X23445Y-24843D01*
X23544Y-24843D01*
X23794Y-24843D01*
X23886Y-24804D01*
X23919Y-24771D01*
X23953Y-24804D01*
X24045Y-24843D01*
X24144Y-24843D01*
X24284Y-24843D01*
X24340Y-24898D01*
X24340Y-25861D01*
X24295Y-25861D01*
X24045Y-25861D01*
X23953Y-25899D01*
X23920Y-25932D01*
X23886Y-25899D01*
X23794Y-25861D01*
X23695Y-25861D01*
X23445Y-25861D01*
X23353Y-25899D01*
X23283Y-25969D01*
X23251Y-26046D01*
X22777Y-26047D01*
X22777Y-25934D01*
X22739Y-25842D01*
X22669Y-25772D01*
X22577Y-25734D01*
X22477Y-25734D01*
X21848Y-25734D01*
X21756Y-25772D01*
X21686Y-25842D01*
X21654Y-25921D01*
X21621Y-25842D01*
X21551Y-25772D01*
X21459Y-25734D01*
X21207Y-25734D01*
X21145Y-25797D01*
X21145Y-26289D01*
X21152Y-26289D01*
X21152Y-26389D01*
X21145Y-26389D01*
X21145Y-26881D01*
X21207Y-26943D01*
X21459Y-26943D01*
X21551Y-26905D01*
X21621Y-26835D01*
X21654Y-26756D01*
X21686Y-26835D01*
X21756Y-26905D01*
X21848Y-26943D01*
X21948Y-26943D01*
X22577Y-26943D01*
X22669Y-26905D01*
X22739Y-26835D01*
X22777Y-26743D01*
X22777Y-26643D01*
X22777Y-26627D01*
X23251Y-26626D01*
X23283Y-26702D01*
X23353Y-26772D01*
X23445Y-26811D01*
X23544Y-26811D01*
X23794Y-26811D01*
X23886Y-26772D01*
X23919Y-26739D01*
X23930Y-26749D01*
X23930Y-29008D01*
X23002Y-29936D01*
X23002Y-29897D01*
X23002Y-29834D01*
X23002Y-29609D01*
X23002Y-29546D01*
X23002Y-29447D01*
X22963Y-29355D01*
X22893Y-29285D01*
X22801Y-29247D01*
X22777Y-29247D01*
X22777Y-28711D01*
X22777Y-28611D01*
X22777Y-28419D01*
X22777Y-28194D01*
X22777Y-28002D01*
X22777Y-27902D01*
X22739Y-27810D01*
X22669Y-27740D01*
X22577Y-27702D01*
X22325Y-27702D01*
X22263Y-27765D01*
X22263Y-28257D01*
X22715Y-28257D01*
X22777Y-28194D01*
X22777Y-28419D01*
X22715Y-28357D01*
X22263Y-28357D01*
X22263Y-28849D01*
X22325Y-28911D01*
X22577Y-28911D01*
X22669Y-28873D01*
X22739Y-28803D01*
X22777Y-28711D01*
X22777Y-29247D01*
X22739Y-29247D01*
X22677Y-29309D01*
X22677Y-29672D01*
X22939Y-29672D01*
X23002Y-29609D01*
X23002Y-29834D01*
X22939Y-29772D01*
X22677Y-29772D01*
X22677Y-30134D01*
X22739Y-30197D01*
X22741Y-30197D01*
X22662Y-30275D01*
X22600Y-30370D01*
X22578Y-30481D01*
X22578Y-30588D01*
X22567Y-30598D01*
X22552Y-30634D01*
X22538Y-30598D01*
X22528Y-30588D01*
X22528Y-30420D01*
X22505Y-30309D01*
X22505Y-30309D01*
X22443Y-30214D01*
X22405Y-30177D01*
X22452Y-30197D01*
X22514Y-30197D01*
X22577Y-30134D01*
X22577Y-29772D01*
X22569Y-29772D01*
X22569Y-29672D01*
X22577Y-29672D01*
X22577Y-29309D01*
X22514Y-29247D01*
X22452Y-29247D01*
X22360Y-29285D01*
X22327Y-29318D01*
X22293Y-29285D01*
X22201Y-29247D01*
X22102Y-29247D01*
X21852Y-29247D01*
X21760Y-29285D01*
X21690Y-29355D01*
X21652Y-29447D01*
X21652Y-29546D01*
X21652Y-29996D01*
X21690Y-30088D01*
X21737Y-30135D01*
X21737Y-30209D01*
X21759Y-30319D01*
X21821Y-30414D01*
X21898Y-30490D01*
X21872Y-30490D01*
X21872Y-30547D01*
X21816Y-30490D01*
X21784Y-30490D01*
X21765Y-30498D01*
X21746Y-30490D01*
X21646Y-30490D01*
X21469Y-30490D01*
X21450Y-30498D01*
X21431Y-30490D01*
X21331Y-30490D01*
X21154Y-30490D01*
X21135Y-30498D01*
X21116Y-30490D01*
X21016Y-30490D01*
X20839Y-30490D01*
X20747Y-30528D01*
X20677Y-30598D01*
X20639Y-30690D01*
X20639Y-30790D01*
X20639Y-31577D01*
X20642Y-31585D01*
X20634Y-31581D01*
X20534Y-31581D01*
X20481Y-31581D01*
X20481Y-29658D01*
X20547Y-29630D01*
X20617Y-29560D01*
X20656Y-29468D01*
X20656Y-29369D01*
X20656Y-29119D01*
X20617Y-29027D01*
X20584Y-28994D01*
X20617Y-28960D01*
X20651Y-28878D01*
X20730Y-28911D01*
X20830Y-28911D01*
X21459Y-28911D01*
X21551Y-28873D01*
X21621Y-28803D01*
X21654Y-28724D01*
X21686Y-28803D01*
X21756Y-28873D01*
X21848Y-28911D01*
X22100Y-28911D01*
X22163Y-28849D01*
X22163Y-28357D01*
X22155Y-28357D01*
X22155Y-28257D01*
X22163Y-28257D01*
X22163Y-27765D01*
X22100Y-27702D01*
X21848Y-27702D01*
X21756Y-27740D01*
X21686Y-27810D01*
X21653Y-27889D01*
X21621Y-27810D01*
X21551Y-27740D01*
X21459Y-27702D01*
X21359Y-27702D01*
X21045Y-27702D01*
X21045Y-26881D01*
X21045Y-26389D01*
X21045Y-26289D01*
X21045Y-25797D01*
X21045Y-24912D01*
X21045Y-24420D01*
X21045Y-24320D01*
X21045Y-23828D01*
X21045Y-22944D01*
X21045Y-22452D01*
X21045Y-22352D01*
X21045Y-21860D01*
X21045Y-20975D01*
X21045Y-20483D01*
X21045Y-20383D01*
X21045Y-19891D01*
X21045Y-19007D01*
X21045Y-18515D01*
X21045Y-18415D01*
X21045Y-17923D01*
X21045Y-17038D01*
X21045Y-16546D01*
X21045Y-16446D01*
X21045Y-15954D01*
X21045Y-15070D01*
X21045Y-14578D01*
X21045Y-14478D01*
X21045Y-13986D01*
X20982Y-13923D01*
X20730Y-13923D01*
X20638Y-13961D01*
X20568Y-14031D01*
X20530Y-14123D01*
X20530Y-14223D01*
X20530Y-14415D01*
X20593Y-14478D01*
X21045Y-14478D01*
X21045Y-14578D01*
X20593Y-14578D01*
X20530Y-14640D01*
X20530Y-14832D01*
X20530Y-14932D01*
X20568Y-15024D01*
X20638Y-15094D01*
X20730Y-15132D01*
X20982Y-15132D01*
X21045Y-15070D01*
X21045Y-15954D01*
X20982Y-15891D01*
X20730Y-15891D01*
X20638Y-15929D01*
X20568Y-15999D01*
X20530Y-16091D01*
X20530Y-16191D01*
X20530Y-16383D01*
X20593Y-16446D01*
X21045Y-16446D01*
X21045Y-16546D01*
X20593Y-16546D01*
X20530Y-16608D01*
X20530Y-16800D01*
X20530Y-16900D01*
X20568Y-16992D01*
X20638Y-17062D01*
X20730Y-17100D01*
X20982Y-17100D01*
X21045Y-17038D01*
X21045Y-17923D01*
X20982Y-17860D01*
X20730Y-17860D01*
X20638Y-17898D01*
X20568Y-17968D01*
X20530Y-18060D01*
X20530Y-18160D01*
X20530Y-18352D01*
X20593Y-18415D01*
X21045Y-18415D01*
X21045Y-18515D01*
X20593Y-18515D01*
X20530Y-18577D01*
X20530Y-18769D01*
X20530Y-18869D01*
X20568Y-18961D01*
X20638Y-19031D01*
X20730Y-19069D01*
X20982Y-19069D01*
X21045Y-19007D01*
X21045Y-19891D01*
X20982Y-19828D01*
X20730Y-19828D01*
X20638Y-19866D01*
X20568Y-19936D01*
X20530Y-20028D01*
X20530Y-20128D01*
X20530Y-20320D01*
X20593Y-20383D01*
X21045Y-20383D01*
X21045Y-20483D01*
X20593Y-20483D01*
X20530Y-20545D01*
X20530Y-20737D01*
X20530Y-20837D01*
X20568Y-20929D01*
X20638Y-20999D01*
X20730Y-21037D01*
X20982Y-21037D01*
X21045Y-20975D01*
X21045Y-21860D01*
X20982Y-21797D01*
X20730Y-21797D01*
X20638Y-21835D01*
X20568Y-21905D01*
X20530Y-21997D01*
X20530Y-22097D01*
X20530Y-22289D01*
X20593Y-22352D01*
X21045Y-22352D01*
X21045Y-22452D01*
X20593Y-22452D01*
X20530Y-22514D01*
X20530Y-22706D01*
X20530Y-22806D01*
X20568Y-22898D01*
X20638Y-22968D01*
X20730Y-23006D01*
X20982Y-23006D01*
X21045Y-22944D01*
X21045Y-23828D01*
X20982Y-23765D01*
X20730Y-23765D01*
X20638Y-23803D01*
X20568Y-23873D01*
X20530Y-23965D01*
X20530Y-24065D01*
X20530Y-24257D01*
X20593Y-24320D01*
X21045Y-24320D01*
X21045Y-24420D01*
X20593Y-24420D01*
X20530Y-24482D01*
X20530Y-24674D01*
X20530Y-24774D01*
X20568Y-24866D01*
X20638Y-24936D01*
X20730Y-24974D01*
X20982Y-24974D01*
X21045Y-24912D01*
X21045Y-25797D01*
X20982Y-25734D01*
X20774Y-25734D01*
X20817Y-25692D01*
X20881Y-25535D01*
X20882Y-25366D01*
X20817Y-25210D01*
X20698Y-25090D01*
X20541Y-25026D01*
X20372Y-25025D01*
X20292Y-25059D01*
X20292Y-18718D01*
X20292Y-18619D01*
X20292Y-18601D01*
X20292Y-18376D01*
X20292Y-18358D01*
X20292Y-18259D01*
X20253Y-18167D01*
X20183Y-18097D01*
X20091Y-18059D01*
X19974Y-18059D01*
X19912Y-18121D01*
X19912Y-18439D01*
X20229Y-18439D01*
X20292Y-18376D01*
X20292Y-18601D01*
X20229Y-18539D01*
X19912Y-18539D01*
X19912Y-18856D01*
X19974Y-18919D01*
X20091Y-18919D01*
X20183Y-18880D01*
X20253Y-18810D01*
X20292Y-18718D01*
X20292Y-25059D01*
X20216Y-25090D01*
X20145Y-25161D01*
X19973Y-25161D01*
X19956Y-25120D01*
X19792Y-24955D01*
X19781Y-24951D01*
X19791Y-24946D01*
X19956Y-24782D01*
X20045Y-24567D01*
X20045Y-24335D01*
X19956Y-24120D01*
X19792Y-23955D01*
X19751Y-23938D01*
X19751Y-23668D01*
X19728Y-23557D01*
X19666Y-23462D01*
X19126Y-22922D01*
X19031Y-22860D01*
X18921Y-22838D01*
X17252Y-22838D01*
X17130Y-22716D01*
X16952Y-22642D01*
X16758Y-22641D01*
X16580Y-22715D01*
X16443Y-22852D01*
X16369Y-23030D01*
X16368Y-23224D01*
X16442Y-23402D01*
X16579Y-23539D01*
X16757Y-23613D01*
X16951Y-23614D01*
X17129Y-23540D01*
X17252Y-23418D01*
X18800Y-23418D01*
X19171Y-23788D01*
X19171Y-23938D01*
X19130Y-23955D01*
X19037Y-24047D01*
X19007Y-23974D01*
X18937Y-23904D01*
X18845Y-23866D01*
X18745Y-23866D01*
X18076Y-23866D01*
X17984Y-23904D01*
X17914Y-23974D01*
X17876Y-24066D01*
X17876Y-24161D01*
X17721Y-24161D01*
X17686Y-24125D01*
X17529Y-24061D01*
X17360Y-24060D01*
X17204Y-24125D01*
X17084Y-24244D01*
X17020Y-24401D01*
X17019Y-24570D01*
X17084Y-24726D01*
X17203Y-24846D01*
X17360Y-24910D01*
X17529Y-24911D01*
X17685Y-24846D01*
X17791Y-24741D01*
X17876Y-24741D01*
X17876Y-24835D01*
X17914Y-24927D01*
X17984Y-24997D01*
X18057Y-25027D01*
X17965Y-25119D01*
X17948Y-25161D01*
X17800Y-25161D01*
X17689Y-25183D01*
X17594Y-25245D01*
X17220Y-25619D01*
X17158Y-25714D01*
X17136Y-25825D01*
X17136Y-26024D01*
X17084Y-26075D01*
X17020Y-26232D01*
X17019Y-26401D01*
X17084Y-26557D01*
X17203Y-26677D01*
X17360Y-26741D01*
X17529Y-26742D01*
X17685Y-26677D01*
X17805Y-26558D01*
X17869Y-26401D01*
X17870Y-26232D01*
X17805Y-26076D01*
X17716Y-25986D01*
X17716Y-25945D01*
X17920Y-25741D01*
X17948Y-25741D01*
X17965Y-25781D01*
X18129Y-25946D01*
X18140Y-25950D01*
X18130Y-25955D01*
X17965Y-26119D01*
X17876Y-26334D01*
X17876Y-26566D01*
X17965Y-26781D01*
X18129Y-26946D01*
X18171Y-26963D01*
X18171Y-28357D01*
X18193Y-28467D01*
X18255Y-28562D01*
X18319Y-28625D01*
X18318Y-28724D01*
X18383Y-28880D01*
X18502Y-29000D01*
X18659Y-29064D01*
X18828Y-29065D01*
X18984Y-29000D01*
X19104Y-28881D01*
X19168Y-28724D01*
X19169Y-28555D01*
X19104Y-28399D01*
X18985Y-28279D01*
X18828Y-28215D01*
X18751Y-28215D01*
X18751Y-26963D01*
X18791Y-26946D01*
X18956Y-26782D01*
X18964Y-26763D01*
X19050Y-26791D01*
X19390Y-26451D01*
X19050Y-26110D01*
X18964Y-26138D01*
X18956Y-26120D01*
X18792Y-25955D01*
X18781Y-25951D01*
X18791Y-25946D01*
X18956Y-25782D01*
X18960Y-25771D01*
X18965Y-25781D01*
X19129Y-25946D01*
X19148Y-25954D01*
X19120Y-26040D01*
X19461Y-26380D01*
X19801Y-26040D01*
X19773Y-25954D01*
X19791Y-25946D01*
X19956Y-25782D01*
X19973Y-25741D01*
X20145Y-25741D01*
X20215Y-25811D01*
X20372Y-25875D01*
X20541Y-25876D01*
X20557Y-25869D01*
X20530Y-25934D01*
X20530Y-26034D01*
X20530Y-26226D01*
X20593Y-26289D01*
X21045Y-26289D01*
X21045Y-26389D01*
X20593Y-26389D01*
X20530Y-26451D01*
X20530Y-26643D01*
X20530Y-26743D01*
X20568Y-26835D01*
X20638Y-26905D01*
X20730Y-26943D01*
X20982Y-26943D01*
X21045Y-26881D01*
X21045Y-27702D01*
X20730Y-27702D01*
X20638Y-27740D01*
X20568Y-27810D01*
X20530Y-27902D01*
X20530Y-28002D01*
X20530Y-28017D01*
X20354Y-28017D01*
X20243Y-28039D01*
X20148Y-28101D01*
X20050Y-28200D01*
X20050Y-26541D01*
X20039Y-26308D01*
X19970Y-26142D01*
X19871Y-26110D01*
X19531Y-26451D01*
X19871Y-26791D01*
X19970Y-26759D01*
X20050Y-26541D01*
X20050Y-28200D01*
X19975Y-28274D01*
X19946Y-28319D01*
X19906Y-28319D01*
X19814Y-28357D01*
X19801Y-28370D01*
X19801Y-26861D01*
X19461Y-26521D01*
X19120Y-26861D01*
X19152Y-26960D01*
X19370Y-27040D01*
X19603Y-27029D01*
X19769Y-26960D01*
X19801Y-26861D01*
X19801Y-28370D01*
X19744Y-28427D01*
X19706Y-28519D01*
X19706Y-28618D01*
X19706Y-28868D01*
X19744Y-28960D01*
X19777Y-28993D01*
X19744Y-29027D01*
X19706Y-29119D01*
X19706Y-29218D01*
X19706Y-29468D01*
X19744Y-29560D01*
X19814Y-29630D01*
X19901Y-29666D01*
X19901Y-31581D01*
X19747Y-31581D01*
X19655Y-31619D01*
X19605Y-31670D01*
X19605Y-30076D01*
X19582Y-29965D01*
X19520Y-29870D01*
X19088Y-29438D01*
X18993Y-29376D01*
X18883Y-29354D01*
X17881Y-29354D01*
X17872Y-29332D01*
X17717Y-29178D01*
X17515Y-29094D01*
X17297Y-29093D01*
X17094Y-29177D01*
X16940Y-29332D01*
X16856Y-29534D01*
X16855Y-29752D01*
X16939Y-29955D01*
X17094Y-30109D01*
X17296Y-30193D01*
X17514Y-30194D01*
X17717Y-30110D01*
X17871Y-29955D01*
X17881Y-29934D01*
X18762Y-29934D01*
X19025Y-30196D01*
X19025Y-31947D01*
X19031Y-31980D01*
X18937Y-32019D01*
X18817Y-32138D01*
X18753Y-32295D01*
X18752Y-32464D01*
X18796Y-32570D01*
X18735Y-32570D01*
X18345Y-32179D01*
X18345Y-31730D01*
X18322Y-31619D01*
X18260Y-31524D01*
X17947Y-31212D01*
X17955Y-31190D01*
X17956Y-30972D01*
X17872Y-30769D01*
X17717Y-30615D01*
X17515Y-30531D01*
X17297Y-30530D01*
X17094Y-30614D01*
X16940Y-30769D01*
X16856Y-30971D01*
X16855Y-31189D01*
X16939Y-31392D01*
X17094Y-31546D01*
X17296Y-31630D01*
X17514Y-31631D01*
X17536Y-31622D01*
X17765Y-31850D01*
X17765Y-32158D01*
X17717Y-32111D01*
X17515Y-32027D01*
X17297Y-32026D01*
X17094Y-32110D01*
X16940Y-32265D01*
X16856Y-32467D01*
X16855Y-32685D01*
X16939Y-32888D01*
X17094Y-33042D01*
X17296Y-33126D01*
X17514Y-33127D01*
X17536Y-33118D01*
X17793Y-33375D01*
X17888Y-33437D01*
X17888Y-33437D01*
X17999Y-33460D01*
X19202Y-33460D01*
X18997Y-33665D01*
X17881Y-33665D01*
X17872Y-33643D01*
X17717Y-33489D01*
X17515Y-33405D01*
X17297Y-33404D01*
X17094Y-33488D01*
X16940Y-33643D01*
X16856Y-33845D01*
X16855Y-34063D01*
X16939Y-34266D01*
X17094Y-34420D01*
X17296Y-34504D01*
X17514Y-34505D01*
X17717Y-34421D01*
X17871Y-34266D01*
X17881Y-34245D01*
X17931Y-34245D01*
X17872Y-34303D01*
X17808Y-34460D01*
X17807Y-34623D01*
X17766Y-34632D01*
X17707Y-34671D01*
X17596Y-34670D01*
X17440Y-34735D01*
X17320Y-34854D01*
X17256Y-35011D01*
X17255Y-35180D01*
X17320Y-35336D01*
X17439Y-35456D01*
X17502Y-35481D01*
X17399Y-35583D01*
X17335Y-35740D01*
X17334Y-35909D01*
X17399Y-36065D01*
X17518Y-36185D01*
X17675Y-36249D01*
X17844Y-36250D01*
X18000Y-36185D01*
X18071Y-36115D01*
X19062Y-36115D01*
X19132Y-36185D01*
X19289Y-36249D01*
X19388Y-36250D01*
X19443Y-36305D01*
X19538Y-36367D01*
X19649Y-36390D01*
X20320Y-36390D01*
X20352Y-36466D01*
X20384Y-36498D01*
X20384Y-36790D01*
X20406Y-36900D01*
X20468Y-36995D01*
X20552Y-37079D01*
X20221Y-37079D01*
X20129Y-37117D01*
X20082Y-37164D01*
X19293Y-37164D01*
X19221Y-37091D01*
X19026Y-37011D01*
X18816Y-37010D01*
X18621Y-37091D01*
X18471Y-37240D01*
X18391Y-37435D01*
X18390Y-37645D01*
X18471Y-37840D01*
X18620Y-37990D01*
X18815Y-38070D01*
X19025Y-38071D01*
X19220Y-37990D01*
X19370Y-37841D01*
X19410Y-37744D01*
X20082Y-37744D01*
X20092Y-37754D01*
X20059Y-37787D01*
X20021Y-37879D01*
X20021Y-37941D01*
X20083Y-38004D01*
X20446Y-38004D01*
X20446Y-37996D01*
X20546Y-37996D01*
X20546Y-38004D01*
X20908Y-38004D01*
X20971Y-37941D01*
X20971Y-37879D01*
X20932Y-37787D01*
X20899Y-37754D01*
X20932Y-37720D01*
X20971Y-37628D01*
X20971Y-37529D01*
X20971Y-37497D01*
X21727Y-38254D01*
X21822Y-38316D01*
X21933Y-38339D01*
X22251Y-38339D01*
X22321Y-38409D01*
X22387Y-38436D01*
X22355Y-38515D01*
X22354Y-38614D01*
X21528Y-39441D01*
X21402Y-39441D01*
X21310Y-39479D01*
X21240Y-39549D01*
X21202Y-39641D01*
X21202Y-39740D01*
X21202Y-39990D01*
X21240Y-40082D01*
X21273Y-40115D01*
X21240Y-40149D01*
X21202Y-40241D01*
X21202Y-40340D01*
X21202Y-40480D01*
X21077Y-40604D01*
X21015Y-40699D01*
X21000Y-40771D01*
X20971Y-40771D01*
X20971Y-39803D01*
X20971Y-39704D01*
X20971Y-39454D01*
X20932Y-39362D01*
X20899Y-39329D01*
X20932Y-39295D01*
X20971Y-39203D01*
X20971Y-39141D01*
X20971Y-38916D01*
X20971Y-38854D01*
X20971Y-38228D01*
X20971Y-38166D01*
X20908Y-38104D01*
X20546Y-38104D01*
X20546Y-38366D01*
X20608Y-38429D01*
X20671Y-38429D01*
X20770Y-38429D01*
X20862Y-38390D01*
X20932Y-38320D01*
X20971Y-38228D01*
X20971Y-38854D01*
X20932Y-38762D01*
X20862Y-38692D01*
X20770Y-38654D01*
X20671Y-38654D01*
X20608Y-38654D01*
X20546Y-38716D01*
X20546Y-38979D01*
X20908Y-38979D01*
X20971Y-38916D01*
X20971Y-39141D01*
X20908Y-39079D01*
X20546Y-39079D01*
X20546Y-39086D01*
X20446Y-39086D01*
X20446Y-39079D01*
X20446Y-38979D01*
X20446Y-38716D01*
X20446Y-38366D01*
X20446Y-38104D01*
X20083Y-38104D01*
X20021Y-38166D01*
X20021Y-38228D01*
X20059Y-38320D01*
X20129Y-38390D01*
X20221Y-38429D01*
X20320Y-38429D01*
X20383Y-38429D01*
X20446Y-38366D01*
X20446Y-38716D01*
X20383Y-38654D01*
X20320Y-38654D01*
X20221Y-38654D01*
X20129Y-38692D01*
X20059Y-38762D01*
X20021Y-38854D01*
X20021Y-38916D01*
X20083Y-38979D01*
X20446Y-38979D01*
X20446Y-39079D01*
X20083Y-39079D01*
X20021Y-39141D01*
X20021Y-39203D01*
X20059Y-39295D01*
X20092Y-39328D01*
X20082Y-39339D01*
X19410Y-39339D01*
X19370Y-39241D01*
X19221Y-39091D01*
X19026Y-39011D01*
X18816Y-39010D01*
X18621Y-39091D01*
X18471Y-39240D01*
X18391Y-39435D01*
X18390Y-39645D01*
X18471Y-39840D01*
X18620Y-39990D01*
X18815Y-40070D01*
X19025Y-40071D01*
X19220Y-39990D01*
X19292Y-39919D01*
X20082Y-39919D01*
X20129Y-39965D01*
X20221Y-40004D01*
X20320Y-40004D01*
X20770Y-40004D01*
X20862Y-39965D01*
X20932Y-39895D01*
X20971Y-39803D01*
X20971Y-40771D01*
X17779Y-40771D01*
X17747Y-40694D01*
X17677Y-40624D01*
X17585Y-40586D01*
X17486Y-40586D01*
X17236Y-40586D01*
X17159Y-40617D01*
X17159Y-37020D01*
X17207Y-37020D01*
X17385Y-36946D01*
X17522Y-36809D01*
X17596Y-36631D01*
X17597Y-36437D01*
X17523Y-36259D01*
X17386Y-36122D01*
X17208Y-36048D01*
X17014Y-36047D01*
X16836Y-36121D01*
X16699Y-36258D01*
X16625Y-36436D01*
X16625Y-36527D01*
X16564Y-36587D01*
X16489Y-36700D01*
X16462Y-36834D01*
X16462Y-40722D01*
X16436Y-40786D01*
X16436Y-40885D01*
X16436Y-41335D01*
X16462Y-41399D01*
X16462Y-41588D01*
X16489Y-41721D01*
X16564Y-41834D01*
X17061Y-42331D01*
X17174Y-42406D01*
X17174Y-42406D01*
X17308Y-42433D01*
X17327Y-42433D01*
X17327Y-42534D01*
X17365Y-42626D01*
X17435Y-42696D01*
X17527Y-42735D01*
X17528Y-42735D01*
X17528Y-42811D01*
X17555Y-42944D01*
X17630Y-43057D01*
X17680Y-43107D01*
X17644Y-43107D01*
X17553Y-43145D01*
X17519Y-43179D01*
X17486Y-43145D01*
X17394Y-43107D01*
X17332Y-43107D01*
X17269Y-43170D01*
X17269Y-43532D01*
X17277Y-43532D01*
X17277Y-43632D01*
X17269Y-43632D01*
X17269Y-43995D01*
X17332Y-44057D01*
X17394Y-44057D01*
X17486Y-44019D01*
X17519Y-43986D01*
X17525Y-43992D01*
X17525Y-44243D01*
X17496Y-44255D01*
X17426Y-44326D01*
X17387Y-44418D01*
X17387Y-44517D01*
X17387Y-44519D01*
X17373Y-44513D01*
X17273Y-44513D01*
X17169Y-44513D01*
X17169Y-43995D01*
X17169Y-43632D01*
X17169Y-43532D01*
X17169Y-43170D01*
X17107Y-43107D01*
X17044Y-43107D01*
X16953Y-43145D01*
X16882Y-43216D01*
X16844Y-43307D01*
X16844Y-43407D01*
X16844Y-43470D01*
X16907Y-43532D01*
X17169Y-43532D01*
X17169Y-43632D01*
X16907Y-43632D01*
X16844Y-43695D01*
X16844Y-43757D01*
X16844Y-43857D01*
X16882Y-43949D01*
X16953Y-44019D01*
X17044Y-44057D01*
X17107Y-44057D01*
X17169Y-43995D01*
X17169Y-44513D01*
X16170Y-44513D01*
X16078Y-44551D01*
X16073Y-44557D01*
X16073Y-8199D01*
X27234Y-8199D01*
X27234Y-42481D01*
X27183Y-42481D01*
X26583Y-42481D01*
X26491Y-42519D01*
X26421Y-42589D01*
X26420Y-42592D01*
X26420Y-38597D01*
X26420Y-38498D01*
X26420Y-38260D01*
X26420Y-38035D01*
X26420Y-37797D01*
X26420Y-37698D01*
X26420Y-37219D01*
X26420Y-37120D01*
X26420Y-36882D01*
X26420Y-36657D01*
X26420Y-36419D01*
X26420Y-36320D01*
X26381Y-36228D01*
X26311Y-36158D01*
X26219Y-36120D01*
X25982Y-36120D01*
X25920Y-36182D01*
X25920Y-36720D01*
X26357Y-36720D01*
X26420Y-36657D01*
X26420Y-36882D01*
X26357Y-36820D01*
X25920Y-36820D01*
X25920Y-37357D01*
X25982Y-37420D01*
X26219Y-37420D01*
X26311Y-37381D01*
X26381Y-37311D01*
X26420Y-37219D01*
X26420Y-37698D01*
X26381Y-37606D01*
X26311Y-37536D01*
X26219Y-37498D01*
X25982Y-37498D01*
X25920Y-37560D01*
X25920Y-38098D01*
X26357Y-38098D01*
X26420Y-38035D01*
X26420Y-38260D01*
X26357Y-38198D01*
X25920Y-38198D01*
X25920Y-38735D01*
X25982Y-38798D01*
X26219Y-38798D01*
X26311Y-38759D01*
X26381Y-38689D01*
X26420Y-38597D01*
X26420Y-42592D01*
X26383Y-42681D01*
X26383Y-42734D01*
X26318Y-42716D01*
X26289Y-42746D01*
X26289Y-40784D01*
X26289Y-40685D01*
X26289Y-40622D01*
X26289Y-40397D01*
X26289Y-40334D01*
X26289Y-40235D01*
X26289Y-39800D01*
X26289Y-39701D01*
X26289Y-39638D01*
X26289Y-39413D01*
X26289Y-39350D01*
X26289Y-39251D01*
X26250Y-39159D01*
X26180Y-39089D01*
X26088Y-39051D01*
X26026Y-39051D01*
X25964Y-39113D01*
X25964Y-39476D01*
X26226Y-39476D01*
X26289Y-39413D01*
X26289Y-39638D01*
X26226Y-39576D01*
X25964Y-39576D01*
X25964Y-39938D01*
X26026Y-40001D01*
X26088Y-40001D01*
X26180Y-39962D01*
X26250Y-39892D01*
X26289Y-39800D01*
X26289Y-40235D01*
X26250Y-40143D01*
X26180Y-40073D01*
X26088Y-40035D01*
X26026Y-40035D01*
X25964Y-40097D01*
X25964Y-40460D01*
X26226Y-40460D01*
X26289Y-40397D01*
X26289Y-40622D01*
X26226Y-40560D01*
X25964Y-40560D01*
X25964Y-40922D01*
X26026Y-40985D01*
X26088Y-40985D01*
X26180Y-40946D01*
X26250Y-40876D01*
X26289Y-40784D01*
X26289Y-42746D01*
X26248Y-42787D01*
X26248Y-42645D01*
X26220Y-42550D01*
X26014Y-42476D01*
X25796Y-42487D01*
X25645Y-42550D01*
X25617Y-42645D01*
X25933Y-42960D01*
X26248Y-42645D01*
X26248Y-42787D01*
X26003Y-43031D01*
X26318Y-43346D01*
X26383Y-43328D01*
X26383Y-43381D01*
X26421Y-43473D01*
X26491Y-43543D01*
X26583Y-43581D01*
X26682Y-43581D01*
X27234Y-43581D01*
X27234Y-46919D01*
M02*
