G04 (created by PCBNEW (2013-mar-13)-testing) date Wed 26 Jun 2013 08:45:53 PM NZST*
%MOIN*%
G04 Gerber Fmt 3.4, Leading zero omitted, Abs format*
%FSLAX34Y34*%
G01*
G70*
G90*
G04 APERTURE LIST*
%ADD10C,0.005906*%
%ADD11C,0.007874*%
G04 APERTURE END LIST*
G54D10*
G54D11*
X17168Y-42555D02*
X17455Y-42555D01*
X17488Y-42540D01*
X17505Y-42525D01*
X17522Y-42495D01*
X17522Y-42450D01*
X17505Y-42420D01*
X17387Y-42555D02*
X17404Y-42525D01*
X17404Y-42465D01*
X17387Y-42435D01*
X17370Y-42420D01*
X17336Y-42405D01*
X17235Y-42405D01*
X17201Y-42420D01*
X17185Y-42435D01*
X17168Y-42465D01*
X17168Y-42525D01*
X17185Y-42555D01*
X17404Y-42705D02*
X17050Y-42705D01*
X17303Y-42810D01*
X17050Y-42915D01*
X17404Y-42915D01*
X17387Y-43185D02*
X17404Y-43155D01*
X17404Y-43095D01*
X17387Y-43065D01*
X17353Y-43050D01*
X17218Y-43050D01*
X17185Y-43065D01*
X17168Y-43095D01*
X17168Y-43155D01*
X17185Y-43185D01*
X17218Y-43200D01*
X17252Y-43200D01*
X17286Y-43050D01*
X17168Y-43290D02*
X17168Y-43410D01*
X17050Y-43335D02*
X17353Y-43335D01*
X17387Y-43350D01*
X17404Y-43380D01*
X17404Y-43410D01*
X17387Y-43635D02*
X17404Y-43605D01*
X17404Y-43545D01*
X17387Y-43515D01*
X17353Y-43500D01*
X17218Y-43500D01*
X17185Y-43515D01*
X17168Y-43545D01*
X17168Y-43605D01*
X17185Y-43635D01*
X17218Y-43650D01*
X17252Y-43650D01*
X17286Y-43500D01*
X17404Y-43785D02*
X17168Y-43785D01*
X17235Y-43785D02*
X17201Y-43800D01*
X17185Y-43815D01*
X17168Y-43845D01*
X17168Y-43875D01*
X17168Y-44190D02*
X17404Y-44265D01*
X17168Y-44340D01*
X17404Y-44625D02*
X17404Y-44445D01*
X17404Y-44535D02*
X17050Y-44535D01*
X17100Y-44505D01*
X17134Y-44475D01*
X17151Y-44445D01*
X17370Y-44760D02*
X17387Y-44775D01*
X17404Y-44760D01*
X17387Y-44745D01*
X17370Y-44760D01*
X17404Y-44760D01*
X17050Y-44970D02*
X17050Y-45000D01*
X17066Y-45029D01*
X17083Y-45044D01*
X17117Y-45059D01*
X17185Y-45074D01*
X17269Y-45074D01*
X17336Y-45059D01*
X17370Y-45044D01*
X17387Y-45029D01*
X17404Y-45000D01*
X17404Y-44970D01*
X17387Y-44940D01*
X17370Y-44925D01*
X17336Y-44910D01*
X17269Y-44895D01*
X17185Y-44895D01*
X17117Y-44910D01*
X17083Y-44925D01*
X17066Y-44940D01*
X17050Y-44970D01*
M02*
