G04 (created by PCBNEW (2013-mar-13)-testing) date Wed 26 Jun 2013 08:45:53 PM NZST*
%MOIN*%
G04 Gerber Fmt 3.4, Leading zero omitted, Abs format*
%FSLAX34Y34*%
G01*
G70*
G90*
G04 APERTURE LIST*
%ADD10C,0.005906*%
%ADD11C,0.008000*%
%ADD12C,0.015000*%
%ADD13C,0.005000*%
%ADD14C,0.006000*%
%ADD15C,0.012500*%
%ADD16C,0.010000*%
%ADD17C,0.007500*%
%ADD18C,0.002600*%
%ADD19C,0.004000*%
%ADD20C,0.004921*%
%ADD21C,0.007874*%
%ADD22C,0.004500*%
%ADD23C,0.012000*%
%ADD24C,0.004300*%
%ADD25C,0.009843*%
%ADD26C,0.003500*%
G04 APERTURE END LIST*
G54D10*
G54D11*
X17961Y-26951D02*
X17961Y-23951D01*
X19961Y-23951D02*
X19961Y-26951D01*
X19961Y-26951D02*
X17961Y-26951D01*
X17961Y-23951D02*
X19961Y-23951D01*
G54D12*
X17878Y-29644D02*
G75*
G03X17878Y-29644I-472J0D01*
G74*
G01*
G54D13*
X20112Y-18239D02*
X18912Y-18239D01*
X18912Y-18239D02*
X18912Y-17939D01*
X18912Y-17939D02*
X20112Y-17939D01*
X20112Y-17939D02*
X20112Y-18239D01*
G54D12*
X17884Y-33955D02*
G75*
G03X17884Y-33955I-478J0D01*
G74*
G01*
X17884Y-32577D02*
G75*
G03X17884Y-32577I-478J0D01*
G74*
G01*
X17884Y-31081D02*
G75*
G03X17884Y-31081I-478J0D01*
G74*
G01*
G54D13*
X24220Y-37698D02*
X24120Y-37698D01*
X24120Y-37698D02*
X24120Y-38598D01*
X24120Y-38598D02*
X24220Y-38598D01*
X24220Y-37698D02*
X24220Y-38598D01*
X24220Y-38598D02*
X24870Y-38598D01*
X25570Y-37698D02*
X26220Y-37698D01*
X26220Y-37698D02*
X26220Y-38598D01*
X26220Y-38598D02*
X25570Y-38598D01*
X24870Y-37698D02*
X24220Y-37698D01*
X24220Y-36320D02*
X24120Y-36320D01*
X24120Y-36320D02*
X24120Y-37220D01*
X24120Y-37220D02*
X24220Y-37220D01*
X24220Y-36320D02*
X24220Y-37220D01*
X24220Y-37220D02*
X24870Y-37220D01*
X25570Y-36320D02*
X26220Y-36320D01*
X26220Y-36320D02*
X26220Y-37220D01*
X26220Y-37220D02*
X25570Y-37220D01*
X24870Y-36320D02*
X24220Y-36320D01*
G54D12*
X22106Y-43917D02*
X19310Y-43917D01*
X19310Y-43917D02*
X19310Y-47539D01*
X19310Y-47539D02*
X22106Y-47539D01*
X22106Y-47539D02*
X22106Y-43917D01*
G54D14*
X20981Y-35010D02*
X20981Y-34560D01*
X23161Y-35010D02*
X23161Y-34570D01*
X20981Y-35010D02*
X23161Y-35010D01*
X20511Y-34130D02*
X20081Y-34130D01*
X20501Y-31920D02*
X20081Y-31920D01*
X20081Y-31910D02*
X20071Y-34130D01*
X24051Y-31930D02*
X24061Y-34100D01*
X23361Y-31500D02*
X20531Y-31500D01*
X24051Y-34110D02*
X23641Y-34110D01*
X23601Y-31750D02*
X23601Y-34530D01*
X20521Y-34550D02*
X23561Y-34550D01*
X20521Y-31500D02*
X20521Y-34500D01*
X23191Y-31050D02*
X20971Y-31050D01*
X20971Y-31050D02*
X20971Y-31500D01*
X23371Y-31504D02*
X23601Y-31734D01*
X23191Y-31052D02*
X23191Y-31504D01*
X23601Y-31930D02*
X24053Y-31930D01*
X23385Y-31912D02*
G75*
G03X23385Y-31912I-188J0D01*
G74*
G01*
G54D13*
X22517Y-41635D02*
X22517Y-42535D01*
X22517Y-42535D02*
X22017Y-42535D01*
X22017Y-42535D02*
X22017Y-41635D01*
X22017Y-41635D02*
X22517Y-41635D01*
X21533Y-41635D02*
X21533Y-42535D01*
X21533Y-42535D02*
X21033Y-42535D01*
X21033Y-42535D02*
X21033Y-41635D01*
X21033Y-41635D02*
X21533Y-41635D01*
X16661Y-40811D02*
X17561Y-40811D01*
X17561Y-40811D02*
X17561Y-41311D01*
X17561Y-41311D02*
X16661Y-41311D01*
X16661Y-41311D02*
X16661Y-40811D01*
X23672Y-40861D02*
X23672Y-39961D01*
X23672Y-39961D02*
X24172Y-39961D01*
X24172Y-39961D02*
X24172Y-40861D01*
X24172Y-40861D02*
X23672Y-40861D01*
X23108Y-39666D02*
X23108Y-40566D01*
X23108Y-40566D02*
X22608Y-40566D01*
X22608Y-40566D02*
X22608Y-39666D01*
X22608Y-39666D02*
X23108Y-39666D01*
X21927Y-39666D02*
X21927Y-40566D01*
X21927Y-40566D02*
X21427Y-40566D01*
X21427Y-40566D02*
X21427Y-39666D01*
X21427Y-39666D02*
X21927Y-39666D01*
X21439Y-36350D02*
X20539Y-36350D01*
X20539Y-36350D02*
X20539Y-35850D01*
X20539Y-35850D02*
X21439Y-35850D01*
X21439Y-35850D02*
X21439Y-36350D01*
X19408Y-20572D02*
X19408Y-21472D01*
X19408Y-21472D02*
X18908Y-21472D01*
X18908Y-21472D02*
X18908Y-20572D01*
X18908Y-20572D02*
X19408Y-20572D01*
X23472Y-14276D02*
X24372Y-14276D01*
X24372Y-14276D02*
X24372Y-14776D01*
X24372Y-14776D02*
X23472Y-14776D01*
X23472Y-14776D02*
X23472Y-14276D01*
X23470Y-16244D02*
X24370Y-16244D01*
X24370Y-16244D02*
X24370Y-16744D01*
X24370Y-16744D02*
X23470Y-16744D01*
X23470Y-16744D02*
X23470Y-16244D01*
X23470Y-18212D02*
X24370Y-18212D01*
X24370Y-18212D02*
X24370Y-18712D01*
X24370Y-18712D02*
X23470Y-18712D01*
X23470Y-18712D02*
X23470Y-18212D01*
X23470Y-20181D02*
X24370Y-20181D01*
X24370Y-20181D02*
X24370Y-20681D01*
X24370Y-20681D02*
X23470Y-20681D01*
X23470Y-20681D02*
X23470Y-20181D01*
X23470Y-22149D02*
X24370Y-22149D01*
X24370Y-22149D02*
X24370Y-22649D01*
X24370Y-22649D02*
X23470Y-22649D01*
X23470Y-22649D02*
X23470Y-22149D01*
X23470Y-24118D02*
X24370Y-24118D01*
X24370Y-24118D02*
X24370Y-24618D01*
X24370Y-24618D02*
X23470Y-24618D01*
X23470Y-24618D02*
X23470Y-24118D01*
X23470Y-26086D02*
X24370Y-26086D01*
X24370Y-26086D02*
X24370Y-26586D01*
X24370Y-26586D02*
X23470Y-26586D01*
X23470Y-26586D02*
X23470Y-26086D01*
X20431Y-28544D02*
X20431Y-29444D01*
X20431Y-29444D02*
X19931Y-29444D01*
X19931Y-29444D02*
X19931Y-28544D01*
X19931Y-28544D02*
X20431Y-28544D01*
X21877Y-29472D02*
X22777Y-29472D01*
X22777Y-29472D02*
X22777Y-29972D01*
X22777Y-29972D02*
X21877Y-29972D01*
X21877Y-29972D02*
X21877Y-29472D01*
X20246Y-39779D02*
X20246Y-38879D01*
X20246Y-38879D02*
X20746Y-38879D01*
X20746Y-38879D02*
X20746Y-39779D01*
X20746Y-39779D02*
X20246Y-39779D01*
X20746Y-37304D02*
X20746Y-38204D01*
X20746Y-38204D02*
X20246Y-38204D01*
X20246Y-38204D02*
X20246Y-37304D01*
X20246Y-37304D02*
X20746Y-37304D01*
X26064Y-40760D02*
X25164Y-40760D01*
X25164Y-40760D02*
X25164Y-40260D01*
X25164Y-40260D02*
X26064Y-40260D01*
X26064Y-40260D02*
X26064Y-40760D01*
X26064Y-39776D02*
X25164Y-39776D01*
X25164Y-39776D02*
X25164Y-39276D01*
X25164Y-39276D02*
X26064Y-39276D01*
X26064Y-39276D02*
X26064Y-39776D01*
G54D12*
X24016Y-10787D02*
G75*
G03X24016Y-10787I-2362J0D01*
G74*
G01*
G54D15*
X19921Y-39791D02*
X19921Y-37291D01*
X17921Y-39791D02*
X17921Y-37291D01*
X18921Y-36291D02*
G75*
G03X17921Y-37291I0J-1000D01*
G74*
G01*
X19921Y-37291D02*
G75*
G03X18921Y-36291I-1000J0D01*
G74*
G01*
X17921Y-39791D02*
G75*
G03X18921Y-40791I1000J0D01*
G74*
G01*
X18921Y-40791D02*
G75*
G03X19921Y-39791I0J1000D01*
G74*
G01*
G54D13*
X17969Y-43832D02*
X17069Y-43832D01*
X17069Y-43832D02*
X17069Y-43332D01*
X17069Y-43332D02*
X17969Y-43332D01*
X17969Y-43332D02*
X17969Y-43832D01*
G54D16*
X23433Y-42531D02*
X27433Y-42531D01*
X23433Y-43531D02*
X27433Y-43531D01*
X27433Y-43531D02*
X27433Y-42531D01*
X23433Y-42531D02*
X23433Y-43531D01*
G54D13*
X19497Y-41315D02*
X19497Y-41585D01*
X19347Y-41445D02*
X19627Y-41445D01*
X19497Y-41345D02*
X19497Y-41315D01*
X18227Y-41535D02*
X17627Y-41535D01*
X17627Y-41535D02*
X17627Y-42635D01*
X17627Y-42635D02*
X18227Y-42635D01*
X18827Y-42635D02*
X19427Y-42635D01*
X19427Y-42635D02*
X19427Y-41535D01*
X19427Y-41535D02*
X18827Y-41535D01*
G54D17*
X17637Y-44409D02*
X17637Y-44290D01*
X17637Y-45039D02*
X17637Y-44802D01*
X17637Y-45590D02*
X17637Y-45393D01*
X17637Y-46102D02*
X17637Y-45983D01*
X16613Y-45668D02*
X16613Y-46102D01*
X16613Y-44724D02*
X16613Y-44290D01*
X17637Y-44290D02*
X16613Y-44290D01*
X16613Y-46102D02*
X17637Y-46102D01*
G54D18*
X21615Y-28346D02*
X21693Y-28346D01*
X21693Y-28346D02*
X21693Y-28268D01*
X21615Y-28268D02*
X21693Y-28268D01*
X21615Y-28346D02*
X21615Y-28268D01*
X21831Y-28582D02*
X21968Y-28582D01*
X21968Y-28582D02*
X21968Y-28484D01*
X21831Y-28484D02*
X21968Y-28484D01*
X21831Y-28582D02*
X21831Y-28484D01*
X21968Y-28582D02*
X22008Y-28582D01*
X22008Y-28582D02*
X22008Y-28111D01*
X21968Y-28111D02*
X22008Y-28111D01*
X21968Y-28582D02*
X21968Y-28111D01*
X21968Y-28091D02*
X22008Y-28091D01*
X22008Y-28091D02*
X22008Y-28032D01*
X21968Y-28032D02*
X22008Y-28032D01*
X21968Y-28091D02*
X21968Y-28032D01*
X21300Y-28582D02*
X21340Y-28582D01*
X21340Y-28582D02*
X21340Y-28111D01*
X21300Y-28111D02*
X21340Y-28111D01*
X21300Y-28582D02*
X21300Y-28111D01*
X21300Y-28091D02*
X21340Y-28091D01*
X21340Y-28091D02*
X21340Y-28032D01*
X21300Y-28032D02*
X21340Y-28032D01*
X21300Y-28091D02*
X21300Y-28032D01*
X21831Y-28582D02*
X21890Y-28582D01*
X21890Y-28582D02*
X21890Y-28484D01*
X21831Y-28484D02*
X21890Y-28484D01*
X21831Y-28582D02*
X21831Y-28484D01*
G54D19*
X22264Y-28602D02*
X21044Y-28602D01*
X21044Y-28602D02*
X21044Y-28012D01*
X21044Y-28012D02*
X22264Y-28012D01*
X22264Y-28012D02*
X22264Y-28602D01*
X21438Y-28503D02*
G75*
G03X21870Y-28503I215J196D01*
G74*
G01*
X21438Y-28110D02*
G75*
G03X21438Y-28503I215J-196D01*
G74*
G01*
X21869Y-28110D02*
G75*
G03X21438Y-28111I-215J-196D01*
G74*
G01*
X21869Y-28503D02*
G75*
G03X21870Y-28111I-215J196D01*
G74*
G01*
G54D18*
X21693Y-26300D02*
X21615Y-26300D01*
X21615Y-26300D02*
X21615Y-26378D01*
X21693Y-26378D02*
X21615Y-26378D01*
X21693Y-26300D02*
X21693Y-26378D01*
X21477Y-26064D02*
X21340Y-26064D01*
X21340Y-26064D02*
X21340Y-26162D01*
X21477Y-26162D02*
X21340Y-26162D01*
X21477Y-26064D02*
X21477Y-26162D01*
X21340Y-26064D02*
X21300Y-26064D01*
X21300Y-26064D02*
X21300Y-26535D01*
X21340Y-26535D02*
X21300Y-26535D01*
X21340Y-26064D02*
X21340Y-26535D01*
X21340Y-26555D02*
X21300Y-26555D01*
X21300Y-26555D02*
X21300Y-26614D01*
X21340Y-26614D02*
X21300Y-26614D01*
X21340Y-26555D02*
X21340Y-26614D01*
X22008Y-26064D02*
X21968Y-26064D01*
X21968Y-26064D02*
X21968Y-26535D01*
X22008Y-26535D02*
X21968Y-26535D01*
X22008Y-26064D02*
X22008Y-26535D01*
X22008Y-26555D02*
X21968Y-26555D01*
X21968Y-26555D02*
X21968Y-26614D01*
X22008Y-26614D02*
X21968Y-26614D01*
X22008Y-26555D02*
X22008Y-26614D01*
X21477Y-26064D02*
X21418Y-26064D01*
X21418Y-26064D02*
X21418Y-26162D01*
X21477Y-26162D02*
X21418Y-26162D01*
X21477Y-26064D02*
X21477Y-26162D01*
G54D19*
X21044Y-26044D02*
X22264Y-26044D01*
X22264Y-26044D02*
X22264Y-26634D01*
X22264Y-26634D02*
X21044Y-26634D01*
X21044Y-26634D02*
X21044Y-26044D01*
X21869Y-26142D02*
G75*
G03X21438Y-26143I-215J-196D01*
G74*
G01*
X21869Y-26535D02*
G75*
G03X21870Y-26143I-215J196D01*
G74*
G01*
X21438Y-26535D02*
G75*
G03X21870Y-26535I215J196D01*
G74*
G01*
X21438Y-26142D02*
G75*
G03X21438Y-26535I215J-196D01*
G74*
G01*
G54D18*
X21693Y-24331D02*
X21615Y-24331D01*
X21615Y-24331D02*
X21615Y-24409D01*
X21693Y-24409D02*
X21615Y-24409D01*
X21693Y-24331D02*
X21693Y-24409D01*
X21477Y-24095D02*
X21340Y-24095D01*
X21340Y-24095D02*
X21340Y-24193D01*
X21477Y-24193D02*
X21340Y-24193D01*
X21477Y-24095D02*
X21477Y-24193D01*
X21340Y-24095D02*
X21300Y-24095D01*
X21300Y-24095D02*
X21300Y-24566D01*
X21340Y-24566D02*
X21300Y-24566D01*
X21340Y-24095D02*
X21340Y-24566D01*
X21340Y-24586D02*
X21300Y-24586D01*
X21300Y-24586D02*
X21300Y-24645D01*
X21340Y-24645D02*
X21300Y-24645D01*
X21340Y-24586D02*
X21340Y-24645D01*
X22008Y-24095D02*
X21968Y-24095D01*
X21968Y-24095D02*
X21968Y-24566D01*
X22008Y-24566D02*
X21968Y-24566D01*
X22008Y-24095D02*
X22008Y-24566D01*
X22008Y-24586D02*
X21968Y-24586D01*
X21968Y-24586D02*
X21968Y-24645D01*
X22008Y-24645D02*
X21968Y-24645D01*
X22008Y-24586D02*
X22008Y-24645D01*
X21477Y-24095D02*
X21418Y-24095D01*
X21418Y-24095D02*
X21418Y-24193D01*
X21477Y-24193D02*
X21418Y-24193D01*
X21477Y-24095D02*
X21477Y-24193D01*
G54D19*
X21044Y-24075D02*
X22264Y-24075D01*
X22264Y-24075D02*
X22264Y-24665D01*
X22264Y-24665D02*
X21044Y-24665D01*
X21044Y-24665D02*
X21044Y-24075D01*
X21869Y-24173D02*
G75*
G03X21438Y-24174I-215J-196D01*
G74*
G01*
X21869Y-24566D02*
G75*
G03X21870Y-24174I-215J196D01*
G74*
G01*
X21438Y-24566D02*
G75*
G03X21870Y-24566I215J196D01*
G74*
G01*
X21438Y-24173D02*
G75*
G03X21438Y-24566I215J-196D01*
G74*
G01*
G54D18*
X21693Y-22363D02*
X21615Y-22363D01*
X21615Y-22363D02*
X21615Y-22441D01*
X21693Y-22441D02*
X21615Y-22441D01*
X21693Y-22363D02*
X21693Y-22441D01*
X21477Y-22127D02*
X21340Y-22127D01*
X21340Y-22127D02*
X21340Y-22225D01*
X21477Y-22225D02*
X21340Y-22225D01*
X21477Y-22127D02*
X21477Y-22225D01*
X21340Y-22127D02*
X21300Y-22127D01*
X21300Y-22127D02*
X21300Y-22598D01*
X21340Y-22598D02*
X21300Y-22598D01*
X21340Y-22127D02*
X21340Y-22598D01*
X21340Y-22618D02*
X21300Y-22618D01*
X21300Y-22618D02*
X21300Y-22677D01*
X21340Y-22677D02*
X21300Y-22677D01*
X21340Y-22618D02*
X21340Y-22677D01*
X22008Y-22127D02*
X21968Y-22127D01*
X21968Y-22127D02*
X21968Y-22598D01*
X22008Y-22598D02*
X21968Y-22598D01*
X22008Y-22127D02*
X22008Y-22598D01*
X22008Y-22618D02*
X21968Y-22618D01*
X21968Y-22618D02*
X21968Y-22677D01*
X22008Y-22677D02*
X21968Y-22677D01*
X22008Y-22618D02*
X22008Y-22677D01*
X21477Y-22127D02*
X21418Y-22127D01*
X21418Y-22127D02*
X21418Y-22225D01*
X21477Y-22225D02*
X21418Y-22225D01*
X21477Y-22127D02*
X21477Y-22225D01*
G54D19*
X21044Y-22107D02*
X22264Y-22107D01*
X22264Y-22107D02*
X22264Y-22697D01*
X22264Y-22697D02*
X21044Y-22697D01*
X21044Y-22697D02*
X21044Y-22107D01*
X21869Y-22205D02*
G75*
G03X21438Y-22206I-215J-196D01*
G74*
G01*
X21869Y-22598D02*
G75*
G03X21870Y-22206I-215J196D01*
G74*
G01*
X21438Y-22598D02*
G75*
G03X21870Y-22598I215J196D01*
G74*
G01*
X21438Y-22205D02*
G75*
G03X21438Y-22598I215J-196D01*
G74*
G01*
G54D18*
X21693Y-20394D02*
X21615Y-20394D01*
X21615Y-20394D02*
X21615Y-20472D01*
X21693Y-20472D02*
X21615Y-20472D01*
X21693Y-20394D02*
X21693Y-20472D01*
X21477Y-20158D02*
X21340Y-20158D01*
X21340Y-20158D02*
X21340Y-20256D01*
X21477Y-20256D02*
X21340Y-20256D01*
X21477Y-20158D02*
X21477Y-20256D01*
X21340Y-20158D02*
X21300Y-20158D01*
X21300Y-20158D02*
X21300Y-20629D01*
X21340Y-20629D02*
X21300Y-20629D01*
X21340Y-20158D02*
X21340Y-20629D01*
X21340Y-20649D02*
X21300Y-20649D01*
X21300Y-20649D02*
X21300Y-20708D01*
X21340Y-20708D02*
X21300Y-20708D01*
X21340Y-20649D02*
X21340Y-20708D01*
X22008Y-20158D02*
X21968Y-20158D01*
X21968Y-20158D02*
X21968Y-20629D01*
X22008Y-20629D02*
X21968Y-20629D01*
X22008Y-20158D02*
X22008Y-20629D01*
X22008Y-20649D02*
X21968Y-20649D01*
X21968Y-20649D02*
X21968Y-20708D01*
X22008Y-20708D02*
X21968Y-20708D01*
X22008Y-20649D02*
X22008Y-20708D01*
X21477Y-20158D02*
X21418Y-20158D01*
X21418Y-20158D02*
X21418Y-20256D01*
X21477Y-20256D02*
X21418Y-20256D01*
X21477Y-20158D02*
X21477Y-20256D01*
G54D19*
X21044Y-20138D02*
X22264Y-20138D01*
X22264Y-20138D02*
X22264Y-20728D01*
X22264Y-20728D02*
X21044Y-20728D01*
X21044Y-20728D02*
X21044Y-20138D01*
X21869Y-20236D02*
G75*
G03X21438Y-20237I-215J-196D01*
G74*
G01*
X21869Y-20629D02*
G75*
G03X21870Y-20237I-215J196D01*
G74*
G01*
X21438Y-20629D02*
G75*
G03X21870Y-20629I215J196D01*
G74*
G01*
X21438Y-20236D02*
G75*
G03X21438Y-20629I215J-196D01*
G74*
G01*
G54D18*
X21693Y-18426D02*
X21615Y-18426D01*
X21615Y-18426D02*
X21615Y-18504D01*
X21693Y-18504D02*
X21615Y-18504D01*
X21693Y-18426D02*
X21693Y-18504D01*
X21477Y-18190D02*
X21340Y-18190D01*
X21340Y-18190D02*
X21340Y-18288D01*
X21477Y-18288D02*
X21340Y-18288D01*
X21477Y-18190D02*
X21477Y-18288D01*
X21340Y-18190D02*
X21300Y-18190D01*
X21300Y-18190D02*
X21300Y-18661D01*
X21340Y-18661D02*
X21300Y-18661D01*
X21340Y-18190D02*
X21340Y-18661D01*
X21340Y-18681D02*
X21300Y-18681D01*
X21300Y-18681D02*
X21300Y-18740D01*
X21340Y-18740D02*
X21300Y-18740D01*
X21340Y-18681D02*
X21340Y-18740D01*
X22008Y-18190D02*
X21968Y-18190D01*
X21968Y-18190D02*
X21968Y-18661D01*
X22008Y-18661D02*
X21968Y-18661D01*
X22008Y-18190D02*
X22008Y-18661D01*
X22008Y-18681D02*
X21968Y-18681D01*
X21968Y-18681D02*
X21968Y-18740D01*
X22008Y-18740D02*
X21968Y-18740D01*
X22008Y-18681D02*
X22008Y-18740D01*
X21477Y-18190D02*
X21418Y-18190D01*
X21418Y-18190D02*
X21418Y-18288D01*
X21477Y-18288D02*
X21418Y-18288D01*
X21477Y-18190D02*
X21477Y-18288D01*
G54D19*
X21044Y-18170D02*
X22264Y-18170D01*
X22264Y-18170D02*
X22264Y-18760D01*
X22264Y-18760D02*
X21044Y-18760D01*
X21044Y-18760D02*
X21044Y-18170D01*
X21869Y-18268D02*
G75*
G03X21438Y-18269I-215J-196D01*
G74*
G01*
X21869Y-18661D02*
G75*
G03X21870Y-18269I-215J196D01*
G74*
G01*
X21438Y-18661D02*
G75*
G03X21870Y-18661I215J196D01*
G74*
G01*
X21438Y-18268D02*
G75*
G03X21438Y-18661I215J-196D01*
G74*
G01*
G54D18*
X21693Y-16457D02*
X21615Y-16457D01*
X21615Y-16457D02*
X21615Y-16535D01*
X21693Y-16535D02*
X21615Y-16535D01*
X21693Y-16457D02*
X21693Y-16535D01*
X21477Y-16221D02*
X21340Y-16221D01*
X21340Y-16221D02*
X21340Y-16319D01*
X21477Y-16319D02*
X21340Y-16319D01*
X21477Y-16221D02*
X21477Y-16319D01*
X21340Y-16221D02*
X21300Y-16221D01*
X21300Y-16221D02*
X21300Y-16692D01*
X21340Y-16692D02*
X21300Y-16692D01*
X21340Y-16221D02*
X21340Y-16692D01*
X21340Y-16712D02*
X21300Y-16712D01*
X21300Y-16712D02*
X21300Y-16771D01*
X21340Y-16771D02*
X21300Y-16771D01*
X21340Y-16712D02*
X21340Y-16771D01*
X22008Y-16221D02*
X21968Y-16221D01*
X21968Y-16221D02*
X21968Y-16692D01*
X22008Y-16692D02*
X21968Y-16692D01*
X22008Y-16221D02*
X22008Y-16692D01*
X22008Y-16712D02*
X21968Y-16712D01*
X21968Y-16712D02*
X21968Y-16771D01*
X22008Y-16771D02*
X21968Y-16771D01*
X22008Y-16712D02*
X22008Y-16771D01*
X21477Y-16221D02*
X21418Y-16221D01*
X21418Y-16221D02*
X21418Y-16319D01*
X21477Y-16319D02*
X21418Y-16319D01*
X21477Y-16221D02*
X21477Y-16319D01*
G54D19*
X21044Y-16201D02*
X22264Y-16201D01*
X22264Y-16201D02*
X22264Y-16791D01*
X22264Y-16791D02*
X21044Y-16791D01*
X21044Y-16791D02*
X21044Y-16201D01*
X21869Y-16299D02*
G75*
G03X21438Y-16300I-215J-196D01*
G74*
G01*
X21869Y-16692D02*
G75*
G03X21870Y-16300I-215J196D01*
G74*
G01*
X21438Y-16692D02*
G75*
G03X21870Y-16692I215J196D01*
G74*
G01*
X21438Y-16299D02*
G75*
G03X21438Y-16692I215J-196D01*
G74*
G01*
G54D18*
X21693Y-14489D02*
X21615Y-14489D01*
X21615Y-14489D02*
X21615Y-14567D01*
X21693Y-14567D02*
X21615Y-14567D01*
X21693Y-14489D02*
X21693Y-14567D01*
X21477Y-14253D02*
X21340Y-14253D01*
X21340Y-14253D02*
X21340Y-14351D01*
X21477Y-14351D02*
X21340Y-14351D01*
X21477Y-14253D02*
X21477Y-14351D01*
X21340Y-14253D02*
X21300Y-14253D01*
X21300Y-14253D02*
X21300Y-14724D01*
X21340Y-14724D02*
X21300Y-14724D01*
X21340Y-14253D02*
X21340Y-14724D01*
X21340Y-14744D02*
X21300Y-14744D01*
X21300Y-14744D02*
X21300Y-14803D01*
X21340Y-14803D02*
X21300Y-14803D01*
X21340Y-14744D02*
X21340Y-14803D01*
X22008Y-14253D02*
X21968Y-14253D01*
X21968Y-14253D02*
X21968Y-14724D01*
X22008Y-14724D02*
X21968Y-14724D01*
X22008Y-14253D02*
X22008Y-14724D01*
X22008Y-14744D02*
X21968Y-14744D01*
X21968Y-14744D02*
X21968Y-14803D01*
X22008Y-14803D02*
X21968Y-14803D01*
X22008Y-14744D02*
X22008Y-14803D01*
X21477Y-14253D02*
X21418Y-14253D01*
X21418Y-14253D02*
X21418Y-14351D01*
X21477Y-14351D02*
X21418Y-14351D01*
X21477Y-14253D02*
X21477Y-14351D01*
G54D19*
X21044Y-14233D02*
X22264Y-14233D01*
X22264Y-14233D02*
X22264Y-14823D01*
X22264Y-14823D02*
X21044Y-14823D01*
X21044Y-14823D02*
X21044Y-14233D01*
X21869Y-14331D02*
G75*
G03X21438Y-14332I-215J-196D01*
G74*
G01*
X21869Y-14724D02*
G75*
G03X21870Y-14332I-215J196D01*
G74*
G01*
X21438Y-14724D02*
G75*
G03X21870Y-14724I215J196D01*
G74*
G01*
X21438Y-14331D02*
G75*
G03X21438Y-14724I215J-196D01*
G74*
G01*
G54D11*
X17641Y-25841D02*
X17241Y-25841D01*
X17622Y-25670D02*
X17641Y-25612D01*
X17641Y-25517D01*
X17622Y-25479D01*
X17603Y-25460D01*
X17565Y-25441D01*
X17527Y-25441D01*
X17489Y-25460D01*
X17470Y-25479D01*
X17451Y-25517D01*
X17432Y-25593D01*
X17413Y-25631D01*
X17394Y-25650D01*
X17356Y-25670D01*
X17318Y-25670D01*
X17280Y-25650D01*
X17261Y-25631D01*
X17241Y-25593D01*
X17241Y-25498D01*
X17261Y-25441D01*
X17641Y-25270D02*
X17241Y-25270D01*
X17241Y-25117D01*
X17261Y-25079D01*
X17280Y-25060D01*
X17318Y-25041D01*
X17375Y-25041D01*
X17413Y-25060D01*
X17432Y-25079D01*
X17451Y-25117D01*
X17451Y-25270D01*
G54D14*
X18157Y-29767D02*
X18200Y-29781D01*
X18271Y-29781D01*
X18300Y-29767D01*
X18314Y-29752D01*
X18328Y-29724D01*
X18328Y-29695D01*
X18314Y-29667D01*
X18300Y-29652D01*
X18271Y-29638D01*
X18214Y-29624D01*
X18185Y-29609D01*
X18171Y-29595D01*
X18157Y-29567D01*
X18157Y-29538D01*
X18171Y-29509D01*
X18185Y-29495D01*
X18214Y-29481D01*
X18285Y-29481D01*
X18328Y-29495D01*
X18614Y-29781D02*
X18442Y-29781D01*
X18528Y-29781D02*
X18528Y-29481D01*
X18500Y-29524D01*
X18471Y-29552D01*
X18442Y-29567D01*
G54D17*
X18573Y-17703D02*
X18545Y-17689D01*
X18516Y-17660D01*
X18473Y-17617D01*
X18445Y-17603D01*
X18416Y-17603D01*
X18430Y-17675D02*
X18402Y-17660D01*
X18373Y-17632D01*
X18359Y-17575D01*
X18359Y-17475D01*
X18373Y-17417D01*
X18402Y-17389D01*
X18430Y-17375D01*
X18488Y-17375D01*
X18516Y-17389D01*
X18545Y-17417D01*
X18559Y-17475D01*
X18559Y-17575D01*
X18545Y-17632D01*
X18516Y-17660D01*
X18488Y-17675D01*
X18430Y-17675D01*
X18845Y-17675D02*
X18673Y-17675D01*
X18759Y-17675D02*
X18759Y-17375D01*
X18730Y-17417D01*
X18702Y-17446D01*
X18673Y-17460D01*
G54D14*
X18196Y-34058D02*
X18239Y-34072D01*
X18310Y-34072D01*
X18339Y-34058D01*
X18353Y-34044D01*
X18368Y-34015D01*
X18368Y-33987D01*
X18353Y-33958D01*
X18339Y-33944D01*
X18310Y-33929D01*
X18253Y-33915D01*
X18225Y-33901D01*
X18210Y-33887D01*
X18196Y-33858D01*
X18196Y-33829D01*
X18210Y-33801D01*
X18225Y-33787D01*
X18253Y-33772D01*
X18325Y-33772D01*
X18368Y-33787D01*
X18625Y-33872D02*
X18625Y-34072D01*
X18553Y-33758D02*
X18482Y-33972D01*
X18668Y-33972D01*
X18196Y-32680D02*
X18239Y-32694D01*
X18310Y-32694D01*
X18339Y-32680D01*
X18353Y-32666D01*
X18368Y-32637D01*
X18368Y-32609D01*
X18353Y-32580D01*
X18339Y-32566D01*
X18310Y-32551D01*
X18253Y-32537D01*
X18225Y-32523D01*
X18210Y-32509D01*
X18196Y-32480D01*
X18196Y-32451D01*
X18210Y-32423D01*
X18225Y-32409D01*
X18253Y-32394D01*
X18325Y-32394D01*
X18368Y-32409D01*
X18468Y-32394D02*
X18653Y-32394D01*
X18553Y-32509D01*
X18596Y-32509D01*
X18625Y-32523D01*
X18639Y-32537D01*
X18653Y-32566D01*
X18653Y-32637D01*
X18639Y-32666D01*
X18625Y-32680D01*
X18596Y-32694D01*
X18510Y-32694D01*
X18482Y-32680D01*
X18468Y-32666D01*
X18176Y-31204D02*
X18219Y-31218D01*
X18291Y-31218D01*
X18319Y-31204D01*
X18334Y-31189D01*
X18348Y-31161D01*
X18348Y-31132D01*
X18334Y-31104D01*
X18319Y-31089D01*
X18291Y-31075D01*
X18234Y-31061D01*
X18205Y-31046D01*
X18191Y-31032D01*
X18176Y-31004D01*
X18176Y-30975D01*
X18191Y-30946D01*
X18205Y-30932D01*
X18234Y-30918D01*
X18305Y-30918D01*
X18348Y-30932D01*
X18462Y-30946D02*
X18476Y-30932D01*
X18505Y-30918D01*
X18576Y-30918D01*
X18605Y-30932D01*
X18619Y-30946D01*
X18634Y-30975D01*
X18634Y-31004D01*
X18619Y-31046D01*
X18448Y-31218D01*
X18634Y-31218D01*
G54D20*
X26423Y-38434D02*
X26423Y-38237D01*
X26479Y-38237D01*
X26513Y-38246D01*
X26536Y-38265D01*
X26547Y-38284D01*
X26558Y-38321D01*
X26558Y-38349D01*
X26547Y-38387D01*
X26536Y-38405D01*
X26513Y-38424D01*
X26479Y-38434D01*
X26423Y-38434D01*
X26761Y-38302D02*
X26761Y-38434D01*
X26704Y-38227D02*
X26648Y-38368D01*
X26794Y-38368D01*
X26423Y-36859D02*
X26423Y-36662D01*
X26479Y-36662D01*
X26513Y-36671D01*
X26536Y-36690D01*
X26547Y-36709D01*
X26558Y-36746D01*
X26558Y-36774D01*
X26547Y-36812D01*
X26536Y-36830D01*
X26513Y-36849D01*
X26479Y-36859D01*
X26423Y-36859D01*
X26637Y-36662D02*
X26783Y-36662D01*
X26704Y-36737D01*
X26738Y-36737D01*
X26761Y-36746D01*
X26772Y-36755D01*
X26783Y-36774D01*
X26783Y-36821D01*
X26772Y-36840D01*
X26761Y-36849D01*
X26738Y-36859D01*
X26671Y-36859D01*
X26648Y-36849D01*
X26637Y-36840D01*
G54D21*
X23272Y-45750D02*
X23272Y-45396D01*
X23422Y-45396D01*
X23459Y-45413D01*
X23478Y-45430D01*
X23497Y-45464D01*
X23497Y-45514D01*
X23478Y-45548D01*
X23459Y-45565D01*
X23422Y-45582D01*
X23272Y-45582D01*
X23834Y-45514D02*
X23834Y-45750D01*
X23741Y-45379D02*
X23647Y-45632D01*
X23891Y-45632D01*
G54D11*
X25423Y-33362D02*
X24923Y-33362D01*
X25375Y-32943D02*
X25399Y-32962D01*
X25423Y-33020D01*
X25423Y-33058D01*
X25399Y-33115D01*
X25351Y-33153D01*
X25303Y-33172D01*
X25208Y-33191D01*
X25137Y-33191D01*
X25042Y-33172D01*
X24994Y-33153D01*
X24946Y-33115D01*
X24923Y-33058D01*
X24923Y-33020D01*
X24946Y-32962D01*
X24970Y-32943D01*
X25423Y-32562D02*
X25423Y-32791D01*
X25423Y-32677D02*
X24923Y-32677D01*
X24994Y-32715D01*
X25042Y-32753D01*
X25065Y-32791D01*
X25988Y-34581D02*
X25988Y-34391D01*
X26131Y-34620D02*
X25631Y-34486D01*
X26131Y-34353D01*
X25631Y-34277D02*
X25631Y-34048D01*
X26131Y-34162D02*
X25631Y-34162D01*
X26131Y-33915D02*
X25631Y-33915D01*
X25988Y-33781D01*
X25631Y-33648D01*
X26131Y-33648D01*
X25869Y-33458D02*
X25869Y-33324D01*
X26131Y-33267D02*
X26131Y-33458D01*
X25631Y-33458D01*
X25631Y-33267D01*
X25655Y-32886D02*
X25631Y-32924D01*
X25631Y-32981D01*
X25655Y-33039D01*
X25703Y-33077D01*
X25750Y-33096D01*
X25845Y-33115D01*
X25917Y-33115D01*
X26012Y-33096D01*
X26060Y-33077D01*
X26107Y-33039D01*
X26131Y-32981D01*
X26131Y-32943D01*
X26107Y-32886D01*
X26084Y-32867D01*
X25917Y-32867D01*
X25917Y-32943D01*
X25988Y-32715D02*
X25988Y-32524D01*
X26131Y-32753D02*
X25631Y-32620D01*
X26131Y-32486D01*
X25845Y-32296D02*
X25822Y-32334D01*
X25798Y-32353D01*
X25750Y-32372D01*
X25726Y-32372D01*
X25679Y-32353D01*
X25655Y-32334D01*
X25631Y-32296D01*
X25631Y-32220D01*
X25655Y-32181D01*
X25679Y-32162D01*
X25726Y-32143D01*
X25750Y-32143D01*
X25798Y-32162D01*
X25822Y-32181D01*
X25845Y-32220D01*
X25845Y-32296D01*
X25869Y-32334D01*
X25893Y-32353D01*
X25941Y-32372D01*
X26036Y-32372D01*
X26084Y-32353D01*
X26107Y-32334D01*
X26131Y-32296D01*
X26131Y-32220D01*
X26107Y-32181D01*
X26084Y-32162D01*
X26036Y-32143D01*
X25941Y-32143D01*
X25893Y-32162D01*
X25869Y-32181D01*
X25845Y-32220D01*
X25845Y-31915D02*
X25822Y-31953D01*
X25798Y-31972D01*
X25750Y-31991D01*
X25726Y-31991D01*
X25679Y-31972D01*
X25655Y-31953D01*
X25631Y-31915D01*
X25631Y-31839D01*
X25655Y-31801D01*
X25679Y-31781D01*
X25726Y-31762D01*
X25750Y-31762D01*
X25798Y-31781D01*
X25822Y-31801D01*
X25845Y-31839D01*
X25845Y-31915D01*
X25869Y-31953D01*
X25893Y-31972D01*
X25941Y-31991D01*
X26036Y-31991D01*
X26084Y-31972D01*
X26107Y-31953D01*
X26131Y-31915D01*
X26131Y-31839D01*
X26107Y-31801D01*
X26084Y-31781D01*
X26036Y-31762D01*
X25941Y-31762D01*
X25893Y-31781D01*
X25869Y-31801D01*
X25845Y-31839D01*
X26131Y-31591D02*
X25631Y-31591D01*
X25631Y-31439D01*
X25655Y-31401D01*
X25679Y-31381D01*
X25726Y-31362D01*
X25798Y-31362D01*
X25845Y-31381D01*
X25869Y-31401D01*
X25893Y-31439D01*
X25893Y-31591D01*
G54D22*
X22253Y-42944D02*
X22193Y-42849D01*
X22150Y-42944D02*
X22150Y-42744D01*
X22219Y-42744D01*
X22236Y-42754D01*
X22244Y-42763D01*
X22253Y-42782D01*
X22253Y-42811D01*
X22244Y-42830D01*
X22236Y-42840D01*
X22219Y-42849D01*
X22150Y-42849D01*
X22424Y-42944D02*
X22322Y-42944D01*
X22373Y-42944D02*
X22373Y-42744D01*
X22356Y-42773D01*
X22339Y-42792D01*
X22322Y-42801D01*
X21249Y-42964D02*
X21189Y-42869D01*
X21146Y-42964D02*
X21146Y-42764D01*
X21215Y-42764D01*
X21232Y-42774D01*
X21240Y-42783D01*
X21249Y-42802D01*
X21249Y-42831D01*
X21240Y-42850D01*
X21232Y-42859D01*
X21215Y-42869D01*
X21146Y-42869D01*
X21318Y-42783D02*
X21326Y-42774D01*
X21343Y-42764D01*
X21386Y-42764D01*
X21403Y-42774D01*
X21412Y-42783D01*
X21420Y-42802D01*
X21420Y-42821D01*
X21412Y-42850D01*
X21309Y-42964D01*
X21420Y-42964D01*
X16662Y-41724D02*
X16602Y-41629D01*
X16560Y-41724D02*
X16560Y-41524D01*
X16628Y-41524D01*
X16645Y-41533D01*
X16654Y-41543D01*
X16662Y-41562D01*
X16662Y-41591D01*
X16654Y-41610D01*
X16645Y-41619D01*
X16628Y-41629D01*
X16560Y-41629D01*
X16722Y-41524D02*
X16834Y-41524D01*
X16774Y-41600D01*
X16800Y-41600D01*
X16817Y-41610D01*
X16825Y-41619D01*
X16834Y-41638D01*
X16834Y-41686D01*
X16825Y-41705D01*
X16817Y-41714D01*
X16800Y-41724D01*
X16748Y-41724D01*
X16731Y-41714D01*
X16722Y-41705D01*
X24281Y-41232D02*
X24221Y-41136D01*
X24178Y-41232D02*
X24178Y-41032D01*
X24246Y-41032D01*
X24263Y-41041D01*
X24272Y-41051D01*
X24281Y-41070D01*
X24281Y-41098D01*
X24272Y-41117D01*
X24263Y-41127D01*
X24246Y-41136D01*
X24178Y-41136D01*
X24435Y-41098D02*
X24435Y-41232D01*
X24392Y-41022D02*
X24349Y-41165D01*
X24461Y-41165D01*
X22863Y-40936D02*
X22803Y-40841D01*
X22760Y-40936D02*
X22760Y-40736D01*
X22829Y-40736D01*
X22846Y-40746D01*
X22855Y-40755D01*
X22863Y-40775D01*
X22863Y-40803D01*
X22855Y-40822D01*
X22846Y-40832D01*
X22829Y-40841D01*
X22760Y-40841D01*
X23026Y-40736D02*
X22940Y-40736D01*
X22932Y-40832D01*
X22940Y-40822D01*
X22957Y-40813D01*
X23000Y-40813D01*
X23017Y-40822D01*
X23026Y-40832D01*
X23035Y-40851D01*
X23035Y-40898D01*
X23026Y-40917D01*
X23017Y-40927D01*
X23000Y-40936D01*
X22957Y-40936D01*
X22940Y-40927D01*
X22932Y-40917D01*
X21662Y-40936D02*
X21602Y-40841D01*
X21560Y-40936D02*
X21560Y-40736D01*
X21628Y-40736D01*
X21645Y-40746D01*
X21654Y-40755D01*
X21662Y-40775D01*
X21662Y-40803D01*
X21654Y-40822D01*
X21645Y-40832D01*
X21628Y-40841D01*
X21560Y-40841D01*
X21817Y-40736D02*
X21782Y-40736D01*
X21765Y-40746D01*
X21757Y-40755D01*
X21740Y-40784D01*
X21731Y-40822D01*
X21731Y-40898D01*
X21740Y-40917D01*
X21748Y-40927D01*
X21765Y-40936D01*
X21800Y-40936D01*
X21817Y-40927D01*
X21825Y-40917D01*
X21834Y-40898D01*
X21834Y-40851D01*
X21825Y-40832D01*
X21817Y-40822D01*
X21800Y-40813D01*
X21765Y-40813D01*
X21748Y-40822D01*
X21740Y-40832D01*
X21731Y-40851D01*
X21721Y-36212D02*
X21661Y-36117D01*
X21619Y-36212D02*
X21619Y-36012D01*
X21687Y-36012D01*
X21704Y-36022D01*
X21713Y-36031D01*
X21721Y-36050D01*
X21721Y-36079D01*
X21713Y-36098D01*
X21704Y-36107D01*
X21687Y-36117D01*
X21619Y-36117D01*
X21781Y-36012D02*
X21901Y-36012D01*
X21824Y-36212D01*
X19714Y-21114D02*
X19654Y-21018D01*
X19611Y-21114D02*
X19611Y-20914D01*
X19679Y-20914D01*
X19696Y-20923D01*
X19705Y-20933D01*
X19714Y-20952D01*
X19714Y-20980D01*
X19705Y-20999D01*
X19696Y-21009D01*
X19679Y-21018D01*
X19611Y-21018D01*
X19816Y-20999D02*
X19799Y-20990D01*
X19791Y-20980D01*
X19782Y-20961D01*
X19782Y-20952D01*
X19791Y-20933D01*
X19799Y-20923D01*
X19816Y-20914D01*
X19851Y-20914D01*
X19868Y-20923D01*
X19876Y-20933D01*
X19885Y-20952D01*
X19885Y-20961D01*
X19876Y-20980D01*
X19868Y-20990D01*
X19851Y-20999D01*
X19816Y-20999D01*
X19799Y-21009D01*
X19791Y-21018D01*
X19782Y-21037D01*
X19782Y-21076D01*
X19791Y-21095D01*
X19799Y-21104D01*
X19816Y-21114D01*
X19851Y-21114D01*
X19868Y-21104D01*
X19876Y-21095D01*
X19885Y-21076D01*
X19885Y-21037D01*
X19876Y-21018D01*
X19868Y-21009D01*
X19851Y-20999D01*
X23867Y-15188D02*
X23807Y-15093D01*
X23764Y-15188D02*
X23764Y-14988D01*
X23833Y-14988D01*
X23850Y-14998D01*
X23859Y-15007D01*
X23867Y-15026D01*
X23867Y-15055D01*
X23859Y-15074D01*
X23850Y-15084D01*
X23833Y-15093D01*
X23764Y-15093D01*
X23953Y-15188D02*
X23987Y-15188D01*
X24004Y-15179D01*
X24013Y-15169D01*
X24030Y-15141D01*
X24039Y-15103D01*
X24039Y-15026D01*
X24030Y-15007D01*
X24021Y-14998D01*
X24004Y-14988D01*
X23970Y-14988D01*
X23953Y-14998D01*
X23944Y-15007D01*
X23936Y-15026D01*
X23936Y-15074D01*
X23944Y-15093D01*
X23953Y-15103D01*
X23970Y-15112D01*
X24004Y-15112D01*
X24021Y-15103D01*
X24030Y-15093D01*
X24039Y-15074D01*
X23801Y-17137D02*
X23741Y-17042D01*
X23698Y-17137D02*
X23698Y-16937D01*
X23767Y-16937D01*
X23784Y-16947D01*
X23793Y-16956D01*
X23801Y-16975D01*
X23801Y-17004D01*
X23793Y-17023D01*
X23784Y-17032D01*
X23767Y-17042D01*
X23698Y-17042D01*
X23973Y-17137D02*
X23870Y-17137D01*
X23921Y-17137D02*
X23921Y-16937D01*
X23904Y-16966D01*
X23887Y-16985D01*
X23870Y-16994D01*
X24084Y-16937D02*
X24101Y-16937D01*
X24118Y-16947D01*
X24127Y-16956D01*
X24135Y-16975D01*
X24144Y-17013D01*
X24144Y-17061D01*
X24135Y-17099D01*
X24127Y-17118D01*
X24118Y-17128D01*
X24101Y-17137D01*
X24084Y-17137D01*
X24067Y-17128D01*
X24058Y-17118D01*
X24050Y-17099D01*
X24041Y-17061D01*
X24041Y-17013D01*
X24050Y-16975D01*
X24058Y-16956D01*
X24067Y-16947D01*
X24084Y-16937D01*
X23801Y-19165D02*
X23741Y-19070D01*
X23698Y-19165D02*
X23698Y-18965D01*
X23767Y-18965D01*
X23784Y-18974D01*
X23793Y-18984D01*
X23801Y-19003D01*
X23801Y-19031D01*
X23793Y-19050D01*
X23784Y-19060D01*
X23767Y-19070D01*
X23698Y-19070D01*
X23973Y-19165D02*
X23870Y-19165D01*
X23921Y-19165D02*
X23921Y-18965D01*
X23904Y-18993D01*
X23887Y-19012D01*
X23870Y-19022D01*
X24144Y-19165D02*
X24041Y-19165D01*
X24093Y-19165D02*
X24093Y-18965D01*
X24075Y-18993D01*
X24058Y-19012D01*
X24041Y-19022D01*
X23801Y-21114D02*
X23741Y-21018D01*
X23698Y-21114D02*
X23698Y-20914D01*
X23767Y-20914D01*
X23784Y-20923D01*
X23793Y-20933D01*
X23801Y-20952D01*
X23801Y-20980D01*
X23793Y-20999D01*
X23784Y-21009D01*
X23767Y-21018D01*
X23698Y-21018D01*
X23973Y-21114D02*
X23870Y-21114D01*
X23921Y-21114D02*
X23921Y-20914D01*
X23904Y-20942D01*
X23887Y-20961D01*
X23870Y-20971D01*
X24041Y-20933D02*
X24050Y-20923D01*
X24067Y-20914D01*
X24110Y-20914D01*
X24127Y-20923D01*
X24135Y-20933D01*
X24144Y-20952D01*
X24144Y-20971D01*
X24135Y-20999D01*
X24033Y-21114D01*
X24144Y-21114D01*
X23781Y-23043D02*
X23721Y-22947D01*
X23679Y-23043D02*
X23679Y-22843D01*
X23747Y-22843D01*
X23764Y-22852D01*
X23773Y-22862D01*
X23781Y-22881D01*
X23781Y-22909D01*
X23773Y-22928D01*
X23764Y-22938D01*
X23747Y-22947D01*
X23679Y-22947D01*
X23953Y-23043D02*
X23850Y-23043D01*
X23901Y-23043D02*
X23901Y-22843D01*
X23884Y-22871D01*
X23867Y-22890D01*
X23850Y-22900D01*
X24013Y-22843D02*
X24124Y-22843D01*
X24064Y-22919D01*
X24090Y-22919D01*
X24107Y-22928D01*
X24116Y-22938D01*
X24124Y-22957D01*
X24124Y-23005D01*
X24116Y-23024D01*
X24107Y-23033D01*
X24090Y-23043D01*
X24039Y-23043D01*
X24021Y-23033D01*
X24013Y-23024D01*
X23840Y-25011D02*
X23780Y-24916D01*
X23738Y-25011D02*
X23738Y-24811D01*
X23806Y-24811D01*
X23823Y-24821D01*
X23832Y-24830D01*
X23840Y-24849D01*
X23840Y-24878D01*
X23832Y-24897D01*
X23823Y-24906D01*
X23806Y-24916D01*
X23738Y-24916D01*
X24012Y-25011D02*
X23909Y-25011D01*
X23960Y-25011D02*
X23960Y-24811D01*
X23943Y-24840D01*
X23926Y-24859D01*
X23909Y-24868D01*
X24166Y-24878D02*
X24166Y-25011D01*
X24123Y-24802D02*
X24080Y-24945D01*
X24192Y-24945D01*
X23801Y-26980D02*
X23741Y-26885D01*
X23698Y-26980D02*
X23698Y-26780D01*
X23767Y-26780D01*
X23784Y-26789D01*
X23793Y-26799D01*
X23801Y-26818D01*
X23801Y-26846D01*
X23793Y-26865D01*
X23784Y-26875D01*
X23767Y-26885D01*
X23698Y-26885D01*
X23973Y-26980D02*
X23870Y-26980D01*
X23921Y-26980D02*
X23921Y-26780D01*
X23904Y-26808D01*
X23887Y-26827D01*
X23870Y-26837D01*
X24135Y-26780D02*
X24050Y-26780D01*
X24041Y-26875D01*
X24050Y-26865D01*
X24067Y-26856D01*
X24110Y-26856D01*
X24127Y-26865D01*
X24135Y-26875D01*
X24144Y-26894D01*
X24144Y-26942D01*
X24135Y-26961D01*
X24127Y-26970D01*
X24110Y-26980D01*
X24067Y-26980D01*
X24050Y-26970D01*
X24041Y-26961D01*
X20061Y-29913D02*
X20001Y-29818D01*
X19958Y-29913D02*
X19958Y-29713D01*
X20027Y-29713D01*
X20044Y-29722D01*
X20052Y-29732D01*
X20061Y-29751D01*
X20061Y-29779D01*
X20052Y-29799D01*
X20044Y-29808D01*
X20027Y-29818D01*
X19958Y-29818D01*
X20232Y-29913D02*
X20130Y-29913D01*
X20181Y-29913D02*
X20181Y-29713D01*
X20164Y-29741D01*
X20147Y-29760D01*
X20130Y-29770D01*
X20387Y-29713D02*
X20352Y-29713D01*
X20335Y-29722D01*
X20327Y-29732D01*
X20310Y-29760D01*
X20301Y-29799D01*
X20301Y-29875D01*
X20310Y-29894D01*
X20318Y-29903D01*
X20335Y-29913D01*
X20370Y-29913D01*
X20387Y-29903D01*
X20395Y-29894D01*
X20404Y-29875D01*
X20404Y-29827D01*
X20395Y-29808D01*
X20387Y-29799D01*
X20370Y-29789D01*
X20335Y-29789D01*
X20318Y-29799D01*
X20310Y-29808D01*
X20301Y-29827D01*
X21466Y-29815D02*
X21457Y-29825D01*
X21431Y-29834D01*
X21414Y-29834D01*
X21388Y-29825D01*
X21371Y-29805D01*
X21363Y-29786D01*
X21354Y-29748D01*
X21354Y-29720D01*
X21363Y-29682D01*
X21371Y-29663D01*
X21388Y-29644D01*
X21414Y-29634D01*
X21431Y-29634D01*
X21457Y-29644D01*
X21466Y-29653D01*
X21637Y-29834D02*
X21534Y-29834D01*
X21586Y-29834D02*
X21586Y-29634D01*
X21568Y-29663D01*
X21551Y-29682D01*
X21534Y-29691D01*
X20993Y-39402D02*
X20985Y-39411D01*
X20959Y-39421D01*
X20942Y-39421D01*
X20916Y-39411D01*
X20899Y-39392D01*
X20890Y-39373D01*
X20882Y-39335D01*
X20882Y-39306D01*
X20890Y-39268D01*
X20899Y-39249D01*
X20916Y-39230D01*
X20942Y-39221D01*
X20959Y-39221D01*
X20985Y-39230D01*
X20993Y-39240D01*
X21053Y-39221D02*
X21165Y-39221D01*
X21105Y-39297D01*
X21130Y-39297D01*
X21147Y-39306D01*
X21156Y-39316D01*
X21165Y-39335D01*
X21165Y-39383D01*
X21156Y-39402D01*
X21147Y-39411D01*
X21130Y-39421D01*
X21079Y-39421D01*
X21062Y-39411D01*
X21053Y-39402D01*
X20954Y-37847D02*
X20945Y-37856D01*
X20919Y-37866D01*
X20902Y-37866D01*
X20877Y-37856D01*
X20859Y-37837D01*
X20851Y-37818D01*
X20842Y-37780D01*
X20842Y-37751D01*
X20851Y-37713D01*
X20859Y-37694D01*
X20877Y-37675D01*
X20902Y-37666D01*
X20919Y-37666D01*
X20945Y-37675D01*
X20954Y-37685D01*
X21108Y-37732D02*
X21108Y-37866D01*
X21065Y-37656D02*
X21022Y-37799D01*
X21134Y-37799D01*
X26264Y-40582D02*
X26264Y-40382D01*
X26307Y-40382D01*
X26333Y-40392D01*
X26350Y-40411D01*
X26359Y-40430D01*
X26367Y-40468D01*
X26367Y-40496D01*
X26359Y-40534D01*
X26350Y-40554D01*
X26333Y-40573D01*
X26307Y-40582D01*
X26264Y-40582D01*
X26539Y-40582D02*
X26436Y-40582D01*
X26487Y-40582D02*
X26487Y-40382D01*
X26470Y-40411D01*
X26453Y-40430D01*
X26436Y-40439D01*
X26225Y-39618D02*
X26225Y-39418D01*
X26268Y-39418D01*
X26293Y-39427D01*
X26311Y-39446D01*
X26319Y-39465D01*
X26328Y-39503D01*
X26328Y-39532D01*
X26319Y-39570D01*
X26311Y-39589D01*
X26293Y-39608D01*
X26268Y-39618D01*
X26225Y-39618D01*
X26396Y-39437D02*
X26405Y-39427D01*
X26422Y-39418D01*
X26465Y-39418D01*
X26482Y-39427D01*
X26491Y-39437D01*
X26499Y-39456D01*
X26499Y-39475D01*
X26491Y-39503D01*
X26388Y-39618D01*
X26499Y-39618D01*
G54D23*
X24094Y-12850D02*
X24094Y-12250D01*
X24322Y-12250D01*
X24379Y-12278D01*
X24408Y-12307D01*
X24437Y-12364D01*
X24437Y-12450D01*
X24408Y-12507D01*
X24379Y-12535D01*
X24322Y-12564D01*
X24094Y-12564D01*
X24637Y-12250D02*
X25037Y-12250D01*
X24637Y-12850D01*
X25037Y-12850D01*
X25579Y-12850D02*
X25237Y-12850D01*
X25408Y-12850D02*
X25408Y-12250D01*
X25351Y-12335D01*
X25294Y-12393D01*
X25237Y-12421D01*
X24338Y-10829D02*
X24795Y-10829D01*
X18512Y-10829D02*
X18969Y-10829D01*
X18741Y-11058D02*
X18741Y-10601D01*
X16837Y-38254D02*
X17237Y-38854D01*
X17237Y-38254D02*
X16837Y-38854D01*
X17779Y-38854D02*
X17437Y-38854D01*
X17608Y-38854D02*
X17608Y-38254D01*
X17551Y-38339D01*
X17494Y-38396D01*
X17437Y-38425D01*
G54D22*
X16721Y-43890D02*
X16713Y-43899D01*
X16687Y-43909D01*
X16670Y-43909D01*
X16644Y-43899D01*
X16627Y-43880D01*
X16619Y-43861D01*
X16610Y-43823D01*
X16610Y-43795D01*
X16619Y-43756D01*
X16627Y-43737D01*
X16644Y-43718D01*
X16670Y-43709D01*
X16687Y-43709D01*
X16713Y-43718D01*
X16721Y-43728D01*
X16884Y-43709D02*
X16799Y-43709D01*
X16790Y-43804D01*
X16799Y-43795D01*
X16816Y-43785D01*
X16859Y-43785D01*
X16876Y-43795D01*
X16884Y-43804D01*
X16893Y-43823D01*
X16893Y-43871D01*
X16884Y-43890D01*
X16876Y-43899D01*
X16859Y-43909D01*
X16816Y-43909D01*
X16799Y-43899D01*
X16790Y-43890D01*
G54D11*
X25078Y-44472D02*
X25078Y-44072D01*
X25307Y-44472D02*
X25135Y-44243D01*
X25307Y-44072D02*
X25078Y-44300D01*
X25688Y-44472D02*
X25459Y-44472D01*
X25574Y-44472D02*
X25574Y-44072D01*
X25535Y-44129D01*
X25497Y-44167D01*
X25459Y-44186D01*
G54D24*
X18487Y-41238D02*
X18477Y-41249D01*
X18446Y-41259D01*
X18425Y-41259D01*
X18394Y-41249D01*
X18373Y-41228D01*
X18363Y-41207D01*
X18353Y-41166D01*
X18353Y-41135D01*
X18363Y-41094D01*
X18373Y-41073D01*
X18394Y-41052D01*
X18425Y-41042D01*
X18446Y-41042D01*
X18477Y-41052D01*
X18487Y-41063D01*
X18570Y-41063D02*
X18580Y-41052D01*
X18601Y-41042D01*
X18652Y-41042D01*
X18673Y-41052D01*
X18683Y-41063D01*
X18694Y-41083D01*
X18694Y-41104D01*
X18683Y-41135D01*
X18559Y-41259D01*
X18694Y-41259D01*
G54D25*
X16726Y-46357D02*
X16726Y-46707D01*
X16749Y-46749D01*
X16771Y-46769D01*
X16816Y-46790D01*
X16906Y-46790D01*
X16951Y-46769D01*
X16974Y-46749D01*
X16996Y-46707D01*
X16996Y-46357D01*
X17469Y-46790D02*
X17199Y-46790D01*
X17334Y-46790D02*
X17334Y-46357D01*
X17289Y-46419D01*
X17244Y-46460D01*
X17199Y-46481D01*
G54D26*
X21328Y-29112D02*
X21328Y-28812D01*
X21400Y-28812D01*
X21442Y-28826D01*
X21471Y-28854D01*
X21485Y-28883D01*
X21500Y-28940D01*
X21500Y-28983D01*
X21485Y-29040D01*
X21471Y-29069D01*
X21442Y-29097D01*
X21400Y-29112D01*
X21328Y-29112D01*
X21785Y-29112D02*
X21614Y-29112D01*
X21700Y-29112D02*
X21700Y-28812D01*
X21671Y-28854D01*
X21642Y-28883D01*
X21614Y-28897D01*
X21900Y-28840D02*
X21914Y-28826D01*
X21942Y-28812D01*
X22014Y-28812D01*
X22042Y-28826D01*
X22057Y-28840D01*
X22071Y-28869D01*
X22071Y-28897D01*
X22057Y-28940D01*
X21885Y-29112D01*
X22071Y-29112D01*
X21289Y-27261D02*
X21289Y-26961D01*
X21360Y-26961D01*
X21403Y-26975D01*
X21432Y-27004D01*
X21446Y-27033D01*
X21460Y-27090D01*
X21460Y-27133D01*
X21446Y-27190D01*
X21432Y-27218D01*
X21403Y-27247D01*
X21360Y-27261D01*
X21289Y-27261D01*
X21746Y-27261D02*
X21574Y-27261D01*
X21660Y-27261D02*
X21660Y-26961D01*
X21632Y-27004D01*
X21603Y-27033D01*
X21574Y-27047D01*
X22032Y-27261D02*
X21860Y-27261D01*
X21946Y-27261D02*
X21946Y-26961D01*
X21917Y-27004D01*
X21889Y-27033D01*
X21860Y-27047D01*
X21249Y-25253D02*
X21249Y-24953D01*
X21321Y-24953D01*
X21364Y-24968D01*
X21392Y-24996D01*
X21407Y-25025D01*
X21421Y-25082D01*
X21421Y-25125D01*
X21407Y-25182D01*
X21392Y-25210D01*
X21364Y-25239D01*
X21321Y-25253D01*
X21249Y-25253D01*
X21707Y-25253D02*
X21535Y-25253D01*
X21621Y-25253D02*
X21621Y-24953D01*
X21592Y-24996D01*
X21564Y-25025D01*
X21535Y-25039D01*
X21892Y-24953D02*
X21921Y-24953D01*
X21949Y-24968D01*
X21964Y-24982D01*
X21978Y-25010D01*
X21992Y-25068D01*
X21992Y-25139D01*
X21978Y-25196D01*
X21964Y-25225D01*
X21949Y-25239D01*
X21921Y-25253D01*
X21892Y-25253D01*
X21864Y-25239D01*
X21849Y-25225D01*
X21835Y-25196D01*
X21821Y-25139D01*
X21821Y-25068D01*
X21835Y-25010D01*
X21849Y-24982D01*
X21864Y-24968D01*
X21892Y-24953D01*
X21392Y-23285D02*
X21392Y-22985D01*
X21464Y-22985D01*
X21507Y-22999D01*
X21535Y-23028D01*
X21549Y-23056D01*
X21564Y-23113D01*
X21564Y-23156D01*
X21549Y-23213D01*
X21535Y-23242D01*
X21507Y-23271D01*
X21464Y-23285D01*
X21392Y-23285D01*
X21707Y-23285D02*
X21764Y-23285D01*
X21792Y-23271D01*
X21807Y-23256D01*
X21835Y-23213D01*
X21849Y-23156D01*
X21849Y-23042D01*
X21835Y-23013D01*
X21821Y-22999D01*
X21792Y-22985D01*
X21735Y-22985D01*
X21707Y-22999D01*
X21692Y-23013D01*
X21678Y-23042D01*
X21678Y-23113D01*
X21692Y-23142D01*
X21707Y-23156D01*
X21735Y-23171D01*
X21792Y-23171D01*
X21821Y-23156D01*
X21835Y-23142D01*
X21849Y-23113D01*
X21432Y-21316D02*
X21432Y-21016D01*
X21503Y-21016D01*
X21546Y-21031D01*
X21574Y-21059D01*
X21589Y-21088D01*
X21603Y-21145D01*
X21603Y-21188D01*
X21589Y-21245D01*
X21574Y-21273D01*
X21546Y-21302D01*
X21503Y-21316D01*
X21432Y-21316D01*
X21774Y-21145D02*
X21746Y-21131D01*
X21732Y-21116D01*
X21717Y-21088D01*
X21717Y-21073D01*
X21732Y-21045D01*
X21746Y-21031D01*
X21774Y-21016D01*
X21832Y-21016D01*
X21860Y-21031D01*
X21874Y-21045D01*
X21889Y-21073D01*
X21889Y-21088D01*
X21874Y-21116D01*
X21860Y-21131D01*
X21832Y-21145D01*
X21774Y-21145D01*
X21746Y-21159D01*
X21732Y-21173D01*
X21717Y-21202D01*
X21717Y-21259D01*
X21732Y-21288D01*
X21746Y-21302D01*
X21774Y-21316D01*
X21832Y-21316D01*
X21860Y-21302D01*
X21874Y-21288D01*
X21889Y-21259D01*
X21889Y-21202D01*
X21874Y-21173D01*
X21860Y-21159D01*
X21832Y-21145D01*
X21432Y-19308D02*
X21432Y-19008D01*
X21503Y-19008D01*
X21546Y-19023D01*
X21574Y-19051D01*
X21589Y-19080D01*
X21603Y-19137D01*
X21603Y-19180D01*
X21589Y-19237D01*
X21574Y-19266D01*
X21546Y-19294D01*
X21503Y-19308D01*
X21432Y-19308D01*
X21703Y-19008D02*
X21903Y-19008D01*
X21774Y-19308D01*
X21432Y-17379D02*
X21432Y-17079D01*
X21503Y-17079D01*
X21546Y-17094D01*
X21574Y-17122D01*
X21589Y-17151D01*
X21603Y-17208D01*
X21603Y-17251D01*
X21589Y-17308D01*
X21574Y-17336D01*
X21546Y-17365D01*
X21503Y-17379D01*
X21432Y-17379D01*
X21860Y-17079D02*
X21803Y-17079D01*
X21774Y-17094D01*
X21760Y-17108D01*
X21732Y-17151D01*
X21717Y-17208D01*
X21717Y-17322D01*
X21732Y-17351D01*
X21746Y-17365D01*
X21774Y-17379D01*
X21832Y-17379D01*
X21860Y-17365D01*
X21874Y-17351D01*
X21889Y-17322D01*
X21889Y-17251D01*
X21874Y-17222D01*
X21860Y-17208D01*
X21832Y-17194D01*
X21774Y-17194D01*
X21746Y-17208D01*
X21732Y-17222D01*
X21717Y-17251D01*
X21432Y-15411D02*
X21432Y-15111D01*
X21503Y-15111D01*
X21546Y-15125D01*
X21574Y-15154D01*
X21589Y-15182D01*
X21603Y-15239D01*
X21603Y-15282D01*
X21589Y-15339D01*
X21574Y-15368D01*
X21546Y-15397D01*
X21503Y-15411D01*
X21432Y-15411D01*
X21874Y-15111D02*
X21732Y-15111D01*
X21717Y-15254D01*
X21732Y-15239D01*
X21760Y-15225D01*
X21832Y-15225D01*
X21860Y-15239D01*
X21874Y-15254D01*
X21889Y-15282D01*
X21889Y-15354D01*
X21874Y-15382D01*
X21860Y-15397D01*
X21832Y-15411D01*
X21760Y-15411D01*
X21732Y-15397D01*
X21717Y-15382D01*
M02*
