G04 (created by PCBNEW (2013-mar-13)-testing) date Sun 16 Jun 2013 12:52:20 AM NZST*
%MOIN*%
G04 Gerber Fmt 3.4, Leading zero omitted, Abs format*
%FSLAX34Y34*%
G01*
G70*
G90*
G04 APERTURE LIST*
%ADD10C,0.005906*%
%ADD11R,0.125984X0.125984*%
%ADD12C,0.035400*%
%ADD13R,0.118100X0.118100*%
%ADD14C,0.118100*%
%ADD15C,0.035000*%
%ADD16C,0.019685*%
%ADD17C,0.039370*%
%ADD18C,0.010000*%
%ADD19C,0.009843*%
G04 APERTURE END LIST*
G54D10*
G54D11*
X31496Y-39960D03*
G54D12*
X32362Y-47047D03*
X30630Y-47047D03*
G54D13*
X32992Y-21653D03*
G54D14*
X30000Y-21653D03*
G54D15*
X33700Y-44921D03*
X29488Y-40118D03*
X33759Y-41909D03*
X32874Y-40078D03*
X29763Y-41535D03*
X30118Y-44488D03*
X31220Y-41653D03*
X29015Y-37047D03*
X30866Y-38425D03*
X31771Y-41929D03*
X30393Y-38385D03*
X30118Y-41889D03*
X30472Y-37755D03*
X30826Y-41377D03*
X31496Y-34212D03*
X31496Y-37933D03*
X31889Y-37598D03*
X31496Y-32637D03*
X32244Y-37992D03*
X31496Y-31082D03*
X32598Y-37637D03*
X31496Y-29527D03*
X34606Y-42519D03*
X32559Y-41377D03*
X34114Y-37283D03*
X33070Y-37381D03*
X32874Y-44488D03*
X29803Y-39803D03*
X28100Y-41446D03*
X28100Y-38080D03*
X29911Y-37214D03*
X28759Y-39763D03*
X31614Y-41299D03*
X33720Y-38090D03*
G54D16*
X30590Y-44960D02*
X30118Y-44488D01*
X33661Y-44960D02*
X30590Y-44960D01*
X33700Y-44921D02*
X33661Y-44960D01*
G54D17*
X28287Y-39035D02*
X28287Y-38858D01*
X28287Y-38858D02*
X28700Y-38444D01*
X28838Y-44488D02*
X28641Y-44291D01*
X28641Y-44291D02*
X28641Y-40984D01*
X28641Y-40984D02*
X28287Y-40629D01*
X28287Y-40629D02*
X28287Y-39035D01*
X28503Y-20570D02*
X29133Y-19940D01*
X29133Y-19940D02*
X32480Y-19940D01*
X32480Y-19940D02*
X32992Y-20452D01*
X32992Y-20452D02*
X32992Y-21653D01*
X30118Y-44488D02*
X28838Y-44488D01*
X28503Y-37401D02*
X28503Y-20570D01*
X28700Y-37598D02*
X28503Y-37401D01*
X28700Y-38444D02*
X28700Y-37598D01*
X29606Y-41535D02*
X29606Y-41456D01*
X29488Y-41338D02*
X29488Y-40118D01*
X29606Y-41456D02*
X29488Y-41338D01*
G54D16*
X33582Y-41909D02*
X33759Y-41909D01*
X32874Y-41200D02*
X33582Y-41909D01*
X32874Y-40078D02*
X32874Y-41200D01*
G54D18*
X29606Y-41535D02*
X29763Y-41535D01*
G54D17*
X30118Y-44015D02*
X30118Y-44488D01*
X29606Y-41535D02*
X29606Y-43503D01*
X29606Y-43503D02*
X30118Y-44015D01*
G54D18*
X31220Y-41653D02*
X31181Y-41653D01*
X31181Y-38287D02*
X30964Y-38070D01*
X30964Y-38070D02*
X29315Y-38070D01*
X29315Y-38070D02*
X29015Y-37770D01*
X29015Y-36968D02*
X29015Y-37770D01*
X31181Y-38543D02*
X31181Y-38287D01*
X30985Y-38738D02*
X31181Y-38543D01*
X30831Y-38738D02*
X30985Y-38738D01*
X30511Y-39058D02*
X30831Y-38738D01*
X30511Y-39058D02*
X30511Y-41574D01*
X30708Y-41771D02*
X30511Y-41574D01*
X31062Y-41771D02*
X30708Y-41771D01*
X31181Y-41653D02*
X31062Y-41771D01*
G54D19*
X30078Y-40984D02*
X30078Y-40529D01*
G54D18*
X30078Y-40529D02*
X30314Y-40293D01*
X30314Y-40293D02*
X30314Y-38976D01*
X30314Y-38976D02*
X30866Y-38425D01*
X30629Y-41968D02*
X30314Y-41653D01*
X30078Y-40984D02*
X30314Y-41220D01*
X30314Y-41220D02*
X30314Y-41653D01*
X30629Y-41968D02*
X31732Y-41968D01*
X31732Y-41968D02*
X31771Y-41929D01*
X31732Y-41968D02*
X31771Y-41929D01*
G54D19*
X30118Y-38661D02*
X30118Y-40039D01*
G54D18*
X30118Y-38661D02*
X30393Y-38385D01*
X29881Y-40275D02*
X29881Y-41102D01*
X29881Y-41102D02*
X30118Y-41338D01*
X30118Y-41338D02*
X30118Y-41889D01*
G54D19*
X30118Y-40039D02*
X29881Y-40275D01*
X31358Y-38602D02*
X31358Y-38603D01*
G54D18*
X31358Y-38602D02*
X31358Y-38208D01*
X31358Y-38208D02*
X31043Y-37893D01*
X31043Y-37893D02*
X30610Y-37893D01*
X30610Y-37893D02*
X30472Y-37755D01*
G54D19*
X30688Y-41240D02*
X30826Y-41377D01*
X30688Y-39272D02*
X30688Y-41240D01*
X31358Y-38603D02*
X30688Y-39272D01*
X30846Y-41358D02*
X30826Y-41377D01*
G54D18*
X31496Y-37933D02*
X31496Y-34212D01*
X31811Y-37519D02*
X31889Y-37598D01*
X31811Y-32952D02*
X31496Y-32637D01*
X31811Y-37204D02*
X31811Y-32952D01*
X31811Y-37204D02*
X31811Y-37519D01*
X32244Y-37992D02*
X32244Y-37814D01*
X31988Y-31574D02*
X31496Y-31082D01*
X31988Y-37125D02*
X31988Y-31574D01*
X32303Y-37440D02*
X31988Y-37125D01*
X32303Y-37755D02*
X32303Y-37440D01*
X32244Y-37814D02*
X32303Y-37755D01*
X32598Y-37637D02*
X32598Y-37500D01*
X32185Y-30216D02*
X31496Y-29527D01*
X32185Y-37086D02*
X32185Y-30216D01*
X32598Y-37500D02*
X32185Y-37086D01*
X33700Y-42519D02*
X34606Y-42519D01*
X32559Y-41377D02*
X33700Y-42519D01*
X33070Y-37381D02*
X34015Y-37381D01*
X34015Y-37381D02*
X34114Y-37283D01*
X33070Y-37381D02*
X33129Y-37322D01*
G54D16*
X32480Y-44094D02*
X32480Y-41889D01*
X32874Y-44488D02*
X32480Y-44094D01*
X32480Y-41889D02*
X31889Y-41299D01*
X28759Y-39763D02*
X28996Y-39527D01*
X29803Y-39724D02*
X29803Y-39803D01*
X29606Y-39527D02*
X29803Y-39724D01*
X28996Y-39527D02*
X29606Y-39527D01*
G54D19*
X28090Y-41496D02*
X28090Y-41456D01*
X28090Y-41456D02*
X28100Y-41446D01*
X28100Y-38080D02*
X28090Y-38070D01*
X29911Y-37214D02*
X29921Y-37224D01*
G54D16*
X28759Y-39763D02*
X28759Y-39744D01*
X31614Y-41299D02*
X31889Y-41299D01*
X31889Y-41299D02*
X32480Y-40708D01*
X33031Y-38090D02*
X33720Y-38090D01*
X32480Y-38641D02*
X33031Y-38090D01*
X32480Y-40708D02*
X32480Y-38641D01*
G54D10*
G36*
X29968Y-38370D02*
X29968Y-38386D01*
X29905Y-38449D01*
X29868Y-38494D01*
X29841Y-38546D01*
X29824Y-38602D01*
X29818Y-38660D01*
X29818Y-38668D01*
X29818Y-39819D01*
X29805Y-39803D01*
X29738Y-39747D01*
X29661Y-39706D01*
X29578Y-39680D01*
X29491Y-39671D01*
X29404Y-39679D01*
X29320Y-39703D01*
X29243Y-39744D01*
X29175Y-39798D01*
X29119Y-39865D01*
X29077Y-39942D01*
X29051Y-40025D01*
X29041Y-40111D01*
X29041Y-40118D01*
X29041Y-40788D01*
X29035Y-40777D01*
X29016Y-40740D01*
X29015Y-40739D01*
X29013Y-40736D01*
X28987Y-40704D01*
X28962Y-40672D01*
X28958Y-40669D01*
X28958Y-40669D01*
X28958Y-40669D01*
X28957Y-40668D01*
X28734Y-40444D01*
X28734Y-39043D01*
X29016Y-38760D01*
X29042Y-38728D01*
X29069Y-38697D01*
X29070Y-38695D01*
X29072Y-38693D01*
X29091Y-38657D01*
X29111Y-38620D01*
X29112Y-38618D01*
X29113Y-38616D01*
X29125Y-38577D01*
X29137Y-38537D01*
X29138Y-38535D01*
X29138Y-38533D01*
X29142Y-38492D01*
X29147Y-38451D01*
X29147Y-38446D01*
X29147Y-38446D01*
X29147Y-38446D01*
X29147Y-38444D01*
X29147Y-38319D01*
X29147Y-38319D01*
X29148Y-38320D01*
X29173Y-38333D01*
X29197Y-38346D01*
X29199Y-38347D01*
X29200Y-38347D01*
X29226Y-38355D01*
X29253Y-38364D01*
X29254Y-38364D01*
X29256Y-38364D01*
X29284Y-38367D01*
X29311Y-38370D01*
X29314Y-38370D01*
X29314Y-38370D01*
X29314Y-38370D01*
X29315Y-38370D01*
X29968Y-38370D01*
X29968Y-38370D01*
G37*
G54D18*
X29968Y-38370D02*
X29968Y-38386D01*
X29905Y-38449D01*
X29868Y-38494D01*
X29841Y-38546D01*
X29824Y-38602D01*
X29818Y-38660D01*
X29818Y-38668D01*
X29818Y-39819D01*
X29805Y-39803D01*
X29738Y-39747D01*
X29661Y-39706D01*
X29578Y-39680D01*
X29491Y-39671D01*
X29404Y-39679D01*
X29320Y-39703D01*
X29243Y-39744D01*
X29175Y-39798D01*
X29119Y-39865D01*
X29077Y-39942D01*
X29051Y-40025D01*
X29041Y-40111D01*
X29041Y-40118D01*
X29041Y-40788D01*
X29035Y-40777D01*
X29016Y-40740D01*
X29015Y-40739D01*
X29013Y-40736D01*
X28987Y-40704D01*
X28962Y-40672D01*
X28958Y-40669D01*
X28958Y-40669D01*
X28958Y-40669D01*
X28957Y-40668D01*
X28734Y-40444D01*
X28734Y-39043D01*
X29016Y-38760D01*
X29042Y-38728D01*
X29069Y-38697D01*
X29070Y-38695D01*
X29072Y-38693D01*
X29091Y-38657D01*
X29111Y-38620D01*
X29112Y-38618D01*
X29113Y-38616D01*
X29125Y-38577D01*
X29137Y-38537D01*
X29138Y-38535D01*
X29138Y-38533D01*
X29142Y-38492D01*
X29147Y-38451D01*
X29147Y-38446D01*
X29147Y-38446D01*
X29147Y-38446D01*
X29147Y-38444D01*
X29147Y-38319D01*
X29147Y-38319D01*
X29148Y-38320D01*
X29173Y-38333D01*
X29197Y-38346D01*
X29199Y-38347D01*
X29200Y-38347D01*
X29226Y-38355D01*
X29253Y-38364D01*
X29254Y-38364D01*
X29256Y-38364D01*
X29284Y-38367D01*
X29311Y-38370D01*
X29314Y-38370D01*
X29314Y-38370D01*
X29314Y-38370D01*
X29315Y-38370D01*
X29968Y-38370D01*
G54D10*
G36*
X35163Y-48746D02*
X35031Y-48746D01*
X35031Y-42478D01*
X35015Y-42396D01*
X34983Y-42319D01*
X34937Y-42249D01*
X34878Y-42190D01*
X34809Y-42144D01*
X34732Y-42111D01*
X34650Y-42094D01*
X34567Y-42094D01*
X34539Y-42099D01*
X34539Y-37241D01*
X34523Y-37160D01*
X34491Y-37082D01*
X34445Y-37013D01*
X34386Y-36954D01*
X34317Y-36907D01*
X34240Y-36875D01*
X34158Y-36858D01*
X34075Y-36858D01*
X33993Y-36873D01*
X33916Y-36905D01*
X33846Y-36950D01*
X33787Y-37008D01*
X33739Y-37077D01*
X33738Y-37081D01*
X33371Y-37081D01*
X33343Y-37052D01*
X33273Y-37006D01*
X33197Y-36973D01*
X33115Y-36957D01*
X33032Y-36956D01*
X32950Y-36972D01*
X32873Y-37003D01*
X32803Y-37049D01*
X32743Y-37107D01*
X32697Y-37174D01*
X32485Y-36962D01*
X32485Y-30216D01*
X32482Y-30188D01*
X32479Y-30161D01*
X32479Y-30159D01*
X32479Y-30158D01*
X32471Y-30131D01*
X32463Y-30105D01*
X32462Y-30103D01*
X32462Y-30102D01*
X32449Y-30077D01*
X32436Y-30053D01*
X32435Y-30051D01*
X32434Y-30050D01*
X32417Y-30029D01*
X32400Y-30007D01*
X32397Y-30005D01*
X32397Y-30005D01*
X32397Y-30005D01*
X32397Y-30004D01*
X31920Y-29527D01*
X31921Y-29485D01*
X31904Y-29404D01*
X31873Y-29327D01*
X31827Y-29257D01*
X31768Y-29198D01*
X31699Y-29151D01*
X31622Y-29119D01*
X31540Y-29102D01*
X31457Y-29102D01*
X31375Y-29117D01*
X31298Y-29149D01*
X31228Y-29194D01*
X31168Y-29253D01*
X31121Y-29321D01*
X31088Y-29398D01*
X31071Y-29479D01*
X31070Y-29563D01*
X31085Y-29645D01*
X31116Y-29722D01*
X31161Y-29792D01*
X31219Y-29852D01*
X31287Y-29900D01*
X31364Y-29933D01*
X31445Y-29951D01*
X31496Y-29952D01*
X31885Y-30340D01*
X31885Y-30911D01*
X31873Y-30882D01*
X31827Y-30812D01*
X31768Y-30753D01*
X31699Y-30707D01*
X31622Y-30674D01*
X31540Y-30657D01*
X31457Y-30657D01*
X31375Y-30672D01*
X31298Y-30704D01*
X31228Y-30749D01*
X31168Y-30808D01*
X31121Y-30876D01*
X31088Y-30953D01*
X31071Y-31035D01*
X31070Y-31118D01*
X31085Y-31200D01*
X31116Y-31277D01*
X31161Y-31347D01*
X31219Y-31407D01*
X31287Y-31455D01*
X31364Y-31488D01*
X31445Y-31506D01*
X31496Y-31507D01*
X31688Y-31699D01*
X31688Y-32257D01*
X31622Y-32229D01*
X31540Y-32213D01*
X31457Y-32212D01*
X31375Y-32228D01*
X31298Y-32259D01*
X31228Y-32304D01*
X31168Y-32363D01*
X31121Y-32432D01*
X31088Y-32508D01*
X31071Y-32590D01*
X31070Y-32673D01*
X31085Y-32755D01*
X31116Y-32833D01*
X31161Y-32903D01*
X31219Y-32963D01*
X31287Y-33010D01*
X31364Y-33043D01*
X31445Y-33061D01*
X31496Y-33062D01*
X31511Y-33077D01*
X31511Y-33787D01*
X31457Y-33787D01*
X31375Y-33802D01*
X31298Y-33834D01*
X31228Y-33879D01*
X31168Y-33938D01*
X31121Y-34006D01*
X31088Y-34083D01*
X31071Y-34164D01*
X31070Y-34248D01*
X31085Y-34330D01*
X31116Y-34407D01*
X31161Y-34477D01*
X31196Y-34513D01*
X31196Y-37631D01*
X31192Y-37635D01*
X31185Y-37631D01*
X31161Y-37617D01*
X31159Y-37617D01*
X31158Y-37616D01*
X31132Y-37608D01*
X31105Y-37600D01*
X31104Y-37600D01*
X31102Y-37599D01*
X31075Y-37596D01*
X31047Y-37593D01*
X31044Y-37593D01*
X31044Y-37593D01*
X31044Y-37593D01*
X31043Y-37593D01*
X30865Y-37593D01*
X30849Y-37555D01*
X30840Y-37542D01*
X30840Y-21571D01*
X30808Y-21409D01*
X30745Y-21257D01*
X30654Y-21119D01*
X30538Y-21002D01*
X30401Y-20910D01*
X30249Y-20846D01*
X30088Y-20813D01*
X29923Y-20812D01*
X29761Y-20843D01*
X29608Y-20905D01*
X29470Y-20995D01*
X29353Y-21110D01*
X29259Y-21246D01*
X29195Y-21398D01*
X29160Y-21559D01*
X29158Y-21724D01*
X29188Y-21886D01*
X29248Y-22039D01*
X29338Y-22178D01*
X29452Y-22296D01*
X29588Y-22390D01*
X29739Y-22456D01*
X29900Y-22492D01*
X30064Y-22495D01*
X30227Y-22466D01*
X30380Y-22407D01*
X30520Y-22319D01*
X30639Y-22205D01*
X30734Y-22070D01*
X30801Y-21920D01*
X30837Y-21759D01*
X30840Y-21571D01*
X30840Y-37542D01*
X30803Y-37485D01*
X30744Y-37426D01*
X30675Y-37380D01*
X30598Y-37347D01*
X30517Y-37331D01*
X30433Y-37330D01*
X30351Y-37346D01*
X30274Y-37377D01*
X30204Y-37423D01*
X30145Y-37481D01*
X30098Y-37550D01*
X30065Y-37626D01*
X30048Y-37708D01*
X30047Y-37770D01*
X29440Y-37770D01*
X29315Y-37646D01*
X29315Y-37348D01*
X29339Y-37326D01*
X29387Y-37258D01*
X29420Y-37182D01*
X29439Y-37100D01*
X29440Y-37005D01*
X29424Y-36923D01*
X29392Y-36846D01*
X29346Y-36777D01*
X29287Y-36718D01*
X29218Y-36671D01*
X29142Y-36639D01*
X29060Y-36622D01*
X28977Y-36621D01*
X28950Y-36626D01*
X28950Y-20755D01*
X29318Y-20387D01*
X32295Y-20387D01*
X32545Y-20637D01*
X32545Y-20813D01*
X32376Y-20813D01*
X32328Y-20822D01*
X32283Y-20841D01*
X32242Y-20868D01*
X32207Y-20903D01*
X32180Y-20944D01*
X32161Y-20990D01*
X32151Y-21038D01*
X32151Y-21087D01*
X32151Y-22268D01*
X32161Y-22316D01*
X32180Y-22362D01*
X32207Y-22403D01*
X32242Y-22438D01*
X32283Y-22465D01*
X32328Y-22484D01*
X32376Y-22494D01*
X32426Y-22494D01*
X33607Y-22494D01*
X33655Y-22484D01*
X33700Y-22465D01*
X33741Y-22438D01*
X33776Y-22403D01*
X33804Y-22362D01*
X33822Y-22316D01*
X33832Y-22268D01*
X33832Y-22219D01*
X33832Y-21038D01*
X33822Y-20990D01*
X33804Y-20944D01*
X33776Y-20903D01*
X33741Y-20868D01*
X33700Y-20841D01*
X33655Y-20822D01*
X33607Y-20813D01*
X33557Y-20813D01*
X33438Y-20813D01*
X33438Y-20452D01*
X33434Y-20411D01*
X33431Y-20370D01*
X33430Y-20368D01*
X33430Y-20365D01*
X33418Y-20326D01*
X33406Y-20286D01*
X33405Y-20284D01*
X33405Y-20282D01*
X33385Y-20245D01*
X33366Y-20209D01*
X33365Y-20207D01*
X33364Y-20205D01*
X33338Y-20173D01*
X33312Y-20141D01*
X33309Y-20137D01*
X33309Y-20137D01*
X33309Y-20137D01*
X33308Y-20136D01*
X32796Y-19624D01*
X32764Y-19598D01*
X32732Y-19572D01*
X32730Y-19571D01*
X32728Y-19569D01*
X32692Y-19550D01*
X32656Y-19530D01*
X32654Y-19529D01*
X32652Y-19528D01*
X32612Y-19516D01*
X32573Y-19503D01*
X32570Y-19503D01*
X32568Y-19502D01*
X32527Y-19498D01*
X32486Y-19494D01*
X32481Y-19494D01*
X32481Y-19494D01*
X32481Y-19494D01*
X32480Y-19494D01*
X29133Y-19494D01*
X29092Y-19498D01*
X29051Y-19501D01*
X29049Y-19502D01*
X29047Y-19502D01*
X29007Y-19514D01*
X28967Y-19526D01*
X28965Y-19527D01*
X28963Y-19527D01*
X28927Y-19547D01*
X28890Y-19566D01*
X28888Y-19567D01*
X28886Y-19568D01*
X28854Y-19594D01*
X28822Y-19620D01*
X28819Y-19623D01*
X28818Y-19623D01*
X28818Y-19623D01*
X28817Y-19624D01*
X28187Y-20254D01*
X28161Y-20286D01*
X28135Y-20318D01*
X28134Y-20320D01*
X28132Y-20322D01*
X28113Y-20358D01*
X28093Y-20394D01*
X28092Y-20397D01*
X28091Y-20399D01*
X28079Y-20438D01*
X28066Y-20477D01*
X28066Y-20480D01*
X28065Y-20482D01*
X28061Y-20523D01*
X28057Y-20564D01*
X28057Y-20569D01*
X28057Y-20569D01*
X28057Y-20569D01*
X28057Y-20570D01*
X28057Y-37401D01*
X28061Y-37442D01*
X28064Y-37483D01*
X28065Y-37486D01*
X28065Y-37488D01*
X28077Y-37527D01*
X28089Y-37567D01*
X28090Y-37569D01*
X28090Y-37571D01*
X28110Y-37608D01*
X28129Y-37644D01*
X28130Y-37646D01*
X28131Y-37648D01*
X28157Y-37680D01*
X28183Y-37713D01*
X28186Y-37716D01*
X28186Y-37716D01*
X28186Y-37716D01*
X28187Y-37717D01*
X28253Y-37783D01*
X28253Y-38259D01*
X27971Y-38542D01*
X27945Y-38574D01*
X27918Y-38605D01*
X27917Y-38607D01*
X27916Y-38609D01*
X27896Y-38646D01*
X27876Y-38682D01*
X27875Y-38684D01*
X27874Y-38686D01*
X27862Y-38726D01*
X27850Y-38765D01*
X27850Y-38767D01*
X27849Y-38769D01*
X27845Y-38811D01*
X27840Y-38852D01*
X27840Y-38856D01*
X27840Y-38856D01*
X27840Y-38856D01*
X27840Y-38858D01*
X27840Y-39035D01*
X27840Y-40629D01*
X27844Y-40671D01*
X27848Y-40712D01*
X27848Y-40714D01*
X27849Y-40716D01*
X27860Y-40756D01*
X27872Y-40795D01*
X27873Y-40797D01*
X27874Y-40800D01*
X27893Y-40836D01*
X27912Y-40873D01*
X27914Y-40875D01*
X27915Y-40877D01*
X27941Y-40909D01*
X27967Y-40941D01*
X27970Y-40944D01*
X27970Y-40944D01*
X27970Y-40944D01*
X27971Y-40945D01*
X28194Y-41169D01*
X28194Y-44291D01*
X28198Y-44332D01*
X28202Y-44373D01*
X28203Y-44375D01*
X28203Y-44378D01*
X28215Y-44417D01*
X28226Y-44457D01*
X28227Y-44459D01*
X28228Y-44461D01*
X28247Y-44498D01*
X28266Y-44534D01*
X28268Y-44536D01*
X28269Y-44538D01*
X28295Y-44570D01*
X28321Y-44602D01*
X28324Y-44606D01*
X28324Y-44606D01*
X28324Y-44606D01*
X28325Y-44607D01*
X28522Y-44804D01*
X28554Y-44830D01*
X28586Y-44856D01*
X28588Y-44858D01*
X28590Y-44859D01*
X28626Y-44879D01*
X28662Y-44898D01*
X28664Y-44899D01*
X28666Y-44900D01*
X28706Y-44912D01*
X28745Y-44925D01*
X28748Y-44925D01*
X28750Y-44926D01*
X28791Y-44930D01*
X28832Y-44934D01*
X28836Y-44935D01*
X28837Y-44935D01*
X28837Y-44935D01*
X28838Y-44935D01*
X30072Y-44935D01*
X30344Y-45207D01*
X30369Y-45227D01*
X30393Y-45248D01*
X30395Y-45249D01*
X30396Y-45250D01*
X30425Y-45265D01*
X30453Y-45280D01*
X30455Y-45281D01*
X30456Y-45282D01*
X30487Y-45291D01*
X30518Y-45301D01*
X30519Y-45301D01*
X30521Y-45302D01*
X30553Y-45305D01*
X30585Y-45309D01*
X30589Y-45309D01*
X30589Y-45309D01*
X30589Y-45309D01*
X30590Y-45309D01*
X33526Y-45309D01*
X33568Y-45327D01*
X33650Y-45345D01*
X33733Y-45347D01*
X33815Y-45332D01*
X33893Y-45302D01*
X33963Y-45257D01*
X34024Y-45200D01*
X34072Y-45132D01*
X34106Y-45056D01*
X34124Y-44974D01*
X34125Y-44879D01*
X34109Y-44797D01*
X34077Y-44720D01*
X34031Y-44651D01*
X33973Y-44592D01*
X33903Y-44545D01*
X33827Y-44513D01*
X33745Y-44496D01*
X33662Y-44495D01*
X33580Y-44511D01*
X33502Y-44542D01*
X33433Y-44588D01*
X33408Y-44612D01*
X30734Y-44612D01*
X30564Y-44442D01*
X30564Y-44015D01*
X30560Y-43974D01*
X30557Y-43933D01*
X30556Y-43931D01*
X30556Y-43928D01*
X30544Y-43889D01*
X30533Y-43849D01*
X30531Y-43847D01*
X30531Y-43845D01*
X30511Y-43809D01*
X30492Y-43772D01*
X30491Y-43770D01*
X30490Y-43768D01*
X30464Y-43736D01*
X30438Y-43704D01*
X30435Y-43700D01*
X30435Y-43700D01*
X30435Y-43700D01*
X30434Y-43699D01*
X30053Y-43318D01*
X30053Y-42310D01*
X30067Y-42313D01*
X30150Y-42315D01*
X30232Y-42301D01*
X30310Y-42270D01*
X30381Y-42226D01*
X30423Y-42185D01*
X30439Y-42198D01*
X30460Y-42216D01*
X30461Y-42216D01*
X30463Y-42217D01*
X30487Y-42230D01*
X30511Y-42244D01*
X30513Y-42244D01*
X30514Y-42245D01*
X30541Y-42253D01*
X30567Y-42261D01*
X30569Y-42262D01*
X30570Y-42262D01*
X30598Y-42265D01*
X30625Y-42268D01*
X30628Y-42268D01*
X30628Y-42268D01*
X30628Y-42268D01*
X30629Y-42268D01*
X31515Y-42268D01*
X31563Y-42301D01*
X31639Y-42335D01*
X31721Y-42353D01*
X31804Y-42354D01*
X31886Y-42340D01*
X31964Y-42310D01*
X32034Y-42265D01*
X32094Y-42208D01*
X32142Y-42140D01*
X32176Y-42063D01*
X32195Y-41982D01*
X32196Y-41887D01*
X32180Y-41805D01*
X32148Y-41728D01*
X32102Y-41659D01*
X32043Y-41600D01*
X31974Y-41553D01*
X31897Y-41521D01*
X31816Y-41504D01*
X31732Y-41503D01*
X31651Y-41519D01*
X31628Y-41528D01*
X31597Y-41453D01*
X31551Y-41383D01*
X31492Y-41324D01*
X31423Y-41277D01*
X31346Y-41245D01*
X31265Y-41228D01*
X31224Y-41228D01*
X31203Y-41177D01*
X31157Y-41108D01*
X31098Y-41048D01*
X31029Y-41002D01*
X30988Y-40984D01*
X30988Y-40640D01*
X31435Y-40640D01*
X31447Y-40628D01*
X31447Y-40009D01*
X31439Y-40009D01*
X31439Y-39912D01*
X31447Y-39912D01*
X31447Y-39293D01*
X31435Y-39280D01*
X31103Y-39280D01*
X31566Y-38817D01*
X31568Y-38816D01*
X31569Y-38814D01*
X31569Y-38814D01*
X31570Y-38813D01*
X31605Y-38771D01*
X31634Y-38720D01*
X31651Y-38664D01*
X31658Y-38606D01*
X31658Y-38602D01*
X31658Y-38326D01*
X31688Y-38314D01*
X31758Y-38269D01*
X31819Y-38212D01*
X31854Y-38162D01*
X31864Y-38187D01*
X31909Y-38257D01*
X31967Y-38317D01*
X32035Y-38364D01*
X32112Y-38398D01*
X32193Y-38416D01*
X32276Y-38417D01*
X32358Y-38403D01*
X32436Y-38373D01*
X32507Y-38328D01*
X32567Y-38271D01*
X32615Y-38203D01*
X32649Y-38126D01*
X32665Y-38057D01*
X32713Y-38049D01*
X32790Y-38018D01*
X32861Y-37974D01*
X32921Y-37916D01*
X32969Y-37848D01*
X32991Y-37799D01*
X33020Y-37805D01*
X33103Y-37807D01*
X33185Y-37793D01*
X33263Y-37763D01*
X33333Y-37718D01*
X33372Y-37681D01*
X33964Y-37681D01*
X33982Y-37689D01*
X34063Y-37707D01*
X34146Y-37709D01*
X34229Y-37694D01*
X34306Y-37664D01*
X34377Y-37619D01*
X34437Y-37562D01*
X34485Y-37494D01*
X34519Y-37418D01*
X34537Y-37336D01*
X34539Y-37241D01*
X34539Y-42099D01*
X34485Y-42110D01*
X34408Y-42141D01*
X34338Y-42186D01*
X34305Y-42219D01*
X34050Y-42219D01*
X34083Y-42188D01*
X34131Y-42120D01*
X34165Y-42044D01*
X34183Y-41962D01*
X34184Y-41867D01*
X34168Y-41786D01*
X34136Y-41708D01*
X34090Y-41639D01*
X34032Y-41580D01*
X33962Y-41533D01*
X33886Y-41501D01*
X33804Y-41484D01*
X33721Y-41484D01*
X33661Y-41495D01*
X33222Y-41056D01*
X33222Y-40322D01*
X33245Y-40289D01*
X33279Y-40213D01*
X33297Y-40132D01*
X33299Y-40037D01*
X33282Y-39955D01*
X33251Y-39878D01*
X33204Y-39808D01*
X33146Y-39749D01*
X33077Y-39703D01*
X33000Y-39670D01*
X32918Y-39654D01*
X32835Y-39653D01*
X32753Y-39669D01*
X32676Y-39700D01*
X32606Y-39745D01*
X32546Y-39804D01*
X32499Y-39873D01*
X32466Y-39949D01*
X32449Y-40031D01*
X32448Y-40114D01*
X32463Y-40196D01*
X32494Y-40273D01*
X32525Y-40322D01*
X32525Y-40952D01*
X32520Y-40952D01*
X32438Y-40968D01*
X32361Y-40999D01*
X32291Y-41045D01*
X32231Y-41103D01*
X32184Y-41172D01*
X32175Y-41192D01*
X32175Y-40595D01*
X32175Y-40585D01*
X32175Y-40021D01*
X32175Y-39899D01*
X32175Y-39335D01*
X32175Y-39325D01*
X32174Y-39316D01*
X32170Y-39307D01*
X32164Y-39298D01*
X32157Y-39291D01*
X32149Y-39286D01*
X32140Y-39282D01*
X32130Y-39280D01*
X31556Y-39280D01*
X31544Y-39293D01*
X31544Y-39912D01*
X32163Y-39912D01*
X32175Y-39899D01*
X32175Y-40021D01*
X32163Y-40009D01*
X31544Y-40009D01*
X31544Y-40628D01*
X31556Y-40640D01*
X32130Y-40640D01*
X32140Y-40638D01*
X32149Y-40634D01*
X32157Y-40629D01*
X32164Y-40622D01*
X32170Y-40614D01*
X32174Y-40605D01*
X32175Y-40595D01*
X32175Y-41192D01*
X32151Y-41248D01*
X32134Y-41330D01*
X32133Y-41413D01*
X32148Y-41495D01*
X32179Y-41573D01*
X32224Y-41643D01*
X32282Y-41703D01*
X32350Y-41750D01*
X32427Y-41784D01*
X32508Y-41802D01*
X32559Y-41803D01*
X33488Y-42731D01*
X33510Y-42749D01*
X33531Y-42767D01*
X33532Y-42767D01*
X33533Y-42768D01*
X33558Y-42782D01*
X33582Y-42795D01*
X33584Y-42795D01*
X33585Y-42796D01*
X33611Y-42804D01*
X33638Y-42813D01*
X33639Y-42813D01*
X33641Y-42813D01*
X33669Y-42816D01*
X33696Y-42819D01*
X33699Y-42819D01*
X33699Y-42819D01*
X33699Y-42819D01*
X33700Y-42819D01*
X34305Y-42819D01*
X34329Y-42844D01*
X34397Y-42892D01*
X34474Y-42925D01*
X34555Y-42943D01*
X34639Y-42945D01*
X34721Y-42931D01*
X34798Y-42900D01*
X34869Y-42856D01*
X34929Y-42798D01*
X34977Y-42730D01*
X35011Y-42654D01*
X35029Y-42573D01*
X35031Y-42478D01*
X35031Y-48746D01*
X32789Y-48746D01*
X32789Y-47005D01*
X32772Y-46923D01*
X32740Y-46845D01*
X32694Y-46776D01*
X32635Y-46716D01*
X32566Y-46669D01*
X32488Y-46637D01*
X32406Y-46620D01*
X32323Y-46619D01*
X32240Y-46635D01*
X32163Y-46667D01*
X32093Y-46712D01*
X32033Y-46771D01*
X31986Y-46840D01*
X31953Y-46917D01*
X31935Y-46999D01*
X31934Y-47083D01*
X31949Y-47165D01*
X31980Y-47243D01*
X32025Y-47313D01*
X32083Y-47373D01*
X32152Y-47421D01*
X32229Y-47455D01*
X32311Y-47473D01*
X32394Y-47475D01*
X32477Y-47460D01*
X32555Y-47430D01*
X32626Y-47385D01*
X32686Y-47327D01*
X32735Y-47259D01*
X32769Y-47182D01*
X32787Y-47101D01*
X32789Y-47005D01*
X32789Y-48746D01*
X31057Y-48746D01*
X31057Y-47005D01*
X31040Y-46923D01*
X31008Y-46845D01*
X30962Y-46776D01*
X30903Y-46716D01*
X30834Y-46669D01*
X30756Y-46637D01*
X30674Y-46620D01*
X30591Y-46619D01*
X30508Y-46635D01*
X30431Y-46667D01*
X30361Y-46712D01*
X30301Y-46771D01*
X30254Y-46840D01*
X30221Y-46917D01*
X30203Y-46999D01*
X30202Y-47083D01*
X30217Y-47165D01*
X30248Y-47243D01*
X30293Y-47313D01*
X30351Y-47373D01*
X30420Y-47421D01*
X30497Y-47455D01*
X30579Y-47473D01*
X30662Y-47475D01*
X30745Y-47460D01*
X30823Y-47430D01*
X30894Y-47385D01*
X30954Y-47327D01*
X31003Y-47259D01*
X31037Y-47182D01*
X31055Y-47101D01*
X31057Y-47005D01*
X31057Y-48746D01*
X27828Y-48746D01*
X27828Y-18970D01*
X35163Y-18970D01*
X35163Y-48746D01*
X35163Y-48746D01*
G37*
G54D18*
X35163Y-48746D02*
X35031Y-48746D01*
X35031Y-42478D01*
X35015Y-42396D01*
X34983Y-42319D01*
X34937Y-42249D01*
X34878Y-42190D01*
X34809Y-42144D01*
X34732Y-42111D01*
X34650Y-42094D01*
X34567Y-42094D01*
X34539Y-42099D01*
X34539Y-37241D01*
X34523Y-37160D01*
X34491Y-37082D01*
X34445Y-37013D01*
X34386Y-36954D01*
X34317Y-36907D01*
X34240Y-36875D01*
X34158Y-36858D01*
X34075Y-36858D01*
X33993Y-36873D01*
X33916Y-36905D01*
X33846Y-36950D01*
X33787Y-37008D01*
X33739Y-37077D01*
X33738Y-37081D01*
X33371Y-37081D01*
X33343Y-37052D01*
X33273Y-37006D01*
X33197Y-36973D01*
X33115Y-36957D01*
X33032Y-36956D01*
X32950Y-36972D01*
X32873Y-37003D01*
X32803Y-37049D01*
X32743Y-37107D01*
X32697Y-37174D01*
X32485Y-36962D01*
X32485Y-30216D01*
X32482Y-30188D01*
X32479Y-30161D01*
X32479Y-30159D01*
X32479Y-30158D01*
X32471Y-30131D01*
X32463Y-30105D01*
X32462Y-30103D01*
X32462Y-30102D01*
X32449Y-30077D01*
X32436Y-30053D01*
X32435Y-30051D01*
X32434Y-30050D01*
X32417Y-30029D01*
X32400Y-30007D01*
X32397Y-30005D01*
X32397Y-30005D01*
X32397Y-30005D01*
X32397Y-30004D01*
X31920Y-29527D01*
X31921Y-29485D01*
X31904Y-29404D01*
X31873Y-29327D01*
X31827Y-29257D01*
X31768Y-29198D01*
X31699Y-29151D01*
X31622Y-29119D01*
X31540Y-29102D01*
X31457Y-29102D01*
X31375Y-29117D01*
X31298Y-29149D01*
X31228Y-29194D01*
X31168Y-29253D01*
X31121Y-29321D01*
X31088Y-29398D01*
X31071Y-29479D01*
X31070Y-29563D01*
X31085Y-29645D01*
X31116Y-29722D01*
X31161Y-29792D01*
X31219Y-29852D01*
X31287Y-29900D01*
X31364Y-29933D01*
X31445Y-29951D01*
X31496Y-29952D01*
X31885Y-30340D01*
X31885Y-30911D01*
X31873Y-30882D01*
X31827Y-30812D01*
X31768Y-30753D01*
X31699Y-30707D01*
X31622Y-30674D01*
X31540Y-30657D01*
X31457Y-30657D01*
X31375Y-30672D01*
X31298Y-30704D01*
X31228Y-30749D01*
X31168Y-30808D01*
X31121Y-30876D01*
X31088Y-30953D01*
X31071Y-31035D01*
X31070Y-31118D01*
X31085Y-31200D01*
X31116Y-31277D01*
X31161Y-31347D01*
X31219Y-31407D01*
X31287Y-31455D01*
X31364Y-31488D01*
X31445Y-31506D01*
X31496Y-31507D01*
X31688Y-31699D01*
X31688Y-32257D01*
X31622Y-32229D01*
X31540Y-32213D01*
X31457Y-32212D01*
X31375Y-32228D01*
X31298Y-32259D01*
X31228Y-32304D01*
X31168Y-32363D01*
X31121Y-32432D01*
X31088Y-32508D01*
X31071Y-32590D01*
X31070Y-32673D01*
X31085Y-32755D01*
X31116Y-32833D01*
X31161Y-32903D01*
X31219Y-32963D01*
X31287Y-33010D01*
X31364Y-33043D01*
X31445Y-33061D01*
X31496Y-33062D01*
X31511Y-33077D01*
X31511Y-33787D01*
X31457Y-33787D01*
X31375Y-33802D01*
X31298Y-33834D01*
X31228Y-33879D01*
X31168Y-33938D01*
X31121Y-34006D01*
X31088Y-34083D01*
X31071Y-34164D01*
X31070Y-34248D01*
X31085Y-34330D01*
X31116Y-34407D01*
X31161Y-34477D01*
X31196Y-34513D01*
X31196Y-37631D01*
X31192Y-37635D01*
X31185Y-37631D01*
X31161Y-37617D01*
X31159Y-37617D01*
X31158Y-37616D01*
X31132Y-37608D01*
X31105Y-37600D01*
X31104Y-37600D01*
X31102Y-37599D01*
X31075Y-37596D01*
X31047Y-37593D01*
X31044Y-37593D01*
X31044Y-37593D01*
X31044Y-37593D01*
X31043Y-37593D01*
X30865Y-37593D01*
X30849Y-37555D01*
X30840Y-37542D01*
X30840Y-21571D01*
X30808Y-21409D01*
X30745Y-21257D01*
X30654Y-21119D01*
X30538Y-21002D01*
X30401Y-20910D01*
X30249Y-20846D01*
X30088Y-20813D01*
X29923Y-20812D01*
X29761Y-20843D01*
X29608Y-20905D01*
X29470Y-20995D01*
X29353Y-21110D01*
X29259Y-21246D01*
X29195Y-21398D01*
X29160Y-21559D01*
X29158Y-21724D01*
X29188Y-21886D01*
X29248Y-22039D01*
X29338Y-22178D01*
X29452Y-22296D01*
X29588Y-22390D01*
X29739Y-22456D01*
X29900Y-22492D01*
X30064Y-22495D01*
X30227Y-22466D01*
X30380Y-22407D01*
X30520Y-22319D01*
X30639Y-22205D01*
X30734Y-22070D01*
X30801Y-21920D01*
X30837Y-21759D01*
X30840Y-21571D01*
X30840Y-37542D01*
X30803Y-37485D01*
X30744Y-37426D01*
X30675Y-37380D01*
X30598Y-37347D01*
X30517Y-37331D01*
X30433Y-37330D01*
X30351Y-37346D01*
X30274Y-37377D01*
X30204Y-37423D01*
X30145Y-37481D01*
X30098Y-37550D01*
X30065Y-37626D01*
X30048Y-37708D01*
X30047Y-37770D01*
X29440Y-37770D01*
X29315Y-37646D01*
X29315Y-37348D01*
X29339Y-37326D01*
X29387Y-37258D01*
X29420Y-37182D01*
X29439Y-37100D01*
X29440Y-37005D01*
X29424Y-36923D01*
X29392Y-36846D01*
X29346Y-36777D01*
X29287Y-36718D01*
X29218Y-36671D01*
X29142Y-36639D01*
X29060Y-36622D01*
X28977Y-36621D01*
X28950Y-36626D01*
X28950Y-20755D01*
X29318Y-20387D01*
X32295Y-20387D01*
X32545Y-20637D01*
X32545Y-20813D01*
X32376Y-20813D01*
X32328Y-20822D01*
X32283Y-20841D01*
X32242Y-20868D01*
X32207Y-20903D01*
X32180Y-20944D01*
X32161Y-20990D01*
X32151Y-21038D01*
X32151Y-21087D01*
X32151Y-22268D01*
X32161Y-22316D01*
X32180Y-22362D01*
X32207Y-22403D01*
X32242Y-22438D01*
X32283Y-22465D01*
X32328Y-22484D01*
X32376Y-22494D01*
X32426Y-22494D01*
X33607Y-22494D01*
X33655Y-22484D01*
X33700Y-22465D01*
X33741Y-22438D01*
X33776Y-22403D01*
X33804Y-22362D01*
X33822Y-22316D01*
X33832Y-22268D01*
X33832Y-22219D01*
X33832Y-21038D01*
X33822Y-20990D01*
X33804Y-20944D01*
X33776Y-20903D01*
X33741Y-20868D01*
X33700Y-20841D01*
X33655Y-20822D01*
X33607Y-20813D01*
X33557Y-20813D01*
X33438Y-20813D01*
X33438Y-20452D01*
X33434Y-20411D01*
X33431Y-20370D01*
X33430Y-20368D01*
X33430Y-20365D01*
X33418Y-20326D01*
X33406Y-20286D01*
X33405Y-20284D01*
X33405Y-20282D01*
X33385Y-20245D01*
X33366Y-20209D01*
X33365Y-20207D01*
X33364Y-20205D01*
X33338Y-20173D01*
X33312Y-20141D01*
X33309Y-20137D01*
X33309Y-20137D01*
X33309Y-20137D01*
X33308Y-20136D01*
X32796Y-19624D01*
X32764Y-19598D01*
X32732Y-19572D01*
X32730Y-19571D01*
X32728Y-19569D01*
X32692Y-19550D01*
X32656Y-19530D01*
X32654Y-19529D01*
X32652Y-19528D01*
X32612Y-19516D01*
X32573Y-19503D01*
X32570Y-19503D01*
X32568Y-19502D01*
X32527Y-19498D01*
X32486Y-19494D01*
X32481Y-19494D01*
X32481Y-19494D01*
X32481Y-19494D01*
X32480Y-19494D01*
X29133Y-19494D01*
X29092Y-19498D01*
X29051Y-19501D01*
X29049Y-19502D01*
X29047Y-19502D01*
X29007Y-19514D01*
X28967Y-19526D01*
X28965Y-19527D01*
X28963Y-19527D01*
X28927Y-19547D01*
X28890Y-19566D01*
X28888Y-19567D01*
X28886Y-19568D01*
X28854Y-19594D01*
X28822Y-19620D01*
X28819Y-19623D01*
X28818Y-19623D01*
X28818Y-19623D01*
X28817Y-19624D01*
X28187Y-20254D01*
X28161Y-20286D01*
X28135Y-20318D01*
X28134Y-20320D01*
X28132Y-20322D01*
X28113Y-20358D01*
X28093Y-20394D01*
X28092Y-20397D01*
X28091Y-20399D01*
X28079Y-20438D01*
X28066Y-20477D01*
X28066Y-20480D01*
X28065Y-20482D01*
X28061Y-20523D01*
X28057Y-20564D01*
X28057Y-20569D01*
X28057Y-20569D01*
X28057Y-20569D01*
X28057Y-20570D01*
X28057Y-37401D01*
X28061Y-37442D01*
X28064Y-37483D01*
X28065Y-37486D01*
X28065Y-37488D01*
X28077Y-37527D01*
X28089Y-37567D01*
X28090Y-37569D01*
X28090Y-37571D01*
X28110Y-37608D01*
X28129Y-37644D01*
X28130Y-37646D01*
X28131Y-37648D01*
X28157Y-37680D01*
X28183Y-37713D01*
X28186Y-37716D01*
X28186Y-37716D01*
X28186Y-37716D01*
X28187Y-37717D01*
X28253Y-37783D01*
X28253Y-38259D01*
X27971Y-38542D01*
X27945Y-38574D01*
X27918Y-38605D01*
X27917Y-38607D01*
X27916Y-38609D01*
X27896Y-38646D01*
X27876Y-38682D01*
X27875Y-38684D01*
X27874Y-38686D01*
X27862Y-38726D01*
X27850Y-38765D01*
X27850Y-38767D01*
X27849Y-38769D01*
X27845Y-38811D01*
X27840Y-38852D01*
X27840Y-38856D01*
X27840Y-38856D01*
X27840Y-38856D01*
X27840Y-38858D01*
X27840Y-39035D01*
X27840Y-40629D01*
X27844Y-40671D01*
X27848Y-40712D01*
X27848Y-40714D01*
X27849Y-40716D01*
X27860Y-40756D01*
X27872Y-40795D01*
X27873Y-40797D01*
X27874Y-40800D01*
X27893Y-40836D01*
X27912Y-40873D01*
X27914Y-40875D01*
X27915Y-40877D01*
X27941Y-40909D01*
X27967Y-40941D01*
X27970Y-40944D01*
X27970Y-40944D01*
X27970Y-40944D01*
X27971Y-40945D01*
X28194Y-41169D01*
X28194Y-44291D01*
X28198Y-44332D01*
X28202Y-44373D01*
X28203Y-44375D01*
X28203Y-44378D01*
X28215Y-44417D01*
X28226Y-44457D01*
X28227Y-44459D01*
X28228Y-44461D01*
X28247Y-44498D01*
X28266Y-44534D01*
X28268Y-44536D01*
X28269Y-44538D01*
X28295Y-44570D01*
X28321Y-44602D01*
X28324Y-44606D01*
X28324Y-44606D01*
X28324Y-44606D01*
X28325Y-44607D01*
X28522Y-44804D01*
X28554Y-44830D01*
X28586Y-44856D01*
X28588Y-44858D01*
X28590Y-44859D01*
X28626Y-44879D01*
X28662Y-44898D01*
X28664Y-44899D01*
X28666Y-44900D01*
X28706Y-44912D01*
X28745Y-44925D01*
X28748Y-44925D01*
X28750Y-44926D01*
X28791Y-44930D01*
X28832Y-44934D01*
X28836Y-44935D01*
X28837Y-44935D01*
X28837Y-44935D01*
X28838Y-44935D01*
X30072Y-44935D01*
X30344Y-45207D01*
X30369Y-45227D01*
X30393Y-45248D01*
X30395Y-45249D01*
X30396Y-45250D01*
X30425Y-45265D01*
X30453Y-45280D01*
X30455Y-45281D01*
X30456Y-45282D01*
X30487Y-45291D01*
X30518Y-45301D01*
X30519Y-45301D01*
X30521Y-45302D01*
X30553Y-45305D01*
X30585Y-45309D01*
X30589Y-45309D01*
X30589Y-45309D01*
X30589Y-45309D01*
X30590Y-45309D01*
X33526Y-45309D01*
X33568Y-45327D01*
X33650Y-45345D01*
X33733Y-45347D01*
X33815Y-45332D01*
X33893Y-45302D01*
X33963Y-45257D01*
X34024Y-45200D01*
X34072Y-45132D01*
X34106Y-45056D01*
X34124Y-44974D01*
X34125Y-44879D01*
X34109Y-44797D01*
X34077Y-44720D01*
X34031Y-44651D01*
X33973Y-44592D01*
X33903Y-44545D01*
X33827Y-44513D01*
X33745Y-44496D01*
X33662Y-44495D01*
X33580Y-44511D01*
X33502Y-44542D01*
X33433Y-44588D01*
X33408Y-44612D01*
X30734Y-44612D01*
X30564Y-44442D01*
X30564Y-44015D01*
X30560Y-43974D01*
X30557Y-43933D01*
X30556Y-43931D01*
X30556Y-43928D01*
X30544Y-43889D01*
X30533Y-43849D01*
X30531Y-43847D01*
X30531Y-43845D01*
X30511Y-43809D01*
X30492Y-43772D01*
X30491Y-43770D01*
X30490Y-43768D01*
X30464Y-43736D01*
X30438Y-43704D01*
X30435Y-43700D01*
X30435Y-43700D01*
X30435Y-43700D01*
X30434Y-43699D01*
X30053Y-43318D01*
X30053Y-42310D01*
X30067Y-42313D01*
X30150Y-42315D01*
X30232Y-42301D01*
X30310Y-42270D01*
X30381Y-42226D01*
X30423Y-42185D01*
X30439Y-42198D01*
X30460Y-42216D01*
X30461Y-42216D01*
X30463Y-42217D01*
X30487Y-42230D01*
X30511Y-42244D01*
X30513Y-42244D01*
X30514Y-42245D01*
X30541Y-42253D01*
X30567Y-42261D01*
X30569Y-42262D01*
X30570Y-42262D01*
X30598Y-42265D01*
X30625Y-42268D01*
X30628Y-42268D01*
X30628Y-42268D01*
X30628Y-42268D01*
X30629Y-42268D01*
X31515Y-42268D01*
X31563Y-42301D01*
X31639Y-42335D01*
X31721Y-42353D01*
X31804Y-42354D01*
X31886Y-42340D01*
X31964Y-42310D01*
X32034Y-42265D01*
X32094Y-42208D01*
X32142Y-42140D01*
X32176Y-42063D01*
X32195Y-41982D01*
X32196Y-41887D01*
X32180Y-41805D01*
X32148Y-41728D01*
X32102Y-41659D01*
X32043Y-41600D01*
X31974Y-41553D01*
X31897Y-41521D01*
X31816Y-41504D01*
X31732Y-41503D01*
X31651Y-41519D01*
X31628Y-41528D01*
X31597Y-41453D01*
X31551Y-41383D01*
X31492Y-41324D01*
X31423Y-41277D01*
X31346Y-41245D01*
X31265Y-41228D01*
X31224Y-41228D01*
X31203Y-41177D01*
X31157Y-41108D01*
X31098Y-41048D01*
X31029Y-41002D01*
X30988Y-40984D01*
X30988Y-40640D01*
X31435Y-40640D01*
X31447Y-40628D01*
X31447Y-40009D01*
X31439Y-40009D01*
X31439Y-39912D01*
X31447Y-39912D01*
X31447Y-39293D01*
X31435Y-39280D01*
X31103Y-39280D01*
X31566Y-38817D01*
X31568Y-38816D01*
X31569Y-38814D01*
X31569Y-38814D01*
X31570Y-38813D01*
X31605Y-38771D01*
X31634Y-38720D01*
X31651Y-38664D01*
X31658Y-38606D01*
X31658Y-38602D01*
X31658Y-38326D01*
X31688Y-38314D01*
X31758Y-38269D01*
X31819Y-38212D01*
X31854Y-38162D01*
X31864Y-38187D01*
X31909Y-38257D01*
X31967Y-38317D01*
X32035Y-38364D01*
X32112Y-38398D01*
X32193Y-38416D01*
X32276Y-38417D01*
X32358Y-38403D01*
X32436Y-38373D01*
X32507Y-38328D01*
X32567Y-38271D01*
X32615Y-38203D01*
X32649Y-38126D01*
X32665Y-38057D01*
X32713Y-38049D01*
X32790Y-38018D01*
X32861Y-37974D01*
X32921Y-37916D01*
X32969Y-37848D01*
X32991Y-37799D01*
X33020Y-37805D01*
X33103Y-37807D01*
X33185Y-37793D01*
X33263Y-37763D01*
X33333Y-37718D01*
X33372Y-37681D01*
X33964Y-37681D01*
X33982Y-37689D01*
X34063Y-37707D01*
X34146Y-37709D01*
X34229Y-37694D01*
X34306Y-37664D01*
X34377Y-37619D01*
X34437Y-37562D01*
X34485Y-37494D01*
X34519Y-37418D01*
X34537Y-37336D01*
X34539Y-37241D01*
X34539Y-42099D01*
X34485Y-42110D01*
X34408Y-42141D01*
X34338Y-42186D01*
X34305Y-42219D01*
X34050Y-42219D01*
X34083Y-42188D01*
X34131Y-42120D01*
X34165Y-42044D01*
X34183Y-41962D01*
X34184Y-41867D01*
X34168Y-41786D01*
X34136Y-41708D01*
X34090Y-41639D01*
X34032Y-41580D01*
X33962Y-41533D01*
X33886Y-41501D01*
X33804Y-41484D01*
X33721Y-41484D01*
X33661Y-41495D01*
X33222Y-41056D01*
X33222Y-40322D01*
X33245Y-40289D01*
X33279Y-40213D01*
X33297Y-40132D01*
X33299Y-40037D01*
X33282Y-39955D01*
X33251Y-39878D01*
X33204Y-39808D01*
X33146Y-39749D01*
X33077Y-39703D01*
X33000Y-39670D01*
X32918Y-39654D01*
X32835Y-39653D01*
X32753Y-39669D01*
X32676Y-39700D01*
X32606Y-39745D01*
X32546Y-39804D01*
X32499Y-39873D01*
X32466Y-39949D01*
X32449Y-40031D01*
X32448Y-40114D01*
X32463Y-40196D01*
X32494Y-40273D01*
X32525Y-40322D01*
X32525Y-40952D01*
X32520Y-40952D01*
X32438Y-40968D01*
X32361Y-40999D01*
X32291Y-41045D01*
X32231Y-41103D01*
X32184Y-41172D01*
X32175Y-41192D01*
X32175Y-40595D01*
X32175Y-40585D01*
X32175Y-40021D01*
X32175Y-39899D01*
X32175Y-39335D01*
X32175Y-39325D01*
X32174Y-39316D01*
X32170Y-39307D01*
X32164Y-39298D01*
X32157Y-39291D01*
X32149Y-39286D01*
X32140Y-39282D01*
X32130Y-39280D01*
X31556Y-39280D01*
X31544Y-39293D01*
X31544Y-39912D01*
X32163Y-39912D01*
X32175Y-39899D01*
X32175Y-40021D01*
X32163Y-40009D01*
X31544Y-40009D01*
X31544Y-40628D01*
X31556Y-40640D01*
X32130Y-40640D01*
X32140Y-40638D01*
X32149Y-40634D01*
X32157Y-40629D01*
X32164Y-40622D01*
X32170Y-40614D01*
X32174Y-40605D01*
X32175Y-40595D01*
X32175Y-41192D01*
X32151Y-41248D01*
X32134Y-41330D01*
X32133Y-41413D01*
X32148Y-41495D01*
X32179Y-41573D01*
X32224Y-41643D01*
X32282Y-41703D01*
X32350Y-41750D01*
X32427Y-41784D01*
X32508Y-41802D01*
X32559Y-41803D01*
X33488Y-42731D01*
X33510Y-42749D01*
X33531Y-42767D01*
X33532Y-42767D01*
X33533Y-42768D01*
X33558Y-42782D01*
X33582Y-42795D01*
X33584Y-42795D01*
X33585Y-42796D01*
X33611Y-42804D01*
X33638Y-42813D01*
X33639Y-42813D01*
X33641Y-42813D01*
X33669Y-42816D01*
X33696Y-42819D01*
X33699Y-42819D01*
X33699Y-42819D01*
X33699Y-42819D01*
X33700Y-42819D01*
X34305Y-42819D01*
X34329Y-42844D01*
X34397Y-42892D01*
X34474Y-42925D01*
X34555Y-42943D01*
X34639Y-42945D01*
X34721Y-42931D01*
X34798Y-42900D01*
X34869Y-42856D01*
X34929Y-42798D01*
X34977Y-42730D01*
X35011Y-42654D01*
X35029Y-42573D01*
X35031Y-42478D01*
X35031Y-48746D01*
X32789Y-48746D01*
X32789Y-47005D01*
X32772Y-46923D01*
X32740Y-46845D01*
X32694Y-46776D01*
X32635Y-46716D01*
X32566Y-46669D01*
X32488Y-46637D01*
X32406Y-46620D01*
X32323Y-46619D01*
X32240Y-46635D01*
X32163Y-46667D01*
X32093Y-46712D01*
X32033Y-46771D01*
X31986Y-46840D01*
X31953Y-46917D01*
X31935Y-46999D01*
X31934Y-47083D01*
X31949Y-47165D01*
X31980Y-47243D01*
X32025Y-47313D01*
X32083Y-47373D01*
X32152Y-47421D01*
X32229Y-47455D01*
X32311Y-47473D01*
X32394Y-47475D01*
X32477Y-47460D01*
X32555Y-47430D01*
X32626Y-47385D01*
X32686Y-47327D01*
X32735Y-47259D01*
X32769Y-47182D01*
X32787Y-47101D01*
X32789Y-47005D01*
X32789Y-48746D01*
X31057Y-48746D01*
X31057Y-47005D01*
X31040Y-46923D01*
X31008Y-46845D01*
X30962Y-46776D01*
X30903Y-46716D01*
X30834Y-46669D01*
X30756Y-46637D01*
X30674Y-46620D01*
X30591Y-46619D01*
X30508Y-46635D01*
X30431Y-46667D01*
X30361Y-46712D01*
X30301Y-46771D01*
X30254Y-46840D01*
X30221Y-46917D01*
X30203Y-46999D01*
X30202Y-47083D01*
X30217Y-47165D01*
X30248Y-47243D01*
X30293Y-47313D01*
X30351Y-47373D01*
X30420Y-47421D01*
X30497Y-47455D01*
X30579Y-47473D01*
X30662Y-47475D01*
X30745Y-47460D01*
X30823Y-47430D01*
X30894Y-47385D01*
X30954Y-47327D01*
X31003Y-47259D01*
X31037Y-47182D01*
X31055Y-47101D01*
X31057Y-47005D01*
X31057Y-48746D01*
X27828Y-48746D01*
X27828Y-18970D01*
X35163Y-18970D01*
X35163Y-48746D01*
M02*
